<svg width="21" height="19" viewBox="0 0 21 19" fill="none" xmlns="http://www.w3.org/2000/svg">
<mask id="mask0_283_2846" style="mask-type:alpha" maskUnits="userSpaceOnUse" x="-4" y="-6" width="29" height="29">
<rect x="-3.5" y="-5.83337" width="28" height="28" fill="#9997FC"/>
</mask>
<g mask="url(#mask0_283_2846)">
<path d="M3.5 16.3333V17.5C3.5 17.8306 3.38839 18.1074 3.16517 18.3307C2.94117 18.5547 2.66389 18.6667 2.33333 18.6667H1.16667C0.836111 18.6667 0.559222 18.5547 0.336 18.3307C0.112 18.1074 0 17.8306 0 17.5V8.16667L2.45 1.16667C2.56667 0.816667 2.77589 0.534722 3.07767 0.320833C3.37867 0.106945 3.71389 0 4.08333 0H16.9167C17.2861 0 17.6217 0.106945 17.9235 0.320833C18.2245 0.534722 18.4333 0.816667 18.55 1.16667L21 8.16667V17.5C21 17.8306 20.888 18.1074 20.664 18.3307C20.4408 18.5547 20.1639 18.6667 19.8333 18.6667H18.6667C18.3361 18.6667 18.0592 18.5547 17.836 18.3307C17.612 18.1074 17.5 17.8306 17.5 17.5V16.3333H3.5ZM3.26667 5.83333H17.7333L16.5083 2.33333H4.49167L3.26667 5.83333ZM5.25 12.8333C5.73611 12.8333 6.14911 12.663 6.489 12.3223C6.82967 11.9824 7 11.5694 7 11.0833C7 10.5972 6.82967 10.1842 6.489 9.84433C6.14911 9.50367 5.73611 9.33333 5.25 9.33333C4.76389 9.33333 4.35089 9.50367 4.011 9.84433C3.67033 10.1842 3.5 10.5972 3.5 11.0833C3.5 11.5694 3.67033 11.9824 4.011 12.3223C4.35089 12.663 4.76389 12.8333 5.25 12.8333ZM15.75 12.8333C16.2361 12.8333 16.6491 12.663 16.989 12.3223C17.3297 11.9824 17.5 11.5694 17.5 11.0833C17.5 10.5972 17.3297 10.1842 16.989 9.84433C16.6491 9.50367 16.2361 9.33333 15.75 9.33333C15.2639 9.33333 14.8509 9.50367 14.511 9.84433C14.1703 10.1842 14 10.5972 14 11.0833C14 11.5694 14.1703 11.9824 14.511 12.3223C14.8509 12.663 15.2639 12.8333 15.75 12.8333Z" fill="#9997FC"/>
</g>
</svg>
