<svg width="34" height="34" viewBox="0 0 34 34" fill="none" xmlns="http://www.w3.org/2000/svg">
<rect width="34" height="34" rx="6" fill="#69B935"/>
<mask id="mask0_250_25" style="mask-type:alpha" maskUnits="userSpaceOnUse" x="6" y="6" width="24" height="24">
<rect x="6" y="6" width="24" height="24" fill="#D9D9D9"/>
</mask>
<g mask="url(#mask0_250_25)">
<path d="M25.6 27L19.3 20.7C18.8 21.1 18.225 21.4167 17.575 21.65C16.925 21.8833 16.2333 22 15.5 22C13.6833 22 12.146 21.371 10.888 20.113C9.62933 18.8543 9 17.3167 9 15.5C9 13.6833 9.62933 12.1457 10.888 10.887C12.146 9.629 13.6833 9 15.5 9C17.3167 9 18.8543 9.629 20.113 10.887C21.371 12.1457 22 13.6833 22 15.5C22 16.2333 21.8833 16.925 21.65 17.575C21.4167 18.225 21.1 18.8 20.7 19.3L27 25.6L25.6 27ZM15.5 20C16.75 20 17.8127 19.5627 18.688 18.688C19.5627 17.8127 20 16.75 20 15.5C20 14.25 19.5627 13.1873 18.688 12.312C17.8127 11.4373 16.75 11 15.5 11C14.25 11 13.1873 11.4373 12.312 12.312C11.4373 13.1873 11 14.25 11 15.5C11 16.75 11.4373 17.8127 12.312 18.688C13.1873 19.5627 14.25 20 15.5 20Z" fill="white"/>
</g>
</svg>
