<svg width="9" height="11" viewBox="0 0 9 11" fill="none" xmlns="http://www.w3.org/2000/svg">
<mask id="mask0_283_2870" style="mask-type:alpha" maskUnits="userSpaceOnUse" x="-3" y="-2" width="14" height="15">
<rect x="-2.20007" y="-1.10004" width="13.2" height="13.2" fill="#9997FC"/>
</mask>
<g mask="url(#mask0_283_2870)">
<path d="M4.39998 5.49998C4.70248 5.49998 4.96153 5.39218 5.17713 5.17658C5.39236 4.96135 5.49998 4.70248 5.49998 4.39998C5.49998 4.09748 5.39236 3.83844 5.17713 3.62284C4.96153 3.4076 4.70248 3.29999 4.39998 3.29999C4.09748 3.29999 3.83862 3.4076 3.62339 3.62284C3.40779 3.83844 3.29999 4.09748 3.29999 4.39998C3.29999 4.70248 3.40779 4.96135 3.62339 5.17658C3.83862 5.39218 4.09748 5.49998 4.39998 5.49998ZM4.39998 11C2.92416 9.74413 1.82196 8.57758 1.0934 7.50032C0.364465 6.42343 0 5.42665 0 4.50998C0 3.13499 0.442382 2.03958 1.32715 1.22375C2.21154 0.407915 3.23582 0 4.39998 0C5.56415 0 6.58843 0.407915 7.47282 1.22375C8.35759 2.03958 8.79997 3.13499 8.79997 4.50998C8.79997 5.42665 8.43569 6.42343 7.70712 7.50032C6.97819 8.57758 5.87581 9.74413 4.39998 11Z" fill="#9997FC"/>
</g>
</svg>
