<svg width="14" height="22" viewBox="0 0 14 22" fill="none" xmlns="http://www.w3.org/2000/svg">
<mask id="mask0_250_63" style="mask-type:alpha" maskUnits="userSpaceOnUse" x="-5" y="-1" width="24" height="24">
<rect x="-5" y="-1" width="24" height="24" fill="#D9D9D9"/>
</mask>
<g mask="url(#mask0_250_63)">
<path d="M3 8V6H11V8H3ZM2 22C1.45 22 0.979333 21.8043 0.588 21.413C0.196 21.021 0 20.55 0 20V2C0 1.45 0.196 0.979 0.588 0.587C0.979333 0.195667 1.45 0 2 0H12C12.55 0 13.021 0.195667 13.413 0.587C13.8043 0.979 14 1.45 14 2V20C14 20.55 13.8043 21.021 13.413 21.413C13.021 21.8043 12.55 22 12 22H2ZM2 17H12V5H2V17Z" fill="white"/>
</g>
</svg>
