<svg width="19" height="12" viewBox="0 0 19 12" fill="none" xmlns="http://www.w3.org/2000/svg">
<path fill-rule="evenodd" clip-rule="evenodd" d="M0.54068 0.257186C0.47144 0.311546 0.384053 0.404962 0.346427 0.464773C0.308844 0.524604 0.268175 0.577573 0.256023 0.582523C0.235749 0.590783 0.109175 0.899952 0.0727637 1.03016C0.0641735 1.06084 0.0576509 1.18494 0.0582679 1.30591C0.0588851 1.42687 0.0519152 1.57848 0.0427893 1.64281C0.0336326 1.70715 0.033952 1.77901 0.0434509 1.80251C0.0529498 1.826 0.0546886 1.92514 0.0473258 2.02276C0.0399759 2.12041 0.0386682 2.26384 0.0444098 2.3415C0.0501954 2.41919 0.0491501 2.49333 0.0421521 2.50629C0.0351539 2.51924 0.0341621 2.61882 0.0399969 2.72756C0.0458001 2.83631 0.0447521 3.00442 0.0376821 3.10116C0.0305808 3.1979 0.0318368 3.29433 0.0404357 3.31544C0.0490345 3.33654 0.0500236 3.4164 0.0426098 3.49289C0.0351957 3.56937 0.0330872 3.71298 0.0378915 3.81203C0.0427271 3.91108 0.0403783 4.00295 0.0326617 4.01619C0.0249763 4.02943 0.0248239 4.1452 0.0323441 4.27345C0.0398642 4.40171 0.0401007 4.52559 0.0329144 4.54872C0.025728 4.57185 0.0259643 4.69572 0.0334845 4.82398C0.0410049 4.95224 0.0401343 5.0683 0.0315742 5.08189C0.0230141 5.09548 0.0221431 5.21154 0.0296635 5.33979C0.0371837 5.46805 0.0382324 5.5916 0.0320147 5.61433C0.0257966 5.63707 0.0261708 5.76504 0.0328877 5.89866C0.0395736 6.03228 0.0343915 6.14599 0.0213648 6.1513C0.00833827 6.1566 0.00612497 6.18175 0.0164691 6.20714C0.0342186 6.25071 0.0352126 6.32227 0.0231207 6.68563C0.0203598 6.76889 0.0224175 6.84761 0.0276922 6.86056C0.0329669 6.87351 0.0339642 6.97118 0.0299064 7.07763C0.0161796 7.4385 0.0175843 7.55103 0.0364503 7.59734C0.0467945 7.62274 0.0427382 7.64863 0.0273999 7.65488C0.0120928 7.66112 0.00598903 7.70908 0.0138045 7.76143C0.0216511 7.81378 0.0236151 7.95763 0.0182031 8.08105C0.0127596 8.20449 0.0164521 8.38066 0.0264021 8.47259C0.0363832 8.56451 0.0346637 8.64371 0.0226367 8.64861C0.0106097 8.6535 0.00811701 8.76505 0.0170711 8.89647C0.0260254 9.02789 0.0267039 9.18879 0.0185584 9.25401C0.0104132 9.31922 0.0123338 9.44759 0.0227839 9.53931C0.0332648 9.63103 0.0319829 9.71005 0.0199247 9.71496C0.00786644 9.71987 0.00404935 9.80823 0.0114242 9.91127C0.0187987 10.0143 0.0179938 10.1097 0.00968366 10.1232C0.00134233 10.1367 -0.00230703 10.1795 0.00159534 10.2183C0.0153097 10.3559 0.0234021 10.6152 0.0179365 10.7416C0.00626873 11.0098 0.323667 11.4798 0.630677 11.6489C0.901271 11.798 1.30162 11.8695 1.6814 11.8365C1.76366 11.8294 1.83476 11.8329 1.83943 11.8444C1.84411 11.8559 1.93525 11.8583 2.04197 11.8498C2.14867 11.8413 2.2397 11.8435 2.24426 11.8547C2.2488 11.8658 2.32704 11.8668 2.41813 11.8568C2.50925 11.8468 2.63773 11.8458 2.70372 11.8545C2.76971 11.8633 2.92646 11.8659 3.05203 11.8602C3.17761 11.8545 3.29117 11.8563 3.30436 11.8641C3.31756 11.8719 3.39965 11.8722 3.48679 11.8649C3.63072 11.8527 3.86681 11.8557 4.27397 11.8749C4.35567 11.8787 4.50213 11.8769 4.59943 11.8707C4.69677 11.8646 4.78765 11.8664 4.8014 11.8748C4.81518 11.8831 4.91458 11.885 5.02227 11.8789C5.12996 11.8728 5.25323 11.8736 5.29619 11.8807C5.33915 11.8878 5.47846 11.8881 5.6058 11.8815C5.73311 11.8748 5.84834 11.876 5.86186 11.8842C5.87534 11.8923 5.97474 11.8945 6.08273 11.8892C6.1907 11.8837 6.31432 11.8854 6.35741 11.8929C6.4005 11.9003 6.52684 11.8986 6.6382 11.8892C6.74954 11.8797 6.84487 11.8824 6.85005 11.8951C6.85523 11.9079 6.97024 11.9089 7.10563 11.8975C7.24099 11.886 7.36393 11.8856 7.3788 11.8966C7.39371 11.9075 7.50939 11.9099 7.63592 11.9019C7.76244 11.894 7.87796 11.8962 7.89262 11.907C7.90729 11.9178 8.01036 11.919 8.1217 11.9096C8.23301 11.9002 8.33507 11.8993 8.34844 11.9075C8.36183 11.9158 8.47751 11.9181 8.60552 11.9127C8.73352 11.9073 8.87253 11.91 8.91442 11.9188C8.95631 11.9276 9.07911 11.9272 9.18732 11.9181C9.29553 11.909 9.39462 11.9073 9.40755 11.9145C9.42046 11.9216 9.51183 11.9246 9.61056 11.9211C9.79211 11.9147 9.99907 11.9183 10.2709 11.9326C10.3528 11.9369 10.5167 11.9371 10.6353 11.9331C10.7538 11.929 10.8616 11.9322 10.8749 11.9402C10.8882 11.9482 10.9876 11.9472 11.0958 11.9381C11.204 11.929 11.3269 11.9289 11.3689 11.9379C11.4109 11.947 11.5575 11.9482 11.6947 11.9407C11.8318 11.9332 11.9549 11.9334 11.968 11.9412C11.9812 11.949 12.0717 11.9508 12.169 11.9451C12.2664 11.9394 12.3651 11.9403 12.3884 11.947C12.4116 11.9537 12.5276 11.9563 12.6461 11.9526C12.7645 11.9489 12.8803 11.9514 12.9032 11.958C12.9262 11.9647 13.0491 11.9643 13.1763 11.9573C13.3034 11.9502 13.4185 11.9511 13.432 11.9593C13.4455 11.9674 13.5449 11.9697 13.6529 11.9643C13.7609 11.9589 13.8843 11.9601 13.9272 11.967C13.97 11.9738 14.0932 11.9745 14.2009 11.9683C14.3086 11.9622 14.4086 11.9645 14.4231 11.9735C14.4376 11.9824 14.5474 11.9823 14.6669 11.9733C14.7865 11.9643 14.9251 11.9645 14.9751 11.9737C15.025 11.983 15.157 11.9828 15.2683 11.9733C15.3797 11.9639 15.475 11.9666 15.4802 11.9793C15.4854 11.992 15.6004 11.9931 15.7358 11.9816C15.8711 11.9702 15.9941 11.9698 16.009 11.9808C16.0239 11.9917 16.1197 11.9951 16.2218 11.9882C16.324 11.9814 16.442 11.9835 16.4842 11.9928C16.5263 12.0022 16.6493 12.0024 16.7575 11.9933C16.8657 11.9841 16.9654 11.9838 16.979 11.9926C17.0125 12.0143 17.4443 11.9836 17.5158 11.9545C17.5473 11.9417 17.5789 11.9453 17.5859 11.9627C17.6013 12.0004 17.8592 11.901 17.8866 11.8469C17.8972 11.8261 17.9755 11.7589 18.0607 11.6976C18.3389 11.4975 18.5456 11.0499 18.5338 10.6733C18.5307 10.5753 18.5334 10.4761 18.5398 10.4528C18.5463 10.4295 18.5461 10.3304 18.5394 10.2326C18.5327 10.1348 18.53 9.98756 18.5334 9.90538C18.55 9.49586 18.5516 9.25834 18.5387 9.11346C18.5308 9.02574 18.5308 8.94311 18.5386 8.92984C18.5463 8.91657 18.5481 8.80016 18.5424 8.67117C18.5366 8.54218 18.5381 8.38454 18.5457 8.32086C18.5532 8.25717 18.5508 8.13004 18.5404 8.03834C18.5299 7.94666 18.53 7.86808 18.5407 7.86374C18.5513 7.85941 18.5545 7.76719 18.5478 7.65879C18.5411 7.55041 18.5468 7.45719 18.5604 7.45164C18.574 7.44609 18.5767 7.42076 18.5664 7.39536C18.5487 7.35192 18.5471 7.28443 18.5555 6.921C18.5574 6.83941 18.5557 6.69137 18.5516 6.592C18.5475 6.49265 18.55 6.40074 18.557 6.38779C18.564 6.37483 18.5618 6.27512 18.552 6.16621C18.5423 6.05728 18.5418 5.93353 18.5509 5.89119C18.5599 5.84885 18.5613 5.73009 18.5539 5.62729C18.5465 5.52447 18.5492 5.42814 18.56 5.41319C18.5709 5.39828 18.5698 5.27471 18.5576 5.13862C18.5454 5.00252 18.5443 4.879 18.5551 4.8641C18.5659 4.84916 18.5676 4.73279 18.5589 4.60545C18.5503 4.4781 18.552 4.36173 18.5628 4.34679C18.5736 4.33189 18.5724 4.2082 18.5603 4.07195C18.5481 3.93567 18.5484 3.81997 18.5611 3.81482C18.5737 3.8097 18.5763 3.7141 18.5669 3.60241C18.5575 3.4907 18.5557 3.36333 18.5629 3.31937C18.57 3.27538 18.5704 3.15073 18.5637 3.04235C18.557 2.93397 18.5583 2.83398 18.5665 2.82016C18.5747 2.80638 18.576 2.71495 18.5693 2.61698C18.5627 2.51905 18.5599 2.3717 18.5633 2.28952C18.5799 1.87999 18.5816 1.64248 18.5686 1.4976C18.5607 1.40988 18.5648 1.32204 18.5777 1.30239C18.5911 1.28191 18.5502 1.1416 18.4819 0.974087C18.3891 0.74612 18.3437 0.669215 18.2763 0.625863C18.2288 0.595291 18.1821 0.551068 18.1726 0.527598C18.1349 0.435226 17.7639 0.240166 17.5349 0.192356C17.4037 0.164971 17.2816 0.148502 17.2637 0.155794C17.2458 0.163086 17.1494 0.162634 17.0493 0.154778C16.9493 0.146954 16.8005 0.147108 16.7187 0.15511C16.6368 0.163156 16.565 0.157779 16.559 0.143193C16.5531 0.128606 16.5276 0.125065 16.5024 0.135322C16.4565 0.154029 16.3447 0.154776 15.9859 0.138831C15.8801 0.134119 15.783 0.134544 15.7701 0.139774C15.7573 0.145004 15.6791 0.14661 15.5963 0.143339C15.235 0.129024 15.1639 0.129599 15.1207 0.147199C15.0955 0.157456 15.0705 0.155081 15.0652 0.141944C15.0598 0.128806 14.9468 0.12292 14.814 0.128856C14.6812 0.134823 14.554 0.134443 14.5314 0.128052C14.5087 0.121662 14.386 0.121987 14.2585 0.128795C14.1311 0.135602 14.0157 0.134038 14.0021 0.125314C13.9886 0.116621 13.8899 0.115884 13.7829 0.123695C13.676 0.131537 13.5337 0.129157 13.4669 0.118469C13.4001 0.107782 13.328 0.106103 13.3068 0.114757C13.2855 0.12341 13.189 0.124004 13.0923 0.116049C12.9956 0.108094 12.8292 0.107589 12.7224 0.114944C12.6156 0.122299 12.508 0.122445 12.4833 0.115235C12.4586 0.108038 12.3686 0.105298 12.2832 0.109148C12.1979 0.112997 12.0599 0.112912 11.9767 0.108949C11.8935 0.105019 11.7521 0.102951 11.6625 0.104392C11.4862 0.107227 11.4094 0.105457 11.0282 0.0898718C10.8906 0.0842394 10.7605 0.0867014 10.7391 0.0953685C10.7176 0.104035 10.6471 0.102333 10.5824 0.0916002C10.5177 0.0808361 10.3774 0.0776351 10.2706 0.0844284C10.1639 0.091222 10.0002 0.0913385 9.90692 0.0846653C9.81366 0.0779924 9.66279 0.0805696 9.57162 0.0904141C9.48049 0.100246 9.40169 0.0979659 9.39653 0.0853012C9.39137 0.0726362 9.29982 0.0691941 9.19308 0.0776341C9.08635 0.086106 8.9943 0.0814342 8.98853 0.0672572C8.98276 0.0531116 8.95742 0.0499178 8.93224 0.060175C8.88698 0.0786144 8.78394 0.0795213 8.42288 0.0645805C8.32099 0.0603535 8.17059 0.0633649 8.08868 0.0712409C8.00675 0.0790856 7.93485 0.0736265 7.92891 0.0590399C7.92297 0.0444532 7.89749 0.0409119 7.87231 0.051169C7.82782 0.0692904 7.71049 0.0706936 7.39589 0.0568815C7.31208 0.0532238 7.2336 0.0542293 7.22154 0.0591418C7.20945 0.0640664 7.11297 0.06425 7.00714 0.0595379C6.64836 0.0435921 6.53651 0.0443401 6.49059 0.0630469C6.46541 0.073304 6.44007 0.0701092 6.43431 0.0559638C6.42854 0.0417866 6.33268 0.0377851 6.22125 0.047068C6.10983 0.0563505 5.96645 0.0563914 5.90261 0.0472075C5.83876 0.0379923 5.69562 0.0386319 5.58449 0.0486395C5.47336 0.058647 5.37829 0.0565663 5.37318 0.0440275C5.36806 0.0314571 5.27457 0.0282553 5.16543 0.0368993C5.05627 0.0455558 4.91204 0.043517 4.84488 0.0323443C4.77773 0.0212032 4.70451 0.0194781 4.68217 0.0285015C4.65984 0.0375246 4.57061 0.0397533 4.48387 0.033468C4.39712 0.0271511 4.22985 0.0270087 4.11213 0.0330888C3.99441 0.0391687 3.87931 0.0387087 3.85631 0.0320609C3.83332 0.0254133 3.71759 0.0229684 3.59914 0.026628C3.48069 0.0302878 3.36471 0.0277619 3.34143 0.0210457C3.31817 0.0142854 3.21947 0.0134229 3.1221 0.0191118C3.02476 0.0247878 2.93436 0.0231901 2.92126 0.0156002C2.90815 0.00801015 2.809 0.00604546 2.70095 0.0112722C2.59289 0.0164675 2.42578 0.0144186 2.32959 0.00673312C2.23339 -0.000983663 2.13562 0.000422026 2.11232 0.00983983C2.08902 0.0192575 2.01755 0.0190595 1.95349 0.00934011C1.88945 -0.00034776 1.7248 -0.00218366 1.5876 0.00525622C1.4504 0.0126961 1.29882 0.0113766 1.25075 0.00227149C1.1296 -0.0206297 0.696464 0.134878 0.54068 0.257186ZM1.68543 2.07904C1.77366 2.07469 1.86457 2.07656 1.88743 2.08315C1.91031 2.08977 2.01822 2.09279 2.12722 2.0899C2.23621 2.08697 2.38394 2.08751 2.4555 2.09105C2.96093 2.11613 2.97012 2.12377 3.08786 2.61673C3.13501 2.81403 3.17321 3.00865 3.1728 3.04922C3.17239 3.0898 3.19716 3.22847 3.22783 3.3574C3.2585 3.48633 3.29142 3.63234 3.30094 3.6819C3.31394 3.74949 3.39915 3.5724 3.64167 2.97374C3.81951 2.5347 3.98905 2.16024 4.01841 2.14156C4.0732 2.10671 4.16375 2.1009 4.48537 2.11164C4.58691 2.11502 4.69803 2.11618 4.7323 2.11427C4.83833 2.10828 4.84979 2.227 4.75912 2.39176C4.71173 2.47785 4.50409 2.95184 4.29768 3.44502C4.09127 3.9382 3.91118 4.34641 3.89748 4.35211C3.88375 4.35785 3.8292 4.47098 3.77626 4.60352C3.72329 4.7361 3.66346 4.85128 3.64324 4.85951C3.62303 4.86775 3.54658 4.86793 3.47329 4.85995C3.40003 4.85196 3.24712 4.85276 3.13347 4.86177C3.01983 4.87078 2.91074 4.86086 2.89102 4.83972C2.84391 4.78916 2.37751 3.23744 2.39286 3.18222C2.39937 3.15878 2.35655 2.99366 2.29773 2.8153L2.19073 2.49104L1.8399 2.35656C1.51644 2.23259 1.38846 2.1407 1.48581 2.1024C1.5074 2.0939 1.59721 2.08339 1.68543 2.07904ZM5.29773 2.11123C5.38235 2.10706 5.49028 2.11048 5.53756 2.1188C5.58488 2.12712 5.66593 2.12723 5.71766 2.11905C5.84628 2.09868 5.87327 2.18345 5.81574 2.42684C5.79 2.53577 5.77546 2.64091 5.78343 2.66048C5.79141 2.68007 5.78626 2.70087 5.77198 2.70668C5.75771 2.7125 5.74239 2.76421 5.73796 2.82156C5.7335 2.87892 5.71492 3.00105 5.69666 3.09294C5.67837 3.18484 5.66902 3.27372 5.67582 3.29042C5.68263 3.30715 5.66691 3.36843 5.64086 3.42661C5.61484 3.48478 5.59909 3.5467 5.60586 3.56422C5.61266 3.58172 5.59744 3.68589 5.57205 3.79567C5.54667 3.90548 5.53031 4.00615 5.53571 4.01941C5.5411 4.03264 5.51458 4.18883 5.47677 4.36649C5.43896 4.54414 5.41326 4.70234 5.41966 4.71803C5.42605 4.73372 5.41707 4.77338 5.39975 4.80615C5.36497 4.87178 5.19534 4.8986 4.93888 4.87899C4.86651 4.87346 4.76249 4.86963 4.70777 4.87047C4.57639 4.87253 4.55631 4.80886 4.61435 4.57411C4.64084 4.46701 4.65748 4.36704 4.65134 4.35198C4.64521 4.33692 4.66095 4.23475 4.68635 4.12497C4.71173 4.01515 4.72485 3.90655 4.71551 3.88362C4.70617 3.86068 4.71229 3.83629 4.72913 3.82943C4.74594 3.82259 4.76559 3.74431 4.7728 3.65553C4.77998 3.56676 4.79958 3.43891 4.81633 3.37148C4.83311 3.30404 4.84538 3.22051 4.84362 3.18589C4.84186 3.15126 4.85396 3.11739 4.87052 3.11065C4.88707 3.1039 4.89727 3.06258 4.89312 3.01879C4.88898 2.975 4.89968 2.88388 4.91693 2.81624C4.93415 2.74862 4.95331 2.63337 4.95946 2.56015C4.97712 2.35027 5.03698 2.16121 5.09276 2.13908C5.12088 2.12791 5.21312 2.11535 5.29773 2.11123ZM7.0809 2.09435C7.09593 2.10442 7.1846 2.10375 7.27788 2.09286C7.3712 2.08195 7.53495 2.09257 7.64173 2.1164C7.74855 2.14025 7.8488 2.15451 7.86458 2.14808C7.90028 2.13354 7.9629 2.19891 7.99962 2.28904C8.01494 2.32666 8.00672 2.4473 7.98132 2.55708C7.95594 2.66689 7.94282 2.77549 7.95216 2.79843C7.97375 2.85142 7.83017 2.9123 7.78858 2.86778C7.73034 2.80548 7.30718 2.7337 7.15585 2.76045C6.98305 2.79099 6.89053 2.87467 6.92795 2.96654C6.94084 2.99817 7.03384 3.06552 7.13465 3.11629C7.23545 3.16702 7.32421 3.22398 7.33189 3.24282C7.33956 3.26166 7.38195 3.28318 7.42611 3.29064C7.64467 3.32753 7.90428 3.76696 7.89937 4.0918C7.89671 4.26839 7.80225 4.46604 7.67631 4.55852C7.63376 4.58978 7.59636 4.63109 7.5932 4.65034C7.58573 4.69566 6.9699 4.94712 6.95514 4.91089C6.94898 4.89577 6.88383 4.8973 6.81035 4.91426C6.65875 4.94928 6.20478 4.91506 5.9747 4.85124C5.87674 4.82411 5.81019 4.78261 5.79169 4.73718C5.76217 4.66472 5.76652 4.47924 5.79901 4.42578C5.80881 4.40967 5.82107 4.34528 5.82631 4.28268C5.84029 4.11555 5.90911 4.09405 6.14953 4.18172C6.40689 4.2756 6.65506 4.29712 6.84974 4.24246C7.14718 4.15898 7.10677 3.99523 6.7431 3.81029C6.44133 3.65684 6.16392 3.41568 6.09526 3.24713C6.00672 3.02978 6.08686 2.65445 6.25424 2.50269C6.30265 2.4588 6.338 2.41245 6.33281 2.39969C6.30946 2.34238 7.01894 2.05277 7.0809 2.09435ZM9.44907 2.15458C9.52088 2.16544 9.63819 2.17043 9.70975 2.16575C9.78173 2.16103 9.84841 2.17806 9.85892 2.20386C9.89889 2.302 9.99691 2.73376 9.99528 2.80451C9.99434 2.8453 10.0531 3.11063 10.1259 3.39413C10.1986 3.67763 10.2556 3.93575 10.2525 3.96774C10.2494 3.99973 10.2949 4.21843 10.3537 4.45375L10.4605 4.8816L10.3318 4.9148C10.261 4.93304 10.1183 4.93989 10.0147 4.93001C9.91105 4.9201 9.80489 4.92074 9.77868 4.93141C9.73963 4.94732 9.71853 4.91342 9.66124 4.74273L9.59141 4.53466L9.40317 4.52355C9.29968 4.51744 9.14751 4.5179 9.06511 4.52458C8.98271 4.53126 8.91108 4.52646 8.90598 4.51396C8.90087 4.50142 8.85825 4.4988 8.81127 4.50813C8.74827 4.52068 8.72382 4.5464 8.71813 4.60609C8.70532 4.74068 8.62285 4.88801 8.54178 4.92103C8.49973 4.93816 8.45999 4.93914 8.4535 4.9232C8.44702 4.90729 8.35807 4.90022 8.25588 4.9075C7.95845 4.92868 7.83041 4.91362 7.80638 4.85464C7.7873 4.80779 8.30064 3.58724 8.76567 2.57374L8.90744 2.26477L9.11299 2.1998C9.23361 2.16168 9.37246 2.14299 9.44907 2.15458ZM9.20056 3.34086C9.15853 3.4446 9.13075 3.54573 9.13882 3.56555C9.14689 3.58536 9.12366 3.64904 9.0872 3.70706C8.99955 3.8465 9.02338 3.88873 9.18528 3.88078C9.48053 3.86629 9.47097 3.87628 9.41848 3.63683C9.39234 3.51766 9.35879 3.39024 9.3439 3.3537C9.32901 3.31715 9.32732 3.27277 9.34014 3.25506C9.36773 3.21693 9.33736 3.12762 9.30172 3.14214C9.28813 3.14768 9.24261 3.23712 9.20056 3.34086ZM13.7761 1.53746C13.9274 1.51672 14.1423 1.51206 14.1732 1.52882C14.1861 1.53581 14.2602 1.53666 14.3379 1.53072C14.4156 1.52478 14.5624 1.52301 14.6641 1.52683C15.0388 1.54082 15.1284 1.53992 15.1732 1.52167C15.1984 1.51141 15.2237 1.51461 15.2295 1.52875C15.2352 1.54293 15.3273 1.5476 15.434 1.53913C15.5408 1.53069 15.6323 1.53413 15.6375 1.5468C15.6426 1.55946 15.7216 1.56206 15.8128 1.55257C15.9551 1.53783 16.267 1.54085 16.535 1.55957C16.6737 1.56925 16.8749 1.66149 16.9538 1.75143C17.0826 1.89836 17.1915 2.20642 17.1756 2.3787C17.1679 2.46184 17.1683 2.62132 17.1764 2.73307C17.1846 2.8448 17.1842 2.97719 17.1757 3.02725C17.1671 3.07733 17.1665 3.20221 17.1745 3.3048C17.1824 3.4074 17.1801 3.50355 17.1693 3.5185C17.1585 3.53341 17.1596 3.65715 17.1718 3.7934C17.1839 3.92967 17.1844 4.04503 17.1729 4.04975C17.1613 4.05446 17.1577 4.12558 17.1648 4.20777C17.172 4.28994 17.1737 4.44215 17.1686 4.546C17.1636 4.64981 17.1656 4.80252 17.1731 4.88531C17.1806 4.9681 17.1758 5.04034 17.1624 5.0458C17.1489 5.05127 17.139 5.09456 17.1402 5.14202C17.1439 5.28242 16.9187 5.51239 16.6838 5.60808C16.5733 5.65308 16.4812 5.67448 16.474 5.6568C16.467 5.63948 16.4406 5.6337 16.4154 5.64395C16.3722 5.66155 16.2973 5.66279 15.9439 5.65176C15.8627 5.64923 15.7369 5.65176 15.6644 5.65743C15.5918 5.66307 15.5202 5.65867 15.5053 5.64764C15.4903 5.63666 15.3674 5.63698 15.2322 5.64842C15.097 5.65986 14.9743 5.66024 14.9594 5.64929C14.9445 5.63836 14.8288 5.63593 14.7023 5.64391C14.5757 5.65189 14.4601 5.64946 14.4451 5.63853C14.4303 5.62758 14.3073 5.628 14.172 5.63943C14.0366 5.65087 13.9205 5.64724 13.9141 5.63136C13.9076 5.61548 13.8736 5.61417 13.8385 5.62847C13.7474 5.66558 13.3651 5.50792 13.2678 5.39305C13.146 5.24941 13.0582 4.93256 13.0765 4.70301C13.085 4.59557 13.0878 4.49708 13.0825 4.48416C13.0772 4.47125 13.0755 4.39171 13.0787 4.30742C13.0905 3.99098 13.0885 3.87293 13.0702 3.82807C13.0598 3.80267 13.0621 3.7775 13.0753 3.77215C13.0884 3.76679 13.0946 3.67748 13.089 3.57372C13.0833 3.46998 13.0806 3.31816 13.0829 3.2364C13.0926 2.89445 13.0907 2.80555 13.0729 2.76172C13.0625 2.73633 13.0652 2.711 13.0788 2.70545C13.0924 2.6999 13.0981 2.60668 13.0914 2.4983C13.0847 2.3899 13.091 2.29643 13.1054 2.29057C13.1198 2.28471 13.121 2.25392 13.108 2.22216C13.0706 2.13042 13.1821 1.85628 13.299 1.75223C13.4224 1.64252 13.6029 1.56121 13.7761 1.53746ZM1.83042 8.59246C1.91636 8.58819 2.0538 8.58859 2.13588 8.59339C2.46979 8.61282 2.70816 8.61985 2.73018 8.61088C2.74302 8.60565 2.82138 8.60433 2.90428 8.60792C2.9872 8.61153 3.1285 8.61373 3.21827 8.6128C3.30803 8.61186 3.46818 8.61524 3.57414 8.62026C3.6801 8.62529 3.77728 8.62512 3.79012 8.61989C3.80296 8.61466 3.8812 8.61305 3.96397 8.61632C4.32522 8.63064 4.39634 8.63006 4.43954 8.61246C4.46472 8.6022 4.48975 8.60464 4.49516 8.61791C4.50056 8.63117 4.58937 8.6379 4.69247 8.63285C4.79555 8.62777 4.94644 8.62596 5.02772 8.62877C5.36767 8.64052 5.45603 8.63917 5.49948 8.62147C5.52466 8.61121 5.54986 8.61406 5.55545 8.62779C5.56105 8.64153 5.65752 8.64704 5.76987 8.64003C5.88222 8.63301 6.0266 8.63543 6.09074 8.64534C6.15488 8.65528 6.22563 8.65603 6.24796 8.64701C6.27029 8.63798 6.35959 8.63591 6.44639 8.64235C6.5332 8.64883 6.69309 8.65095 6.80169 8.64708C6.9103 8.64321 7.06141 8.64659 7.13752 8.6546C7.21364 8.66264 7.29246 8.66245 7.31267 8.65422C7.33288 8.64598 7.4444 8.64357 7.56048 8.64884C7.67658 8.65415 7.85505 8.66229 7.95712 8.66696C8.05919 8.67163 8.20561 8.67057 8.28254 8.66458C8.35944 8.65863 8.5018 8.66029 8.59891 8.66826C8.69599 8.67625 8.79452 8.67509 8.81781 8.66567C8.84111 8.65625 8.91305 8.65732 8.97766 8.66803C9.04227 8.67877 9.2029 8.68074 9.33457 8.67243C9.46627 8.66411 9.57806 8.66724 9.583 8.67937C9.58794 8.6915 9.66656 8.69341 9.75775 8.68363C9.84892 8.67382 9.97583 8.67358 10.0398 8.68311C10.1038 8.69261 10.2473 8.69279 10.3587 8.68351C10.4701 8.67423 10.566 8.67823 10.5717 8.6924C10.5775 8.70655 10.6028 8.70974 10.628 8.69949C10.6739 8.68078 10.7858 8.68003 11.1446 8.69598C11.2504 8.70069 11.3475 8.70027 11.3603 8.69504C11.3731 8.68981 11.4514 8.6882 11.5342 8.69147C11.8954 8.70579 11.9665 8.70521 12.0097 8.68761C12.0349 8.67735 12.0601 8.68011 12.0656 8.69372C12.0712 8.70736 12.19 8.71267 12.3296 8.70554C12.4693 8.69842 12.6144 8.71266 12.6521 8.73715C12.7603 8.80747 12.8097 8.97817 12.7965 9.23606C12.7897 9.36708 12.7908 9.4903 12.7987 9.50986C12.8067 9.52943 12.8048 9.60039 12.7945 9.66758C12.7843 9.73475 12.7814 9.85357 12.7882 9.93161C12.8091 10.1708 12.7754 10.2235 12.5595 10.2894C12.4565 10.3209 12.3327 10.339 12.2846 10.3297C12.2364 10.3205 12.1161 10.3152 12.0171 10.3181C11.9181 10.321 11.8022 10.3181 11.7595 10.3116C11.7168 10.3052 11.5937 10.3049 11.486 10.311C11.3784 10.3171 11.279 10.3152 11.2652 10.3069C11.2514 10.2985 11.1606 10.2967 11.0632 10.3028C10.8907 10.3137 10.7471 10.3114 10.3673 10.2916C10.2649 10.2863 10.1012 10.2868 10.0034 10.2926C9.90568 10.2985 9.81476 10.2966 9.80141 10.2884C9.78807 10.2803 9.70599 10.28 9.61903 10.2878C9.53207 10.2956 9.36833 10.296 9.25514 10.2886C9.14197 10.2813 8.97801 10.2812 8.89079 10.2883C8.80356 10.2955 8.72126 10.2946 8.70792 10.2865C8.69457 10.2783 8.60398 10.2762 8.50664 10.2819C8.40927 10.2876 8.31058 10.2867 8.28732 10.28C8.26404 10.2733 8.14806 10.2707 8.02961 10.2744C7.91116 10.278 7.79543 10.2756 7.77243 10.269C7.74945 10.2623 7.62297 10.2642 7.49138 10.273C7.35979 10.2819 7.24804 10.2792 7.2431 10.2671C7.23816 10.255 7.15943 10.2528 7.0681 10.2622C6.97678 10.2717 6.82572 10.273 6.73237 10.2651C6.63903 10.2573 6.49577 10.2577 6.41407 10.2661C6.33237 10.2745 6.26111 10.2706 6.25576 10.2575C6.2504 10.2443 6.13525 10.2429 5.99986 10.2544C5.86451 10.2658 5.74152 10.2662 5.72664 10.2552C5.71171 10.2443 5.61613 10.2414 5.51419 10.2487C5.41227 10.2561 5.28814 10.2549 5.23831 10.2459C5.18849 10.237 5.05068 10.237 4.93205 10.246C4.81344 10.2549 4.69628 10.2568 4.67173 10.2502C4.64714 10.2435 4.57028 10.2396 4.50089 10.2414C4.43151 10.2432 4.30853 10.243 4.22758 10.241C4.14665 10.2391 4.01783 10.236 3.94133 10.2343C3.86483 10.2326 3.78161 10.2396 3.75644 10.2498C3.73126 10.2601 3.70622 10.2577 3.70082 10.2444C3.69542 10.2311 3.60661 10.2244 3.50351 10.2295C3.40043 10.2345 3.24954 10.2364 3.16826 10.2335C2.82831 10.2218 2.73995 10.2231 2.6965 10.2408C2.67132 10.2511 2.64612 10.2483 2.64053 10.2345C2.63493 10.2208 2.54224 10.2145 2.43455 10.2206C2.32684 10.2267 2.23495 10.2224 2.2303 10.211C2.22567 10.1996 2.1413 10.2 2.04278 10.2117C1.94428 10.2235 1.78672 10.2189 1.69265 10.2016C1.53419 10.1724 1.51758 10.1602 1.46723 10.0353C1.41562 9.90746 1.38167 9.62618 1.40693 9.53592C1.41338 9.51294 1.41559 9.40445 1.41188 9.29485C1.40817 9.18524 1.41006 9.04397 1.41609 8.9809C1.42213 8.91784 1.42021 8.8492 1.41186 8.82835C1.36991 8.72385 1.58104 8.6049 1.83042 8.59246Z" fill="#78BF49"/>
</svg>
