<svg width="41" height="41" viewBox="0 0 41 41" fill="none" xmlns="http://www.w3.org/2000/svg">
<path d="M41 20.5C41 31.8218 31.8218 41 20.5 41C9.17816 41 0 31.8218 0 20.5C0 9.17816 9.17816 0 20.5 0C31.8218 0 41 9.17816 41 20.5ZM4.76578 20.5C4.76578 29.1898 11.8102 36.2342 20.5 36.2342C29.1898 36.2342 36.2342 29.1898 36.2342 20.5C36.2342 11.8102 29.1898 4.76578 20.5 4.76578C11.8102 4.76578 4.76578 11.8102 4.76578 20.5Z" fill="white"/>
<path d="M41 20.5C41 31.8218 31.8218 41 20.5 41C9.17816 41 0 31.8218 0 20.5C0 9.17816 9.17816 0 20.5 0C31.8218 0 41 9.17816 41 20.5ZM4.76578 20.5C4.76578 29.1898 11.8102 36.2342 20.5 36.2342C29.1898 36.2342 36.2342 29.1898 36.2342 20.5C36.2342 11.8102 29.1898 4.76578 20.5 4.76578C11.8102 4.76578 4.76578 11.8102 4.76578 20.5Z" fill="white"/>
<path d="M41 20.5C41 31.8218 31.8218 41 20.5 41C9.17816 41 0 31.8218 0 20.5C0 9.17816 9.17816 0 20.5 0C31.8218 0 41 9.17816 41 20.5ZM4.76578 20.5C4.76578 29.1898 11.8102 36.2342 20.5 36.2342C29.1898 36.2342 36.2342 29.1898 36.2342 20.5C36.2342 11.8102 29.1898 4.76578 20.5 4.76578C11.8102 4.76578 4.76578 11.8102 4.76578 20.5Z" fill="#4945DB"/>
<path d="M13.698 11.2496C13.1553 10.5114 13.3096 9.46258 14.1103 9.01707C15.7041 8.13014 17.4708 7.58172 19.2993 7.41395C21.1278 7.24618 22.9648 7.46395 24.6934 8.04602C25.5618 8.3384 25.9044 9.34163 25.505 10.1662C25.1056 10.9909 24.1149 11.3205 23.2349 11.0654C22.0611 10.7251 20.8292 10.6055 19.6025 10.7181C18.3757 10.8306 17.1862 11.1724 16.0939 11.7206C15.275 12.1316 14.2408 11.9878 13.698 11.2496Z" fill="white"/>
<path d="M13.698 11.2496C13.1553 10.5114 13.3096 9.46258 14.1103 9.01707C15.7041 8.13014 17.4708 7.58172 19.2993 7.41395C21.1278 7.24618 22.9648 7.46395 24.6934 8.04602C25.5618 8.3384 25.9044 9.34163 25.505 10.1662C25.1056 10.9909 24.1149 11.3205 23.2349 11.0654C22.0611 10.7251 20.8292 10.6055 19.6025 10.7181C18.3757 10.8306 17.1862 11.1724 16.0939 11.7206C15.275 12.1316 14.2408 11.9878 13.698 11.2496Z" fill="white"/>
<path d="M13.698 11.2496C13.1553 10.5114 13.3096 9.46258 14.1103 9.01707C15.7041 8.13014 17.4708 7.58172 19.2993 7.41395C21.1278 7.24618 22.9648 7.46395 24.6934 8.04602C25.5618 8.3384 25.9044 9.34163 25.505 10.1662C25.1056 10.9909 24.1149 11.3205 23.2349 11.0654C22.0611 10.7251 20.8292 10.6055 19.6025 10.7181C18.3757 10.8306 17.1862 11.1724 16.0939 11.7206C15.275 12.1316 14.2408 11.9878 13.698 11.2496Z" fill="#4945DB"/>
<circle cx="11.3013" cy="13.9295" r="1.83974" fill="#4945DB"/>
</svg>
