<svg width="34" height="34" viewBox="0 0 34 34" fill="none" xmlns="http://www.w3.org/2000/svg">
<rect width="34" height="34" rx="6" fill="#69B935"/>
<mask id="mask0_283_2858" style="mask-type:alpha" maskUnits="userSpaceOnUse" x="5" y="4" width="24" height="24">
<rect x="5" y="4" width="24" height="24" fill="#D9D9D9"/>
</mask>
<g mask="url(#mask0_283_2858)">
<path d="M12.8483 24.7794C12.0918 25.2358 11.1584 24.5586 11.3575 23.6978L12.3143 19.5616C12.3978 19.2007 12.275 18.8233 11.9951 18.5806L8.78498 15.7975C8.11745 15.2188 8.4734 14.1221 9.35356 14.0457L13.5999 13.6771C13.9691 13.645 14.2902 13.4115 14.4345 13.0701L16.0789 9.17942C16.423 8.36515 17.577 8.36515 17.9211 9.17941L19.5655 13.0701C19.7098 13.4115 20.0309 13.645 20.4001 13.6771L24.6464 14.0457C25.5266 14.1221 25.8826 15.2188 25.215 15.7975L22.0049 18.5806C21.725 18.8233 21.6022 19.2007 21.6857 19.5616L22.6425 23.6978C22.8416 24.5586 21.9082 25.2358 21.1517 24.7794L17.5165 22.5866C17.1988 22.3949 16.8012 22.3949 16.4835 22.5866L12.8483 24.7794Z" fill="white"/>
</g>
</svg>
