<svg width="144" height="162" viewBox="0 0 144 162" fill="none" xmlns="http://www.w3.org/2000/svg">
<path d="M135.576 37.9341C132.786 37.9341 130.98 35.9647 129.831 33.0105C128.683 30.0564 128.354 26.1175 128.354 21.5222C128.354 18.2398 128.518 14.7933 129.011 11.0186C128.026 10.8545 127.041 10.6904 126.221 10.6904C122.282 10.6904 119.492 12.3315 117.358 13.9727C115.389 15.6139 114.404 16.6803 114.404 16.6803L113.255 16.0239C113.255 16.0239 117.522 9.3774 126.057 9.21328C127.041 9.21328 128.026 9.3774 129.011 9.54152C130.652 -6.04978 127.205 4.92357 129.011 0H129.831H130.652C128.847 4.59533 132.129 -5.72154 130.488 9.86976C136.56 12.0033 141.484 22.671 141.484 30.2205C141.484 33.8311 140.171 36.9494 136.889 37.4417C136.396 37.9341 136.068 37.9341 135.576 37.9341ZM140.171 30.5488C140.171 23.8199 135.247 13.4804 130.324 11.5109C129.996 15.1216 129.831 18.4039 129.831 21.5222C129.831 25.9534 130.324 29.8923 131.308 32.5182C132.293 35.1441 133.77 36.6211 135.74 36.6211C136.068 36.6211 136.396 36.6212 136.724 36.457C139.022 36.1288 140.171 33.9952 140.171 30.5488Z" fill="#282626"/>
<path d="M142.703 130.266C143.688 134.697 142.375 147.827 141.39 151.93C142.211 152.75 142.375 155.048 141.883 157.346C141.39 159.807 137.287 157.346 134.497 157.51C125.635 157.838 122.681 155.704 123.009 154.063C123.337 152.586 127.604 151.273 130.23 150.945C132.856 150.617 130.558 130.594 130.558 129.774C130.558 128.789 142.703 130.266 142.703 130.266Z" fill="black"/>
<path d="M137.779 81.0303C139.257 83.9844 140.898 88.2515 140.405 92.6827C140.405 92.6827 140.077 93.6674 139.749 95.3086C139.092 98.7551 145.493 126.984 143.195 130.266C140.898 133.548 136.467 131.743 135.318 130.594C134.169 129.445 123.665 86.4462 123.665 86.4462L137.779 81.0303Z" fill="#002E93"/>
<path d="M143.36 130.43C141.718 132.728 138.928 132.564 137.123 131.743L130.394 90.7132C130.394 90.7132 135.154 94.9803 139.585 97.7704C139.749 103.515 145.493 127.312 143.36 130.43Z" fill="url(#paint0_linear_283_1811)" fill-opacity="0.25"/>
<path d="M129.245 154.72C130.23 154.556 130.722 153.735 131.051 152.914C130.394 148.155 127.932 136.667 127.112 131.743C135.81 132.235 140.405 130.594 140.405 130.594C141.718 137.98 141.062 148.319 140.405 152.258C140.405 152.586 140.241 153.079 140.241 153.243C140.57 155.869 141.718 161.12 139.913 161.777C137.78 162.433 134.825 161.449 133.841 161.284C133.184 161.12 125.799 161.777 123.337 160.3L122.681 159.807C120.383 155.704 127.112 155.048 129.245 154.72Z" fill="black"/>
<path d="M129.246 154.72C130.23 154.556 130.723 153.735 131.051 152.914C130.394 148.155 127.933 136.667 127.112 131.743C128.097 131.743 128.917 131.907 129.902 131.907C130.887 137.487 133.349 155.376 133.677 156.197C133.349 157.51 128.917 158.166 127.276 158.166C126.291 158.166 124.158 158.166 122.517 157.838C122.845 155.376 127.44 154.884 129.246 154.72Z" fill="#353535"/>
<path d="M115.952 82.8356C117.265 90.0568 117.921 93.5033 119.07 98.7551C120.219 104.007 120.219 113.69 123.83 119.762C126.127 123.865 125.635 135.682 127.604 134.205C131.543 131.087 139.257 133.056 140.734 133.056C142.211 133.056 143.688 132.235 140.57 124.358C136.631 114.346 134.661 101.381 135.318 95.801C135.974 90.3851 135.81 85.9539 132.692 82.1791C129.574 78.7326 115.952 82.8356 115.952 82.8356Z" fill="#002E93"/>
<path d="M123.665 119.926C120.219 113.854 120.055 104.171 118.906 98.9192C117.757 93.6674 117.101 90.2209 115.788 82.9997C115.788 82.9997 117.593 82.5073 120.219 81.8508C119.727 87.9232 121.86 101.217 123.83 106.961C125.799 112.705 126.948 116.644 127.604 119.106C128.261 121.568 128.097 126.163 128.425 128.296C128.589 129.445 128.917 131.579 129.41 133.384C128.589 133.712 127.933 134.041 127.276 134.533C125.471 135.846 125.963 124.029 123.665 119.926Z" fill="#0543CE"/>
<path d="M113.162 40.8211C113.326 42.2982 115.295 44.5959 116.28 46.7294C117.593 49.1912 121.532 52.9659 121.532 52.9659L113.982 58.546C113.982 58.546 110.536 52.3095 108.238 51.4889C107.91 51.4889 113.162 40.8211 113.162 40.8211Z" fill="#E5C0AE"/>
<path d="M101.509 43.9393C103.479 49.027 107.089 52.9659 109.223 52.6376C111.357 52.1453 114.803 46.7294 113.982 42.6264C113.162 38.5234 109.551 35.5693 105.612 37.0463C101.345 38.3593 99.8682 40.0005 101.509 43.9393Z" fill="#E5C0AE"/>
<path d="M99.5399 41.3135C99.8681 39.1799 102.33 33.1075 108.074 33.2716C112.998 33.2716 114.639 34.7487 115.459 36.8823C116.444 38.8517 117.101 41.4776 117.593 42.1341C117.757 43.9394 119.727 45.0882 119.727 44.5959C119.234 46.8935 117.757 45.2523 117.757 45.2523L119.891 45.9088C119.891 45.9088 119.398 46.5653 118.578 46.7294C117.757 46.8935 119.727 47.2218 119.727 47.2218C119.727 47.2218 116.444 49.6835 115.952 49.8477C115.459 50.0118 113.326 50.5041 113.326 50.5041C113.326 50.5041 110.7 51.4888 110.864 50.8324C111.192 49.3553 110.372 49.1912 110.043 49.8477C109.551 50.5041 108.074 49.3553 108.074 49.3553C108.074 49.3553 106.761 48.8629 107.418 47.7141C107.746 47.2218 106.761 45.7447 106.597 45.5806C106.105 44.2676 104.463 44.2676 104.792 45.5806C105.284 46.8935 104.463 46.7294 104.463 46.7294L103.807 47.0576C103.807 47.0576 102.002 44.5959 101.181 43.7753C100.36 44.2676 98.7193 44.1035 98.0628 42.9547C98.5552 43.1188 99.0475 42.2982 99.5399 41.3135Z" fill="#4F1109"/>
<path d="M114.475 16.6956L77.2199 50.6682L76.2352 49.6835L113.654 15.7109L114.475 16.6956Z" fill="#353535"/>
<mask id="mask0_283_1811" style="mask-type:alpha" maskUnits="userSpaceOnUse" x="-6" y="49" width="84" height="66">
<path d="M50.2484 114.132L-5.00745 90.2371L74.5161 49.3553L77.8763 52.1554L50.2484 114.132Z" fill="url(#paint1_radial_283_1811)"/>
</mask>
<g mask="url(#mask0_283_1811)">
<path opacity="0.93" d="M74.3274 50.0745C74.3274 50.0745 15.2284 73.4403 2.1584 85.0647C-10.9116 96.6891 39.1459 96.7511 51.2898 100.149C58.4332 87.2727 76.1133 52.0417 76.1133 52.0417L74.3274 50.0745Z" fill="url(#paint2_linear_283_1811)"/>
<path d="M75.4145 50.34L22.2399 82.5074L22.5682 82.6715L75.5786 50.5042L26.6712 84.4768L26.9994 84.805L76.071 50.34L30.1177 88.4156L30.4459 88.5797L75.7427 51.3247L43.5754 85.2974L76.071 51.3247L47.5143 90.3851L48.1707 90.8774L76.3992 51.3247L76.5633 49.6836L75.4145 50.34Z" fill="url(#paint3_linear_283_1811)"/>
<path d="M76.235 51.1606L76.0709 50.8324L42.2624 82.9997L42.4265 83.3279L76.235 51.1606Z" fill="url(#paint4_linear_283_1811)"/>
<path d="M75.9069 51.9812L75.7427 51.8171L46.0372 85.7897L46.2013 85.9538L75.9069 51.9812Z" fill="url(#paint5_linear_283_1811)"/>
<path d="M76.071 50.5042V50.3401L23.8811 83.6562V83.8203L76.071 50.5042Z" fill="url(#paint6_linear_283_1811)"/>
<path d="M77.3839 50.34L77.2198 50.1759L50.9608 93.0109L51.1249 93.175L77.3839 50.34Z" fill="url(#paint7_linear_283_1811)"/>
<path d="M75.7427 50.0118H75.5786L23.0606 80.3738V80.5379L75.7427 50.0118Z" fill="url(#paint8_linear_283_1811)"/>
<path d="M76.2351 50.34L76.071 50.1759L28.1482 86.1179L28.3123 86.282L76.2351 50.34Z" fill="url(#paint9_linear_283_1811)"/>
<path d="M76.2351 52.1454C76.3992 52.3096 76.5633 52.1454 76.7274 51.9813C77.0557 51.8172 77.0557 51.489 76.8916 51.1607L75.7427 49.6837C75.5786 49.5195 75.2504 49.5195 74.9221 49.6837C74.5939 49.8478 74.758 50.3401 74.9221 50.6684L76.2351 52.1454Z" fill="black"/>
<path d="M75.5787 49.5195C75.7428 49.3554 76.5634 48.863 76.8916 48.863C77.5481 49.5195 77.7122 49.8477 77.7122 49.8477C77.7122 49.8477 77.8763 50.3401 76.7275 51.3248C76.8916 51.4889 75.5787 49.5195 75.5787 49.5195Z" fill="black"/>
<path d="M76.8915 48.863C76.3991 48.863 75.9068 49.1912 75.5785 49.5195C75.4144 49.5195 75.0862 49.5195 74.9221 49.6836C74.5938 49.8477 74.4297 49.8477 74.5938 50.176L75.4144 50.9965L77.3838 49.3554L76.8915 48.863Z" fill="#353535"/>
</g>
<defs>
<linearGradient id="paint0_linear_283_1811" x1="143.111" y1="105.41" x2="126.461" y2="119.603" gradientUnits="userSpaceOnUse">
<stop stop-color="white"/>
<stop offset="0.1116" stop-color="#F3F3F3"/>
<stop offset="0.312" stop-color="#D4D4D4"/>
<stop offset="0.5781" stop-color="#A1A1A1"/>
<stop offset="0.8626" stop-color="#646464"/>
</linearGradient>
<radialGradient id="paint1_radial_283_1811" cx="0" cy="0" r="1" gradientUnits="userSpaceOnUse" gradientTransform="translate(67.1661 59.5457) rotate(129.453) scale(69.7197 63.6535)">
<stop offset="0.0934066" stop-color="white"/>
<stop offset="0.1584" stop-color="#F6F6F6"/>
<stop offset="0.2625" stop-color="#DFDFDF"/>
<stop offset="0.3927" stop-color="#B9B9B9"/>
<stop offset="0.544" stop-color="#848484"/>
<stop offset="0.7106" stop-color="#414141"/>
<stop offset="0.8571"/>
</radialGradient>
<linearGradient id="paint2_linear_283_1811" x1="39.9494" y1="50.0745" x2="39.9494" y2="100.149" gradientUnits="userSpaceOnUse">
<stop stop-color="white"/>
<stop offset="1" stop-color="white" stop-opacity="0"/>
</linearGradient>
<linearGradient id="paint3_linear_283_1811" x1="49.4016" y1="49.6836" x2="49.4016" y2="90.8774" gradientUnits="userSpaceOnUse">
<stop stop-color="#C2ECFF"/>
<stop offset="1" stop-color="#C2ECFF" stop-opacity="0"/>
</linearGradient>
<linearGradient id="paint4_linear_283_1811" x1="59.2487" y1="50.8324" x2="59.2487" y2="83.3279" gradientUnits="userSpaceOnUse">
<stop stop-color="#C2ECFF"/>
<stop offset="1" stop-color="#C2ECFF" stop-opacity="0"/>
</linearGradient>
<linearGradient id="paint5_linear_283_1811" x1="60.972" y1="51.8171" x2="60.972" y2="85.9538" gradientUnits="userSpaceOnUse">
<stop stop-color="#C2ECFF"/>
<stop offset="1" stop-color="#C2ECFF" stop-opacity="0"/>
</linearGradient>
<linearGradient id="paint6_linear_283_1811" x1="49.976" y1="50.3401" x2="49.976" y2="83.8203" gradientUnits="userSpaceOnUse">
<stop stop-color="#C2ECFF"/>
<stop offset="1" stop-color="#C2ECFF" stop-opacity="0"/>
</linearGradient>
<linearGradient id="paint7_linear_283_1811" x1="64.1724" y1="50.1759" x2="64.1724" y2="93.175" gradientUnits="userSpaceOnUse">
<stop stop-color="#C2ECFF"/>
<stop offset="1" stop-color="#C2ECFF" stop-opacity="0"/>
</linearGradient>
<linearGradient id="paint8_linear_283_1811" x1="49.4017" y1="50.0118" x2="49.4017" y2="80.5379" gradientUnits="userSpaceOnUse">
<stop stop-color="#C2ECFF"/>
<stop offset="1" stop-color="#C2ECFF" stop-opacity="0"/>
</linearGradient>
<linearGradient id="paint9_linear_283_1811" x1="52.1916" y1="50.1759" x2="52.1916" y2="86.282" gradientUnits="userSpaceOnUse">
<stop stop-color="#C2ECFF"/>
<stop offset="1" stop-color="#C2ECFF" stop-opacity="0"/>
</linearGradient>
</defs>
</svg>
