<svg width="43" height="43" viewBox="0 0 43 43" fill="none" xmlns="http://www.w3.org/2000/svg">
<path d="M43 21.5C43 33.3741 33.3741 43 21.5 43C9.62588 43 0 33.3741 0 21.5C0 9.62588 9.62588 0 21.5 0C33.3741 0 43 9.62588 43 21.5ZM4.99826 21.5C4.99826 30.6137 12.3863 38.0017 21.5 38.0017C30.6137 38.0017 38.0017 30.6137 38.0017 21.5C38.0017 12.3863 30.6137 4.99826 21.5 4.99826C12.3863 4.99826 4.99826 12.3863 4.99826 21.5Z" fill="white"/>
<path d="M43 21.5C43 33.3741 33.3741 43 21.5 43C9.62588 43 0 33.3741 0 21.5C0 9.62588 9.62588 0 21.5 0C33.3741 0 43 9.62588 43 21.5ZM4.99826 21.5C4.99826 30.6137 12.3863 38.0017 21.5 38.0017C30.6137 38.0017 38.0017 30.6137 38.0017 21.5C38.0017 12.3863 30.6137 4.99826 21.5 4.99826C12.3863 4.99826 4.99826 12.3863 4.99826 21.5Z" fill="white"/>
<path d="M43 21.5C43 33.3741 33.3741 43 21.5 43C9.62588 43 0 33.3741 0 21.5C0 9.62588 9.62588 0 21.5 0C33.3741 0 43 9.62588 43 21.5ZM4.99826 21.5C4.99826 30.6137 12.3863 38.0017 21.5 38.0017C30.6137 38.0017 38.0017 30.6137 38.0017 21.5C38.0017 12.3863 30.6137 4.99826 21.5 4.99826C12.3863 4.99826 4.99826 12.3863 4.99826 21.5Z" fill="white"/>
<path d="M15.3446 10.8452C14.9878 10.1783 15.2372 9.34138 15.9363 9.05243C18.4464 8.01492 21.2085 7.74183 23.8731 8.26774C24.6152 8.4142 25.0237 9.18605 24.8044 9.90998C24.5851 10.6339 23.8207 11.0339 23.0753 10.9058C21.1125 10.5684 19.094 10.768 17.2353 11.4832C16.5293 11.7548 15.7015 11.5122 15.3446 10.8452Z" fill="white"/>
<path d="M15.3446 10.8452C14.9878 10.1783 15.2372 9.34138 15.9363 9.05243C18.4464 8.01492 21.2085 7.74183 23.8731 8.26774C24.6152 8.4142 25.0237 9.18605 24.8044 9.90998C24.5851 10.6339 23.8207 11.0339 23.0753 10.9058C21.1125 10.5684 19.094 10.768 17.2353 11.4832C16.5293 11.7548 15.7015 11.5122 15.3446 10.8452Z" fill="white"/>
<path d="M15.3446 10.8452C14.9878 10.1783 15.2372 9.34138 15.9363 9.05243C18.4464 8.01492 21.2085 7.74183 23.8731 8.26774C24.6152 8.4142 25.0237 9.18605 24.8044 9.90998C24.5851 10.6339 23.8207 11.0339 23.0753 10.9058C21.1125 10.5684 19.094 10.768 17.2353 11.4832C16.5293 11.7548 15.7015 11.5122 15.3446 10.8452Z" fill="white"/>
<circle cx="13.1965" cy="12.6035" r="1.63103" fill="white"/>
</svg>
