<svg width="86" height="86" viewBox="0 0 86 86" fill="none" xmlns="http://www.w3.org/2000/svg">
<path d="M0 0H86V86H0V0Z" fill="#012169"/>
<path d="M86 0V10.75L54.0859 43L86 74.4101V86H74.7461L42.664 54.4219L11.4219 86H0V74.5781L31.2422 43.168L0 12.4297V0H10.4141L42.664 31.5781L73.9062 0H86Z" fill="white"/>
<path d="M30.9062 54.4219L32.7539 60.1328L7.05469 86H0V85.4961L30.9062 54.4219ZM51.7344 52.4062L60.8047 53.75L86 78.4414V86L51.7344 52.4062ZM86 0L53.75 32.9219L53.0781 25.5312L78.2734 0H86ZM0 0.167969L32.418 31.9141L22.5078 30.5703L0 8.23047V0.167969Z" fill="#C8102E"/>
<path d="M29.5625 0V86H56.4375V0H29.5625ZM0 29.5625V56.4375H86V29.5625H0Z" fill="white"/>
<path d="M0 34.9375V51.0625H86V34.9375H0ZM34.9375 0V86H51.0625V0H34.9375Z" fill="#C8102E"/>
</svg>
