<svg width="30" height="22" viewBox="0 0 30 22" fill="none" xmlns="http://www.w3.org/2000/svg">
<circle cx="7.5" cy="7.22508" r="2.04124" transform="rotate(165 7.5 7.22508)" fill="url(#paint0_linear_283_2259)"/>
<circle r="0.383716" transform="matrix(0.965926 -0.258819 -0.258819 -0.965926 8.08346 6.13222)" fill="white"/>
<circle r="0.216617" transform="matrix(0.965926 -0.258819 -0.258819 -0.965926 8.20157 6.8647)" fill="white"/>
<circle cx="10" cy="5.72506" r="1.63299" transform="rotate(165 10 5.72506)" fill="url(#paint1_linear_283_2259)"/>
<circle r="0.306973" transform="matrix(0.965926 -0.258819 -0.258819 -0.965926 10.4668 4.85072)" fill="white"/>
<circle r="0.173294" transform="matrix(0.965926 -0.258819 -0.258819 -0.965926 10.5613 5.43681)" fill="white"/>
<circle cx="9.5" cy="1.22504" r="1.22474" transform="rotate(165 9.5 1.22504)" fill="url(#paint2_linear_283_2259)"/>
<circle r="0.23023" transform="matrix(0.965926 -0.258819 -0.258819 -0.965926 9.85011 0.569346)" fill="white"/>
<circle r="0.12997" transform="matrix(0.965926 -0.258819 -0.258819 -0.965926 9.92094 1.00879)" fill="white"/>
<circle cx="14" cy="3.72514" r="0.816497" transform="rotate(165 14 3.72514)" fill="url(#paint3_linear_283_2259)"/>
<circle r="0.153487" transform="matrix(0.965926 -0.258819 -0.258819 -0.965926 14.2333 3.28797)" fill="white"/>
<circle r="0.086647" transform="matrix(0.965926 -0.258819 -0.258819 -0.965926 14.2807 3.58089)" fill="white"/>
<circle cx="10" cy="9.7251" r="2.44949" transform="rotate(165 10 9.7251)" fill="url(#paint4_linear_283_2259)"/>
<circle r="0.46046" transform="matrix(0.965926 -0.258819 -0.258819 -0.965926 10.7002 8.41359)" fill="white"/>
<circle r="0.259941" transform="matrix(0.965926 -0.258819 -0.258819 -0.965926 10.8419 9.2926)" fill="white"/>
<circle cx="14" cy="9.7251" r="2.44949" transform="rotate(165 14 9.7251)" fill="url(#paint5_linear_283_2259)"/>
<circle r="0.46046" transform="matrix(0.965926 -0.258819 -0.258819 -0.965926 14.7002 8.41359)" fill="white"/>
<circle r="0.259941" transform="matrix(0.965926 -0.258819 -0.258819 -0.965926 14.8419 9.2926)" fill="white"/>
<circle cx="12.5" cy="7.22504" r="1.22474" transform="rotate(165 12.5 7.22504)" fill="url(#paint6_linear_283_2259)"/>
<circle r="0.23023" transform="matrix(0.965926 -0.258819 -0.258819 -0.965926 12.8501 6.56935)" fill="white"/>
<circle r="0.12997" transform="matrix(0.965926 -0.258819 -0.258819 -0.965926 12.921 7.00879)" fill="white"/>
<circle cx="4.5" cy="11.2251" r="2.04124" transform="rotate(165 4.5 11.2251)" fill="url(#paint7_linear_283_2259)"/>
<circle r="0.383716" transform="matrix(0.965926 -0.258819 -0.258819 -0.965926 5.08346 10.1322)" fill="white"/>
<circle r="0.216617" transform="matrix(0.965926 -0.258819 -0.258819 -0.965926 5.20157 10.8647)" fill="white"/>
<circle cx="7" cy="9.72506" r="1.63299" transform="rotate(165 7 9.72506)" fill="url(#paint8_linear_283_2259)"/>
<circle r="0.306973" transform="matrix(0.965926 -0.258819 -0.258819 -0.965926 7.46676 8.85072)" fill="white"/>
<circle r="0.173294" transform="matrix(0.965926 -0.258819 -0.258819 -0.965926 7.56132 9.43681)" fill="white"/>
<circle cx="7" cy="13.7251" r="2.44949" transform="rotate(165 7 13.7251)" fill="url(#paint9_linear_283_2259)"/>
<circle r="0.46046" transform="matrix(0.965926 -0.258819 -0.258819 -0.965926 7.70017 12.4136)" fill="white"/>
<circle r="0.259941" transform="matrix(0.965926 -0.258819 -0.258819 -0.965926 7.84195 13.2926)" fill="white"/>
<circle cx="11" cy="13.7251" r="2.44949" transform="rotate(165 11 13.7251)" fill="url(#paint10_linear_283_2259)"/>
<circle r="0.46046" transform="matrix(0.965926 -0.258819 -0.258819 -0.965926 11.7002 12.4136)" fill="white"/>
<circle r="0.259941" transform="matrix(0.965926 -0.258819 -0.258819 -0.965926 11.8419 13.2926)" fill="white"/>
<circle cx="9.5" cy="11.225" r="1.22474" transform="rotate(165 9.5 11.225)" fill="url(#paint11_linear_283_2259)"/>
<circle r="0.23023" transform="matrix(0.965926 -0.258819 -0.258819 -0.965926 9.85005 10.5693)" fill="white"/>
<circle r="0.12997" transform="matrix(0.965926 -0.258819 -0.258819 -0.965926 9.921 11.0088)" fill="white"/>
<circle cx="18.5" cy="9.22508" r="2.04124" transform="rotate(165 18.5 9.22508)" fill="url(#paint12_linear_283_2259)"/>
<circle r="0.383716" transform="matrix(0.965926 -0.258819 -0.258819 -0.965926 19.0835 8.13222)" fill="white"/>
<circle r="0.216617" transform="matrix(0.965926 -0.258819 -0.258819 -0.965926 19.2016 8.8647)" fill="white"/>
<circle cx="21" cy="7.72506" r="1.63299" transform="rotate(165 21 7.72506)" fill="url(#paint13_linear_283_2259)"/>
<circle r="0.306973" transform="matrix(0.965926 -0.258819 -0.258819 -0.965926 21.4668 6.85072)" fill="white"/>
<circle r="0.173294" transform="matrix(0.965926 -0.258819 -0.258819 -0.965926 21.5613 7.43681)" fill="white"/>
<circle cx="20.5" cy="3.22504" r="1.22474" transform="rotate(165 20.5 3.22504)" fill="url(#paint14_linear_283_2259)"/>
<circle r="0.23023" transform="matrix(0.965926 -0.258819 -0.258819 -0.965926 20.8501 2.56935)" fill="white"/>
<circle r="0.12997" transform="matrix(0.965926 -0.258819 -0.258819 -0.965926 20.9209 3.00879)" fill="white"/>
<circle cx="21" cy="11.7251" r="2.44949" transform="rotate(165 21 11.7251)" fill="url(#paint15_linear_283_2259)"/>
<circle r="0.46046" transform="matrix(0.965926 -0.258819 -0.258819 -0.965926 21.7002 10.4136)" fill="white"/>
<circle r="0.259941" transform="matrix(0.965926 -0.258819 -0.258819 -0.965926 21.8419 11.2926)" fill="white"/>
<circle cx="25" cy="11.7251" r="2.44949" transform="rotate(165 25 11.7251)" fill="url(#paint16_linear_283_2259)"/>
<circle r="0.46046" transform="matrix(0.965926 -0.258819 -0.258819 -0.965926 25.7002 10.4136)" fill="white"/>
<circle r="0.259941" transform="matrix(0.965926 -0.258819 -0.258819 -0.965926 25.8419 11.2926)" fill="white"/>
<circle cx="23.5" cy="9.22504" r="1.22474" transform="rotate(165 23.5 9.22504)" fill="url(#paint17_linear_283_2259)"/>
<circle r="0.23023" transform="matrix(0.965926 -0.258819 -0.258819 -0.965926 23.8501 8.56935)" fill="white"/>
<circle r="0.12997" transform="matrix(0.965926 -0.258819 -0.258819 -0.965926 23.921 9.00879)" fill="white"/>
<circle cx="15.5" cy="13.2251" r="2.04124" transform="rotate(165 15.5 13.2251)" fill="url(#paint18_linear_283_2259)"/>
<circle r="0.383716" transform="matrix(0.965926 -0.258819 -0.258819 -0.965926 16.0835 12.1322)" fill="white"/>
<circle r="0.216617" transform="matrix(0.965926 -0.258819 -0.258819 -0.965926 16.2016 12.8647)" fill="white"/>
<circle cx="18" cy="11.7251" r="1.63299" transform="rotate(165 18 11.7251)" fill="url(#paint19_linear_283_2259)"/>
<circle r="0.306973" transform="matrix(0.965926 -0.258819 -0.258819 -0.965926 18.4668 10.8507)" fill="white"/>
<circle r="0.173294" transform="matrix(0.965926 -0.258819 -0.258819 -0.965926 18.5613 11.4368)" fill="white"/>
<circle cx="18" cy="15.7251" r="2.44949" transform="rotate(165 18 15.7251)" fill="url(#paint20_linear_283_2259)"/>
<circle r="0.46046" transform="matrix(0.965926 -0.258819 -0.258819 -0.965926 18.7002 14.4136)" fill="white"/>
<circle r="0.259941" transform="matrix(0.965926 -0.258819 -0.258819 -0.965926 18.8419 15.2926)" fill="white"/>
<circle cx="22" cy="15.7251" r="2.44949" transform="rotate(165 22 15.7251)" fill="url(#paint21_linear_283_2259)"/>
<circle r="0.46046" transform="matrix(0.965926 -0.258819 -0.258819 -0.965926 22.7002 14.4136)" fill="white"/>
<circle r="0.259941" transform="matrix(0.965926 -0.258819 -0.258819 -0.965926 22.8419 15.2926)" fill="white"/>
<circle cx="20.5" cy="13.225" r="1.22474" transform="rotate(165 20.5 13.225)" fill="url(#paint22_linear_283_2259)"/>
<circle r="0.23023" transform="matrix(0.965926 -0.258819 -0.258819 -0.965926 20.8501 12.5693)" fill="white"/>
<circle r="0.12997" transform="matrix(0.965926 -0.258819 -0.258819 -0.965926 20.921 13.0088)" fill="white"/>
<g filter="url(#filter0_f_283_2259)">
<path d="M7.15847 13.9058C7.15847 15.5233 5.77985 16.8345 4.07924 16.8345C2.37862 16.8345 1 15.5233 1 13.9058C1 12.2884 2.37862 10.9772 4.07924 10.9772C5.77985 10.9772 7.15847 12.2884 7.15847 13.9058Z" fill="url(#paint23_linear_283_2259)" fill-opacity="0.5"/>
<path d="M9.2113 15.8583C9.2113 17.4757 7.83267 18.787 6.13206 18.787C4.43144 18.787 3.05282 17.4757 3.05282 15.8583C3.05282 14.2408 4.43144 12.9296 6.13206 12.9296C7.83267 12.9296 9.2113 14.2408 9.2113 15.8583Z" fill="url(#paint24_linear_283_2259)" fill-opacity="0.5"/>
<path d="M10.5798 12.6042C10.5798 14.2217 9.20122 15.5329 7.50061 15.5329C5.79999 15.5329 4.42137 14.2217 4.42137 12.6042C4.42137 10.9868 5.79999 9.67554 7.50061 9.67554C9.20122 9.67554 10.5798 10.9868 10.5798 12.6042Z" fill="url(#paint25_linear_283_2259)" fill-opacity="0.5"/>
<path d="M14.0012 14.5567C14.0012 16.1741 12.6226 17.4853 10.922 17.4853C9.22137 17.4853 7.84275 16.1741 7.84275 14.5567C7.84275 12.9392 9.22137 11.628 10.922 11.628C12.6226 11.628 14.0012 12.9392 14.0012 14.5567Z" fill="url(#paint26_linear_283_2259)" fill-opacity="0.5"/>
<path d="M12.6327 10.9772C12.6327 12.0555 11.7136 12.9296 10.5798 12.9296C9.4461 12.9296 8.52702 12.0555 8.52702 10.9772C8.52702 9.89887 9.4461 9.02473 10.5798 9.02473C11.7136 9.02473 12.6327 9.89887 12.6327 10.9772Z" fill="url(#paint27_linear_283_2259)" fill-opacity="0.5"/>
<path d="M17.4226 12.9296C17.4226 14.0079 16.5035 14.8821 15.3698 14.8821C14.236 14.8821 13.3169 14.0079 13.3169 12.9296C13.3169 11.8513 14.236 10.9772 15.3698 10.9772C16.5035 10.9772 17.4226 11.8513 17.4226 12.9296Z" fill="url(#paint28_linear_283_2259)" fill-opacity="0.5"/>
<path d="M11.2641 18.1361C11.2641 19.2144 10.345 20.0886 9.2113 20.0886C8.07755 20.0886 7.15847 19.2144 7.15847 18.1361C7.15847 17.0578 8.07755 16.1837 9.2113 16.1837C10.345 16.1837 11.2641 17.0578 11.2641 18.1361Z" fill="url(#paint29_linear_283_2259)" fill-opacity="0.5"/>
<path d="M14.6855 12.2788C14.6855 13.3571 13.7664 14.2312 12.6327 14.2312C11.4989 14.2312 10.5798 13.3571 10.5798 12.2788C10.5798 11.2005 11.4989 10.3264 12.6327 10.3264C13.7664 10.3264 14.6855 11.2005 14.6855 12.2788Z" fill="url(#paint30_linear_283_2259)" fill-opacity="0.5"/>
<path d="M22.9457 14.2589C22.5055 12.6965 23.4804 11.0906 25.123 10.672C26.7657 10.2534 28.4542 11.1805 28.8943 12.7429C29.3345 14.3052 28.3596 15.9111 26.717 16.3297C25.0743 16.7484 23.3858 15.8212 22.9457 14.2589Z" fill="url(#paint31_linear_283_2259)" fill-opacity="0.5"/>
<path d="M20.4315 12.8783C19.9913 11.3159 20.9662 9.71002 22.6088 9.29139C24.2515 8.87276 25.94 9.79993 26.3801 11.3623C26.8203 12.9246 25.8454 14.5305 24.2028 14.9491C22.5601 15.3678 20.8717 14.4406 20.4315 12.8783Z" fill="url(#paint32_linear_283_2259)" fill-opacity="0.5"/>
<path d="M19.9951 16.3583C19.5549 14.796 20.5298 13.1901 22.1724 12.7715C23.8151 12.3528 25.5036 13.28 25.9437 14.8424C26.3839 16.4047 25.409 18.0106 23.7664 18.4292C22.1237 18.8479 20.4353 17.9207 19.9951 16.3583Z" fill="url(#paint33_linear_283_2259)" fill-opacity="0.5"/>
<path d="M16.159 15.3146C15.7188 13.7523 16.6937 12.1464 18.3363 11.7278C19.979 11.3091 21.6675 12.2363 22.1076 13.7987C22.5478 15.361 21.5729 16.9669 19.9303 17.3855C18.2876 17.8042 16.5991 16.877 16.159 15.3146Z" fill="url(#paint34_linear_283_2259)" fill-opacity="0.5"/>
<path d="M18.455 18.4353C18.1615 17.3937 18.8114 16.3231 19.9065 16.044C21.0017 15.7649 22.1273 16.3831 22.4207 17.4246C22.7142 18.4662 22.0643 19.5368 20.9692 19.8159C19.8741 20.095 18.7484 19.4768 18.455 18.4353Z" fill="url(#paint35_linear_283_2259)" fill-opacity="0.5"/>
<path d="M13.297 17.7285C13.0035 16.6869 13.6534 15.6163 14.7485 15.3372C15.8436 15.0581 16.9693 15.6762 17.2627 16.7178C17.5561 17.7594 16.9063 18.83 15.8111 19.1091C14.716 19.3881 13.5904 18.77 13.297 17.7285Z" fill="url(#paint36_linear_283_2259)" fill-opacity="0.5"/>
<path d="M17.8288 11.1834C17.5353 10.1418 18.1852 9.0712 19.2803 8.79211C20.3754 8.51302 21.5011 9.13113 21.7945 10.1727C22.0879 11.2143 21.4381 12.2849 20.3429 12.5639C19.2478 12.843 18.1222 12.2249 17.8288 11.1834Z" fill="url(#paint37_linear_283_2259)" fill-opacity="0.5"/>
<path d="M16.1179 17.6833C15.8245 16.6418 16.4744 15.5712 17.5695 15.2921C18.6646 15.013 19.7902 15.6311 20.0837 16.6727C20.3771 17.7142 19.7272 18.7848 18.6321 19.0639C17.537 19.343 16.4113 18.7249 16.1179 17.6833Z" fill="url(#paint38_linear_283_2259)" fill-opacity="0.5"/>
<path d="M10.5798 13.9058C10.5798 15.5233 9.20122 16.8345 7.50061 16.8345C5.79999 16.8345 4.42137 15.5233 4.42137 13.9058C4.42137 12.2884 5.79999 10.9772 7.50061 10.9772C9.20122 10.9772 10.5798 12.2884 10.5798 13.9058Z" fill="url(#paint39_linear_283_2259)" fill-opacity="0.5"/>
<path d="M12.6327 15.8583C12.6327 17.4757 11.254 18.787 9.55343 18.787C7.85282 18.787 6.4742 17.4757 6.4742 15.8583C6.4742 14.2408 7.85282 12.9296 9.55343 12.9296C11.254 12.9296 12.6327 14.2408 12.6327 15.8583Z" fill="url(#paint40_linear_283_2259)" fill-opacity="0.5"/>
<path d="M14.0012 12.6042C14.0012 14.2217 12.6226 15.5329 10.922 15.5329C9.22137 15.5329 7.84275 14.2217 7.84275 12.6042C7.84275 10.9868 9.22137 9.67554 10.922 9.67554C12.6226 9.67554 14.0012 10.9868 14.0012 12.6042Z" fill="url(#paint41_linear_283_2259)" fill-opacity="0.5"/>
<path d="M17.4226 14.5567C17.4226 16.1741 16.044 17.4853 14.3434 17.4853C12.6427 17.4853 11.2641 16.1741 11.2641 14.5567C11.2641 12.9392 12.6427 11.628 14.3434 11.628C16.044 11.628 17.4226 12.9392 17.4226 14.5567Z" fill="url(#paint42_linear_283_2259)" fill-opacity="0.5"/>
<path d="M16.054 10.9772C16.054 12.0555 15.135 12.9296 14.0012 12.9296C12.8675 12.9296 11.9484 12.0555 11.9484 10.9772C11.9484 9.89887 12.8675 9.02473 14.0012 9.02473C15.135 9.02473 16.054 9.89887 16.054 10.9772Z" fill="url(#paint43_linear_283_2259)" fill-opacity="0.5"/>
<path d="M20.844 12.9296C20.844 14.0079 19.9249 14.8821 18.7911 14.8821C17.6574 14.8821 16.7383 14.0079 16.7383 12.9296C16.7383 11.8513 17.6574 10.9772 18.7911 10.9772C19.9249 10.9772 20.844 11.8513 20.844 12.9296Z" fill="url(#paint44_linear_283_2259)" fill-opacity="0.5"/>
<path d="M14.6855 18.1361C14.6855 19.2144 13.7664 20.0886 12.6327 20.0886C11.4989 20.0886 10.5798 19.2144 10.5798 18.1361C10.5798 17.0578 11.4989 16.1837 12.6327 16.1837C13.7664 16.1837 14.6855 17.0578 14.6855 18.1361Z" fill="url(#paint45_linear_283_2259)" fill-opacity="0.5"/>
<path d="M18.1069 12.2788C18.1069 13.3571 17.1878 14.2312 16.054 14.2312C14.9203 14.2312 14.0012 13.3571 14.0012 12.2788C14.0012 11.2005 14.9203 10.3264 16.054 10.3264C17.1878 10.3264 18.1069 11.2005 18.1069 12.2788Z" fill="url(#paint46_linear_283_2259)" fill-opacity="0.5"/>
<path d="M19.6408 15.1011C19.2007 13.5387 20.1755 11.9328 21.8182 11.5142C23.4609 11.0956 25.1493 12.0227 25.5895 13.5851C26.0296 15.1474 25.0548 16.7533 23.4121 17.172C21.7694 17.5906 20.081 16.6634 19.6408 15.1011Z" fill="url(#paint47_linear_283_2259)" fill-opacity="0.5"/>
<path d="M17.1266 13.7205C16.6865 12.1581 17.6613 10.5522 19.304 10.1336C20.9467 9.71498 22.6351 10.6421 23.0753 12.2045C23.5154 13.7668 22.5406 15.3727 20.8979 15.7914C19.2553 16.21 17.5668 15.2828 17.1266 13.7205Z" fill="url(#paint48_linear_283_2259)" fill-opacity="0.5"/>
<path d="M16.6903 17.2006C16.2501 15.6382 17.2249 14.0323 18.8676 13.6137C20.5103 13.1951 22.1987 14.1222 22.6389 15.6846C23.079 17.2469 22.1042 18.8528 20.4615 19.2715C18.8189 19.6901 17.1304 18.7629 16.6903 17.2006Z" fill="url(#paint49_linear_283_2259)" fill-opacity="0.5"/>
<path d="M12.8541 16.1569C12.414 14.5945 13.3888 12.9886 15.0315 12.57C16.6742 12.1514 18.3626 13.0785 18.8028 14.6409C19.2429 16.2032 18.2681 17.8091 16.6254 18.2277C14.9828 18.6464 13.2943 17.7192 12.8541 16.1569Z" fill="url(#paint50_linear_283_2259)" fill-opacity="0.5"/>
<path d="M15.1501 19.2775C14.8567 18.2359 15.5066 17.1653 16.6017 16.8862C17.6968 16.6072 18.8224 17.2253 19.1159 18.2668C19.4093 19.3084 18.7594 20.379 17.6643 20.6581C16.5692 20.9372 15.4436 20.3191 15.1501 19.2775Z" fill="url(#paint51_linear_283_2259)" fill-opacity="0.5"/>
<path d="M9.99211 18.5707C9.69868 17.5291 10.3486 16.4585 11.4437 16.1794C12.5388 15.9003 13.6644 16.5185 13.9579 17.56C14.2513 18.6016 13.6014 19.6722 12.5063 19.9513C11.4112 20.2304 10.2855 19.6122 9.99211 18.5707Z" fill="url(#paint52_linear_283_2259)" fill-opacity="0.5"/>
<path d="M14.5239 12.0256C14.2305 10.984 14.8804 9.91342 15.9755 9.63433C17.0706 9.35524 18.1962 9.97335 18.4897 11.0149C18.7831 12.0565 18.1332 13.1271 17.0381 13.4062C15.943 13.6853 14.8173 13.0671 14.5239 12.0256Z" fill="url(#paint53_linear_283_2259)" fill-opacity="0.5"/>
<path d="M12.8131 18.5255C12.5196 17.484 13.1695 16.4134 14.2646 16.1343C15.3597 15.8552 16.4854 16.4733 16.7788 17.5149C17.0722 18.5565 16.4223 19.6271 15.3272 19.9061C14.2321 20.1852 13.1065 19.5671 12.8131 18.5255Z" fill="url(#paint54_linear_283_2259)" fill-opacity="0.5"/>
</g>
<defs>
<filter id="filter0_f_283_2259" x="0" y="7.7251" width="30" height="14" filterUnits="userSpaceOnUse" color-interpolation-filters="sRGB">
<feFlood flood-opacity="0" result="BackgroundImageFix"/>
<feBlend mode="normal" in="SourceGraphic" in2="BackgroundImageFix" result="shape"/>
<feGaussianBlur stdDeviation="0.5" result="effect1_foregroundBlur_283_2259"/>
</filter>
<linearGradient id="paint0_linear_283_2259" x1="7.23449" y1="7.40395" x2="7.5" y2="9.26632" gradientUnits="userSpaceOnUse">
<stop stop-color="#D9D9D9" stop-opacity="0.23"/>
<stop offset="1" stop-color="white"/>
</linearGradient>
<linearGradient id="paint1_linear_283_2259" x1="9.78759" y1="5.86816" x2="10" y2="7.35805" gradientUnits="userSpaceOnUse">
<stop stop-color="#D9D9D9" stop-opacity="0.23"/>
<stop offset="1" stop-color="white"/>
</linearGradient>
<linearGradient id="paint2_linear_283_2259" x1="9.34069" y1="1.33236" x2="9.5" y2="2.44978" gradientUnits="userSpaceOnUse">
<stop stop-color="#D9D9D9" stop-opacity="0.23"/>
<stop offset="1" stop-color="white"/>
</linearGradient>
<linearGradient id="paint3_linear_283_2259" x1="13.8938" y1="3.79669" x2="14" y2="4.54164" gradientUnits="userSpaceOnUse">
<stop stop-color="#D9D9D9" stop-opacity="0.23"/>
<stop offset="1" stop-color="white"/>
</linearGradient>
<linearGradient id="paint4_linear_283_2259" x1="9.68139" y1="9.93975" x2="10" y2="12.1746" gradientUnits="userSpaceOnUse">
<stop stop-color="#D9D9D9" stop-opacity="0.23"/>
<stop offset="1" stop-color="white"/>
</linearGradient>
<linearGradient id="paint5_linear_283_2259" x1="13.6814" y1="9.93975" x2="14" y2="12.1746" gradientUnits="userSpaceOnUse">
<stop stop-color="#D9D9D9" stop-opacity="0.23"/>
<stop offset="1" stop-color="white"/>
</linearGradient>
<linearGradient id="paint6_linear_283_2259" x1="12.3407" y1="7.33236" x2="12.5" y2="8.44978" gradientUnits="userSpaceOnUse">
<stop stop-color="#D9D9D9" stop-opacity="0.23"/>
<stop offset="1" stop-color="white"/>
</linearGradient>
<linearGradient id="paint7_linear_283_2259" x1="4.23449" y1="11.404" x2="4.5" y2="13.2663" gradientUnits="userSpaceOnUse">
<stop stop-color="#D9D9D9" stop-opacity="0.23"/>
<stop offset="1" stop-color="white"/>
</linearGradient>
<linearGradient id="paint8_linear_283_2259" x1="6.78759" y1="9.86816" x2="7" y2="11.3581" gradientUnits="userSpaceOnUse">
<stop stop-color="#D9D9D9" stop-opacity="0.23"/>
<stop offset="1" stop-color="white"/>
</linearGradient>
<linearGradient id="paint9_linear_283_2259" x1="6.68139" y1="13.9397" x2="7" y2="16.1746" gradientUnits="userSpaceOnUse">
<stop stop-color="#D9D9D9" stop-opacity="0.23"/>
<stop offset="1" stop-color="white"/>
</linearGradient>
<linearGradient id="paint10_linear_283_2259" x1="10.6814" y1="13.9397" x2="11" y2="16.1746" gradientUnits="userSpaceOnUse">
<stop stop-color="#D9D9D9" stop-opacity="0.23"/>
<stop offset="1" stop-color="white"/>
</linearGradient>
<linearGradient id="paint11_linear_283_2259" x1="9.34069" y1="11.3324" x2="9.5" y2="12.4498" gradientUnits="userSpaceOnUse">
<stop stop-color="#D9D9D9" stop-opacity="0.23"/>
<stop offset="1" stop-color="white"/>
</linearGradient>
<linearGradient id="paint12_linear_283_2259" x1="18.2345" y1="9.40395" x2="18.5" y2="11.2663" gradientUnits="userSpaceOnUse">
<stop stop-color="#D9D9D9" stop-opacity="0.23"/>
<stop offset="1" stop-color="white"/>
</linearGradient>
<linearGradient id="paint13_linear_283_2259" x1="20.7876" y1="7.86816" x2="21" y2="9.35805" gradientUnits="userSpaceOnUse">
<stop stop-color="#D9D9D9" stop-opacity="0.23"/>
<stop offset="1" stop-color="white"/>
</linearGradient>
<linearGradient id="paint14_linear_283_2259" x1="20.3407" y1="3.33236" x2="20.5" y2="4.44978" gradientUnits="userSpaceOnUse">
<stop stop-color="#D9D9D9" stop-opacity="0.23"/>
<stop offset="1" stop-color="white"/>
</linearGradient>
<linearGradient id="paint15_linear_283_2259" x1="20.6814" y1="11.9397" x2="21" y2="14.1746" gradientUnits="userSpaceOnUse">
<stop stop-color="#D9D9D9" stop-opacity="0.23"/>
<stop offset="1" stop-color="white"/>
</linearGradient>
<linearGradient id="paint16_linear_283_2259" x1="24.6814" y1="11.9397" x2="25" y2="14.1746" gradientUnits="userSpaceOnUse">
<stop stop-color="#D9D9D9" stop-opacity="0.23"/>
<stop offset="1" stop-color="white"/>
</linearGradient>
<linearGradient id="paint17_linear_283_2259" x1="23.3407" y1="9.33236" x2="23.5" y2="10.4498" gradientUnits="userSpaceOnUse">
<stop stop-color="#D9D9D9" stop-opacity="0.23"/>
<stop offset="1" stop-color="white"/>
</linearGradient>
<linearGradient id="paint18_linear_283_2259" x1="15.2345" y1="13.404" x2="15.5" y2="15.2663" gradientUnits="userSpaceOnUse">
<stop stop-color="#D9D9D9" stop-opacity="0.23"/>
<stop offset="1" stop-color="white"/>
</linearGradient>
<linearGradient id="paint19_linear_283_2259" x1="17.7876" y1="11.8682" x2="18" y2="13.3581" gradientUnits="userSpaceOnUse">
<stop stop-color="#D9D9D9" stop-opacity="0.23"/>
<stop offset="1" stop-color="white"/>
</linearGradient>
<linearGradient id="paint20_linear_283_2259" x1="17.6814" y1="15.9397" x2="18" y2="18.1746" gradientUnits="userSpaceOnUse">
<stop stop-color="#D9D9D9" stop-opacity="0.23"/>
<stop offset="1" stop-color="white"/>
</linearGradient>
<linearGradient id="paint21_linear_283_2259" x1="21.6814" y1="15.9397" x2="22" y2="18.1746" gradientUnits="userSpaceOnUse">
<stop stop-color="#D9D9D9" stop-opacity="0.23"/>
<stop offset="1" stop-color="white"/>
</linearGradient>
<linearGradient id="paint22_linear_283_2259" x1="20.3407" y1="13.3324" x2="20.5" y2="14.4498" gradientUnits="userSpaceOnUse">
<stop stop-color="#D9D9D9" stop-opacity="0.23"/>
<stop offset="1" stop-color="white"/>
</linearGradient>
<linearGradient id="paint23_linear_283_2259" x1="15" y1="8.7251" x2="15" y2="20.7251" gradientUnits="userSpaceOnUse">
<stop stop-color="#F4FAFF"/>
<stop offset="1" stop-color="white" stop-opacity="0"/>
</linearGradient>
<linearGradient id="paint24_linear_283_2259" x1="15" y1="8.7251" x2="15" y2="20.7251" gradientUnits="userSpaceOnUse">
<stop stop-color="#F4FAFF"/>
<stop offset="1" stop-color="white" stop-opacity="0"/>
</linearGradient>
<linearGradient id="paint25_linear_283_2259" x1="15" y1="8.7251" x2="15" y2="20.7251" gradientUnits="userSpaceOnUse">
<stop stop-color="#F4FAFF"/>
<stop offset="1" stop-color="white" stop-opacity="0"/>
</linearGradient>
<linearGradient id="paint26_linear_283_2259" x1="15" y1="8.7251" x2="15" y2="20.7251" gradientUnits="userSpaceOnUse">
<stop stop-color="#F4FAFF"/>
<stop offset="1" stop-color="white" stop-opacity="0"/>
</linearGradient>
<linearGradient id="paint27_linear_283_2259" x1="15" y1="8.7251" x2="15" y2="20.7251" gradientUnits="userSpaceOnUse">
<stop stop-color="#F4FAFF"/>
<stop offset="1" stop-color="white" stop-opacity="0"/>
</linearGradient>
<linearGradient id="paint28_linear_283_2259" x1="15" y1="8.7251" x2="15" y2="20.7251" gradientUnits="userSpaceOnUse">
<stop stop-color="#F4FAFF"/>
<stop offset="1" stop-color="white" stop-opacity="0"/>
</linearGradient>
<linearGradient id="paint29_linear_283_2259" x1="15" y1="8.7251" x2="15" y2="20.7251" gradientUnits="userSpaceOnUse">
<stop stop-color="#F4FAFF"/>
<stop offset="1" stop-color="white" stop-opacity="0"/>
</linearGradient>
<linearGradient id="paint30_linear_283_2259" x1="15" y1="8.7251" x2="15" y2="20.7251" gradientUnits="userSpaceOnUse">
<stop stop-color="#F4FAFF"/>
<stop offset="1" stop-color="white" stop-opacity="0"/>
</linearGradient>
<linearGradient id="paint31_linear_283_2259" x1="15" y1="8.7251" x2="15" y2="20.7251" gradientUnits="userSpaceOnUse">
<stop stop-color="#F4FAFF"/>
<stop offset="1" stop-color="white" stop-opacity="0"/>
</linearGradient>
<linearGradient id="paint32_linear_283_2259" x1="15" y1="8.7251" x2="15" y2="20.7251" gradientUnits="userSpaceOnUse">
<stop stop-color="#F4FAFF"/>
<stop offset="1" stop-color="white" stop-opacity="0"/>
</linearGradient>
<linearGradient id="paint33_linear_283_2259" x1="15" y1="8.7251" x2="15" y2="20.7251" gradientUnits="userSpaceOnUse">
<stop stop-color="#F4FAFF"/>
<stop offset="1" stop-color="white" stop-opacity="0"/>
</linearGradient>
<linearGradient id="paint34_linear_283_2259" x1="15" y1="8.7251" x2="15" y2="20.7251" gradientUnits="userSpaceOnUse">
<stop stop-color="#F4FAFF"/>
<stop offset="1" stop-color="white" stop-opacity="0"/>
</linearGradient>
<linearGradient id="paint35_linear_283_2259" x1="15" y1="8.7251" x2="15" y2="20.7251" gradientUnits="userSpaceOnUse">
<stop stop-color="#F4FAFF"/>
<stop offset="1" stop-color="white" stop-opacity="0"/>
</linearGradient>
<linearGradient id="paint36_linear_283_2259" x1="15" y1="8.7251" x2="15" y2="20.7251" gradientUnits="userSpaceOnUse">
<stop stop-color="#F4FAFF"/>
<stop offset="1" stop-color="white" stop-opacity="0"/>
</linearGradient>
<linearGradient id="paint37_linear_283_2259" x1="15" y1="8.7251" x2="15" y2="20.7251" gradientUnits="userSpaceOnUse">
<stop stop-color="#F4FAFF"/>
<stop offset="1" stop-color="white" stop-opacity="0"/>
</linearGradient>
<linearGradient id="paint38_linear_283_2259" x1="15" y1="8.7251" x2="15" y2="20.7251" gradientUnits="userSpaceOnUse">
<stop stop-color="#F4FAFF"/>
<stop offset="1" stop-color="white" stop-opacity="0"/>
</linearGradient>
<linearGradient id="paint39_linear_283_2259" x1="15" y1="8.7251" x2="15" y2="20.7251" gradientUnits="userSpaceOnUse">
<stop stop-color="#F4FAFF"/>
<stop offset="1" stop-color="white" stop-opacity="0"/>
</linearGradient>
<linearGradient id="paint40_linear_283_2259" x1="15" y1="8.7251" x2="15" y2="20.7251" gradientUnits="userSpaceOnUse">
<stop stop-color="#F4FAFF"/>
<stop offset="1" stop-color="white" stop-opacity="0"/>
</linearGradient>
<linearGradient id="paint41_linear_283_2259" x1="15" y1="8.7251" x2="15" y2="20.7251" gradientUnits="userSpaceOnUse">
<stop stop-color="#F4FAFF"/>
<stop offset="1" stop-color="white" stop-opacity="0"/>
</linearGradient>
<linearGradient id="paint42_linear_283_2259" x1="15" y1="8.7251" x2="15" y2="20.7251" gradientUnits="userSpaceOnUse">
<stop stop-color="#F4FAFF"/>
<stop offset="1" stop-color="white" stop-opacity="0"/>
</linearGradient>
<linearGradient id="paint43_linear_283_2259" x1="15" y1="8.7251" x2="15" y2="20.7251" gradientUnits="userSpaceOnUse">
<stop stop-color="#F4FAFF"/>
<stop offset="1" stop-color="white" stop-opacity="0"/>
</linearGradient>
<linearGradient id="paint44_linear_283_2259" x1="15" y1="8.7251" x2="15" y2="20.7251" gradientUnits="userSpaceOnUse">
<stop stop-color="#F4FAFF"/>
<stop offset="1" stop-color="white" stop-opacity="0"/>
</linearGradient>
<linearGradient id="paint45_linear_283_2259" x1="15" y1="8.7251" x2="15" y2="20.7251" gradientUnits="userSpaceOnUse">
<stop stop-color="#F4FAFF"/>
<stop offset="1" stop-color="white" stop-opacity="0"/>
</linearGradient>
<linearGradient id="paint46_linear_283_2259" x1="15" y1="8.7251" x2="15" y2="20.7251" gradientUnits="userSpaceOnUse">
<stop stop-color="#F4FAFF"/>
<stop offset="1" stop-color="white" stop-opacity="0"/>
</linearGradient>
<linearGradient id="paint47_linear_283_2259" x1="15" y1="8.7251" x2="15" y2="20.7251" gradientUnits="userSpaceOnUse">
<stop stop-color="#F4FAFF"/>
<stop offset="1" stop-color="white" stop-opacity="0"/>
</linearGradient>
<linearGradient id="paint48_linear_283_2259" x1="15" y1="8.7251" x2="15" y2="20.7251" gradientUnits="userSpaceOnUse">
<stop stop-color="#F4FAFF"/>
<stop offset="1" stop-color="white" stop-opacity="0"/>
</linearGradient>
<linearGradient id="paint49_linear_283_2259" x1="15" y1="8.7251" x2="15" y2="20.7251" gradientUnits="userSpaceOnUse">
<stop stop-color="#F4FAFF"/>
<stop offset="1" stop-color="white" stop-opacity="0"/>
</linearGradient>
<linearGradient id="paint50_linear_283_2259" x1="15" y1="8.7251" x2="15" y2="20.7251" gradientUnits="userSpaceOnUse">
<stop stop-color="#F4FAFF"/>
<stop offset="1" stop-color="white" stop-opacity="0"/>
</linearGradient>
<linearGradient id="paint51_linear_283_2259" x1="15" y1="8.7251" x2="15" y2="20.7251" gradientUnits="userSpaceOnUse">
<stop stop-color="#F4FAFF"/>
<stop offset="1" stop-color="white" stop-opacity="0"/>
</linearGradient>
<linearGradient id="paint52_linear_283_2259" x1="15" y1="8.7251" x2="15" y2="20.7251" gradientUnits="userSpaceOnUse">
<stop stop-color="#F4FAFF"/>
<stop offset="1" stop-color="white" stop-opacity="0"/>
</linearGradient>
<linearGradient id="paint53_linear_283_2259" x1="15" y1="8.7251" x2="15" y2="20.7251" gradientUnits="userSpaceOnUse">
<stop stop-color="#F4FAFF"/>
<stop offset="1" stop-color="white" stop-opacity="0"/>
</linearGradient>
<linearGradient id="paint54_linear_283_2259" x1="15" y1="8.7251" x2="15" y2="20.7251" gradientUnits="userSpaceOnUse">
<stop stop-color="#F4FAFF"/>
<stop offset="1" stop-color="white" stop-opacity="0"/>
</linearGradient>
</defs>
</svg>
