<svg width="22" height="20" viewBox="0 0 22 20" fill="none" xmlns="http://www.w3.org/2000/svg">
<mask id="mask0_22_94" style="mask-type:alpha" maskUnits="userSpaceOnUse" x="-1" y="-3" width="24" height="25">
<rect x="-1" y="-2.8" width="24" height="24" fill="#EDEEF0"/>
</mask>
<g mask="url(#mask0_22_94)">
<path d="M18.8 19.8L14.6 15.65C14.0167 15.8333 13.4293 15.971 12.838 16.063C12.246 16.1543 11.6333 16.2 11 16.2C8.48333 16.2 6.24167 15.5043 4.275 14.113C2.30833 12.721 0.883333 10.9167 0 8.7C0.35 7.81667 0.791667 6.99567 1.325 6.237C1.85833 5.479 2.46667 4.8 3.15 4.2L0.4 1.4L1.8 0L20.2 18.4L18.8 19.8ZM11 13.2C11.1833 13.2 11.354 13.1917 11.512 13.175C11.6707 13.1583 11.8417 13.125 12.025 13.075L6.625 7.675C6.575 7.85833 6.54167 8.02933 6.525 8.188C6.50833 8.346 6.5 8.51667 6.5 8.7C6.5 9.95 6.93733 11.0127 7.812 11.888C8.68733 12.7627 9.75 13.2 11 13.2ZM18.3 13.65L15.125 10.5C15.2417 10.2167 15.3333 9.92933 15.4 9.638C15.4667 9.346 15.5 9.03333 15.5 8.7C15.5 7.45 15.0627 6.38733 14.188 5.512C13.3127 4.63733 12.25 4.2 11 4.2C10.6667 4.2 10.354 4.23333 10.062 4.3C9.77067 4.36667 9.48333 4.46667 9.2 4.6L6.65 2.05C7.33333 1.76667 8.03333 1.554 8.75 1.412C9.46667 1.27067 10.2167 1.2 11 1.2C13.5167 1.2 15.7583 1.89567 17.725 3.287C19.6917 4.679 21.1167 6.48333 22 8.7C21.6167 9.68333 21.1127 10.596 20.488 11.438C19.8627 12.2793 19.1333 13.0167 18.3 13.65ZM13.675 9.05L10.675 6.05C11.1417 5.96667 11.571 6.004 11.963 6.162C12.3543 6.32067 12.6917 6.55 12.975 6.85C13.2583 7.15 13.4627 7.496 13.588 7.888C13.7127 8.27933 13.7417 8.66667 13.675 9.05Z" fill="#EDEEF0"/>
</g>
</svg>
