<svg width="98" height="112" viewBox="0 0 98 112" fill="none" xmlns="http://www.w3.org/2000/svg">
<path d="M38.7923 2.79999H36.3217V73.6235H38.7923V2.79999Z" fill="#C1D8E5"/>
<path d="M73.5452 5.76471H70.5805V80.0471H73.5452V5.76471Z" fill="white"/>
<path d="M97.4275 20.5882L79.804 6.58824C64.4864 4.94118 24.6275 0.988233 21.9922 0.988233C19.5216 0.988233 20.5099 1.97647 20.5099 1.97647L76.0158 9.22353L91.3334 24.2118L97.2628 22.4L97.4275 20.5882Z" fill="#C1D8E5"/>
<path d="M79.9686 4.77647C64.651 3.12941 28.7451 0 26.2745 0C23.8039 0 20.3451 0.823529 20.3451 0.823529L76.3451 7.41176L91.6627 22.4L97.5921 20.5882L79.9686 4.77647Z" fill="white"/>
<path d="M32.2041 112L0 80.8428L17.5888 69.787L34.51 79.2235L50.6512 92.2353L32.2041 112Z" fill="#C1D8E5"/>
<path d="M39.9454 98.8235L93.1454 98.1647L93.4748 96.3529L70.4159 86.3059L27.4277 90.5882L39.9454 98.8235Z" fill="white"/>
<path d="M32.2043 112L93.4748 109.529V96.3529L32.2043 97.1765V112Z" fill="#C1D8E5"/>
<path d="M28.7453 81.6941L82.11 80.7059L39.2865 66.3765L0.415917 65.2235L28.7453 81.6941Z" fill="white"/>
<path d="M26.7689 91.9059L82.1101 91.4118V80.7059L26.6042 81.2L26.7689 91.9059Z" fill="#C1D8E5"/>
</svg>
