<svg width="60" height="78" viewBox="0 0 60 78" fill="none" xmlns="http://www.w3.org/2000/svg">
<path d="M23.6417 42.6861C26.5968 39.7309 28.7312 39.5667 28.7312 39.5667C28.7312 39.5667 32.6714 39.0742 33.8207 38.7458C39.8952 37.5966 38.746 35.2981 38.746 35.2981C38.746 35.2981 41.7012 28.8952 43.0146 28.8952C44.9847 28.731 47.4474 37.1041 51.3876 47.2831C51.8802 48.4323 60.9099 60.7456 59.9248 66.656C59.4323 70.1037 43.1788 72.8947 39.0743 76.9992C37.7609 78.3126 33.8207 72.0738 33.1639 70.7604C32.5072 69.447 30.8655 63.5366 24.9551 53.0293C25.1193 52.8651 22.9849 43.3428 23.6417 42.6861Z" fill="#002E93"/>
<path d="M38.4174 33.9847L39.5667 34.9698C39.5667 34.9698 39.4025 37.2682 37.104 38.0891C34.4772 39.0742 29.3877 40.2234 27.9101 39.8951C28.5668 38.0891 28.0743 37.7608 28.0743 37.7608C28.0743 37.7608 32.9996 37.5966 36.4473 36.119C37.7607 35.4623 38.4174 33.9847 38.4174 33.9847Z" fill="#0543CE"/>
<path d="M1.11276 26.4044C0.784403 25.7477 0.620226 25.2551 0.784403 24.9268C0.94858 24.5984 1.76947 24.7626 2.262 25.5835C2.09782 25.4193 1.93364 25.091 1.76947 24.9268C0.784403 23.7775 2.91871 24.2701 2.91871 24.2701C2.91871 24.2701 3.41124 25.2551 3.41124 25.4193C3.08289 24.9268 3.24706 24.7626 2.91871 24.4342C2.59035 24.2701 2.42618 24.2701 2.262 24.1059C1.93364 23.6134 2.59035 23.285 2.91871 23.4492C3.08289 23.6134 4.06795 23.9417 4.06795 23.9417C4.3963 24.2701 5.21719 25.2551 5.38137 25.7477C5.70972 26.4044 6.69479 29.6879 6.69479 29.6879C6.69479 29.6879 9.97833 34.6132 11.1276 35.5983C12.441 36.5834 8.50074 39.8669 8.50074 39.8669C8.50074 39.8669 4.72466 34.1207 3.24706 32.8073C1.76947 31.658 0.291871 28.5387 0.291871 28.5387C0.291871 28.5387 -0.364839 26.5685 0.291871 26.076C0.620226 25.9118 0.784403 26.076 1.11276 26.4044Z" fill="#E5C0AE"/>
<path d="M39.6944 16.0612L31.8139 7.68817C31.8139 7.68817 27.0528 6.04639 26.3961 4.73297C26.3961 4.73297 25.0826 3.0912 25.5752 2.59867C26.2319 1.77778 27.0528 2.76285 27.2169 2.92702C26.7244 2.27031 26.0677 1.94196 26.3961 1.44943C26.8886 0.792718 27.3811 1.12107 27.8737 1.61361C27.7095 1.28525 27.0528 1.12107 27.7095 0.628541C28.0378 0.300186 28.8587 0.792718 29.1871 1.12107C28.8587 0.792718 28.5304 0.628541 29.0229 0.136009C29.3513 -0.192346 30.5005 0.136009 31.1572 0.464364C32.1423 0.956896 32.9632 2.27031 34.2766 3.91209C35.2616 5.22551 44.6197 10.1508 45.769 11.9568C47.4108 14.912 39.6944 16.0612 39.6944 16.0612Z" fill="#E5C0AE"/>
<path d="M41.8286 32.9715C41.9928 32.1506 42.9779 21.3149 41.8286 18.8522C40.6794 16.3896 38.0526 14.5836 38.0526 14.5836C38.0526 14.5836 42.6495 10.315 42.9779 8.1807C46.754 11.6284 49.7092 13.2702 50.53 16.7179C51.3509 20.1656 53.4852 38.7177 50.53 42.8221C48.7241 45.1206 41.8286 32.9715 41.8286 32.9715Z" fill="#002E93"/>
<path d="M41.8286 18.8522C40.6794 16.3896 38.0526 14.5836 38.0526 14.5836C38.0526 14.5836 38.8735 13.7627 39.8585 12.6135C41.6645 14.4194 43.7988 17.5388 43.7988 17.5388C43.7988 17.5388 44.7838 19.0164 44.6197 20.9865C44.4555 23.1208 45.7689 29.6879 42.8137 31.9864C42.4854 32.1506 41.8286 31.658 41.5003 31.658C42.6495 29.0312 42.9779 21.1507 41.8286 18.8522Z" fill="#0543CE"/>
<path d="M25.6117 42.1936C20.358 43.1786 18.8804 41.0443 14.9402 40.5518L8.04471 32.6713L6.40293 34.313L4.92534 37.4324C4.92534 37.4324 12.3133 48.4323 14.776 49.4174C17.2386 50.2383 24.955 54.1785 28.0743 53.686C31.3579 53.0293 30.0445 41.3727 25.6117 42.1936Z" fill="#002E93"/>
<path d="M9.19387 31.3578C9.19387 31.3578 14.9401 39.8951 15.761 39.8951C16.746 39.8951 22.8206 42.0294 23.8057 41.5368C24.6265 41.0443 28.731 39.7309 28.731 39.4025C28.731 39.0742 31.3578 39.4025 31.3578 39.4025C31.3578 39.4025 26.1041 42.5219 25.2833 43.8353C24.4624 45.1487 15.4326 42.6861 12.8058 40.8801C10.3431 39.0742 6.56704 34.1489 6.56704 34.1489C6.56704 34.1489 9.0297 31.522 9.19387 31.3578Z" fill="#0543CE"/>
</svg>
