<svg width="19" height="22" viewBox="0 0 19 22" fill="none" xmlns="http://www.w3.org/2000/svg">
<mask id="mask0_66_2460" style="mask-type:alpha" maskUnits="userSpaceOnUse" x="-4" y="-1" width="24" height="24">
<rect x="-4" y="-1" width="24" height="24" fill="white"/>
</mask>
<g mask="url(#mask0_66_2460)">
<path d="M5 7H11V5C11 4.16667 10.7083 3.45833 10.125 2.875C9.54167 2.29167 8.83333 2 8 2C7.16667 2 6.45833 2.29167 5.875 2.875C5.29167 3.45833 5 4.16667 5 5V7ZM14 22C12.6167 22 11.4377 21.5127 10.463 20.538C9.48767 19.5627 9 18.3833 9 17C9 15.6167 9.48767 14.4373 10.463 13.462C11.4377 12.4873 12.6167 12 14 12C15.3833 12 16.5627 12.4873 17.538 13.462C18.5127 14.4373 19 15.6167 19 17C19 18.3833 18.5127 19.5627 17.538 20.538C16.5627 21.5127 15.3833 22 14 22ZM8.25 21H2C1.45 21 0.979333 20.8043 0.588 20.413C0.196 20.021 0 19.55 0 19V9C0 8.45 0.196 7.979 0.588 7.587C0.979333 7.19567 1.45 7 2 7H3V5C3 3.61667 3.48767 2.43733 4.463 1.462C5.43767 0.487333 6.61667 0 8 0C9.38333 0 10.5627 0.487333 11.538 1.462C12.5127 2.43733 13 3.61667 13 5V7H14C14.55 7 15.021 7.19567 15.413 7.587C15.8043 7.979 16 8.45 16 9V10.3C15.6667 10.1833 15.3333 10.104 15 10.062C14.6667 10.0207 14.3333 10 14 10C12.05 10 10.396 10.679 9.038 12.037C7.67933 13.3957 7 15.05 7 17C7 17.7167 7.11267 18.4123 7.338 19.087C7.56267 19.7623 7.86667 20.4 8.25 21Z" fill="white"/>
<path d="M12.3334 20L10.1277 17.7447L10.9444 17L12.3334 18.5106L16.1834 15L17 15.7447L12.3334 20Z" fill="#69B935"/>
</g>
</svg>
