<svg width="24" height="22" viewBox="0 0 24 22" fill="none" xmlns="http://www.w3.org/2000/svg">
<path d="M10.5836 0.573215C11.3732 -0.191071 12.6268 -0.191072 13.4164 0.573214L23.3758 10.213C24.691 11.486 23.7898 13.7129 21.9593 13.7129H2.04065C0.21019 13.7129 -0.691022 11.486 0.624239 10.213L10.5836 0.573215Z" fill="#9997FC"/>
<path fill-rule="evenodd" clip-rule="evenodd" d="M4.87195 10.4035C3.74717 10.4035 2.83536 11.3153 2.83536 12.4401V19.5681C2.83536 20.6929 3.74717 21.6047 4.87195 21.6047H9.96341V16.5132H14.0366V21.6047H19.1281C20.2528 21.6047 21.1646 20.6929 21.1646 19.5681V12.4401C21.1646 11.3153 20.2528 10.4035 19.1281 10.4035H4.87195Z" fill="#9997FC"/>
</svg>
