<svg width="78" height="78" viewBox="0 0 78 78" fill="none" xmlns="http://www.w3.org/2000/svg">
<path d="M78 39C78 60.5391 60.5391 78 39 78C17.4609 78 0 60.5391 0 39C0 17.4609 17.4609 0 39 0C60.5391 0 78 17.4609 78 39ZM9.06661 39C9.06661 55.5318 22.4682 68.9334 39 68.9334C55.5318 68.9334 68.9334 55.5318 68.9334 39C68.9334 22.4682 55.5318 9.06661 39 9.06661C22.4682 9.06661 9.06661 22.4682 9.06661 39Z" fill="white"/>
<path d="M78 39C78 60.5391 60.5391 78 39 78C17.4609 78 0 60.5391 0 39C0 17.4609 17.4609 0 39 0C60.5391 0 78 17.4609 78 39ZM9.06661 39C9.06661 55.5318 22.4682 68.9334 39 68.9334C55.5318 68.9334 68.9334 55.5318 68.9334 39C68.9334 22.4682 55.5318 9.06661 39 9.06661C22.4682 9.06661 9.06661 22.4682 9.06661 39Z" fill="white"/>
<path d="M78 39C78 60.5391 60.5391 78 39 78C17.4609 78 0 60.5391 0 39C0 17.4609 17.4609 0 39 0C60.5391 0 78 17.4609 78 39ZM9.06661 39C9.06661 55.5318 22.4682 68.9334 39 68.9334C55.5318 68.9334 68.9334 55.5318 68.9334 39C68.9334 22.4682 55.5318 9.06661 39 9.06661C22.4682 9.06661 9.06661 22.4682 9.06661 39Z" fill="white"/>
<path d="M26.0597 21.4016C25.0271 19.9973 25.3207 18.002 26.8439 17.1544C29.8762 15.4671 33.2372 14.4237 36.7157 14.1046C40.1943 13.7854 43.689 14.1997 46.9778 15.307C48.6297 15.8633 49.2816 17.7719 48.5218 19.3407C47.7619 20.9094 45.8772 21.5365 44.203 21.0512C41.9698 20.4039 39.6263 20.1764 37.2925 20.3905C34.9587 20.6046 32.6957 21.2548 30.6176 22.2977C29.0597 23.0796 27.0923 22.806 26.0597 21.4016Z" fill="white"/>
<path d="M26.0597 21.4016C25.0271 19.9973 25.3207 18.002 26.8439 17.1544C29.8762 15.4671 33.2372 14.4237 36.7157 14.1046C40.1943 13.7854 43.689 14.1997 46.9778 15.307C48.6297 15.8633 49.2816 17.7719 48.5218 19.3407C47.7619 20.9094 45.8772 21.5365 44.203 21.0512C41.9698 20.4039 39.6263 20.1764 37.2925 20.3905C34.9587 20.6046 32.6957 21.2548 30.6176 22.2977C29.0597 23.0796 27.0923 22.806 26.0597 21.4016Z" fill="white"/>
<path d="M26.0597 21.4016C25.0271 19.9973 25.3207 18.002 26.8439 17.1544C29.8762 15.4671 33.2372 14.4237 36.7157 14.1046C40.1943 13.7854 43.689 14.1997 46.9778 15.307C48.6297 15.8633 49.2816 17.7719 48.5218 19.3407C47.7619 20.9094 45.8772 21.5365 44.203 21.0512C41.9698 20.4039 39.6263 20.1764 37.2925 20.3905C34.9587 20.6046 32.6957 21.2548 30.6176 22.2977C29.0597 23.0796 27.0923 22.806 26.0597 21.4016Z" fill="white"/>
<circle cx="21.5" cy="26.5" r="3.5" fill="white"/>
</svg>
