<svg width="62" height="62" viewBox="0 0 62 62" fill="none" xmlns="http://www.w3.org/2000/svg">
<g filter="url(#filter0_f_554_39839)">
<path d="M51.001 32.0002C51.001 42.3161 42.3139 51.0033 31.9979 51.0033C21.6819 51.0033 12.9948 42.3161 12.9948 32.0002C12.9948 21.6842 21.6819 12.9971 31.9979 12.9971C42.3139 12.9971 51.001 21.6842 51.001 32.0002Z" fill="url(#paint0_radial_554_39839)"/>
</g>
<g filter="url(#filter1_f_554_39839)">
<ellipse cx="30.9995" cy="31" rx="1.25023" ry="25.0045" fill="url(#paint1_radial_554_39839)"/>
<ellipse cx="30.9995" cy="31" rx="1.25023" ry="25.0045" transform="rotate(12.6353 30.9995 31)" fill="url(#paint2_radial_554_39839)"/>
<ellipse cx="30.9997" cy="31" rx="1.25023" ry="25.0045" transform="rotate(23.5997 30.9997 31)" fill="url(#paint3_radial_554_39839)"/>
<ellipse cx="30.9997" cy="31" rx="1.25023" ry="25.0045" transform="rotate(33.6855 30.9997 31)" fill="url(#paint4_radial_554_39839)"/>
<ellipse cx="30.9995" cy="30.9998" rx="1.25023" ry="25.0045" transform="rotate(44.6771 30.9995 30.9998)" fill="url(#paint5_radial_554_39839)"/>
<ellipse cx="30.9994" cy="30.9998" rx="1.25023" ry="25.0045" transform="rotate(57.3124 30.9994 30.9998)" fill="url(#paint6_radial_554_39839)"/>
<ellipse cx="30.9998" cy="30.9999" rx="1.25023" ry="25.0045" transform="rotate(68.2768 30.9998 30.9999)" fill="url(#paint7_radial_554_39839)"/>
<ellipse cx="30.9997" cy="30.9999" rx="1.25023" ry="25.0045" transform="rotate(78.3626 30.9997 30.9999)" fill="url(#paint8_radial_554_39839)"/>
<ellipse cx="30.9997" cy="30.9997" rx="1.25023" ry="25.0045" transform="rotate(89.8812 30.9997 30.9997)" fill="url(#paint9_radial_554_39839)"/>
<ellipse cx="31" cy="30.9998" rx="1.25023" ry="25.0045" transform="rotate(102.516 31 30.9998)" fill="url(#paint10_radial_554_39839)"/>
<ellipse cx="30.9996" cy="30.9998" rx="1.25023" ry="25.0045" transform="rotate(113.481 30.9996 30.9998)" fill="url(#paint11_radial_554_39839)"/>
<ellipse cx="30.9998" cy="30.9999" rx="1.25023" ry="25.0045" transform="rotate(123.567 30.9998 30.9999)" fill="url(#paint12_radial_554_39839)"/>
<ellipse cx="31.0001" cy="30.9998" rx="1.25023" ry="25.0045" transform="rotate(136.014 31.0001 30.9998)" fill="url(#paint13_radial_554_39839)"/>
<ellipse cx="30.9997" cy="30.9998" rx="1.25023" ry="25.0045" transform="rotate(148.649 30.9997 30.9998)" fill="url(#paint14_radial_554_39839)"/>
<ellipse cx="31.0002" cy="30.9998" rx="1.25023" ry="25.0045" transform="rotate(159.614 31.0002 30.9998)" fill="url(#paint15_radial_554_39839)"/>
<ellipse cx="31.0001" cy="30.9999" rx="1.25023" ry="25.0045" transform="rotate(169.699 31.0001 30.9999)" fill="url(#paint16_radial_554_39839)"/>
</g>
<g style="mix-blend-mode:screen" filter="url(#filter2_f_554_39839)">
<ellipse cx="30.9997" cy="31" rx="1.49999" ry="29.9998" fill="url(#paint17_radial_554_39839)"/>
<ellipse cx="30.9996" cy="31" rx="1.49999" ry="29.9998" transform="rotate(12.6353 30.9996 31)" fill="url(#paint18_radial_554_39839)"/>
<ellipse cx="30.9997" cy="31" rx="1.49999" ry="29.9998" transform="rotate(23.5997 30.9997 31)" fill="url(#paint19_radial_554_39839)"/>
<ellipse cx="30.9998" cy="31" rx="1.49999" ry="29.9998" transform="rotate(33.6855 30.9998 31)" fill="url(#paint20_radial_554_39839)"/>
<ellipse cx="30.9996" cy="30.9997" rx="1.49999" ry="29.9998" transform="rotate(44.6771 30.9996 30.9997)" fill="url(#paint21_radial_554_39839)"/>
<ellipse cx="30.9996" cy="30.9998" rx="1.49999" ry="29.9998" transform="rotate(57.3124 30.9996 30.9998)" fill="url(#paint22_radial_554_39839)"/>
<ellipse cx="31.0001" cy="30.9998" rx="1.49999" ry="29.9998" transform="rotate(68.2768 31.0001 30.9998)" fill="url(#paint23_radial_554_39839)"/>
<ellipse cx="30.9995" cy="30.9999" rx="1.49999" ry="29.9998" transform="rotate(78.3626 30.9995 30.9999)" fill="url(#paint24_radial_554_39839)"/>
<ellipse cx="30.9999" cy="30.9996" rx="1.49999" ry="29.9998" transform="rotate(89.8812 30.9999 30.9996)" fill="url(#paint25_radial_554_39839)"/>
<ellipse cx="31" cy="30.9997" rx="1.49999" ry="29.9998" transform="rotate(102.516 31 30.9997)" fill="url(#paint26_radial_554_39839)"/>
<ellipse cx="30.9999" cy="30.9997" rx="1.49999" ry="29.9998" transform="rotate(113.481 30.9999 30.9997)" fill="url(#paint27_radial_554_39839)"/>
<ellipse cx="30.9999" cy="30.9999" rx="1.49999" ry="29.9998" transform="rotate(123.567 30.9999 30.9999)" fill="url(#paint28_radial_554_39839)"/>
<ellipse cx="31.0003" cy="30.9997" rx="1.49999" ry="29.9998" transform="rotate(136.014 31.0003 30.9997)" fill="url(#paint29_radial_554_39839)"/>
<ellipse cx="31.0002" cy="30.9998" rx="1.49999" ry="29.9998" transform="rotate(148.649 31.0002 30.9998)" fill="url(#paint30_radial_554_39839)"/>
<ellipse cx="31.0001" cy="30.9998" rx="1.49999" ry="29.9998" transform="rotate(159.614 31.0001 30.9998)" fill="url(#paint31_radial_554_39839)"/>
<ellipse cx="31.0003" cy="30.9999" rx="1.49999" ry="29.9998" transform="rotate(169.699 31.0003 30.9999)" fill="url(#paint32_radial_554_39839)"/>
</g>
<path opacity="0.047619" d="M49.7507 31.8148C49.7507 41.5918 41.6032 49.7393 31.8261 49.7393C21.6417 49.7393 13.4941 41.5918 13.4941 31.8148C13.4941 21.6303 21.6417 13.4828 31.8261 13.4828C41.6032 13.4828 49.7507 21.6303 49.7507 31.8148Z" fill="url(#paint33_radial_554_39839)"/>
<path opacity="0.0952381" d="M49.3433 31.8147C49.3433 41.5918 41.1958 49.7393 31.4187 49.7393C21.6417 49.7393 13.4941 41.5918 13.4941 31.8147C13.4941 22.0377 21.6417 13.8901 31.4187 13.8901C41.6032 13.8901 49.3433 21.6303 49.3433 31.8147Z" fill="url(#paint34_radial_554_39839)"/>
<path opacity="0.1429" d="M49.3432 31.8148C49.3432 41.5918 41.603 49.332 31.8259 49.332C22.0489 49.332 14.3087 41.5918 14.3087 31.8148C14.3087 22.0377 22.0489 14.2976 31.8259 14.2976C41.603 13.8902 49.3432 22.0377 49.3432 31.8148Z" fill="url(#paint35_radial_554_39839)"/>
<path opacity="0.1905" d="M48.9363 31.8148C48.9363 41.5918 41.1962 49.332 31.4191 49.332C21.6421 49.332 13.9019 41.5918 13.9019 31.8148C13.9019 22.0377 21.6421 14.2976 31.4191 14.2976C41.1962 14.2976 48.9363 22.0377 48.9363 31.8148Z" fill="url(#paint36_radial_554_39839)"/>
<path opacity="0.2381" d="M48.9362 31.4074C48.9362 40.7771 41.196 48.5172 31.8264 48.5172C22.4567 48.5172 14.7165 40.7771 14.7165 31.4074C14.7165 22.0377 22.4567 14.2976 31.8264 14.2976C41.196 14.2976 48.9362 22.0377 48.9362 31.4074Z" fill="url(#paint37_radial_554_39839)"/>
<path opacity="0.2857" d="M48.9362 31.4074C48.9362 40.7771 41.196 48.5172 31.8264 48.5172C22.4567 48.5172 14.7165 40.7771 14.7165 31.4074C14.7165 22.0377 22.4567 14.2976 31.8264 14.2976C41.196 14.7049 48.9362 22.0377 48.9362 31.4074Z" fill="url(#paint38_radial_554_39839)"/>
<path opacity="0.3333" d="M48.528 31.4073C48.528 40.777 40.7878 48.1098 31.8255 48.1098C22.4559 48.1098 15.1231 40.3696 15.1231 31.4073C15.1231 22.0376 22.8632 14.7049 31.8255 14.7049C41.1952 14.7049 48.528 22.445 48.528 31.4073Z" fill="url(#paint39_radial_554_39839)"/>
<path opacity="0.381" d="M48.528 31.4073C48.528 40.777 41.1952 48.1098 31.8255 48.1098C22.4559 48.1098 15.1231 40.777 15.1231 31.4073C15.1231 22.0376 22.4559 14.7049 31.8255 14.7049C40.7878 14.7049 48.528 22.445 48.528 31.4073Z" fill="url(#paint40_radial_554_39839)"/>
<path opacity="0.4286" d="M48.1214 31.4073C48.1214 40.3696 40.7886 48.1098 31.419 48.1098C22.4567 48.1098 14.7165 40.777 14.7165 31.4073C14.7165 22.445 22.0493 14.7049 31.419 14.7049C40.7886 15.1122 48.1214 22.445 48.1214 31.4073Z" fill="url(#paint41_radial_554_39839)"/>
<path opacity="0.4762" d="M48.1215 31.4074C48.1215 40.3696 40.7887 47.7024 31.8264 47.7024C22.8641 47.7024 15.5313 40.3696 15.5313 31.4074C15.5313 22.4451 22.8641 15.1123 31.8264 15.1123C40.7887 15.1123 48.1215 22.4451 48.1215 31.4074Z" fill="url(#paint42_radial_554_39839)"/>
<path opacity="0.5238" d="M47.7132 31.4074C47.7132 40.3696 40.3805 47.7024 31.4182 47.7024C22.4559 47.7024 15.1231 40.3696 15.1231 31.4074C15.1231 22.4451 22.4559 15.1123 31.4182 15.1123C40.7878 15.5196 47.7132 22.4451 47.7132 31.4074Z" fill="url(#paint43_radial_554_39839)"/>
<path opacity="0.5714" d="M47.714 31.4074C47.714 40.3697 40.3813 47.2951 31.8263 47.2951C22.864 47.2951 15.9386 39.9623 15.9386 31.4074C15.9386 22.4451 23.2714 15.5197 31.8263 15.5197C40.3813 15.5197 47.714 22.8525 47.714 31.4074Z" fill="url(#paint44_radial_554_39839)"/>
<path opacity="0.619" d="M47.3068 31.4074C47.3068 39.9623 40.3813 47.2951 31.419 47.2951C22.8641 47.2951 15.5313 40.3697 15.5313 31.4074C15.5313 22.8525 22.4568 15.5197 31.419 15.5197C40.3813 15.9271 47.3068 22.8525 47.3068 31.4074Z" fill="url(#paint45_radial_554_39839)"/>
<path opacity="0.6667" d="M47.3063 31.4074C47.3063 39.9623 40.3809 46.8877 31.826 46.8877C23.2711 46.8877 16.3457 39.9623 16.3457 31.4074C16.3457 22.8525 23.2711 15.9271 31.826 15.9271C40.3809 15.9271 47.3063 22.8525 47.3063 31.4074Z" fill="url(#paint46_radial_554_39839)"/>
<path opacity="0.7143" d="M46.8993 31.4074C46.8993 39.9623 39.9739 46.8877 31.419 46.8877C22.8641 46.8877 15.9386 39.9623 15.9386 31.4074C15.9386 22.8525 22.8641 15.9271 31.419 15.9271C40.3813 15.9271 46.8993 22.8525 46.8993 31.4074Z" fill="url(#paint47_radial_554_39839)"/>
<path opacity="0.7619" d="M46.8989 31.4074C46.8989 39.9624 39.9735 46.4804 31.8259 46.4804C23.271 46.4804 16.753 39.555 16.753 31.4074C16.753 22.8525 23.6784 16.3345 31.8259 16.3345C39.9735 16.3345 46.8989 23.2599 46.8989 31.4074Z" fill="url(#paint48_radial_554_39839)"/>
<path opacity="0.8095" d="M46.8989 31.4074C46.8989 39.555 39.9735 46.4804 31.8259 46.4804C23.6784 46.4804 16.753 39.555 16.753 31.4074C16.753 23.2599 23.6784 16.3345 31.8259 16.3345C39.9735 16.3345 46.8989 23.2599 46.8989 31.4074Z" fill="url(#paint49_radial_554_39839)"/>
<path opacity="0.8571" d="M46.4916 31.4074C46.4916 39.555 39.9736 46.4804 31.4186 46.4804C23.2711 46.4804 16.3457 39.9624 16.3457 31.4074C16.3457 23.2599 22.8637 16.3345 31.4186 16.3345C39.9736 16.7419 46.4916 23.2599 46.4916 31.4074Z" fill="url(#paint50_radial_554_39839)"/>
<path opacity="0.9048" d="M46.4912 31.4073C46.4912 39.5549 39.9731 46.0729 31.8256 46.0729C23.6781 46.0729 17.16 39.5549 17.16 31.4073C17.16 23.2598 23.6781 16.7417 31.8256 16.7417C39.9731 16.7417 46.4912 23.2598 46.4912 31.4073Z" fill="url(#paint51_radial_554_39839)"/>
<path opacity="0.9524" d="M46.0838 31.4073C46.0838 39.5549 39.5658 46.0729 31.8256 46.0729C23.6781 46.0729 17.16 39.5549 17.16 31.4073C17.16 23.2598 23.6781 16.7417 31.8256 16.7417C39.5658 16.7417 46.0838 23.2598 46.0838 31.4073Z" fill="url(#paint52_radial_554_39839)"/>
<path d="M46.0842 31.4074C46.0842 39.1476 39.5662 45.6656 31.826 45.6656C24.0858 45.6656 17.5678 39.1476 17.5678 31.4074C17.5678 23.6672 24.0858 17.1492 31.826 17.1492C39.5662 17.1492 46.0842 23.6672 46.0842 31.4074Z" fill="url(#paint53_radial_554_39839)"/>
<defs>
<filter id="filter0_f_554_39839" x="8.99415" y="8.9964" width="46.0075" height="46.0075" filterUnits="userSpaceOnUse" color-interpolation-filters="sRGB">
<feFlood flood-opacity="0" result="BackgroundImageFix"/>
<feBlend mode="normal" in="SourceGraphic" in2="BackgroundImageFix" result="shape"/>
<feGaussianBlur stdDeviation="2" result="effect1_foregroundBlur_554_39839"/>
</filter>
<filter id="filter1_f_554_39839" x="4.9952" y="4.99532" width="52.0092" height="52.0094" filterUnits="userSpaceOnUse" color-interpolation-filters="sRGB">
<feFlood flood-opacity="0" result="BackgroundImageFix"/>
<feBlend mode="normal" in="SourceGraphic" in2="BackgroundImageFix" result="shape"/>
<feGaussianBlur stdDeviation="0.5" result="effect1_foregroundBlur_554_39839"/>
</filter>
<filter id="filter2_f_554_39839" x="0" y="0" width="61.9999" height="62" filterUnits="userSpaceOnUse" color-interpolation-filters="sRGB">
<feFlood flood-opacity="0" result="BackgroundImageFix"/>
<feBlend mode="normal" in="SourceGraphic" in2="BackgroundImageFix" result="shape"/>
<feGaussianBlur stdDeviation="0.5" result="effect1_foregroundBlur_554_39839"/>
</filter>
<radialGradient id="paint0_radial_554_39839" cx="0" cy="0" r="1" gradientUnits="userSpaceOnUse" gradientTransform="translate(31.2329 14.9131) scale(36.6923)">
<stop offset="0.1953" stop-color="#FFFF79"/>
<stop offset="0.4045" stop-color="#FFE642"/>
<stop offset="0.5501" stop-color="#FFD621"/>
<stop offset="0.6363" stop-color="#FFC618"/>
<stop offset="0.8233" stop-color="#FFA707"/>
<stop offset="0.9286" stop-color="#FF9C00"/>
</radialGradient>
<radialGradient id="paint1_radial_554_39839" cx="0" cy="0" r="1" gradientUnits="userSpaceOnUse" gradientTransform="translate(31.0043 31.001) rotate(90) scale(25.0045 1.25023)">
<stop stop-color="#FFD600"/>
<stop offset="0.4375" stop-color="#FFF5A7" stop-opacity="0.5625"/>
<stop offset="1" stop-color="#FFF73F" stop-opacity="0"/>
</radialGradient>
<radialGradient id="paint2_radial_554_39839" cx="0" cy="0" r="1" gradientUnits="userSpaceOnUse" gradientTransform="translate(31.0044 31.001) rotate(90) scale(25.0045 1.25023)">
<stop stop-color="#FFD600"/>
<stop offset="0.4375" stop-color="#FFF5A7" stop-opacity="0.5625"/>
<stop offset="1" stop-color="#FFF73F" stop-opacity="0"/>
</radialGradient>
<radialGradient id="paint3_radial_554_39839" cx="0" cy="0" r="1" gradientUnits="userSpaceOnUse" gradientTransform="translate(31.0045 31.001) rotate(90) scale(25.0045 1.25023)">
<stop stop-color="#FFD600"/>
<stop offset="0.4375" stop-color="#FFF5A7" stop-opacity="0.5625"/>
<stop offset="1" stop-color="#FFF73F" stop-opacity="0"/>
</radialGradient>
<radialGradient id="paint4_radial_554_39839" cx="0" cy="0" r="1" gradientUnits="userSpaceOnUse" gradientTransform="translate(31.0045 31.001) rotate(90) scale(25.0045 1.25023)">
<stop stop-color="#FFD600"/>
<stop offset="0.4375" stop-color="#FFF5A7" stop-opacity="0.5625"/>
<stop offset="1" stop-color="#FFF73F" stop-opacity="0"/>
</radialGradient>
<radialGradient id="paint5_radial_554_39839" cx="0" cy="0" r="1" gradientUnits="userSpaceOnUse" gradientTransform="translate(31.0043 31.0008) rotate(90) scale(25.0045 1.25023)">
<stop stop-color="#FFD600"/>
<stop offset="0.4375" stop-color="#FFF5A7" stop-opacity="0.5625"/>
<stop offset="1" stop-color="#FFF73F" stop-opacity="0"/>
</radialGradient>
<radialGradient id="paint6_radial_554_39839" cx="0" cy="0" r="1" gradientUnits="userSpaceOnUse" gradientTransform="translate(31.0043 31.0008) rotate(90) scale(25.0045 1.25023)">
<stop stop-color="#FFD600"/>
<stop offset="0.4375" stop-color="#FFF5A7" stop-opacity="0.5625"/>
<stop offset="1" stop-color="#FFF73F" stop-opacity="0"/>
</radialGradient>
<radialGradient id="paint7_radial_554_39839" cx="0" cy="0" r="1" gradientUnits="userSpaceOnUse" gradientTransform="translate(31.0047 31.0008) rotate(90) scale(25.0045 1.25023)">
<stop stop-color="#FFD600"/>
<stop offset="0.4375" stop-color="#FFF5A7" stop-opacity="0.5625"/>
<stop offset="1" stop-color="#FFF73F" stop-opacity="0"/>
</radialGradient>
<radialGradient id="paint8_radial_554_39839" cx="0" cy="0" r="1" gradientUnits="userSpaceOnUse" gradientTransform="translate(31.0046 31.0009) rotate(90) scale(25.0045 1.25023)">
<stop stop-color="#FFD600"/>
<stop offset="0.4375" stop-color="#FFF5A7" stop-opacity="0.5625"/>
<stop offset="1" stop-color="#FFF73F" stop-opacity="0"/>
</radialGradient>
<radialGradient id="paint9_radial_554_39839" cx="0" cy="0" r="1" gradientUnits="userSpaceOnUse" gradientTransform="translate(31.0046 31.0007) rotate(90) scale(25.0045 1.25023)">
<stop stop-color="#FFD600"/>
<stop offset="0.4375" stop-color="#FFF5A7" stop-opacity="0.5625"/>
<stop offset="1" stop-color="#FFF73F" stop-opacity="0"/>
</radialGradient>
<radialGradient id="paint10_radial_554_39839" cx="0" cy="0" r="1" gradientUnits="userSpaceOnUse" gradientTransform="translate(31.0049 31.0008) rotate(90) scale(25.0045 1.25023)">
<stop stop-color="#FFD600"/>
<stop offset="0.4375" stop-color="#FFF5A7" stop-opacity="0.5625"/>
<stop offset="1" stop-color="#FFF73F" stop-opacity="0"/>
</radialGradient>
<radialGradient id="paint11_radial_554_39839" cx="0" cy="0" r="1" gradientUnits="userSpaceOnUse" gradientTransform="translate(31.0045 31.0007) rotate(90) scale(25.0045 1.25023)">
<stop stop-color="#FFD600"/>
<stop offset="0.4375" stop-color="#FFF5A7" stop-opacity="0.5625"/>
<stop offset="1" stop-color="#FFF73F" stop-opacity="0"/>
</radialGradient>
<radialGradient id="paint12_radial_554_39839" cx="0" cy="0" r="1" gradientUnits="userSpaceOnUse" gradientTransform="translate(31.0047 31.0009) rotate(90) scale(25.0045 1.25023)">
<stop stop-color="#FFD600"/>
<stop offset="0.4375" stop-color="#FFF5A7" stop-opacity="0.5625"/>
<stop offset="1" stop-color="#FFF73F" stop-opacity="0"/>
</radialGradient>
<radialGradient id="paint13_radial_554_39839" cx="0" cy="0" r="1" gradientUnits="userSpaceOnUse" gradientTransform="translate(31.005 31.0007) rotate(90) scale(25.0045 1.25023)">
<stop stop-color="#FFD600"/>
<stop offset="0.4375" stop-color="#FFF5A7" stop-opacity="0.5625"/>
<stop offset="1" stop-color="#FFF73F" stop-opacity="0"/>
</radialGradient>
<radialGradient id="paint14_radial_554_39839" cx="0" cy="0" r="1" gradientUnits="userSpaceOnUse" gradientTransform="translate(31.0046 31.0008) rotate(90) scale(25.0045 1.25023)">
<stop stop-color="#FFD600"/>
<stop offset="0.4375" stop-color="#FFF5A7" stop-opacity="0.5625"/>
<stop offset="1" stop-color="#FFF73F" stop-opacity="0"/>
</radialGradient>
<radialGradient id="paint15_radial_554_39839" cx="0" cy="0" r="1" gradientUnits="userSpaceOnUse" gradientTransform="translate(31.0051 31.0008) rotate(90) scale(25.0045 1.25023)">
<stop stop-color="#FFD600"/>
<stop offset="0.4375" stop-color="#FFF5A7" stop-opacity="0.5625"/>
<stop offset="1" stop-color="#FFF73F" stop-opacity="0"/>
</radialGradient>
<radialGradient id="paint16_radial_554_39839" cx="0" cy="0" r="1" gradientUnits="userSpaceOnUse" gradientTransform="translate(31.005 31.0009) rotate(90) scale(25.0045 1.25023)">
<stop stop-color="#FFD600"/>
<stop offset="0.4375" stop-color="#FFF5A7" stop-opacity="0.5625"/>
<stop offset="1" stop-color="#FFF73F" stop-opacity="0"/>
</radialGradient>
<radialGradient id="paint17_radial_554_39839" cx="0" cy="0" r="1" gradientUnits="userSpaceOnUse" gradientTransform="translate(31.0045 31.0002) rotate(90) scale(29.9998 1.49999)">
<stop stop-color="#FFD600"/>
<stop offset="0.4375" stop-color="#FFF5A7" stop-opacity="0.5625"/>
<stop offset="1" stop-color="#FFF73F" stop-opacity="0"/>
</radialGradient>
<radialGradient id="paint18_radial_554_39839" cx="0" cy="0" r="1" gradientUnits="userSpaceOnUse" gradientTransform="translate(31.0044 31.0002) rotate(90) scale(29.9998 1.49999)">
<stop stop-color="#FFD600"/>
<stop offset="0.4375" stop-color="#FFF5A7" stop-opacity="0.5625"/>
<stop offset="1" stop-color="#FFF73F" stop-opacity="0"/>
</radialGradient>
<radialGradient id="paint19_radial_554_39839" cx="0" cy="0" r="1" gradientUnits="userSpaceOnUse" gradientTransform="translate(31.0046 31.0002) rotate(90) scale(29.9998 1.49999)">
<stop stop-color="#FFD600"/>
<stop offset="0.4375" stop-color="#FFF5A7" stop-opacity="0.5625"/>
<stop offset="1" stop-color="#FFF73F" stop-opacity="0"/>
</radialGradient>
<radialGradient id="paint20_radial_554_39839" cx="0" cy="0" r="1" gradientUnits="userSpaceOnUse" gradientTransform="translate(31.0047 31.0002) rotate(90) scale(29.9998 1.49999)">
<stop stop-color="#FFD600"/>
<stop offset="0.4375" stop-color="#FFF5A7" stop-opacity="0.5625"/>
<stop offset="1" stop-color="#FFF73F" stop-opacity="0"/>
</radialGradient>
<radialGradient id="paint21_radial_554_39839" cx="0" cy="0" r="1" gradientUnits="userSpaceOnUse" gradientTransform="translate(31.0044 30.9999) rotate(90) scale(29.9998 1.49999)">
<stop stop-color="#FFD600"/>
<stop offset="0.4375" stop-color="#FFF5A7" stop-opacity="0.5625"/>
<stop offset="1" stop-color="#FFF73F" stop-opacity="0"/>
</radialGradient>
<radialGradient id="paint22_radial_554_39839" cx="0" cy="0" r="1" gradientUnits="userSpaceOnUse" gradientTransform="translate(31.0045 31) rotate(90) scale(29.9998 1.49999)">
<stop stop-color="#FFD600"/>
<stop offset="0.4375" stop-color="#FFF5A7" stop-opacity="0.5625"/>
<stop offset="1" stop-color="#FFF73F" stop-opacity="0"/>
</radialGradient>
<radialGradient id="paint23_radial_554_39839" cx="0" cy="0" r="1" gradientUnits="userSpaceOnUse" gradientTransform="translate(31.0049 31) rotate(90) scale(29.9998 1.49999)">
<stop stop-color="#FFD600"/>
<stop offset="0.4375" stop-color="#FFF5A7" stop-opacity="0.5625"/>
<stop offset="1" stop-color="#FFF73F" stop-opacity="0"/>
</radialGradient>
<radialGradient id="paint24_radial_554_39839" cx="0" cy="0" r="1" gradientUnits="userSpaceOnUse" gradientTransform="translate(31.0044 31.0001) rotate(90) scale(29.9998 1.49999)">
<stop stop-color="#FFD600"/>
<stop offset="0.4375" stop-color="#FFF5A7" stop-opacity="0.5625"/>
<stop offset="1" stop-color="#FFF73F" stop-opacity="0"/>
</radialGradient>
<radialGradient id="paint25_radial_554_39839" cx="0" cy="0" r="1" gradientUnits="userSpaceOnUse" gradientTransform="translate(31.0047 30.9998) rotate(90) scale(29.9998 1.49999)">
<stop stop-color="#FFD600"/>
<stop offset="0.4375" stop-color="#FFF5A7" stop-opacity="0.5625"/>
<stop offset="1" stop-color="#FFF73F" stop-opacity="0"/>
</radialGradient>
<radialGradient id="paint26_radial_554_39839" cx="0" cy="0" r="1" gradientUnits="userSpaceOnUse" gradientTransform="translate(31.0048 30.9999) rotate(90) scale(29.9998 1.49999)">
<stop stop-color="#FFD600"/>
<stop offset="0.4375" stop-color="#FFF5A7" stop-opacity="0.5625"/>
<stop offset="1" stop-color="#FFF73F" stop-opacity="0"/>
</radialGradient>
<radialGradient id="paint27_radial_554_39839" cx="0" cy="0" r="1" gradientUnits="userSpaceOnUse" gradientTransform="translate(31.0047 30.9999) rotate(90) scale(29.9998 1.49999)">
<stop stop-color="#FFD600"/>
<stop offset="0.4375" stop-color="#FFF5A7" stop-opacity="0.5625"/>
<stop offset="1" stop-color="#FFF73F" stop-opacity="0"/>
</radialGradient>
<radialGradient id="paint28_radial_554_39839" cx="0" cy="0" r="1" gradientUnits="userSpaceOnUse" gradientTransform="translate(31.0048 31) rotate(90) scale(29.9998 1.49999)">
<stop stop-color="#FFD600"/>
<stop offset="0.4375" stop-color="#FFF5A7" stop-opacity="0.5625"/>
<stop offset="1" stop-color="#FFF73F" stop-opacity="0"/>
</radialGradient>
<radialGradient id="paint29_radial_554_39839" cx="0" cy="0" r="1" gradientUnits="userSpaceOnUse" gradientTransform="translate(31.0051 30.9999) rotate(90) scale(29.9998 1.49999)">
<stop stop-color="#FFD600"/>
<stop offset="0.4375" stop-color="#FFF5A7" stop-opacity="0.5625"/>
<stop offset="1" stop-color="#FFF73F" stop-opacity="0"/>
</radialGradient>
<radialGradient id="paint30_radial_554_39839" cx="0" cy="0" r="1" gradientUnits="userSpaceOnUse" gradientTransform="translate(31.005 31) rotate(90) scale(29.9998 1.49999)">
<stop stop-color="#FFD600"/>
<stop offset="0.4375" stop-color="#FFF5A7" stop-opacity="0.5625"/>
<stop offset="1" stop-color="#FFF73F" stop-opacity="0"/>
</radialGradient>
<radialGradient id="paint31_radial_554_39839" cx="0" cy="0" r="1" gradientUnits="userSpaceOnUse" gradientTransform="translate(31.005 30.9999) rotate(90) scale(29.9998 1.49999)">
<stop stop-color="#FFD600"/>
<stop offset="0.4375" stop-color="#FFF5A7" stop-opacity="0.5625"/>
<stop offset="1" stop-color="#FFF73F" stop-opacity="0"/>
</radialGradient>
<radialGradient id="paint32_radial_554_39839" cx="0" cy="0" r="1" gradientUnits="userSpaceOnUse" gradientTransform="translate(31.0051 31) rotate(90) scale(29.9998 1.49999)">
<stop stop-color="#FFD600"/>
<stop offset="0.4375" stop-color="#FFF5A7" stop-opacity="0.5625"/>
<stop offset="1" stop-color="#FFF73F" stop-opacity="0"/>
</radialGradient>
<radialGradient id="paint33_radial_554_39839" cx="0" cy="0" r="1" gradientUnits="userSpaceOnUse" gradientTransform="translate(31.6489 30.8823) scale(18.6236)">
<stop offset="0.1953" stop-color="#FFFF79"/>
<stop offset="0.4045" stop-color="#FFE642"/>
<stop offset="0.5501" stop-color="#FFD621"/>
<stop offset="0.6363" stop-color="#FFC618"/>
<stop offset="0.8233" stop-color="#FFA707"/>
<stop offset="0.9286" stop-color="#FF9C00"/>
</radialGradient>
<radialGradient id="paint34_radial_554_39839" cx="0" cy="0" r="1" gradientUnits="userSpaceOnUse" gradientTransform="translate(31.6241 30.1184) scale(19.0718 19.0718)">
<stop offset="0.1953" stop-color="#FFFF79"/>
<stop offset="0.4045" stop-color="#FFE642"/>
<stop offset="0.5501" stop-color="#FFD621"/>
<stop offset="0.6363" stop-color="#FFC618"/>
<stop offset="0.8233" stop-color="#FFA707"/>
<stop offset="0.9286" stop-color="#FF9C00"/>
</radialGradient>
<radialGradient id="paint35_radial_554_39839" cx="0" cy="0" r="1" gradientUnits="userSpaceOnUse" gradientTransform="translate(31.5994 29.3705) scale(19.524)">
<stop offset="0.1953" stop-color="#FFFF79"/>
<stop offset="0.4045" stop-color="#FFE642"/>
<stop offset="0.5501" stop-color="#FFD621"/>
<stop offset="0.6363" stop-color="#FFC618"/>
<stop offset="0.8233" stop-color="#FFA707"/>
<stop offset="0.9286" stop-color="#FF9C00"/>
</radialGradient>
<radialGradient id="paint36_radial_554_39839" cx="0" cy="0" r="1" gradientUnits="userSpaceOnUse" gradientTransform="translate(31.5764 28.6385) scale(19.979 19.979)">
<stop offset="0.1953" stop-color="#FFFF79"/>
<stop offset="0.4045" stop-color="#FFE642"/>
<stop offset="0.5501" stop-color="#FFD621"/>
<stop offset="0.6363" stop-color="#FFC618"/>
<stop offset="0.8233" stop-color="#FFA707"/>
<stop offset="0.9286" stop-color="#FF9C00"/>
</radialGradient>
<radialGradient id="paint37_radial_554_39839" cx="0" cy="0" r="1" gradientUnits="userSpaceOnUse" gradientTransform="translate(31.553 27.9219) scale(20.4361 20.4361)">
<stop offset="0.1953" stop-color="#FFFF79"/>
<stop offset="0.4045" stop-color="#FFE642"/>
<stop offset="0.5501" stop-color="#FFD621"/>
<stop offset="0.6363" stop-color="#FFC618"/>
<stop offset="0.8233" stop-color="#FFA707"/>
<stop offset="0.9286" stop-color="#FF9C00"/>
</radialGradient>
<radialGradient id="paint38_radial_554_39839" cx="0" cy="0" r="1" gradientUnits="userSpaceOnUse" gradientTransform="translate(31.5306 27.2208) scale(20.8944 20.8944)">
<stop offset="0.1953" stop-color="#FFFF79"/>
<stop offset="0.4045" stop-color="#FFE642"/>
<stop offset="0.5501" stop-color="#FFD621"/>
<stop offset="0.6363" stop-color="#FFC618"/>
<stop offset="0.8233" stop-color="#FFA707"/>
<stop offset="0.9286" stop-color="#FF9C00"/>
</radialGradient>
<radialGradient id="paint39_radial_554_39839" cx="0" cy="0" r="1" gradientUnits="userSpaceOnUse" gradientTransform="translate(31.5074 26.5355) scale(21.3535 21.3535)">
<stop offset="0.1953" stop-color="#FFFF79"/>
<stop offset="0.4045" stop-color="#FFE642"/>
<stop offset="0.5501" stop-color="#FFD621"/>
<stop offset="0.6363" stop-color="#FFC618"/>
<stop offset="0.8233" stop-color="#FFA707"/>
<stop offset="0.9286" stop-color="#FF9C00"/>
</radialGradient>
<radialGradient id="paint40_radial_554_39839" cx="0" cy="0" r="1" gradientUnits="userSpaceOnUse" gradientTransform="translate(31.4858 25.8658) scale(21.813 21.813)">
<stop offset="0.1953" stop-color="#FFFF79"/>
<stop offset="0.4045" stop-color="#FFE642"/>
<stop offset="0.5501" stop-color="#FFD621"/>
<stop offset="0.6363" stop-color="#FFC618"/>
<stop offset="0.8233" stop-color="#FFA707"/>
<stop offset="0.9286" stop-color="#FF9C00"/>
</radialGradient>
<radialGradient id="paint41_radial_554_39839" cx="0" cy="0" r="1" gradientUnits="userSpaceOnUse" gradientTransform="translate(31.4654 25.2119) scale(22.2721)">
<stop offset="0.1953" stop-color="#FFFF79"/>
<stop offset="0.4045" stop-color="#FFE642"/>
<stop offset="0.5501" stop-color="#FFD621"/>
<stop offset="0.6363" stop-color="#FFC618"/>
<stop offset="0.8233" stop-color="#FFA707"/>
<stop offset="0.9286" stop-color="#FF9C00"/>
</radialGradient>
<radialGradient id="paint42_radial_554_39839" cx="0" cy="0" r="1" gradientUnits="userSpaceOnUse" gradientTransform="translate(31.4451 24.5736) scale(22.73 22.73)">
<stop offset="0.1953" stop-color="#FFFF79"/>
<stop offset="0.4045" stop-color="#FFE642"/>
<stop offset="0.5501" stop-color="#FFD621"/>
<stop offset="0.6363" stop-color="#FFC618"/>
<stop offset="0.8233" stop-color="#FFA707"/>
<stop offset="0.9286" stop-color="#FF9C00"/>
</radialGradient>
<radialGradient id="paint43_radial_554_39839" cx="0" cy="0" r="1" gradientUnits="userSpaceOnUse" gradientTransform="translate(31.4239 23.9511) scale(23.1863)">
<stop offset="0.1953" stop-color="#FFFF79"/>
<stop offset="0.4045" stop-color="#FFE642"/>
<stop offset="0.5501" stop-color="#FFD621"/>
<stop offset="0.6363" stop-color="#FFC618"/>
<stop offset="0.8233" stop-color="#FFA707"/>
<stop offset="0.9286" stop-color="#FF9C00"/>
</radialGradient>
<radialGradient id="paint44_radial_554_39839" cx="0" cy="0" r="1" gradientUnits="userSpaceOnUse" gradientTransform="translate(31.4051 23.3442) scale(23.6401)">
<stop offset="0.1953" stop-color="#FFFF79"/>
<stop offset="0.4045" stop-color="#FFE642"/>
<stop offset="0.5501" stop-color="#FFD621"/>
<stop offset="0.6363" stop-color="#FFC618"/>
<stop offset="0.8233" stop-color="#FFA707"/>
<stop offset="0.9286" stop-color="#FF9C00"/>
</radialGradient>
<radialGradient id="paint45_radial_554_39839" cx="0" cy="0" r="1" gradientUnits="userSpaceOnUse" gradientTransform="translate(31.3865 22.7531) scale(24.0911)">
<stop offset="0.1953" stop-color="#FFFF79"/>
<stop offset="0.4045" stop-color="#FFE642"/>
<stop offset="0.5501" stop-color="#FFD621"/>
<stop offset="0.6363" stop-color="#FFC618"/>
<stop offset="0.8233" stop-color="#FFA707"/>
<stop offset="0.9286" stop-color="#FF9C00"/>
</radialGradient>
<radialGradient id="paint46_radial_554_39839" cx="0" cy="0" r="1" gradientUnits="userSpaceOnUse" gradientTransform="translate(31.3673 22.1775) scale(24.5388)">
<stop offset="0.1953" stop-color="#FFFF79"/>
<stop offset="0.4045" stop-color="#FFE642"/>
<stop offset="0.5501" stop-color="#FFD621"/>
<stop offset="0.6363" stop-color="#FFC618"/>
<stop offset="0.8233" stop-color="#FFA707"/>
<stop offset="0.9286" stop-color="#FF9C00"/>
</radialGradient>
<radialGradient id="paint47_radial_554_39839" cx="0" cy="0" r="1" gradientUnits="userSpaceOnUse" gradientTransform="translate(31.3497 21.6173) scale(24.9824)">
<stop offset="0.1953" stop-color="#FFFF79"/>
<stop offset="0.4045" stop-color="#FFE642"/>
<stop offset="0.5501" stop-color="#FFD621"/>
<stop offset="0.6363" stop-color="#FFC618"/>
<stop offset="0.8233" stop-color="#FFA707"/>
<stop offset="0.9286" stop-color="#FF9C00"/>
</radialGradient>
<radialGradient id="paint48_radial_554_39839" cx="0" cy="0" r="1" gradientUnits="userSpaceOnUse" gradientTransform="translate(31.3318 21.0731) scale(25.4215 25.4216)">
<stop offset="0.1953" stop-color="#FFFF79"/>
<stop offset="0.4045" stop-color="#FFE642"/>
<stop offset="0.5501" stop-color="#FFD621"/>
<stop offset="0.6363" stop-color="#FFC618"/>
<stop offset="0.8233" stop-color="#FFA707"/>
<stop offset="0.9286" stop-color="#FF9C00"/>
</radialGradient>
<radialGradient id="paint49_radial_554_39839" cx="0" cy="0" r="1" gradientUnits="userSpaceOnUse" gradientTransform="translate(31.3147 20.5447) scale(25.8554 25.8554)">
<stop offset="0.1953" stop-color="#FFFF79"/>
<stop offset="0.4045" stop-color="#FFE642"/>
<stop offset="0.5501" stop-color="#FFD621"/>
<stop offset="0.6363" stop-color="#FFC618"/>
<stop offset="0.8233" stop-color="#FFA707"/>
<stop offset="0.9286" stop-color="#FF9C00"/>
</radialGradient>
<radialGradient id="paint50_radial_554_39839" cx="0" cy="0" r="1" gradientUnits="userSpaceOnUse" gradientTransform="translate(31.2985 20.0318) scale(26.284)">
<stop offset="0.1953" stop-color="#FFFF79"/>
<stop offset="0.4045" stop-color="#FFE642"/>
<stop offset="0.5501" stop-color="#FFD621"/>
<stop offset="0.6363" stop-color="#FFC618"/>
<stop offset="0.8233" stop-color="#FFA707"/>
<stop offset="0.9286" stop-color="#FF9C00"/>
</radialGradient>
<radialGradient id="paint51_radial_554_39839" cx="0" cy="0" r="1" gradientUnits="userSpaceOnUse" gradientTransform="translate(31.2818 19.5343) scale(26.7064 26.7064)">
<stop offset="0.1953" stop-color="#FFFF79"/>
<stop offset="0.4045" stop-color="#FFE642"/>
<stop offset="0.5501" stop-color="#FFD621"/>
<stop offset="0.6363" stop-color="#FFC618"/>
<stop offset="0.8233" stop-color="#FFA707"/>
<stop offset="0.9286" stop-color="#FF9C00"/>
</radialGradient>
<radialGradient id="paint52_radial_554_39839" cx="0" cy="0" r="1" gradientUnits="userSpaceOnUse" gradientTransform="translate(31.2663 19.0528) scale(27.1219)">
<stop offset="0.1953" stop-color="#FFFF79"/>
<stop offset="0.4045" stop-color="#FFE642"/>
<stop offset="0.5501" stop-color="#FFD621"/>
<stop offset="0.6363" stop-color="#FFC618"/>
<stop offset="0.8233" stop-color="#FFA707"/>
<stop offset="0.9286" stop-color="#FF9C00"/>
</radialGradient>
<radialGradient id="paint53_radial_554_39839" cx="0" cy="0" r="1" gradientUnits="userSpaceOnUse" gradientTransform="translate(31.252 18.5868) scale(27.5305)">
<stop offset="0.1953" stop-color="#FFFF79"/>
<stop offset="0.4045" stop-color="#FFE642"/>
<stop offset="0.5501" stop-color="#FFD621"/>
<stop offset="0.6363" stop-color="#FFC618"/>
<stop offset="0.8233" stop-color="#FFA707"/>
<stop offset="0.9286" stop-color="#FF9C00"/>
</radialGradient>
</defs>
</svg>
