<svg width="22" height="12" viewBox="0 0 22 12" fill="none" xmlns="http://www.w3.org/2000/svg">
<mask id="mask0_664_14556" style="mask-type:alpha" maskUnits="userSpaceOnUse" x="-1" y="-6" width="24" height="24">
<rect x="-1" y="-6" width="24" height="24" fill="#69B935"/>
</mask>
<g mask="url(#mask0_664_14556)">
<path d="M6 9C5.16667 9 4.45833 8.70833 3.875 8.125C3.29167 7.54167 3 6.83333 3 6C3 5.16667 3.29167 4.45833 3.875 3.875C4.45833 3.29167 5.16667 3 6 3C6.83333 3 7.54167 3.29167 8.125 3.875C8.70833 4.45833 9 5.16667 9 6C9 6.83333 8.70833 7.54167 8.125 8.125C7.54167 8.70833 6.83333 9 6 9ZM6 12C7.28333 12 8.44167 11.6333 9.475 10.9C10.5083 10.1667 11.2333 9.2 11.65 8H12L14 10L16 8L18.5 9.975L22 5.975L20.025 4H11.65C11.25 2.86667 10.546 1.91667 9.538 1.15C8.52933 0.383333 7.35 0 6 0C4.33333 0 2.91667 0.583333 1.75 1.75C0.583333 2.91667 0 4.33333 0 6C0 7.66667 0.583333 9.08333 1.75 10.25C2.91667 11.4167 4.33333 12 6 12Z" fill="#69B935"/>
</g>
</svg>
