<svg width="350" height="65" viewBox="0 0 350 65" fill="none" xmlns="http://www.w3.org/2000/svg">
<path d="M338.391 0H11.6092C8.53444 -5.13009e-06 5.58528 0.930007 3.40884 2.58594C1.23239 4.24187 0.00643252 6.48846 0 8.83275V53.5335C20.6439 64.5142 49.0112 66.4956 74.1725 62.4403C103.827 57.7184 130.688 46.1451 158.303 36.6642C185.917 27.1834 216.3 19.5913 246.149 23.4984C274.346 27.2019 298.366 40.5529 323.867 50.4596C332.23 53.7547 340.979 56.4452 350 58.4961V8.83275C349.994 6.48846 348.768 4.24187 346.591 2.58594C344.415 0.930007 341.466 -5.13009e-06 338.391 0Z" fill="white"/>
</svg>
