<svg width="143" height="102" viewBox="0 0 143 102" fill="none" xmlns="http://www.w3.org/2000/svg">
<g clip-path="url(#clip0_283_2698)">
<path d="M53.9273 31.1594C45.926 31.1594 39.3558 37.6645 39.3558 45.6658C39.3558 45.926 39.3558 46.1862 39.3558 46.4464H42.4783C42.4783 46.1862 42.4783 45.926 42.4783 45.6658C42.4783 39.3559 47.6173 34.2819 53.8622 34.2819C60.1722 34.2819 65.2461 39.4209 65.2461 45.6658C65.2461 51.9757 60.1071 57.0497 53.8622 57.0497C53.7972 57.0497 53.7321 57.0497 53.6671 57.0497C55.4885 57.8954 57.44 58.3507 59.4566 58.3507C60.0421 58.3507 60.5625 58.2857 61.1479 58.2206C65.5063 55.6837 68.4336 51 68.4336 45.6007C68.4336 37.6645 61.9285 31.1594 53.9273 31.1594Z" fill="#69B935"/>
<path d="M50.9349 39.8113C50.7398 39.9414 50.5446 40.0064 50.2844 40.0064C49.829 40.0064 49.4387 39.7462 49.1785 39.3559C48.8533 38.7704 49.0484 37.9898 49.6339 37.5995C52.2359 36.1684 55.2933 36.1034 57.8954 37.4694C58.5459 37.7947 58.741 38.5753 58.4158 39.2258C58.0905 39.8763 57.3099 40.0715 56.6594 39.7462C54.903 38.7054 52.7563 38.7704 50.9349 39.8113Z" fill="#69B935"/>
<path d="M59.5217 40.1365C60.1072 39.7462 60.8878 39.9414 61.2781 40.5919C61.3431 40.6569 61.4082 40.787 61.4082 40.8521C61.7334 41.4376 61.5383 42.2182 60.9528 42.6085C60.7577 42.7386 60.5625 42.8036 60.3023 42.8036C59.847 42.8036 59.3916 42.5434 59.1965 42.1531C59.1314 42.0881 59.1314 42.023 59.0664 41.958C58.7411 41.3075 58.9363 40.5268 59.5217 40.1365Z" fill="#69B935"/>
<path d="M28.3623 0.260174C30.1837 -0.520438 32.2003 0.325225 32.9809 2.0816L36.2334 9.69257C37.0141 11.514 36.1684 13.5306 34.412 14.3112C33.6314 14.6364 32.7857 14.7015 32.0051 14.4413C31.0294 14.1811 30.1837 13.4655 29.7934 12.4247L26.5408 4.81375C25.6952 3.12242 26.5408 1.04079 28.3623 0.260174Z" fill="white"/>
<path d="M3.12242 3.96808C4.42344 2.53696 6.70022 2.47191 8.13134 3.77293L22.7028 18.1492C24.1339 19.4502 24.1989 21.727 22.8979 23.1581C21.9872 24.1339 20.6862 24.4592 19.5153 24.1989C18.9298 24.0688 18.3444 23.8086 17.889 23.3533L3.31757 8.97701C1.88645 7.67599 1.8214 5.3992 3.12242 3.96808Z" fill="white"/>
<path d="M3.64287 29.0778L11.9043 29.2729C13.8559 29.338 15.4171 30.9642 15.352 32.9158C15.287 34.6721 13.986 36.0382 12.3597 36.2984C12.1645 36.2984 11.9694 36.3635 11.7092 36.3635L3.44771 36.1683C1.49618 36.1033 -0.0650426 34.477 8.40775e-06 32.5255C0.0650594 30.5739 1.69133 29.0778 3.64287 29.0778Z" fill="white"/>
<path d="M30.8342 60.7577C29.5982 60.7577 28.3623 60.1071 27.7117 58.8712C25.435 54.6429 24.264 49.8941 24.264 45.0804C24.264 29.0128 37.3393 15.9375 53.4069 15.9375C69.4745 15.9375 82.5498 29.0128 82.5498 45.0804C82.5498 47.0319 80.9885 48.5931 79.037 48.5931C77.0855 48.5931 75.5242 47.0319 75.5242 45.0804C75.5242 32.9158 65.6365 23.0281 53.4719 23.0281C41.3074 23.0281 31.2895 32.9809 31.2895 45.1454C31.2895 48.7883 32.2003 52.3661 33.8916 55.5536C34.8023 57.2449 34.1518 59.3916 32.4605 60.3023C31.9401 60.6275 31.3546 60.7577 30.8342 60.7577Z" fill="#69B935"/>
<path d="M52.171 98.4222C52.1059 98.4222 52.0409 98.4222 51.9758 98.4222C49.5689 98.3572 47.4222 96.9911 46.3814 94.9095L27.3215 58.2207C26.4108 56.4643 27.1263 54.3827 28.8176 53.472C30.574 52.5613 32.6557 53.2768 33.5664 54.9682L52.1059 90.7462L63.0995 72.0115C64.0753 70.3202 66.222 69.7347 67.9133 70.7756C69.6046 71.7513 70.1901 73.898 69.1493 75.5893L57.6352 95.1697C56.5944 97.1863 54.4477 98.4222 52.171 98.4222Z" fill="#69B935"/>
<path d="M82.4847 45.5358C82.0944 57.4401 71.2309 66.222 59.6518 65.6365C51.7156 65.3763 43.8444 60.5625 40.8521 53.1467C39.8763 50.7398 39.2908 48.1378 39.486 45.5358C39.5511 44.4949 40.3317 43.8444 40.8521 43.8444C41.6977 43.8444 42.4783 44.6901 42.4783 45.6659C42.4783 50.2845 45.2105 54.4477 48.7232 57.31C55.4886 62.9044 64.9209 62.5791 71.1008 56.3342C73.963 53.537 75.6544 49.5689 75.3942 45.6008C75.2641 43.6493 76.7602 41.9579 78.7118 41.8929C80.8584 41.6977 82.6148 43.4541 82.4847 45.5358Z" fill="white"/>
<path d="M116.181 68.6938C114.034 68.6938 112.278 70.4502 112.278 72.5969C112.278 74.7436 114.034 76.5 116.181 76.5C118.328 76.5 120.084 74.7436 120.084 72.5969C120.084 70.4502 118.328 68.6938 116.181 68.6938Z" fill="white"/>
<path d="M96.7308 68.6938C94.5841 68.6938 92.8278 70.4502 92.8278 72.5969C92.8278 74.7436 94.5841 76.5 96.7308 76.5C98.8775 76.5 100.634 74.7436 100.634 72.5969C100.634 70.4502 98.9426 68.6938 96.7308 68.6938Z" fill="white"/>
<path d="M106.879 98.162C105.838 98.162 104.927 99.0077 104.927 100.114C104.927 101.154 105.773 102.065 106.879 102.065C107.92 102.065 108.83 101.219 108.83 100.114C108.83 99.0077 107.92 98.162 106.879 98.162Z" fill="white"/>
<path d="M77.6709 97.3813C76.6301 97.3813 75.7194 98.227 75.7194 99.3329C75.7194 100.439 76.565 101.284 77.6709 101.284C78.7117 101.284 79.6224 100.439 79.6224 99.3329C79.6224 98.227 78.7117 97.3813 77.6709 97.3813Z" fill="white"/>
<path d="M95.2997 97.3813C94.2589 97.3813 93.3481 98.227 93.3481 99.3329C93.3481 100.439 94.1938 101.284 95.2997 101.284C96.3405 101.284 97.2512 100.439 97.2512 99.3329C97.2512 98.227 96.3405 97.3813 95.2997 97.3813Z" fill="white"/>
<path d="M91.1365 97.3813C90.0957 97.3813 89.1849 98.227 89.1849 99.3329C89.1849 100.439 90.0306 101.284 91.1365 101.284C92.1773 101.284 93.088 100.439 93.088 99.3329C93.088 98.227 92.1773 97.3813 91.1365 97.3813Z" fill="white"/>
<path d="M87.6238 68.6938C85.4771 68.6938 83.7207 70.4502 83.7207 72.5969C83.7207 74.7436 85.4771 76.5 87.6238 76.5C89.7704 76.5 91.5268 74.7436 91.5268 72.5969C91.5268 70.4502 89.7704 68.6938 87.6238 68.6938Z" fill="white"/>
<path d="M53.4068 68.6938C51.2602 68.6938 49.5038 70.4502 49.5038 72.5969C49.5038 74.7436 51.2602 76.5 53.4068 76.5C55.5535 76.5 57.3099 74.7436 57.3099 72.5969C57.2449 70.4502 55.5535 68.6938 53.4068 68.6938Z" fill="white"/>
<path d="M111.497 83.8508V86.648C111.497 89.185 109.416 91.2667 106.879 91.2667C104.342 91.2667 102.26 89.185 102.26 86.648V83.8508H97.6416V86.648C97.6416 91.722 101.805 95.8853 106.879 95.8853C111.953 95.8853 116.116 91.722 116.116 86.648V83.8508H111.497Z" fill="#69B935"/>
<path d="M97.3814 83.8508V86.648C97.3814 89.185 95.2998 91.2667 92.7628 91.2667C90.2258 91.2667 88.1441 89.185 88.1441 86.648V83.8508H83.5255V86.648C83.5255 91.722 87.6888 95.8853 92.7628 95.8853C97.8367 95.8853 102 91.722 102 86.648V83.8508H97.3814Z" fill="#69B935"/>
<path d="M83.4605 83.8508V86.648C83.4605 89.185 81.3788 91.2667 78.8419 91.2667C76.3049 91.2667 74.2232 89.185 74.2232 86.648V83.8508H69.6046V86.648C69.6046 91.722 73.7679 95.8853 78.8419 95.8853C83.9158 95.8853 88.0791 91.722 88.0791 86.648V83.8508H83.4605Z" fill="#69B935"/>
<path d="M122.101 66.5472C112.278 66.5472 104.277 58.5459 104.277 48.7232V45.6658C104.277 43.7143 105.838 42.1531 107.789 42.1531C109.741 42.1531 111.302 43.7143 111.302 45.6658V48.7232C111.302 54.6429 116.116 59.4566 122.036 59.4566C127.955 59.4566 132.769 54.6429 132.769 48.7232V45.6658C132.769 43.7143 134.33 42.1531 136.282 42.1531C138.233 42.1531 139.795 43.7143 139.795 45.6658V48.7232C139.925 58.5459 131.923 66.5472 122.101 66.5472Z" fill="white"/>
<path d="M93.2832 66.5472C83.4605 66.5472 75.4592 58.5459 75.4592 48.7232V45.6658C75.4592 43.7143 77.0205 42.1531 78.972 42.1531C80.9235 42.1531 82.4847 43.7143 82.4847 45.6658V48.7232C82.4847 54.6429 87.2985 59.4566 93.2182 59.4566C99.1378 59.4566 103.952 54.6429 103.952 48.7232V45.6658C103.952 43.7143 105.513 42.1531 107.464 42.1531C109.416 42.1531 110.977 43.7143 110.977 45.6658V48.7232C111.107 58.5459 103.106 66.5472 93.2832 66.5472Z" fill="white"/>
<path d="M127.37 96.5357C123.662 96.5357 120.605 93.5434 120.605 89.7704V75.3942H125.809V89.7704C125.809 90.6161 126.524 91.3317 127.37 91.3317C128.216 91.3317 128.931 90.6161 128.931 89.7704V75.3942H134.135V89.7704C134.07 93.5434 131.078 96.5357 127.37 96.5357Z" fill="#69B935"/>
<path d="M142.071 75.3942H136.867V95.8202H142.071V75.3942Z" fill="#69B935"/>
</g>
<defs>
<clipPath id="clip0_283_2698">
<rect width="142.006" height="102" fill="white"/>
</clipPath>
</defs>
</svg>
