<svg width="44" height="24" viewBox="0 0 44 24" fill="none" xmlns="http://www.w3.org/2000/svg">
<ellipse rx="2.92389" ry="2.34179" transform="matrix(-1.01863 0.174445 -0.300422 -0.922075 11.0506 7.7855)" fill="url(#paint0_linear_466_132511)"/>
<ellipse rx="0.549639" ry="0.440215" transform="matrix(1.01863 -0.174445 -0.300422 -0.922075 11.9739 6.617)" fill="white"/>
<ellipse rx="0.310285" ry="0.248512" transform="matrix(1.01863 -0.174445 -0.300422 -0.922075 12.1183 7.41664)" fill="white"/>
<ellipse rx="2.33911" ry="1.87343" transform="matrix(-1.01863 0.174445 -0.300422 -0.922075 14.8641 6.23685)" fill="url(#paint1_linear_466_132511)"/>
<ellipse rx="0.439711" ry="0.352172" transform="matrix(1.01863 -0.174445 -0.300422 -0.922075 15.6027 5.30207)" fill="white"/>
<ellipse rx="0.248228" ry="0.19881" transform="matrix(1.01863 -0.174445 -0.300422 -0.922075 15.7183 5.94177)" fill="white"/>
<ellipse rx="1.75434" ry="1.40508" transform="matrix(-1.01863 0.174445 -0.300422 -0.922075 14.3162 1.33154)" fill="url(#paint2_linear_466_132511)"/>
<ellipse rx="0.329783" ry="0.264129" transform="matrix(1.01863 -0.174445 -0.300422 -0.922075 14.8701 0.630436)" fill="white"/>
<ellipse rx="0.186171" ry="0.149107" transform="matrix(1.01863 -0.174445 -0.300422 -0.922075 14.9566 1.11023)" fill="white"/>
<ellipse rx="1.16956" ry="0.936717" transform="matrix(-1.01863 0.174445 -0.300422 -0.922075 20.9478 4.19364)" fill="url(#paint3_linear_466_132511)"/>
<ellipse rx="0.219856" ry="0.176086" transform="matrix(1.01863 -0.174445 -0.300422 -0.922075 21.3171 3.72623)" fill="white"/>
<ellipse rx="0.124114" ry="0.0994048" transform="matrix(1.01863 -0.174445 -0.300422 -0.922075 21.3749 4.0461)" fill="white"/>
<ellipse rx="3.50867" ry="2.81015" transform="matrix(-1.01863 0.174445 -0.300422 -0.922075 14.6853 10.5827)" fill="url(#paint4_linear_466_132511)"/>
<ellipse rx="0.659567" ry="0.528258" transform="matrix(1.01863 -0.174445 -0.300422 -0.922075 15.7931 9.18054)" fill="white"/>
<ellipse rx="0.372342" ry="0.298214" transform="matrix(1.01863 -0.174445 -0.300422 -0.922075 15.9663 10.1401)" fill="white"/>
<ellipse rx="3.50867" ry="2.81015" transform="matrix(-1.01863 0.174445 -0.300422 -0.922075 20.6796 10.7124)" fill="url(#paint5_linear_466_132511)"/>
<ellipse rx="0.659567" ry="0.528258" transform="matrix(1.01863 -0.174445 -0.300422 -0.922075 21.7874 9.31026)" fill="white"/>
<ellipse rx="0.372342" ry="0.298214" transform="matrix(1.01863 -0.174445 -0.300422 -0.922075 21.9606 10.2698)" fill="white"/>
<ellipse rx="1.75434" ry="1.40508" transform="matrix(-1.01863 0.174445 -0.300422 -0.922075 18.5436 7.94764)" fill="url(#paint6_linear_466_132511)"/>
<ellipse rx="0.329783" ry="0.264129" transform="matrix(1.01863 -0.174445 -0.300422 -0.922075 19.0975 7.24654)" fill="white"/>
<ellipse rx="0.186171" ry="0.149107" transform="matrix(1.01863 -0.174445 -0.300422 -0.922075 19.1842 7.72632)" fill="white"/>
<ellipse rx="2.92389" ry="2.34179" transform="matrix(-1.01863 0.174445 -0.300422 -0.922075 6.37598 12.0341)" fill="url(#paint7_linear_466_132511)"/>
<ellipse rx="0.549639" ry="0.440215" transform="matrix(1.01863 -0.174445 -0.300422 -0.922075 7.2992 10.8656)" fill="white"/>
<ellipse rx="0.310285" ry="0.248512" transform="matrix(1.01863 -0.174445 -0.300422 -0.922075 7.44352 11.6652)" fill="white"/>
<ellipse rx="2.33911" ry="1.87343" transform="matrix(-1.01863 0.174445 -0.300422 -0.922075 10.1895 10.4854)" fill="url(#paint8_linear_466_132511)"/>
<ellipse rx="0.439711" ry="0.352172" transform="matrix(1.01863 -0.174445 -0.300422 -0.922075 10.9281 9.55065)" fill="white"/>
<ellipse rx="0.248228" ry="0.19881" transform="matrix(1.01863 -0.174445 -0.300422 -0.922075 11.0435 10.1904)" fill="white"/>
<ellipse rx="3.50867" ry="2.81015" transform="matrix(-1.01863 0.174445 -0.300422 -0.922075 10.0107 14.8313)" fill="url(#paint9_linear_466_132511)"/>
<ellipse rx="0.659567" ry="0.528258" transform="matrix(1.01863 -0.174445 -0.300422 -0.922075 11.1185 13.4291)" fill="white"/>
<ellipse rx="0.372342" ry="0.298214" transform="matrix(1.01863 -0.174445 -0.300422 -0.922075 11.2917 14.3887)" fill="white"/>
<ellipse rx="3.50867" ry="2.81015" transform="matrix(-1.01863 0.174445 -0.300422 -0.922075 16.005 14.961)" fill="url(#paint10_linear_466_132511)"/>
<ellipse rx="0.659567" ry="0.528258" transform="matrix(1.01863 -0.174445 -0.300422 -0.922075 17.1128 13.5588)" fill="white"/>
<ellipse rx="0.372342" ry="0.298214" transform="matrix(1.01863 -0.174445 -0.300422 -0.922075 17.2861 14.5184)" fill="white"/>
<ellipse rx="1.75434" ry="1.40508" transform="matrix(-1.01863 0.174445 -0.300422 -0.922075 13.869 12.1962)" fill="url(#paint11_linear_466_132511)"/>
<ellipse rx="0.329783" ry="0.264129" transform="matrix(1.01863 -0.174445 -0.300422 -0.922075 14.4229 11.4951)" fill="white"/>
<ellipse rx="0.186171" ry="0.149107" transform="matrix(1.01863 -0.174445 -0.300422 -0.922075 14.5094 11.9749)" fill="white"/>
<ellipse rx="2.95683" ry="2.30006" transform="matrix(-0.922256 0.340569 -0.603884 -0.859562 25.7602 10.977)" fill="url(#paint12_linear_466_132511)"/>
<ellipse rx="0.555831" ry="0.43237" transform="matrix(0.922256 -0.340569 -0.603884 -0.859562 26.2754 9.68323)" fill="white"/>
<ellipse rx="0.31378" ry="0.244084" transform="matrix(0.922256 -0.340569 -0.603884 -0.859562 26.6767 10.4353)" fill="white"/>
<ellipse rx="2.36547" ry="1.84005" transform="matrix(-0.922256 0.340569 -0.603884 -0.859562 28.9592 8.81756)" fill="url(#paint13_linear_466_132511)"/>
<ellipse rx="0.444665" ry="0.345896" transform="matrix(0.922256 -0.340569 -0.603884 -0.859562 29.3714 7.78253)" fill="white"/>
<ellipse rx="0.251024" ry="0.195267" transform="matrix(0.922256 -0.340569 -0.603884 -0.859562 29.6926 8.38422)" fill="white"/>
<ellipse rx="1.7741" ry="1.38004" transform="matrix(-0.922256 0.340569 -0.603884 -0.859562 26.8241 4.14594)" fill="url(#paint14_linear_466_132511)"/>
<ellipse rx="0.333499" ry="0.259422" transform="matrix(0.922256 -0.340569 -0.603884 -0.859562 27.1333 3.36967)" fill="white"/>
<ellipse rx="0.188268" ry="0.14645" transform="matrix(0.922256 -0.340569 -0.603884 -0.859562 27.374 3.82094)" fill="white"/>
<ellipse rx="3.5482" ry="2.76008" transform="matrix(-0.922256 0.340569 -0.603884 -0.859562 30.2051 13.0705)" fill="url(#paint15_linear_466_132511)"/>
<ellipse rx="0.666997" ry="0.518844" transform="matrix(0.922256 -0.340569 -0.603884 -0.859562 30.8235 11.518)" fill="white"/>
<ellipse rx="0.376536" ry="0.2929" transform="matrix(0.922256 -0.340569 -0.603884 -0.859562 31.3052 12.4205)" fill="white"/>
<ellipse rx="3.5482" ry="2.76008" transform="matrix(-0.922256 0.340569 -0.603884 -0.859562 36.0713 12.1671)" fill="url(#paint16_linear_466_132511)"/>
<ellipse rx="0.666997" ry="0.518844" transform="matrix(0.922256 -0.340569 -0.603884 -0.859562 36.6896 10.6146)" fill="white"/>
<ellipse rx="0.376536" ry="0.2929" transform="matrix(0.922256 -0.340569 -0.603884 -0.859562 37.1713 11.5171)" fill="white"/>
<ellipse rx="1.7741" ry="1.38004" transform="matrix(-0.922256 0.340569 -0.603884 -0.859562 33.0928 9.84781)" fill="url(#paint17_linear_466_132511)"/>
<ellipse rx="0.333499" ry="0.259422" transform="matrix(0.922256 -0.340569 -0.603884 -0.859562 33.4019 9.07155)" fill="white"/>
<ellipse rx="0.188268" ry="0.14645" transform="matrix(0.922256 -0.340569 -0.603884 -0.859562 33.6427 9.5228)" fill="white"/>
<ellipse rx="2.95683" ry="2.30006" transform="matrix(-0.922256 0.340569 -0.603884 -0.859562 22.6066 15.9075)" fill="url(#paint18_linear_466_132511)"/>
<ellipse rx="0.555831" ry="0.43237" transform="matrix(0.922256 -0.340569 -0.603884 -0.859562 23.1218 14.6137)" fill="white"/>
<ellipse rx="0.31378" ry="0.244084" transform="matrix(0.922256 -0.340569 -0.603884 -0.859562 23.5234 15.3658)" fill="white"/>
<ellipse rx="2.36547" ry="1.84005" transform="matrix(-0.922256 0.340569 -0.603884 -0.859562 25.8058 13.748)" fill="url(#paint19_linear_466_132511)"/>
<ellipse rx="0.444665" ry="0.345896" transform="matrix(0.922256 -0.340569 -0.603884 -0.859562 26.218 12.713)" fill="white"/>
<ellipse rx="0.251024" ry="0.195267" transform="matrix(0.922256 -0.340569 -0.603884 -0.859562 26.5391 13.3147)" fill="white"/>
<ellipse rx="3.5482" ry="2.76008" transform="matrix(-0.922256 0.340569 -0.603884 -0.859562 27.0517 18.0009)" fill="url(#paint20_linear_466_132511)"/>
<ellipse rx="0.666997" ry="0.518844" transform="matrix(0.922256 -0.340569 -0.603884 -0.859562 27.6701 16.4484)" fill="white"/>
<ellipse rx="0.376536" ry="0.2929" transform="matrix(0.922256 -0.340569 -0.603884 -0.859562 28.1518 17.3509)" fill="white"/>
<ellipse rx="3.5482" ry="2.76008" transform="matrix(-0.922256 0.340569 -0.603884 -0.859562 32.9179 17.0976)" fill="url(#paint21_linear_466_132511)"/>
<ellipse rx="0.666997" ry="0.518844" transform="matrix(0.922256 -0.340569 -0.603884 -0.859562 33.5361 15.545)" fill="white"/>
<ellipse rx="0.376536" ry="0.2929" transform="matrix(0.922256 -0.340569 -0.603884 -0.859562 34.0179 16.4476)" fill="white"/>
<ellipse rx="1.7741" ry="1.38004" transform="matrix(-0.922256 0.340569 -0.603884 -0.859562 29.9394 14.7783)" fill="url(#paint22_linear_466_132511)"/>
<ellipse rx="0.333499" ry="0.259422" transform="matrix(0.922256 -0.340569 -0.603884 -0.859562 30.2485 14.002)" fill="white"/>
<ellipse rx="0.188268" ry="0.14645" transform="matrix(0.922256 -0.340569 -0.603884 -0.859562 30.4895 14.4532)" fill="white"/>
<g filter="url(#filter0_f_466_132511)">
<path d="M10.2399 15.0328C10.1675 16.7901 8.04291 18.17 5.49441 18.1149C2.94591 18.0597 0.938586 16.5904 1.01093 14.8331C1.08328 13.0758 3.20789 11.6959 5.75639 11.7511C8.30489 11.8062 10.3122 13.2755 10.2399 15.0328Z" fill="url(#paint23_linear_466_132511)" fill-opacity="0.5"/>
<path d="M13.2289 17.2207C13.1565 18.978 11.0319 20.3579 8.48339 20.3027C5.93489 20.2476 3.92757 18.7783 3.99991 17.021C4.07226 15.2636 6.19687 13.8838 8.74537 13.9389C11.2939 13.994 13.3012 15.4633 13.2289 17.2207Z" fill="url(#paint24_linear_466_132511)" fill-opacity="0.5"/>
<path d="M15.4253 13.7296C15.3529 15.4869 13.2283 16.8668 10.6798 16.8116C8.13131 16.7565 6.12399 15.2872 6.19634 13.5299C6.26868 11.7726 8.3933 10.3927 10.9418 10.4478C13.4903 10.503 15.4976 11.9723 15.4253 13.7296Z" fill="url(#paint25_linear_466_132511)" fill-opacity="0.5"/>
<path d="M20.4651 15.9618C20.3928 17.7191 18.2682 19.099 15.7197 19.0439C13.1712 18.9887 11.1638 17.5194 11.2362 15.7621C11.3085 14.0048 13.4332 12.6249 15.9817 12.68C18.5302 12.7352 20.5375 14.2045 20.4651 15.9618Z" fill="url(#paint26_linear_466_132511)" fill-opacity="0.5"/>
<path d="M18.5744 12.0284C18.5261 13.2 17.1097 14.1199 15.4107 14.0831C13.7117 14.0464 12.3735 13.0668 12.4217 11.8953C12.47 10.7237 13.8864 9.80382 15.5854 9.84059C17.2844 9.87735 18.6226 10.8569 18.5744 12.0284Z" fill="url(#paint27_linear_466_132511)" fill-opacity="0.5"/>
<path d="M25.6651 14.305C25.6169 15.4766 24.2004 16.3965 22.5015 16.3597C20.8025 16.323 19.4642 15.3434 19.5125 14.1719C19.5607 13.0003 20.9771 12.0804 22.6761 12.1172C24.3751 12.1539 25.7133 13.1335 25.6651 14.305Z" fill="url(#paint28_linear_466_132511)" fill-opacity="0.5"/>
<path d="M16.2033 19.762C16.155 20.9336 14.7386 21.8535 13.0396 21.8167C11.3406 21.78 10.0024 20.8005 10.0507 19.6289C10.0989 18.4574 11.5153 17.5374 13.2143 17.5742C14.9133 17.611 16.2515 18.5905 16.2033 19.762Z" fill="url(#paint29_linear_466_132511)" fill-opacity="0.5"/>
<path d="M21.5924 13.5092C21.5442 14.6807 20.1278 15.6006 18.4288 15.5639C16.7298 15.5271 15.3916 14.5476 15.4398 13.376C15.4881 12.2045 16.9045 11.2846 18.6035 11.3213C20.3025 11.3581 21.6407 12.3376 21.5924 13.5092Z" fill="url(#paint30_linear_466_132511)" fill-opacity="0.5"/>
<path d="M33.8824 15.9283C33.2927 14.2166 34.8254 12.5034 37.3058 12.1019C39.7861 11.7003 42.275 12.7624 42.8647 14.4741C43.4544 16.1858 41.9217 17.899 39.4413 18.3005C36.9609 18.7021 34.4721 17.64 33.8824 15.9283Z" fill="url(#paint31_linear_466_132511)" fill-opacity="0.5"/>
<path d="M30.1765 14.3468C29.5867 12.6351 31.1194 10.9219 33.5998 10.5204C36.0802 10.1188 38.569 11.1809 39.1587 12.8926C39.7485 14.6043 38.2158 16.3175 35.7354 16.719C33.255 17.1206 30.7662 16.0585 30.1765 14.3468Z" fill="url(#paint32_linear_466_132511)" fill-opacity="0.5"/>
<path d="M29.3668 18.1137C28.7771 16.4019 30.3098 14.6888 32.7902 14.2872C35.2706 13.8857 37.7594 14.9478 38.3491 16.6595C38.9388 18.3712 37.4061 20.0843 34.9257 20.4859C32.4454 20.8875 29.9565 19.8254 29.3668 18.1137Z" fill="url(#paint33_linear_466_132511)" fill-opacity="0.5"/>
<path d="M23.6648 16.8553C23.0751 15.1436 24.6078 13.4305 27.0882 13.0289C29.5686 12.6273 32.0574 13.6894 32.6471 15.4011C33.2368 17.1128 31.7041 18.826 29.2237 19.2276C26.7434 19.6291 24.2545 18.567 23.6648 16.8553Z" fill="url(#paint34_linear_466_132511)" fill-opacity="0.5"/>
<path d="M26.966 20.3202C26.5728 19.1791 27.5946 18.037 29.2482 17.7693C30.9018 17.5016 32.561 18.2096 32.9541 19.3508C33.3473 20.4919 32.3255 21.634 30.6719 21.9017C29.0183 22.1694 27.3591 21.4614 26.966 20.3202Z" fill="url(#paint35_linear_466_132511)" fill-opacity="0.5"/>
<path d="M19.2679 19.385C18.8747 18.2439 19.8965 17.1018 21.5501 16.8341C23.2037 16.5664 24.8629 17.2744 25.2561 18.4156C25.6492 19.5567 24.6274 20.6988 22.9738 20.9665C21.3202 21.2342 19.661 20.5262 19.2679 19.385Z" fill="url(#paint36_linear_466_132511)" fill-opacity="0.5"/>
<path d="M26.3519 12.4209C25.9587 11.2798 26.9805 10.1377 28.6341 9.86999C30.2877 9.60228 31.9469 10.3103 32.3401 11.4515C32.7332 12.5926 31.7114 13.7347 30.0578 14.0024C28.4042 14.2701 26.745 13.5621 26.3519 12.4209Z" fill="url(#paint37_linear_466_132511)" fill-opacity="0.5"/>
<path d="M23.4973 19.4275C23.1041 18.2863 24.1259 17.1442 25.7795 16.8765C27.4331 16.6088 29.0923 17.3169 29.4855 18.458C29.8786 19.5992 28.8568 20.7413 27.2032 21.009C25.5496 21.2767 23.8904 20.5686 23.4973 19.4275Z" fill="url(#paint38_linear_466_132511)" fill-opacity="0.5"/>
<path d="M15.3671 15.1438C15.2947 16.9011 13.1701 18.281 10.6216 18.2258C8.07309 18.1707 6.06577 16.7014 6.13812 14.9441C6.21046 13.1867 8.33508 11.8069 10.8836 11.862C13.4321 11.9172 15.4394 13.3864 15.3671 15.1438Z" fill="url(#paint39_linear_466_132511)" fill-opacity="0.5"/>
<path d="M18.356 17.3316C18.2837 19.0889 16.1591 20.4688 13.6106 20.4137C11.0621 20.3585 9.05476 18.8892 9.1271 17.1319C9.19945 15.3746 11.3241 13.9947 13.8726 14.0498C16.4211 14.105 18.4284 15.5743 18.356 17.3316Z" fill="url(#paint40_linear_466_132511)" fill-opacity="0.5"/>
<path d="M20.5525 13.8405C20.4801 15.5979 18.3555 16.9777 15.807 16.9226C13.2585 16.8674 11.2512 15.3981 11.3235 13.6408C11.3959 11.8835 13.5205 10.5036 16.069 10.5588C18.6175 10.6139 20.6248 12.0832 20.5525 13.8405Z" fill="url(#paint41_linear_466_132511)" fill-opacity="0.5"/>
<path d="M25.5923 16.0727C25.52 17.8301 23.3954 19.21 20.8469 19.1548C18.2984 19.0997 16.291 17.6304 16.3634 15.873C16.4357 14.1157 18.5603 12.7358 21.1088 12.791C23.6573 12.8461 25.6647 14.3154 25.5923 16.0727Z" fill="url(#paint42_linear_466_132511)" fill-opacity="0.5"/>
<path d="M23.7015 12.1394C23.6533 13.3109 22.2369 14.2308 20.5379 14.1941C18.8389 14.1573 17.5007 13.1778 17.5489 12.0062C17.5971 10.8347 19.0136 9.91477 20.7126 9.95153C22.4116 9.9883 23.7498 10.9678 23.7015 12.1394Z" fill="url(#paint43_linear_466_132511)" fill-opacity="0.5"/>
<path d="M30.7923 14.416C30.744 15.5875 29.3276 16.5074 27.6286 16.4707C25.9296 16.4339 24.5914 15.4544 24.6397 14.2828C24.6879 13.1113 26.1043 12.1914 27.8033 12.2281C29.5023 12.2649 30.8405 13.2444 30.7923 14.416Z" fill="url(#paint44_linear_466_132511)" fill-opacity="0.5"/>
<path d="M21.3305 19.873C21.2822 21.0445 19.8658 21.9645 18.1668 21.9277C16.4678 21.8909 15.1296 20.9114 15.1778 19.7399C15.2261 18.5683 16.6425 17.6484 18.3415 17.6852C20.0405 17.7219 21.3787 18.7014 21.3305 19.873Z" fill="url(#paint45_linear_466_132511)" fill-opacity="0.5"/>
<path d="M26.7196 13.6201C26.6714 14.7917 25.255 15.7116 23.556 15.6748C21.857 15.6381 20.5188 14.6585 20.567 13.487C20.6152 12.3154 22.0317 11.3955 23.7307 11.4323C25.4297 11.469 26.7679 12.4486 26.7196 13.6201Z" fill="url(#paint46_linear_466_132511)" fill-opacity="0.5"/>
<path d="M28.8922 16.7362C28.3025 15.0245 29.8351 13.3113 32.3155 12.9098C34.7959 12.5082 37.2847 13.5703 37.8744 15.282C38.4642 16.9937 36.9315 18.7069 34.4511 19.1084C31.9707 19.51 29.4819 18.4479 28.8922 16.7362Z" fill="url(#paint47_linear_466_132511)" fill-opacity="0.5"/>
<path d="M25.1862 15.1547C24.5965 13.443 26.1292 11.7298 28.6096 11.3283C31.09 10.9267 33.5788 11.9888 34.1685 13.7005C34.7582 15.4122 33.2255 17.1254 30.7451 17.5269C28.2648 17.9285 25.7759 16.8664 25.1862 15.1547Z" fill="url(#paint48_linear_466_132511)" fill-opacity="0.5"/>
<path d="M24.3766 18.9215C23.7869 17.2098 25.3196 15.4967 27.7999 15.0951C30.2803 14.6936 32.7691 15.7556 33.3589 17.4674C33.9486 19.1791 32.4159 20.8922 29.9355 21.2938C27.4551 21.6953 24.9663 20.6332 24.3766 18.9215Z" fill="url(#paint49_linear_466_132511)" fill-opacity="0.5"/>
<path d="M18.6746 17.6632C18.0849 15.9515 19.6175 14.2383 22.0979 13.8368C24.5783 13.4352 27.0671 14.4973 27.6569 16.209C28.2466 17.9207 26.7139 19.6339 24.2335 20.0354C21.7531 20.437 19.2643 19.3749 18.6746 17.6632Z" fill="url(#paint50_linear_466_132511)" fill-opacity="0.5"/>
<path d="M21.9757 21.1281C21.5826 19.987 22.6044 18.8449 24.2579 18.5772C25.9115 18.3095 27.5707 19.0175 27.9639 20.1587C28.357 21.2998 27.3353 22.4419 25.6817 22.7096C24.0281 22.9773 22.3689 22.2692 21.9757 21.1281Z" fill="url(#paint51_linear_466_132511)" fill-opacity="0.5"/>
<path d="M14.2776 20.1929C13.8845 19.0518 14.9063 17.9097 16.5599 17.642C18.2135 17.3743 19.8727 18.0823 20.2658 19.2235C20.659 20.3646 19.6372 21.5067 17.9836 21.7744C16.33 22.0421 14.6708 21.3341 14.2776 20.1929Z" fill="url(#paint52_linear_466_132511)" fill-opacity="0.5"/>
<path d="M21.3616 13.2288C20.9685 12.0877 21.9903 10.9456 23.6439 10.6779C25.2975 10.4102 26.9567 11.1182 27.3498 12.2594C27.743 13.4005 26.7212 14.5426 25.0676 14.8103C23.414 15.078 21.7548 14.37 21.3616 13.2288Z" fill="url(#paint53_linear_466_132511)" fill-opacity="0.5"/>
<path d="M18.5071 20.2354C18.1139 19.0942 19.1357 17.9521 20.7893 17.6844C22.4429 17.4167 24.1021 18.1248 24.4952 19.2659C24.8884 20.407 23.8666 21.5491 22.213 21.8168C20.5594 22.0846 18.9002 21.3765 18.5071 20.2354Z" fill="url(#paint54_linear_466_132511)" fill-opacity="0.5"/>
</g>
<defs>
<filter id="filter0_f_466_132511" x="0" y="8.80437" width="44" height="14.9709" filterUnits="userSpaceOnUse" color-interpolation-filters="sRGB">
<feFlood flood-opacity="0" result="BackgroundImageFix"/>
<feBlend mode="normal" in="SourceGraphic" in2="BackgroundImageFix" result="shape"/>
<feGaussianBlur stdDeviation="0.5" result="effect1_foregroundBlur_466_132511"/>
</filter>
<linearGradient id="paint0_linear_466_132511" x1="2.54358" y1="2.547" x2="2.78929" y2="4.69896" gradientUnits="userSpaceOnUse">
<stop stop-color="#D9D9D9" stop-opacity="0.23"/>
<stop offset="1" stop-color="white"/>
</linearGradient>
<linearGradient id="paint1_linear_466_132511" x1="2.03486" y1="2.0376" x2="2.23143" y2="3.75917" gradientUnits="userSpaceOnUse">
<stop stop-color="#D9D9D9" stop-opacity="0.23"/>
<stop offset="1" stop-color="white"/>
</linearGradient>
<linearGradient id="paint2_linear_466_132511" x1="1.52615" y1="1.5282" x2="1.67357" y2="2.81937" gradientUnits="userSpaceOnUse">
<stop stop-color="#D9D9D9" stop-opacity="0.23"/>
<stop offset="1" stop-color="white"/>
</linearGradient>
<linearGradient id="paint3_linear_466_132511" x1="1.01743" y1="1.0188" x2="1.11572" y2="1.87958" gradientUnits="userSpaceOnUse">
<stop stop-color="#D9D9D9" stop-opacity="0.23"/>
<stop offset="1" stop-color="white"/>
</linearGradient>
<linearGradient id="paint4_linear_466_132511" x1="3.05229" y1="3.0564" x2="3.34715" y2="5.63875" gradientUnits="userSpaceOnUse">
<stop stop-color="#D9D9D9" stop-opacity="0.23"/>
<stop offset="1" stop-color="white"/>
</linearGradient>
<linearGradient id="paint5_linear_466_132511" x1="3.05229" y1="3.0564" x2="3.34715" y2="5.63875" gradientUnits="userSpaceOnUse">
<stop stop-color="#D9D9D9" stop-opacity="0.23"/>
<stop offset="1" stop-color="white"/>
</linearGradient>
<linearGradient id="paint6_linear_466_132511" x1="1.52615" y1="1.5282" x2="1.67357" y2="2.81937" gradientUnits="userSpaceOnUse">
<stop stop-color="#D9D9D9" stop-opacity="0.23"/>
<stop offset="1" stop-color="white"/>
</linearGradient>
<linearGradient id="paint7_linear_466_132511" x1="2.54358" y1="2.547" x2="2.78929" y2="4.69896" gradientUnits="userSpaceOnUse">
<stop stop-color="#D9D9D9" stop-opacity="0.23"/>
<stop offset="1" stop-color="white"/>
</linearGradient>
<linearGradient id="paint8_linear_466_132511" x1="2.03486" y1="2.0376" x2="2.23143" y2="3.75917" gradientUnits="userSpaceOnUse">
<stop stop-color="#D9D9D9" stop-opacity="0.23"/>
<stop offset="1" stop-color="white"/>
</linearGradient>
<linearGradient id="paint9_linear_466_132511" x1="3.05229" y1="3.0564" x2="3.34715" y2="5.63875" gradientUnits="userSpaceOnUse">
<stop stop-color="#D9D9D9" stop-opacity="0.23"/>
<stop offset="1" stop-color="white"/>
</linearGradient>
<linearGradient id="paint10_linear_466_132511" x1="3.05229" y1="3.0564" x2="3.34715" y2="5.63875" gradientUnits="userSpaceOnUse">
<stop stop-color="#D9D9D9" stop-opacity="0.23"/>
<stop offset="1" stop-color="white"/>
</linearGradient>
<linearGradient id="paint11_linear_466_132511" x1="1.52615" y1="1.5282" x2="1.67357" y2="2.81937" gradientUnits="userSpaceOnUse">
<stop stop-color="#D9D9D9" stop-opacity="0.23"/>
<stop offset="1" stop-color="white"/>
</linearGradient>
<linearGradient id="paint12_linear_466_132511" x1="2.57223" y1="2.50161" x2="2.8068" y2="4.61677" gradientUnits="userSpaceOnUse">
<stop stop-color="#D9D9D9" stop-opacity="0.23"/>
<stop offset="1" stop-color="white"/>
</linearGradient>
<linearGradient id="paint13_linear_466_132511" x1="2.05778" y1="2.00129" x2="2.24544" y2="3.69341" gradientUnits="userSpaceOnUse">
<stop stop-color="#D9D9D9" stop-opacity="0.23"/>
<stop offset="1" stop-color="white"/>
</linearGradient>
<linearGradient id="paint14_linear_466_132511" x1="1.54334" y1="1.50097" x2="1.68408" y2="2.77006" gradientUnits="userSpaceOnUse">
<stop stop-color="#D9D9D9" stop-opacity="0.23"/>
<stop offset="1" stop-color="white"/>
</linearGradient>
<linearGradient id="paint15_linear_466_132511" x1="3.08668" y1="3.00194" x2="3.36816" y2="5.54012" gradientUnits="userSpaceOnUse">
<stop stop-color="#D9D9D9" stop-opacity="0.23"/>
<stop offset="1" stop-color="white"/>
</linearGradient>
<linearGradient id="paint16_linear_466_132511" x1="3.08668" y1="3.00194" x2="3.36816" y2="5.54012" gradientUnits="userSpaceOnUse">
<stop stop-color="#D9D9D9" stop-opacity="0.23"/>
<stop offset="1" stop-color="white"/>
</linearGradient>
<linearGradient id="paint17_linear_466_132511" x1="1.54334" y1="1.50097" x2="1.68408" y2="2.77006" gradientUnits="userSpaceOnUse">
<stop stop-color="#D9D9D9" stop-opacity="0.23"/>
<stop offset="1" stop-color="white"/>
</linearGradient>
<linearGradient id="paint18_linear_466_132511" x1="2.57223" y1="2.50161" x2="2.8068" y2="4.61677" gradientUnits="userSpaceOnUse">
<stop stop-color="#D9D9D9" stop-opacity="0.23"/>
<stop offset="1" stop-color="white"/>
</linearGradient>
<linearGradient id="paint19_linear_466_132511" x1="2.05778" y1="2.00129" x2="2.24544" y2="3.69341" gradientUnits="userSpaceOnUse">
<stop stop-color="#D9D9D9" stop-opacity="0.23"/>
<stop offset="1" stop-color="white"/>
</linearGradient>
<linearGradient id="paint20_linear_466_132511" x1="3.08668" y1="3.00194" x2="3.36816" y2="5.54012" gradientUnits="userSpaceOnUse">
<stop stop-color="#D9D9D9" stop-opacity="0.23"/>
<stop offset="1" stop-color="white"/>
</linearGradient>
<linearGradient id="paint21_linear_466_132511" x1="3.08668" y1="3.00194" x2="3.36816" y2="5.54012" gradientUnits="userSpaceOnUse">
<stop stop-color="#D9D9D9" stop-opacity="0.23"/>
<stop offset="1" stop-color="white"/>
</linearGradient>
<linearGradient id="paint22_linear_466_132511" x1="1.54334" y1="1.50097" x2="1.68408" y2="2.77006" gradientUnits="userSpaceOnUse">
<stop stop-color="#D9D9D9" stop-opacity="0.23"/>
<stop offset="1" stop-color="white"/>
</linearGradient>
<linearGradient id="paint23_linear_466_132511" x1="22.2227" y1="9.65838" x2="21.9405" y2="22.7015" gradientUnits="userSpaceOnUse">
<stop stop-color="#F4FAFF"/>
<stop offset="1" stop-color="white" stop-opacity="0"/>
</linearGradient>
<linearGradient id="paint24_linear_466_132511" x1="22.2227" y1="9.65838" x2="21.9405" y2="22.7015" gradientUnits="userSpaceOnUse">
<stop stop-color="#F4FAFF"/>
<stop offset="1" stop-color="white" stop-opacity="0"/>
</linearGradient>
<linearGradient id="paint25_linear_466_132511" x1="22.2227" y1="9.65838" x2="21.9405" y2="22.7015" gradientUnits="userSpaceOnUse">
<stop stop-color="#F4FAFF"/>
<stop offset="1" stop-color="white" stop-opacity="0"/>
</linearGradient>
<linearGradient id="paint26_linear_466_132511" x1="22.2227" y1="9.65838" x2="21.9405" y2="22.7015" gradientUnits="userSpaceOnUse">
<stop stop-color="#F4FAFF"/>
<stop offset="1" stop-color="white" stop-opacity="0"/>
</linearGradient>
<linearGradient id="paint27_linear_466_132511" x1="22.2227" y1="9.65838" x2="21.9405" y2="22.7015" gradientUnits="userSpaceOnUse">
<stop stop-color="#F4FAFF"/>
<stop offset="1" stop-color="white" stop-opacity="0"/>
</linearGradient>
<linearGradient id="paint28_linear_466_132511" x1="22.2227" y1="9.65838" x2="21.9405" y2="22.7015" gradientUnits="userSpaceOnUse">
<stop stop-color="#F4FAFF"/>
<stop offset="1" stop-color="white" stop-opacity="0"/>
</linearGradient>
<linearGradient id="paint29_linear_466_132511" x1="22.2227" y1="9.65838" x2="21.9405" y2="22.7015" gradientUnits="userSpaceOnUse">
<stop stop-color="#F4FAFF"/>
<stop offset="1" stop-color="white" stop-opacity="0"/>
</linearGradient>
<linearGradient id="paint30_linear_466_132511" x1="22.2227" y1="9.65838" x2="21.9405" y2="22.7015" gradientUnits="userSpaceOnUse">
<stop stop-color="#F4FAFF"/>
<stop offset="1" stop-color="white" stop-opacity="0"/>
</linearGradient>
<linearGradient id="paint31_linear_466_132511" x1="22.2227" y1="9.65838" x2="21.9405" y2="22.7015" gradientUnits="userSpaceOnUse">
<stop stop-color="#F4FAFF"/>
<stop offset="1" stop-color="white" stop-opacity="0"/>
</linearGradient>
<linearGradient id="paint32_linear_466_132511" x1="22.2227" y1="9.65838" x2="21.9405" y2="22.7015" gradientUnits="userSpaceOnUse">
<stop stop-color="#F4FAFF"/>
<stop offset="1" stop-color="white" stop-opacity="0"/>
</linearGradient>
<linearGradient id="paint33_linear_466_132511" x1="22.2227" y1="9.65838" x2="21.9405" y2="22.7015" gradientUnits="userSpaceOnUse">
<stop stop-color="#F4FAFF"/>
<stop offset="1" stop-color="white" stop-opacity="0"/>
</linearGradient>
<linearGradient id="paint34_linear_466_132511" x1="22.2227" y1="9.65838" x2="21.9405" y2="22.7015" gradientUnits="userSpaceOnUse">
<stop stop-color="#F4FAFF"/>
<stop offset="1" stop-color="white" stop-opacity="0"/>
</linearGradient>
<linearGradient id="paint35_linear_466_132511" x1="22.2227" y1="9.65838" x2="21.9405" y2="22.7015" gradientUnits="userSpaceOnUse">
<stop stop-color="#F4FAFF"/>
<stop offset="1" stop-color="white" stop-opacity="0"/>
</linearGradient>
<linearGradient id="paint36_linear_466_132511" x1="22.2227" y1="9.65838" x2="21.9405" y2="22.7015" gradientUnits="userSpaceOnUse">
<stop stop-color="#F4FAFF"/>
<stop offset="1" stop-color="white" stop-opacity="0"/>
</linearGradient>
<linearGradient id="paint37_linear_466_132511" x1="22.2227" y1="9.65838" x2="21.9405" y2="22.7015" gradientUnits="userSpaceOnUse">
<stop stop-color="#F4FAFF"/>
<stop offset="1" stop-color="white" stop-opacity="0"/>
</linearGradient>
<linearGradient id="paint38_linear_466_132511" x1="22.2227" y1="9.65838" x2="21.9405" y2="22.7015" gradientUnits="userSpaceOnUse">
<stop stop-color="#F4FAFF"/>
<stop offset="1" stop-color="white" stop-opacity="0"/>
</linearGradient>
<linearGradient id="paint39_linear_466_132511" x1="22.2227" y1="9.65838" x2="21.9405" y2="22.7015" gradientUnits="userSpaceOnUse">
<stop stop-color="#F4FAFF"/>
<stop offset="1" stop-color="white" stop-opacity="0"/>
</linearGradient>
<linearGradient id="paint40_linear_466_132511" x1="22.2227" y1="9.65838" x2="21.9405" y2="22.7015" gradientUnits="userSpaceOnUse">
<stop stop-color="#F4FAFF"/>
<stop offset="1" stop-color="white" stop-opacity="0"/>
</linearGradient>
<linearGradient id="paint41_linear_466_132511" x1="22.2227" y1="9.65838" x2="21.9405" y2="22.7015" gradientUnits="userSpaceOnUse">
<stop stop-color="#F4FAFF"/>
<stop offset="1" stop-color="white" stop-opacity="0"/>
</linearGradient>
<linearGradient id="paint42_linear_466_132511" x1="22.2227" y1="9.65838" x2="21.9405" y2="22.7015" gradientUnits="userSpaceOnUse">
<stop stop-color="#F4FAFF"/>
<stop offset="1" stop-color="white" stop-opacity="0"/>
</linearGradient>
<linearGradient id="paint43_linear_466_132511" x1="22.2227" y1="9.65838" x2="21.9405" y2="22.7015" gradientUnits="userSpaceOnUse">
<stop stop-color="#F4FAFF"/>
<stop offset="1" stop-color="white" stop-opacity="0"/>
</linearGradient>
<linearGradient id="paint44_linear_466_132511" x1="22.2227" y1="9.65838" x2="21.9405" y2="22.7015" gradientUnits="userSpaceOnUse">
<stop stop-color="#F4FAFF"/>
<stop offset="1" stop-color="white" stop-opacity="0"/>
</linearGradient>
<linearGradient id="paint45_linear_466_132511" x1="22.2227" y1="9.65838" x2="21.9405" y2="22.7015" gradientUnits="userSpaceOnUse">
<stop stop-color="#F4FAFF"/>
<stop offset="1" stop-color="white" stop-opacity="0"/>
</linearGradient>
<linearGradient id="paint46_linear_466_132511" x1="22.2227" y1="9.65838" x2="21.9405" y2="22.7015" gradientUnits="userSpaceOnUse">
<stop stop-color="#F4FAFF"/>
<stop offset="1" stop-color="white" stop-opacity="0"/>
</linearGradient>
<linearGradient id="paint47_linear_466_132511" x1="22.2227" y1="9.65838" x2="21.9405" y2="22.7015" gradientUnits="userSpaceOnUse">
<stop stop-color="#F4FAFF"/>
<stop offset="1" stop-color="white" stop-opacity="0"/>
</linearGradient>
<linearGradient id="paint48_linear_466_132511" x1="22.2227" y1="9.65838" x2="21.9405" y2="22.7015" gradientUnits="userSpaceOnUse">
<stop stop-color="#F4FAFF"/>
<stop offset="1" stop-color="white" stop-opacity="0"/>
</linearGradient>
<linearGradient id="paint49_linear_466_132511" x1="22.2227" y1="9.65838" x2="21.9405" y2="22.7015" gradientUnits="userSpaceOnUse">
<stop stop-color="#F4FAFF"/>
<stop offset="1" stop-color="white" stop-opacity="0"/>
</linearGradient>
<linearGradient id="paint50_linear_466_132511" x1="22.2227" y1="9.65838" x2="21.9405" y2="22.7015" gradientUnits="userSpaceOnUse">
<stop stop-color="#F4FAFF"/>
<stop offset="1" stop-color="white" stop-opacity="0"/>
</linearGradient>
<linearGradient id="paint51_linear_466_132511" x1="22.2227" y1="9.65838" x2="21.9405" y2="22.7015" gradientUnits="userSpaceOnUse">
<stop stop-color="#F4FAFF"/>
<stop offset="1" stop-color="white" stop-opacity="0"/>
</linearGradient>
<linearGradient id="paint52_linear_466_132511" x1="22.2227" y1="9.65838" x2="21.9405" y2="22.7015" gradientUnits="userSpaceOnUse">
<stop stop-color="#F4FAFF"/>
<stop offset="1" stop-color="white" stop-opacity="0"/>
</linearGradient>
<linearGradient id="paint53_linear_466_132511" x1="22.2227" y1="9.65838" x2="21.9405" y2="22.7015" gradientUnits="userSpaceOnUse">
<stop stop-color="#F4FAFF"/>
<stop offset="1" stop-color="white" stop-opacity="0"/>
</linearGradient>
<linearGradient id="paint54_linear_466_132511" x1="22.2227" y1="9.65838" x2="21.9405" y2="22.7015" gradientUnits="userSpaceOnUse">
<stop stop-color="#F4FAFF"/>
<stop offset="1" stop-color="white" stop-opacity="0"/>
</linearGradient>
</defs>
</svg>
