<svg width="47" height="20" viewBox="0 0 47 20" fill="none" xmlns="http://www.w3.org/2000/svg">
<circle cx="7.5" cy="5.22505" r="2.04124" transform="rotate(165 7.5 5.22505)" fill="url(#paint0_linear_82_4091)"/>
<circle r="0.383716" transform="matrix(0.965926 -0.258819 -0.258819 -0.965926 8.08346 4.13213)" fill="white"/>
<circle r="0.216617" transform="matrix(0.965926 -0.258819 -0.258819 -0.965926 8.20163 4.86461)" fill="white"/>
<circle cx="10" cy="3.72504" r="1.63299" transform="rotate(165 10 3.72504)" fill="url(#paint1_linear_82_4091)"/>
<circle r="0.306973" transform="matrix(0.965926 -0.258819 -0.258819 -0.965926 10.4668 2.85071)" fill="white"/>
<circle r="0.173294" transform="matrix(0.965926 -0.258819 -0.258819 -0.965926 10.5613 3.4367)" fill="white"/>
<circle cx="14" cy="1.72505" r="0.816497" transform="rotate(165 14 1.72505)" fill="url(#paint2_linear_82_4091)"/>
<circle r="0.153487" transform="matrix(0.965926 -0.258819 -0.258819 -0.965926 14.2334 1.28788)" fill="white"/>
<circle r="0.086647" transform="matrix(0.965926 -0.258819 -0.258819 -0.965926 14.2806 1.58088)" fill="white"/>
<circle cx="10" cy="7.72504" r="2.44949" transform="rotate(165 10 7.72504)" fill="url(#paint3_linear_82_4091)"/>
<circle r="0.46046" transform="matrix(0.965926 -0.258819 -0.258819 -0.965926 10.7001 6.41355)" fill="white"/>
<circle r="0.259941" transform="matrix(0.965926 -0.258819 -0.258819 -0.965926 10.842 7.29252)" fill="white"/>
<circle cx="14" cy="7.72504" r="2.44949" transform="rotate(165 14 7.72504)" fill="url(#paint4_linear_82_4091)"/>
<circle r="0.46046" transform="matrix(0.965926 -0.258819 -0.258819 -0.965926 14.7001 6.41355)" fill="white"/>
<circle r="0.259941" transform="matrix(0.965926 -0.258819 -0.258819 -0.965926 14.842 7.29252)" fill="white"/>
<circle cx="12.5" cy="5.22504" r="1.22474" transform="rotate(165 12.5 5.22504)" fill="url(#paint5_linear_82_4091)"/>
<circle r="0.23023" transform="matrix(0.965926 -0.258819 -0.258819 -0.965926 12.8501 4.5693)" fill="white"/>
<circle r="0.12997" transform="matrix(0.965926 -0.258819 -0.258819 -0.965926 12.921 5.00878)" fill="white"/>
<circle cx="4.5" cy="9.22504" r="2.04124" transform="rotate(165 4.5 9.22504)" fill="url(#paint6_linear_82_4091)"/>
<circle r="0.383716" transform="matrix(0.965926 -0.258819 -0.258819 -0.965926 5.08346 8.13213)" fill="white"/>
<circle r="0.216617" transform="matrix(0.965926 -0.258819 -0.258819 -0.965926 5.20163 8.8646)" fill="white"/>
<circle cx="7" cy="7.72504" r="1.63299" transform="rotate(165 7 7.72504)" fill="url(#paint7_linear_82_4091)"/>
<circle r="0.306973" transform="matrix(0.965926 -0.258819 -0.258819 -0.965926 7.46682 6.85071)" fill="white"/>
<circle r="0.173294" transform="matrix(0.965926 -0.258819 -0.258819 -0.965926 7.56126 7.4367)" fill="white"/>
<circle cx="7" cy="11.725" r="2.44949" transform="rotate(165 7 11.725)" fill="url(#paint8_linear_82_4091)"/>
<circle r="0.46046" transform="matrix(0.965926 -0.258819 -0.258819 -0.965926 7.70011 10.4135)" fill="white"/>
<circle r="0.259941" transform="matrix(0.965926 -0.258819 -0.258819 -0.965926 7.84201 11.2925)" fill="white"/>
<circle cx="11" cy="11.725" r="2.44949" transform="rotate(165 11 11.725)" fill="url(#paint9_linear_82_4091)"/>
<circle r="0.46046" transform="matrix(0.965926 -0.258819 -0.258819 -0.965926 11.7001 10.4135)" fill="white"/>
<circle r="0.259941" transform="matrix(0.965926 -0.258819 -0.258819 -0.965926 11.842 11.2925)" fill="white"/>
<circle cx="9.5" cy="9.22504" r="1.22474" transform="rotate(165 9.5 9.22504)" fill="url(#paint10_linear_82_4091)"/>
<circle r="0.23023" transform="matrix(0.965926 -0.258819 -0.258819 -0.965926 9.85005 8.5693)" fill="white"/>
<circle r="0.12997" transform="matrix(0.965926 -0.258819 -0.258819 -0.965926 9.921 9.00878)" fill="white"/>
<circle cx="18.5" cy="7.22505" r="2.04124" transform="rotate(165 18.5 7.22505)" fill="url(#paint11_linear_82_4091)"/>
<circle r="0.383716" transform="matrix(0.965926 -0.258819 -0.258819 -0.965926 19.0835 6.13213)" fill="white"/>
<circle r="0.216617" transform="matrix(0.965926 -0.258819 -0.258819 -0.965926 19.2016 6.86461)" fill="white"/>
<circle cx="21" cy="5.72505" r="1.63299" transform="rotate(165 21 5.72505)" fill="url(#paint12_linear_82_4091)"/>
<circle r="0.306973" transform="matrix(0.965926 -0.258819 -0.258819 -0.965926 21.4668 4.85072)" fill="white"/>
<circle r="0.173294" transform="matrix(0.965926 -0.258819 -0.258819 -0.965926 21.5613 5.4367)" fill="white"/>
<circle cx="20.5" cy="1.22505" r="1.22474" transform="rotate(165 20.5 1.22505)" fill="url(#paint13_linear_82_4091)"/>
<circle r="0.23023" transform="matrix(0.965926 -0.258819 -0.258819 -0.965926 20.8501 0.569292)" fill="white"/>
<circle r="0.12997" transform="matrix(0.965926 -0.258819 -0.258819 -0.965926 20.921 1.00879)" fill="white"/>
<circle cx="21" cy="9.72504" r="2.44949" transform="rotate(165 21 9.72504)" fill="url(#paint14_linear_82_4091)"/>
<circle r="0.46046" transform="matrix(0.965926 -0.258819 -0.258819 -0.965926 21.7001 8.41355)" fill="white"/>
<circle r="0.259941" transform="matrix(0.965926 -0.258819 -0.258819 -0.965926 21.842 9.29252)" fill="white"/>
<circle cx="25" cy="9.72504" r="2.44949" transform="rotate(165 25 9.72504)" fill="url(#paint15_linear_82_4091)"/>
<circle r="0.46046" transform="matrix(0.965926 -0.258819 -0.258819 -0.965926 25.7001 8.41355)" fill="white"/>
<circle r="0.259941" transform="matrix(0.965926 -0.258819 -0.258819 -0.965926 25.842 9.29252)" fill="white"/>
<circle cx="23.5" cy="7.22504" r="1.22474" transform="rotate(165 23.5 7.22504)" fill="url(#paint16_linear_82_4091)"/>
<circle r="0.23023" transform="matrix(0.965926 -0.258819 -0.258819 -0.965926 23.8501 6.5693)" fill="white"/>
<circle r="0.12997" transform="matrix(0.965926 -0.258819 -0.258819 -0.965926 23.921 7.00878)" fill="white"/>
<circle cx="15.5" cy="11.225" r="2.04124" transform="rotate(165 15.5 11.225)" fill="url(#paint17_linear_82_4091)"/>
<circle r="0.383716" transform="matrix(0.965926 -0.258819 -0.258819 -0.965926 16.0835 10.1321)" fill="white"/>
<circle r="0.216617" transform="matrix(0.965926 -0.258819 -0.258819 -0.965926 16.2016 10.8646)" fill="white"/>
<circle cx="18" cy="9.72505" r="1.63299" transform="rotate(165 18 9.72505)" fill="url(#paint18_linear_82_4091)"/>
<circle r="0.306973" transform="matrix(0.965926 -0.258819 -0.258819 -0.965926 18.4668 8.85072)" fill="white"/>
<circle r="0.173294" transform="matrix(0.965926 -0.258819 -0.258819 -0.965926 18.5613 9.4367)" fill="white"/>
<circle cx="18" cy="13.725" r="2.44949" transform="rotate(165 18 13.725)" fill="url(#paint19_linear_82_4091)"/>
<circle r="0.46046" transform="matrix(0.965926 -0.258819 -0.258819 -0.965926 18.7001 12.4136)" fill="white"/>
<circle r="0.259941" transform="matrix(0.965926 -0.258819 -0.258819 -0.965926 18.842 13.2925)" fill="white"/>
<circle cx="22" cy="13.725" r="2.44949" transform="rotate(165 22 13.725)" fill="url(#paint20_linear_82_4091)"/>
<circle r="0.46046" transform="matrix(0.965926 -0.258819 -0.258819 -0.965926 22.7001 12.4136)" fill="white"/>
<circle r="0.259941" transform="matrix(0.965926 -0.258819 -0.258819 -0.965926 22.842 13.2925)" fill="white"/>
<circle cx="20.5" cy="11.225" r="1.22474" transform="rotate(165 20.5 11.225)" fill="url(#paint21_linear_82_4091)"/>
<circle r="0.23023" transform="matrix(0.965926 -0.258819 -0.258819 -0.965926 20.8501 10.5693)" fill="white"/>
<circle r="0.12997" transform="matrix(0.965926 -0.258819 -0.258819 -0.965926 20.921 11.0088)" fill="white"/>
<g filter="url(#filter0_f_82_4091)">
<path d="M10.8975 12.0303C10.8975 13.6478 8.6819 14.959 5.94877 14.959C3.21564 14.959 1 13.6478 1 12.0303C1 10.4129 3.21564 9.10168 5.94877 9.10168C8.6819 9.10168 10.8975 10.4129 10.8975 12.0303Z" fill="url(#paint22_linear_82_4091)" fill-opacity="0.5"/>
<path d="M14.1967 13.9828C14.1967 15.6003 11.9811 16.9115 9.24795 16.9115C6.51482 16.9115 4.29918 15.6003 4.29918 13.9828C4.29918 12.3653 6.51482 11.0541 9.24795 11.0541C11.9811 11.0541 14.1967 12.3653 14.1967 13.9828Z" fill="url(#paint23_linear_82_4091)" fill-opacity="0.5"/>
<path d="M16.3962 10.7287C16.3962 12.3462 14.1805 13.6574 11.4474 13.6574C8.71428 13.6574 6.49864 12.3462 6.49864 10.7287C6.49864 9.11125 8.71428 7.80005 11.4474 7.80005C14.1805 7.80005 16.3962 9.11125 16.3962 10.7287Z" fill="url(#paint24_linear_82_4091)" fill-opacity="0.5"/>
<path d="M21.8948 12.6812C21.8948 14.2986 19.6792 15.6098 16.946 15.6098C14.2129 15.6098 11.9973 14.2986 11.9973 12.6812C11.9973 11.0637 14.2129 9.75249 16.946 9.75249C19.6792 9.75249 21.8948 11.0637 21.8948 12.6812Z" fill="url(#paint25_linear_82_4091)" fill-opacity="0.5"/>
<path d="M19.6954 9.10168C19.6954 10.18 18.2183 11.0541 16.3962 11.0541C14.5741 11.0541 13.097 10.18 13.097 9.10168C13.097 8.02337 14.5741 7.14923 16.3962 7.14923C18.2183 7.14923 19.6954 8.02337 19.6954 9.10168Z" fill="url(#paint26_linear_82_4091)" fill-opacity="0.5"/>
<path d="M27.3935 11.0541C27.3935 12.1324 25.9164 13.0066 24.0943 13.0066C22.2722 13.0066 20.7951 12.1324 20.7951 11.0541C20.7951 9.97582 22.2722 9.10168 24.0943 9.10168C25.9164 9.10168 27.3935 9.97582 27.3935 11.0541Z" fill="url(#paint27_linear_82_4091)" fill-opacity="0.5"/>
<path d="M17.4959 16.2606C17.4959 17.339 16.0188 18.2131 14.1967 18.2131C12.3746 18.2131 10.8975 17.339 10.8975 16.2606C10.8975 15.1823 12.3746 14.3082 14.1967 14.3082C16.0188 14.3082 17.4959 15.1823 17.4959 16.2606Z" fill="url(#paint28_linear_82_4091)" fill-opacity="0.5"/>
<path d="M22.9945 10.4033C22.9945 11.4816 21.5174 12.3558 19.6954 12.3558C17.8733 12.3558 16.3962 11.4816 16.3962 10.4033C16.3962 9.325 17.8733 8.45086 19.6954 8.45086C21.5174 8.45086 22.9945 9.325 22.9945 10.4033Z" fill="url(#paint29_linear_82_4091)" fill-opacity="0.5"/>
<path d="M36.2699 12.3834C35.5625 10.821 37.1292 9.21511 39.7692 8.79649C42.4092 8.37786 45.1228 9.30502 45.8301 10.8674C46.5375 12.4297 44.9708 14.0356 42.3308 14.4542C39.6908 14.8729 36.9772 13.9457 36.2699 12.3834Z" fill="url(#paint30_linear_82_4091)" fill-opacity="0.5"/>
<path d="M32.2292 11.0028C31.5218 9.44042 33.0885 7.83453 35.7285 7.4159C38.3685 6.99727 41.0821 7.92443 41.7895 9.48678C42.4969 11.0491 40.9302 12.655 38.2902 13.0737C35.6502 13.4923 32.9366 12.5651 32.2292 11.0028Z" fill="url(#paint31_linear_82_4091)" fill-opacity="0.5"/>
<path d="M31.5278 14.4829C30.8205 12.9205 32.3871 11.3146 35.0271 10.896C37.6672 10.4774 40.3807 11.4045 41.0881 12.9669C41.7955 14.5292 40.2288 16.1351 37.5888 16.5537C34.9488 16.9724 32.2352 16.0452 31.5278 14.4829Z" fill="url(#paint32_linear_82_4091)" fill-opacity="0.5"/>
<path d="M25.3627 13.4392C24.6553 11.8768 26.222 10.2709 28.862 9.85228C31.502 9.43365 34.2156 10.3608 34.923 11.9232C35.6304 13.4855 34.0637 15.0914 31.4237 15.51C28.7837 15.9287 26.0701 15.0015 25.3627 13.4392Z" fill="url(#paint33_linear_82_4091)" fill-opacity="0.5"/>
<path d="M29.0526 16.5598C28.5811 15.5182 29.6255 14.4476 31.3855 14.1685C33.1455 13.8894 34.9546 14.5076 35.4262 15.5491C35.8978 16.5907 34.8533 17.6613 33.0933 17.9404C31.3333 18.2195 29.5242 17.6013 29.0526 16.5598Z" fill="url(#paint34_linear_82_4091)" fill-opacity="0.5"/>
<path d="M20.763 15.853C20.2914 14.8114 21.3358 13.7408 23.0958 13.4617C24.8559 13.1826 26.6649 13.8007 27.1365 14.8423C27.6081 15.8839 26.5636 16.9545 24.8036 17.2336C23.0436 17.5126 21.2346 16.8945 20.763 15.853Z" fill="url(#paint35_linear_82_4091)" fill-opacity="0.5"/>
<path d="M28.0462 9.30786C27.5746 8.2663 28.6191 7.1957 30.3791 6.91661C32.1391 6.63753 33.9482 7.25564 34.4198 8.2972C34.8913 9.33877 33.8469 10.4094 32.0869 10.6885C30.3269 10.9675 28.5178 10.3494 28.0462 9.30786Z" fill="url(#paint36_linear_82_4091)" fill-opacity="0.5"/>
<path d="M25.2966 15.8078C24.825 14.7663 25.8695 13.6957 27.6295 13.4166C29.3895 13.1375 31.1986 13.7556 31.6702 14.7972C32.1417 15.8387 31.0973 16.9093 29.3373 17.1884C27.5773 17.4675 25.7682 16.8494 25.2966 15.8078Z" fill="url(#paint37_linear_82_4091)" fill-opacity="0.5"/>
<path d="M16.3962 12.0303C16.3962 13.6478 14.1805 14.959 11.4474 14.959C8.71428 14.959 6.49864 13.6478 6.49864 12.0303C6.49864 10.4129 8.71428 9.10168 11.4474 9.10168C14.1805 9.10168 16.3962 10.4129 16.3962 12.0303Z" fill="url(#paint38_linear_82_4091)" fill-opacity="0.5"/>
<path d="M19.6954 13.9828C19.6954 15.6003 17.4797 16.9115 14.7466 16.9115C12.0135 16.9115 9.79782 15.6003 9.79782 13.9828C9.79782 12.3653 12.0135 11.0541 14.7466 11.0541C17.4797 11.0541 19.6954 12.3653 19.6954 13.9828Z" fill="url(#paint39_linear_82_4091)" fill-opacity="0.5"/>
<path d="M21.8948 10.7287C21.8948 12.3462 19.6792 13.6574 16.946 13.6574C14.2129 13.6574 11.9973 12.3462 11.9973 10.7287C11.9973 9.11125 14.2129 7.80005 16.946 7.80005C19.6792 7.80005 21.8948 9.11125 21.8948 10.7287Z" fill="url(#paint40_linear_82_4091)" fill-opacity="0.5"/>
<path d="M27.3935 12.6812C27.3935 14.2986 25.1778 15.6098 22.4447 15.6098C19.7115 15.6098 17.4959 14.2986 17.4959 12.6812C17.4959 11.0637 19.7115 9.75249 22.4447 9.75249C25.1778 9.75249 27.3935 11.0637 27.3935 12.6812Z" fill="url(#paint41_linear_82_4091)" fill-opacity="0.5"/>
<path d="M25.194 9.10168C25.194 10.18 23.7169 11.0541 21.8948 11.0541C20.0727 11.0541 18.5956 10.18 18.5956 9.10168C18.5956 8.02337 20.0727 7.14923 21.8948 7.14923C23.7169 7.14923 25.194 8.02337 25.194 9.10168Z" fill="url(#paint42_linear_82_4091)" fill-opacity="0.5"/>
<path d="M32.8921 11.0541C32.8921 12.1324 31.415 13.0066 29.5929 13.0066C27.7708 13.0066 26.2937 12.1324 26.2937 11.0541C26.2937 9.97582 27.7708 9.10168 29.5929 9.10168C31.415 9.10168 32.8921 9.97582 32.8921 11.0541Z" fill="url(#paint43_linear_82_4091)" fill-opacity="0.5"/>
<path d="M22.9945 16.2606C22.9945 17.339 21.5174 18.2131 19.6954 18.2131C17.8733 18.2131 16.3962 17.339 16.3962 16.2606C16.3962 15.1823 17.8733 14.3082 19.6954 14.3082C21.5174 14.3082 22.9945 15.1823 22.9945 16.2606Z" fill="url(#paint44_linear_82_4091)" fill-opacity="0.5"/>
<path d="M28.4932 10.4033C28.4932 11.4816 27.0161 12.3558 25.194 12.3558C23.3719 12.3558 21.8948 11.4816 21.8948 10.4033C21.8948 9.325 23.3719 8.45086 25.194 8.45086C27.0161 8.45086 28.4932 9.325 28.4932 10.4033Z" fill="url(#paint45_linear_82_4091)" fill-opacity="0.5"/>
<path d="M30.9585 13.2256C30.2511 11.6632 31.8178 10.0573 34.4578 9.6387C37.0978 9.22007 39.8114 10.1472 40.5188 11.7096C41.2262 13.2719 39.6595 14.8778 37.0195 15.2965C34.3795 15.7151 31.6659 14.7879 30.9585 13.2256Z" fill="url(#paint46_linear_82_4091)" fill-opacity="0.5"/>
<path d="M26.9178 11.845C26.2104 10.2826 27.7771 8.67675 30.4171 8.25812C33.0571 7.83949 35.7707 8.76665 36.4781 10.329C37.1855 11.8913 35.6188 13.4972 32.9788 13.9159C30.3388 14.3345 27.6252 13.4073 26.9178 11.845Z" fill="url(#paint47_linear_82_4091)" fill-opacity="0.5"/>
<path d="M26.2165 15.3251C25.5091 13.7627 27.0758 12.1568 29.7158 11.7382C32.3558 11.3196 35.0694 12.2467 35.7768 13.8091C36.4842 15.3714 34.9175 16.9773 32.2775 17.396C29.6375 17.8146 26.9239 16.8874 26.2165 15.3251Z" fill="url(#paint48_linear_82_4091)" fill-opacity="0.5"/>
<path d="M20.0513 14.2814C19.3439 12.719 20.9106 11.1131 23.5506 10.6945C26.1906 10.2759 28.9042 11.203 29.6116 12.7654C30.319 14.3277 28.7523 15.9336 26.1123 16.3523C23.4723 16.7709 20.7587 15.8437 20.0513 14.2814Z" fill="url(#paint49_linear_82_4091)" fill-opacity="0.5"/>
<path d="M23.7413 17.402C23.2697 16.3604 24.3142 15.2898 26.0742 15.0108C27.8342 14.7317 29.6432 15.3498 30.1148 16.3913C30.5864 17.4329 29.5419 18.5035 27.7819 18.7826C26.0219 19.0617 24.2129 18.4436 23.7413 17.402Z" fill="url(#paint50_linear_82_4091)" fill-opacity="0.5"/>
<path d="M15.4516 16.6952C14.98 15.6536 16.0245 14.583 17.7845 14.3039C19.5445 14.0249 21.3535 14.643 21.8251 15.6845C22.2967 16.7261 21.2523 17.7967 19.4923 18.0758C17.7323 18.3549 15.9232 17.7368 15.4516 16.6952Z" fill="url(#paint51_linear_82_4091)" fill-opacity="0.5"/>
<path d="M22.7349 10.1501C22.2633 9.10852 23.3077 8.03792 25.0677 7.75883C26.8277 7.47975 28.6368 8.09786 29.1084 9.13942C29.58 10.181 28.5355 11.2516 26.7755 11.5307C25.0155 11.8098 23.2065 11.1916 22.7349 10.1501Z" fill="url(#paint52_linear_82_4091)" fill-opacity="0.5"/>
<path d="M19.9853 16.6501C19.5137 15.6085 20.5581 14.5379 22.3181 14.2588C24.0781 13.9797 25.8872 14.5978 26.3588 15.6394C26.8304 16.681 25.7859 17.7516 24.0259 18.0306C22.2659 18.3097 20.4569 17.6916 19.9853 16.6501Z" fill="url(#paint53_linear_82_4091)" fill-opacity="0.5"/>
</g>
<defs>
<filter id="filter0_f_82_4091" x="0" y="5.8496" width="47" height="14" filterUnits="userSpaceOnUse" color-interpolation-filters="sRGB">
<feFlood flood-opacity="0" result="BackgroundImageFix"/>
<feBlend mode="normal" in="SourceGraphic" in2="BackgroundImageFix" result="shape"/>
<feGaussianBlur stdDeviation="0.5" result="effect1_foregroundBlur_82_4091"/>
</filter>
<linearGradient id="paint0_linear_82_4091" x1="7.23449" y1="5.40392" x2="7.5" y2="7.26629" gradientUnits="userSpaceOnUse">
<stop stop-color="#D9D9D9" stop-opacity="0.23"/>
<stop offset="1" stop-color="white"/>
</linearGradient>
<linearGradient id="paint1_linear_82_4091" x1="9.78759" y1="3.86814" x2="10" y2="5.35804" gradientUnits="userSpaceOnUse">
<stop stop-color="#D9D9D9" stop-opacity="0.23"/>
<stop offset="1" stop-color="white"/>
</linearGradient>
<linearGradient id="paint2_linear_82_4091" x1="13.8938" y1="1.7966" x2="14" y2="2.54154" gradientUnits="userSpaceOnUse">
<stop stop-color="#D9D9D9" stop-opacity="0.23"/>
<stop offset="1" stop-color="white"/>
</linearGradient>
<linearGradient id="paint3_linear_82_4091" x1="9.68139" y1="7.93968" x2="10" y2="10.1745" gradientUnits="userSpaceOnUse">
<stop stop-color="#D9D9D9" stop-opacity="0.23"/>
<stop offset="1" stop-color="white"/>
</linearGradient>
<linearGradient id="paint4_linear_82_4091" x1="13.6814" y1="7.93968" x2="14" y2="10.1745" gradientUnits="userSpaceOnUse">
<stop stop-color="#D9D9D9" stop-opacity="0.23"/>
<stop offset="1" stop-color="white"/>
</linearGradient>
<linearGradient id="paint5_linear_82_4091" x1="12.3407" y1="5.33236" x2="12.5" y2="6.44979" gradientUnits="userSpaceOnUse">
<stop stop-color="#D9D9D9" stop-opacity="0.23"/>
<stop offset="1" stop-color="white"/>
</linearGradient>
<linearGradient id="paint6_linear_82_4091" x1="4.23449" y1="9.40391" x2="4.5" y2="11.2663" gradientUnits="userSpaceOnUse">
<stop stop-color="#D9D9D9" stop-opacity="0.23"/>
<stop offset="1" stop-color="white"/>
</linearGradient>
<linearGradient id="paint7_linear_82_4091" x1="6.78759" y1="7.86814" x2="7" y2="9.35803" gradientUnits="userSpaceOnUse">
<stop stop-color="#D9D9D9" stop-opacity="0.23"/>
<stop offset="1" stop-color="white"/>
</linearGradient>
<linearGradient id="paint8_linear_82_4091" x1="6.68139" y1="11.9397" x2="7" y2="14.1745" gradientUnits="userSpaceOnUse">
<stop stop-color="#D9D9D9" stop-opacity="0.23"/>
<stop offset="1" stop-color="white"/>
</linearGradient>
<linearGradient id="paint9_linear_82_4091" x1="10.6814" y1="11.9397" x2="11" y2="14.1745" gradientUnits="userSpaceOnUse">
<stop stop-color="#D9D9D9" stop-opacity="0.23"/>
<stop offset="1" stop-color="white"/>
</linearGradient>
<linearGradient id="paint10_linear_82_4091" x1="9.34069" y1="9.33236" x2="9.5" y2="10.4498" gradientUnits="userSpaceOnUse">
<stop stop-color="#D9D9D9" stop-opacity="0.23"/>
<stop offset="1" stop-color="white"/>
</linearGradient>
<linearGradient id="paint11_linear_82_4091" x1="18.2345" y1="7.40392" x2="18.5" y2="9.26629" gradientUnits="userSpaceOnUse">
<stop stop-color="#D9D9D9" stop-opacity="0.23"/>
<stop offset="1" stop-color="white"/>
</linearGradient>
<linearGradient id="paint12_linear_82_4091" x1="20.7876" y1="5.86814" x2="21" y2="7.35804" gradientUnits="userSpaceOnUse">
<stop stop-color="#D9D9D9" stop-opacity="0.23"/>
<stop offset="1" stop-color="white"/>
</linearGradient>
<linearGradient id="paint13_linear_82_4091" x1="20.3407" y1="1.33237" x2="20.5" y2="2.44979" gradientUnits="userSpaceOnUse">
<stop stop-color="#D9D9D9" stop-opacity="0.23"/>
<stop offset="1" stop-color="white"/>
</linearGradient>
<linearGradient id="paint14_linear_82_4091" x1="20.6814" y1="9.93969" x2="21" y2="12.1745" gradientUnits="userSpaceOnUse">
<stop stop-color="#D9D9D9" stop-opacity="0.23"/>
<stop offset="1" stop-color="white"/>
</linearGradient>
<linearGradient id="paint15_linear_82_4091" x1="24.6814" y1="9.93969" x2="25" y2="12.1745" gradientUnits="userSpaceOnUse">
<stop stop-color="#D9D9D9" stop-opacity="0.23"/>
<stop offset="1" stop-color="white"/>
</linearGradient>
<linearGradient id="paint16_linear_82_4091" x1="23.3407" y1="7.33236" x2="23.5" y2="8.44979" gradientUnits="userSpaceOnUse">
<stop stop-color="#D9D9D9" stop-opacity="0.23"/>
<stop offset="1" stop-color="white"/>
</linearGradient>
<linearGradient id="paint17_linear_82_4091" x1="15.2345" y1="11.4039" x2="15.5" y2="13.2663" gradientUnits="userSpaceOnUse">
<stop stop-color="#D9D9D9" stop-opacity="0.23"/>
<stop offset="1" stop-color="white"/>
</linearGradient>
<linearGradient id="paint18_linear_82_4091" x1="17.7876" y1="9.86814" x2="18" y2="11.358" gradientUnits="userSpaceOnUse">
<stop stop-color="#D9D9D9" stop-opacity="0.23"/>
<stop offset="1" stop-color="white"/>
</linearGradient>
<linearGradient id="paint19_linear_82_4091" x1="17.6814" y1="13.9397" x2="18" y2="16.1745" gradientUnits="userSpaceOnUse">
<stop stop-color="#D9D9D9" stop-opacity="0.23"/>
<stop offset="1" stop-color="white"/>
</linearGradient>
<linearGradient id="paint20_linear_82_4091" x1="21.6814" y1="13.9397" x2="22" y2="16.1745" gradientUnits="userSpaceOnUse">
<stop stop-color="#D9D9D9" stop-opacity="0.23"/>
<stop offset="1" stop-color="white"/>
</linearGradient>
<linearGradient id="paint21_linear_82_4091" x1="20.3407" y1="11.3324" x2="20.5" y2="12.4498" gradientUnits="userSpaceOnUse">
<stop stop-color="#D9D9D9" stop-opacity="0.23"/>
<stop offset="1" stop-color="white"/>
</linearGradient>
<linearGradient id="paint22_linear_82_4091" x1="23.5" y1="6.8496" x2="23.5" y2="18.8496" gradientUnits="userSpaceOnUse">
<stop stop-color="#F4FAFF"/>
<stop offset="1" stop-color="white" stop-opacity="0"/>
</linearGradient>
<linearGradient id="paint23_linear_82_4091" x1="23.5" y1="6.8496" x2="23.5" y2="18.8496" gradientUnits="userSpaceOnUse">
<stop stop-color="#F4FAFF"/>
<stop offset="1" stop-color="white" stop-opacity="0"/>
</linearGradient>
<linearGradient id="paint24_linear_82_4091" x1="23.5" y1="6.8496" x2="23.5" y2="18.8496" gradientUnits="userSpaceOnUse">
<stop stop-color="#F4FAFF"/>
<stop offset="1" stop-color="white" stop-opacity="0"/>
</linearGradient>
<linearGradient id="paint25_linear_82_4091" x1="23.5" y1="6.8496" x2="23.5" y2="18.8496" gradientUnits="userSpaceOnUse">
<stop stop-color="#F4FAFF"/>
<stop offset="1" stop-color="white" stop-opacity="0"/>
</linearGradient>
<linearGradient id="paint26_linear_82_4091" x1="23.5" y1="6.8496" x2="23.5" y2="18.8496" gradientUnits="userSpaceOnUse">
<stop stop-color="#F4FAFF"/>
<stop offset="1" stop-color="white" stop-opacity="0"/>
</linearGradient>
<linearGradient id="paint27_linear_82_4091" x1="23.5" y1="6.8496" x2="23.5" y2="18.8496" gradientUnits="userSpaceOnUse">
<stop stop-color="#F4FAFF"/>
<stop offset="1" stop-color="white" stop-opacity="0"/>
</linearGradient>
<linearGradient id="paint28_linear_82_4091" x1="23.5" y1="6.8496" x2="23.5" y2="18.8496" gradientUnits="userSpaceOnUse">
<stop stop-color="#F4FAFF"/>
<stop offset="1" stop-color="white" stop-opacity="0"/>
</linearGradient>
<linearGradient id="paint29_linear_82_4091" x1="23.5" y1="6.8496" x2="23.5" y2="18.8496" gradientUnits="userSpaceOnUse">
<stop stop-color="#F4FAFF"/>
<stop offset="1" stop-color="white" stop-opacity="0"/>
</linearGradient>
<linearGradient id="paint30_linear_82_4091" x1="23.5" y1="6.8496" x2="23.5" y2="18.8496" gradientUnits="userSpaceOnUse">
<stop stop-color="#F4FAFF"/>
<stop offset="1" stop-color="white" stop-opacity="0"/>
</linearGradient>
<linearGradient id="paint31_linear_82_4091" x1="23.5" y1="6.8496" x2="23.5" y2="18.8496" gradientUnits="userSpaceOnUse">
<stop stop-color="#F4FAFF"/>
<stop offset="1" stop-color="white" stop-opacity="0"/>
</linearGradient>
<linearGradient id="paint32_linear_82_4091" x1="23.5" y1="6.8496" x2="23.5" y2="18.8496" gradientUnits="userSpaceOnUse">
<stop stop-color="#F4FAFF"/>
<stop offset="1" stop-color="white" stop-opacity="0"/>
</linearGradient>
<linearGradient id="paint33_linear_82_4091" x1="23.5" y1="6.8496" x2="23.5" y2="18.8496" gradientUnits="userSpaceOnUse">
<stop stop-color="#F4FAFF"/>
<stop offset="1" stop-color="white" stop-opacity="0"/>
</linearGradient>
<linearGradient id="paint34_linear_82_4091" x1="23.5" y1="6.8496" x2="23.5" y2="18.8496" gradientUnits="userSpaceOnUse">
<stop stop-color="#F4FAFF"/>
<stop offset="1" stop-color="white" stop-opacity="0"/>
</linearGradient>
<linearGradient id="paint35_linear_82_4091" x1="23.5" y1="6.8496" x2="23.5" y2="18.8496" gradientUnits="userSpaceOnUse">
<stop stop-color="#F4FAFF"/>
<stop offset="1" stop-color="white" stop-opacity="0"/>
</linearGradient>
<linearGradient id="paint36_linear_82_4091" x1="23.5" y1="6.8496" x2="23.5" y2="18.8496" gradientUnits="userSpaceOnUse">
<stop stop-color="#F4FAFF"/>
<stop offset="1" stop-color="white" stop-opacity="0"/>
</linearGradient>
<linearGradient id="paint37_linear_82_4091" x1="23.5" y1="6.8496" x2="23.5" y2="18.8496" gradientUnits="userSpaceOnUse">
<stop stop-color="#F4FAFF"/>
<stop offset="1" stop-color="white" stop-opacity="0"/>
</linearGradient>
<linearGradient id="paint38_linear_82_4091" x1="23.5" y1="6.8496" x2="23.5" y2="18.8496" gradientUnits="userSpaceOnUse">
<stop stop-color="#F4FAFF"/>
<stop offset="1" stop-color="white" stop-opacity="0"/>
</linearGradient>
<linearGradient id="paint39_linear_82_4091" x1="23.5" y1="6.8496" x2="23.5" y2="18.8496" gradientUnits="userSpaceOnUse">
<stop stop-color="#F4FAFF"/>
<stop offset="1" stop-color="white" stop-opacity="0"/>
</linearGradient>
<linearGradient id="paint40_linear_82_4091" x1="23.5" y1="6.8496" x2="23.5" y2="18.8496" gradientUnits="userSpaceOnUse">
<stop stop-color="#F4FAFF"/>
<stop offset="1" stop-color="white" stop-opacity="0"/>
</linearGradient>
<linearGradient id="paint41_linear_82_4091" x1="23.5" y1="6.8496" x2="23.5" y2="18.8496" gradientUnits="userSpaceOnUse">
<stop stop-color="#F4FAFF"/>
<stop offset="1" stop-color="white" stop-opacity="0"/>
</linearGradient>
<linearGradient id="paint42_linear_82_4091" x1="23.5" y1="6.8496" x2="23.5" y2="18.8496" gradientUnits="userSpaceOnUse">
<stop stop-color="#F4FAFF"/>
<stop offset="1" stop-color="white" stop-opacity="0"/>
</linearGradient>
<linearGradient id="paint43_linear_82_4091" x1="23.5" y1="6.8496" x2="23.5" y2="18.8496" gradientUnits="userSpaceOnUse">
<stop stop-color="#F4FAFF"/>
<stop offset="1" stop-color="white" stop-opacity="0"/>
</linearGradient>
<linearGradient id="paint44_linear_82_4091" x1="23.5" y1="6.8496" x2="23.5" y2="18.8496" gradientUnits="userSpaceOnUse">
<stop stop-color="#F4FAFF"/>
<stop offset="1" stop-color="white" stop-opacity="0"/>
</linearGradient>
<linearGradient id="paint45_linear_82_4091" x1="23.5" y1="6.8496" x2="23.5" y2="18.8496" gradientUnits="userSpaceOnUse">
<stop stop-color="#F4FAFF"/>
<stop offset="1" stop-color="white" stop-opacity="0"/>
</linearGradient>
<linearGradient id="paint46_linear_82_4091" x1="23.5" y1="6.8496" x2="23.5" y2="18.8496" gradientUnits="userSpaceOnUse">
<stop stop-color="#F4FAFF"/>
<stop offset="1" stop-color="white" stop-opacity="0"/>
</linearGradient>
<linearGradient id="paint47_linear_82_4091" x1="23.5" y1="6.8496" x2="23.5" y2="18.8496" gradientUnits="userSpaceOnUse">
<stop stop-color="#F4FAFF"/>
<stop offset="1" stop-color="white" stop-opacity="0"/>
</linearGradient>
<linearGradient id="paint48_linear_82_4091" x1="23.5" y1="6.8496" x2="23.5" y2="18.8496" gradientUnits="userSpaceOnUse">
<stop stop-color="#F4FAFF"/>
<stop offset="1" stop-color="white" stop-opacity="0"/>
</linearGradient>
<linearGradient id="paint49_linear_82_4091" x1="23.5" y1="6.8496" x2="23.5" y2="18.8496" gradientUnits="userSpaceOnUse">
<stop stop-color="#F4FAFF"/>
<stop offset="1" stop-color="white" stop-opacity="0"/>
</linearGradient>
<linearGradient id="paint50_linear_82_4091" x1="23.5" y1="6.8496" x2="23.5" y2="18.8496" gradientUnits="userSpaceOnUse">
<stop stop-color="#F4FAFF"/>
<stop offset="1" stop-color="white" stop-opacity="0"/>
</linearGradient>
<linearGradient id="paint51_linear_82_4091" x1="23.5" y1="6.8496" x2="23.5" y2="18.8496" gradientUnits="userSpaceOnUse">
<stop stop-color="#F4FAFF"/>
<stop offset="1" stop-color="white" stop-opacity="0"/>
</linearGradient>
<linearGradient id="paint52_linear_82_4091" x1="23.5" y1="6.8496" x2="23.5" y2="18.8496" gradientUnits="userSpaceOnUse">
<stop stop-color="#F4FAFF"/>
<stop offset="1" stop-color="white" stop-opacity="0"/>
</linearGradient>
<linearGradient id="paint53_linear_82_4091" x1="23.5" y1="6.8496" x2="23.5" y2="18.8496" gradientUnits="userSpaceOnUse">
<stop stop-color="#F4FAFF"/>
<stop offset="1" stop-color="white" stop-opacity="0"/>
</linearGradient>
</defs>
</svg>
