<svg width="145" height="145" viewBox="0 0 145 145" fill="none" xmlns="http://www.w3.org/2000/svg">
<path d="M145 72.5C145 112.541 112.541 145 72.5 145C32.4594 145 0 112.541 0 72.5C0 32.4594 32.4594 0 72.5 0C112.541 0 145 32.4594 145 72.5ZM16.8546 72.5C16.8546 103.232 41.7679 128.145 72.5 128.145C103.232 128.145 128.145 103.232 128.145 72.5C128.145 41.7679 103.232 16.8546 72.5 16.8546C41.7679 16.8546 16.8546 41.7679 16.8546 72.5Z" fill="white"/>
<path d="M145 72.5C145 112.541 112.541 145 72.5 145C32.4594 145 0 112.541 0 72.5C0 32.4594 32.4594 0 72.5 0C112.541 0 145 32.4594 145 72.5ZM16.8546 72.5C16.8546 103.232 41.7679 128.145 72.5 128.145C103.232 128.145 128.145 103.232 128.145 72.5C128.145 41.7679 103.232 16.8546 72.5 16.8546C41.7679 16.8546 16.8546 41.7679 16.8546 72.5Z" fill="white"/>
<path d="M145 72.5C145 112.541 112.541 145 72.5 145C32.4594 145 0 112.541 0 72.5C0 32.4594 32.4594 0 72.5 0C112.541 0 145 32.4594 145 72.5ZM16.8546 72.5C16.8546 103.232 41.7679 128.145 72.5 128.145C103.232 128.145 128.145 103.232 128.145 72.5C128.145 41.7679 103.232 16.8546 72.5 16.8546C41.7679 16.8546 16.8546 41.7679 16.8546 72.5Z" fill="white"/>
<path d="M51.7434 36.5712C50.5402 34.3221 51.3813 31.5 53.7386 30.5256C62.2028 27.027 71.5168 26.1062 80.5023 27.8796C83.0047 28.3735 84.3822 30.9762 83.6426 33.4174C82.9031 35.8585 80.3257 37.2074 77.8118 36.7753C71.1933 35.6376 64.3866 36.3106 58.1189 38.7223C55.7384 39.6383 52.9467 38.8203 51.7434 36.5712Z" fill="white"/>
<path d="M51.7434 36.5712C50.5402 34.3221 51.3813 31.5 53.7386 30.5256C62.2028 27.027 71.5168 26.1062 80.5023 27.8796C83.0047 28.3735 84.3822 30.9762 83.6426 33.4174C82.9031 35.8585 80.3257 37.2074 77.8118 36.7753C71.1933 35.6376 64.3866 36.3106 58.1189 38.7223C55.7384 39.6383 52.9467 38.8203 51.7434 36.5712Z" fill="white"/>
<path d="M51.7434 36.5712C50.5402 34.3221 51.3813 31.5 53.7386 30.5256C62.2028 27.027 71.5168 26.1062 80.5023 27.8796C83.0047 28.3735 84.3822 30.9762 83.6426 33.4174C82.9031 35.8585 80.3257 37.2074 77.8118 36.7753C71.1933 35.6376 64.3866 36.3106 58.1189 38.7223C55.7384 39.6383 52.9467 38.8203 51.7434 36.5712Z" fill="white"/>
<circle cx="44.5" cy="42.5" r="5.5" fill="white"/>
</svg>
