<svg width="18" height="8" viewBox="0 0 18 8" fill="none" xmlns="http://www.w3.org/2000/svg">
<path d="M14.7045 2.42279L14.4574 2.85743L14.5235 2.89503L14.5978 2.91126L14.7045 2.42279ZM14.7045 2.42279L14.5978 2.91127L14.5979 2.91128L14.5982 2.91135L14.5994 2.91161L14.6043 2.91268L14.6234 2.91687L14.6966 2.93294L14.9608 2.99119C15.181 3.0399 15.4777 3.10596 15.7847 3.17542C16.4183 3.31882 17.0403 3.4648 17.1748 3.50975C17.1879 3.51414 17.2346 3.53598 17.2959 3.63492C17.3572 3.73375 17.4136 3.87998 17.4517 4.06626C17.5288 4.44334 17.5115 4.88431 17.4148 5.20393C17.4025 5.24434 17.2715 5.51238 16.6162 5.51238H15.6158H15.1573L15.1475 5.62564C15.0437 4.87995 14.4023 4.30476 13.6284 4.30476C12.8545 4.30476 12.2133 4.88003 12.1094 5.62564L12.0996 5.51238H11.6411H5.82679H5.3683L5.35846 5.62577C5.25469 4.88004 4.61342 4.30476 3.83944 4.30476C3.0655 4.30476 2.42429 4.87994 2.32039 5.6255L2.31058 5.51235H1.85209H0.634411C0.560187 5.51235 0.5 5.45219 0.5 5.37791V3.34761C0.5 3.29832 0.526872 3.25427 0.567817 3.2309L2.27946 3.00331L2.4061 2.98647L2.50914 2.91095C3.0096 2.54413 3.45967 2.13446 3.84833 1.78016L3.84838 1.78012C4.27073 1.39502 4.62705 1.07174 4.97804 0.839646C5.30344 0.624478 5.58668 0.514007 5.86544 0.502553C5.71216 0.565553 5.56936 0.645872 5.43636 0.733821C5.13981 0.929906 4.85395 1.19058 4.58584 1.43507L4.56921 1.45023C4.56919 1.45025 4.56917 1.45027 4.56915 1.45029C4.35475 1.6457 4.13498 1.84476 3.89986 2.03052L2.7704 2.92285H4.20982H7.6767H7.67673H8.0209V2.92288H8.5209H12.6674H14.4858L13.147 2.12642C13.3822 2.25567 13.5997 2.37633 13.7874 2.48095C13.9903 2.59407 14.158 2.68832 14.2749 2.75423L14.4102 2.83065L14.4455 2.85069L14.4545 2.85578L14.4567 2.85704L14.4572 2.85735L14.4574 2.85742L14.7045 2.42279ZM5.91385 0.00155864L5.9141 0.483279C5.91409 0.483284 5.91407 0.483289 5.91406 0.483294L5.91385 0.00155864Z" fill="white" stroke="#B5B5B5"/>
</svg>
