<svg width="80" height="80" viewBox="0 0 80 80" fill="none" xmlns="http://www.w3.org/2000/svg">
<path d="M80 40C80 62.0914 62.0914 80 40 80C17.9086 80 0 62.0914 0 40C0 17.9086 17.9086 0 40 0C62.0914 0 80 17.9086 80 40ZM9.29909 40C9.29909 56.9556 23.0444 70.7009 40 70.7009C56.9556 70.7009 70.7009 56.9556 70.7009 40C70.7009 23.0444 56.9556 9.29909 40 9.29909C23.0444 9.29909 9.29909 23.0444 9.29909 40Z" fill="white"/>
<path d="M80 40C80 62.0914 62.0914 80 40 80C17.9086 80 0 62.0914 0 40C0 17.9086 17.9086 0 40 0C62.0914 0 80 17.9086 80 40ZM9.29909 40C9.29909 56.9556 23.0444 70.7009 40 70.7009C56.9556 70.7009 70.7009 56.9556 70.7009 40C70.7009 23.0444 56.9556 9.29909 40 9.29909C23.0444 9.29909 9.29909 23.0444 9.29909 40Z" fill="white"/>
<path d="M80 40C80 62.0914 62.0914 80 40 80C17.9086 80 0 62.0914 0 40C0 17.9086 17.9086 0 40 0C62.0914 0 80 17.9086 80 40ZM9.29909 40C9.29909 56.9556 23.0444 70.7009 40 70.7009C56.9556 70.7009 70.7009 56.9556 70.7009 40C70.7009 23.0444 56.9556 9.29909 40 9.29909C23.0444 9.29909 9.29909 23.0444 9.29909 40Z" fill="#4945DB"/>
<path d="M28.5481 20.1772C27.8842 18.9364 28.3483 17.3794 29.6489 16.8418C34.3188 14.9115 39.4576 14.4035 44.415 15.3819C45.7957 15.6544 46.5557 17.0904 46.1476 18.4372C45.7396 19.7841 44.3176 20.5283 42.9306 20.2899C39.279 19.6622 35.5236 20.0335 32.0656 21.3641C30.7522 21.8695 29.212 21.4181 28.5481 20.1772Z" fill="white"/>
<path d="M28.5481 20.1772C27.8842 18.9364 28.3483 17.3794 29.6489 16.8418C34.3188 14.9115 39.4576 14.4035 44.415 15.3819C45.7957 15.6544 46.5557 17.0904 46.1476 18.4372C45.7396 19.7841 44.3176 20.5283 42.9306 20.2899C39.279 19.6622 35.5236 20.0335 32.0656 21.3641C30.7522 21.8695 29.212 21.4181 28.5481 20.1772Z" fill="white"/>
<path d="M28.5481 20.1772C27.8842 18.9364 28.3483 17.3794 29.6489 16.8418C34.3188 14.9115 39.4576 14.4035 44.415 15.3819C45.7957 15.6544 46.5557 17.0904 46.1476 18.4372C45.7396 19.7841 44.3176 20.5283 42.9306 20.2899C39.279 19.6622 35.5236 20.0335 32.0656 21.3641C30.7522 21.8695 29.212 21.4181 28.5481 20.1772Z" fill="#4945DB"/>
<circle cx="24.5518" cy="23.4483" r="3.03448" fill="#4945DB"/>
</svg>
