<svg width="82" height="167" viewBox="0 0 82 167" fill="none" xmlns="http://www.w3.org/2000/svg">
<path d="M68.9874 166.999L12.2874 166.744C5.46119 166.701 -0.0424173 161.16 0.000246377 154.34L0.597537 12.2758C0.640201 5.45606 6.18647 -0.0423774 13.0127 0.000246146L69.7126 0.255987C76.5388 0.298611 82.0424 5.83967 81.9998 12.6594L81.4025 154.681C81.4025 161.501 75.8135 166.999 68.9874 166.999Z" fill="#4E4A4C"/>
<path d="M69.6274 5.15778L58.6628 5.11515C57.1696 5.11515 55.975 6.35124 55.975 7.88568V9.88899C55.975 11.4234 54.7805 12.6595 53.2872 12.6595L31.8701 12.5743C30.3768 12.5743 29.2249 11.2956 29.2249 9.76112V7.75781C29.2249 6.22337 28.0303 4.94466 26.5798 4.94466H22.6974L13.0554 4.90204C8.27708 4.85941 4.39469 8.73816 4.35203 13.512L3.75474 152.166C3.75474 156.94 7.59447 160.819 12.3728 160.862L68.9874 161.117C73.7658 161.16 77.6482 157.281 77.6908 152.507L78.2881 13.853C78.2881 9.07914 74.4057 5.2004 69.6274 5.15778Z" fill="#FAFAFA"/>
<path d="M4.2667 30.1352H13.5674L21.8441 38.4041L13.2261 47.0141L4.39469 38.191L4.2667 30.1352Z" fill="#EBEBEB"/>
<path d="M23.7213 34.7811L19.0709 30.1352H29.5235L23.7213 34.7811Z" fill="#EBEBEB"/>
<path d="M27.7744 38.5746L35.9231 30.4335H64.3798C64.3798 30.4335 68.7315 49.8699 51.5807 62.3586L27.7744 38.5746Z" fill="#EBEBEB"/>
<path d="M24.3186 41.1747L15.5725 49.8699L39.7202 73.9522L48.4235 64.9586L24.3186 41.1747Z" fill="#EBEBEB"/>
<path d="M4.18137 54.8142L9.64232 49.1453L4.2667 43.8173L4.18137 54.8142Z" fill="#EBEBEB"/>
<path d="M12.8848 52.5125L4.52268 60.8667V72.503L21.8441 90.2343L36.5204 76.5948L12.8848 52.5125Z" fill="#EBEBEB"/>
<path d="M54.8658 64.7881C54.8658 64.7881 72.8272 51.6174 67.0249 30.4335H78.2028L78.0748 90.277L54.8658 64.7881Z" fill="#EBEBEB"/>
<path d="M51.4954 68.2406L42.792 77.3194L69.4141 103.917L77.5628 95.3066L51.4954 68.2406Z" fill="#EBEBEB"/>
<path d="M39.1655 79.7916L25.5132 93.3459L52.8179 120.454L66.4276 107.284L39.1655 79.7916Z" fill="#EBEBEB"/>
<path d="M31.9981 147.648L52.8606 126.038L72.7419 146.284L31.9981 147.648Z" fill="#EBEBEB"/>
<path d="M56.1457 123.268L77.9041 101.743C77.9041 102.68 77.7335 146.37 77.7335 146.37L56.1457 123.268Z" fill="#EBEBEB"/>
<path d="M37.5017 111.163L49.8742 123.481L25.5132 148.586L14.25 135.117L37.5017 111.163Z" fill="#EBEBEB"/>
<path d="M4.18137 136.865C5.33329 136.737 35.1552 108.861 35.1552 108.861L4.18137 76.7653V136.865Z" fill="#EBEBEB"/>
<path d="M3.75474 143.215L10.9649 136.864L20.9055 148.586H3.75474V144.11" fill="#EBEBEB"/>
<path d="M13.0554 21.6957C13.0127 21.7383 12.0741 20.9285 10.9222 19.8629C10.9222 19.5219 10.9222 19.7776 10.9222 19.6924L10.9648 19.6498L11.0075 19.6071L11.0928 19.5219C11.1782 19.4367 11.2208 19.394 11.3061 19.3514C11.4341 19.2235 11.5621 19.0957 11.6901 19.0104C11.9034 18.7973 12.1594 18.5842 12.3727 18.4137C12.7567 18.0727 13.0127 17.9022 13.0127 17.9022C13.0127 17.9448 12.842 18.1579 12.4581 18.5416C12.2447 18.7547 12.0314 18.9678 11.8181 19.1809C11.6901 19.3088 11.5621 19.4367 11.4341 19.5645C11.3488 19.6071 11.3061 19.6924 11.2208 19.7776L11.1355 19.8629L11.0928 19.9055V19.8203C11.0928 19.735 11.0928 19.9908 11.0928 19.6498C12.2021 20.758 13.098 21.6531 13.0554 21.6957Z" fill="#263238"/>
<path d="M72.0165 18.4563C72.0165 18.7121 71.8032 18.9252 71.5472 18.9252C71.2913 18.9252 71.0779 18.7121 71.0779 18.4563C71.0779 18.2006 71.2913 17.9875 71.5472 17.9875C71.8032 17.9875 72.0165 18.2006 72.0165 18.4563Z" fill="#263238"/>
<path d="M71.8885 19.6924C72.0591 19.8629 72.0591 20.1613 71.8885 20.3318C71.7178 20.5023 71.4192 20.5023 71.2485 20.3318C71.0779 20.1613 71.0779 19.8629 71.2485 19.6924C71.4192 19.5219 71.7178 19.5219 71.8885 19.6924Z" fill="#263238"/>
<path d="M72.0165 21.6105C72.0165 21.8662 71.8032 22.0793 71.5472 22.0793C71.2913 22.0793 71.0779 21.8662 71.0779 21.6105C71.0779 21.3547 71.2913 21.1416 71.5472 21.1416C71.8032 21.1416 72.0165 21.3547 72.0165 21.6105Z" fill="#263238"/>
<path d="M52.05 20.3318H32.0834V21.9941H52.05V20.3318Z" fill="#263238"/>
</svg>
