<svg width="39" height="50" viewBox="0 0 39 50" fill="none" xmlns="http://www.w3.org/2000/svg">
<path d="M13.8178 6.94448C8.51308 6.94448 3.43904 9.59929 0.308956 14.058C-0.218217 14.8068 -0.0534754 15.8279 0.671387 16.3384C1.39625 16.883 2.3847 16.7128 2.87892 15.964C5.41594 12.3902 9.50153 10.246 13.8178 10.246C21.297 10.246 27.3595 16.5426 27.3595 24.2347C27.3595 27.5362 26.5358 30.0889 24.5919 32.7097C22.9774 34.922 17.3103 41.8313 14.4767 45.269L9.99576 34.6157C11.6432 35.2624 13.4553 35.5006 15.3004 35.2624C18.76 34.7519 21.6265 32.6076 23.208 29.6805C24.3283 27.6383 24.8225 25.1878 24.493 22.7031C23.6693 16.6107 18.2328 12.3562 12.3351 13.2071C6.43734 14.058 2.3188 19.6739 3.14251 25.7664C3.3402 27.1618 3.76853 28.4892 4.39455 29.6465L12.5657 49.0129C12.7964 49.5235 13.2576 49.8979 13.7848 49.9659C13.8507 49.9659 13.9496 50 14.0155 50C14.4767 50 14.9051 49.7957 15.2345 49.4213C15.6299 48.9448 24.8884 37.747 27.1289 34.7178C29.5012 31.5184 30.5555 28.285 30.5555 24.2347C30.5555 14.7047 23.0433 6.94448 13.8178 6.94448ZM7.26105 28.1829C7.19515 28.0468 7.1622 27.9447 7.09631 27.8426C6.70093 27.0597 6.43734 26.2088 6.30555 25.2899C6.07491 23.5881 6.37144 21.8863 7.19515 20.3887C7.35989 20.0824 7.55758 19.776 7.75527 19.5037C8.97436 17.836 10.7536 16.7468 12.7634 16.4745C14.7733 16.2023 16.7831 16.7128 18.3976 18.0062C20.012 19.2655 21.0664 21.1034 21.33 23.1796C21.5936 25.2558 21.0993 27.332 19.8473 28.9998C18.6282 30.6675 16.849 31.7567 14.8392 32.029C11.7091 32.4714 8.74372 30.8377 7.26105 28.1829Z" fill="#3F3CC7"/>
<path d="M15.552 20.7726C15.671 20.8131 15.7901 20.8333 15.9092 20.8333C16.177 20.8333 16.4152 20.7322 16.564 20.5703C16.7724 20.3275 16.6533 20.024 16.2961 19.8823C14.8078 19.3158 13.0219 19.2955 11.5039 19.8419C11.1467 19.9633 10.9978 20.2668 11.2062 20.5298C11.3848 20.7726 11.8313 20.8738 12.2182 20.7322C13.2303 20.3679 14.5102 20.3679 15.552 20.7726Z" fill="#3F3CC7"/>
<path d="M10.4689 21.0142C9.8353 20.6506 9.04326 20.8584 8.67364 21.4297C8.62084 21.5336 8.56803 21.5855 8.51523 21.6894C8.14561 22.3126 8.35682 23.0917 8.99046 23.4553C9.20167 23.5592 9.41288 23.6111 9.62409 23.6111C10.0993 23.6111 10.5217 23.3514 10.7858 22.9359C10.8386 22.884 10.8386 22.832 10.8914 22.7801C11.3138 22.2088 11.1026 21.4297 10.4689 21.0142Z" fill="#3F3CC7"/>
<path d="M3.25367 32.9648C2.86929 32.1236 1.89085 31.7029 1.01725 32.0885C0.178588 32.4741 -0.240741 33.4555 0.143644 34.3318L6.50348 48.9834C6.78303 49.6144 7.41202 49.9999 8.04102 49.9999C8.25068 49.9999 8.49529 49.9649 8.70496 49.8597C9.54362 49.4742 9.96295 48.4927 9.57856 47.6164L3.25367 32.9648Z" fill="#69B935"/>
<path d="M25.5398 0.142619C24.7999 -0.239023 23.9713 0.177314 23.6754 1.00999L22.3437 4.61824C22.0182 5.48561 22.3733 6.45706 23.0835 6.80401C23.4091 6.97748 23.7346 6.97748 24.0601 6.8734C24.4448 6.73462 24.7999 6.38767 24.9479 5.93664L26.2796 2.32839C26.5755 1.49571 26.25 0.489566 25.5398 0.142619Z" fill="#69B935"/>
<path d="M38.4034 1.89683C37.7259 1.26559 36.559 1.19915 35.8438 1.83039L28.3533 8.34211C27.6381 8.94013 27.5629 9.97005 28.278 10.6013C28.7297 11.0332 29.4073 11.1993 30.0095 11.0664C30.3106 11 30.6118 10.8671 30.8376 10.6677L38.3281 4.156C39.0433 3.55799 39.0809 2.52807 38.4034 1.89683Z" fill="#69B935"/>
<path d="M37.26 13.8898L33.5066 13.9731C32.6098 14.0009 31.9122 14.6118 31.9454 15.3615C31.9787 16.0279 32.5433 16.5555 33.3073 16.6388C33.4069 16.6388 33.5066 16.6666 33.573 16.6666L37.3264 16.5833C38.2233 16.5555 38.9208 15.9446 38.8876 15.1949C38.8544 14.4452 38.1236 13.862 37.26 13.8898Z" fill="#69B935"/>
</svg>
