<svg width="211" height="112" viewBox="0 0 211 112" fill="none" xmlns="http://www.w3.org/2000/svg">
<path d="M68.2926 25.9289C56.4156 25.9289 46.7807 35.6052 46.7807 47.5332C46.7807 59.4612 56.4156 69.1375 68.2926 69.1375C75.14 69.1375 81.3815 65.9729 85.5021 60.4958C86.5322 59.0961 86.2899 57.0878 84.8961 56.0532C83.5024 55.0186 81.5027 55.2621 80.4726 56.6618C77.5639 60.5566 73.1403 62.7475 68.3532 62.7475C59.9908 62.7475 53.204 55.9315 53.204 47.5332C53.204 39.1349 59.9908 32.3189 68.3532 32.3189C75.6248 32.3189 81.7451 37.4918 83.1994 44.3686H63.5661C61.8087 44.3686 60.415 45.7683 60.415 47.5332C60.415 49.2981 61.8087 50.6978 63.5661 50.6978H86.6534C88.4107 50.6978 89.8045 49.2981 89.8045 47.5332C89.8045 35.6661 80.1696 25.9289 68.2926 25.9289Z" fill="white"/>
<path d="M115.073 25.9289C103.196 25.9289 93.5615 35.6052 93.5615 47.5332C93.5615 59.4612 103.196 69.1375 115.073 69.1375C121.921 69.1375 128.162 65.9729 132.283 60.4958C133.313 59.0961 133.071 57.0878 131.677 56.0532C130.283 55.0186 128.283 55.2621 127.253 56.6618C124.345 60.5566 119.921 62.7475 115.134 62.7475C106.772 62.7475 99.9847 55.9315 99.9847 47.5332C99.9847 39.1349 106.772 32.3189 115.134 32.3189C122.406 32.3189 128.526 37.4918 129.98 44.3686H110.347C108.589 44.3686 107.196 45.7683 107.196 47.5332C107.196 49.2981 108.589 50.6978 110.347 50.6978H133.495C135.252 50.6978 136.646 49.2981 136.646 47.5332C136.585 35.6661 126.95 25.9289 115.073 25.9289Z" fill="white"/>
<path d="M161.975 14.0009C151.371 14.0009 141.251 19.1738 134.949 27.8155C133.919 29.2152 134.222 31.2235 135.616 32.2581C137.009 33.2926 139.009 32.9884 140.039 31.5886C145.129 24.5901 153.31 20.3909 161.915 20.3909C176.822 20.3909 189.001 32.6232 189.001 47.5941C189.001 54.0449 187.365 58.9743 183.427 64.0863C180.154 68.3463 168.883 81.7958 163.187 88.49L154.219 67.7986C157.491 69.0766 161.127 69.5635 164.823 69.0158C171.731 68.0421 177.427 63.9038 180.639 58.1832C182.881 54.2275 183.851 49.4806 183.184 44.6121C181.548 32.8058 170.701 24.5292 158.945 26.1724C147.19 27.8155 138.948 38.7698 140.585 50.5761C140.948 53.3146 141.857 55.8098 143.069 58.1223L159.37 95.7929C159.794 96.8275 160.703 97.4969 161.793 97.6795C161.975 97.6795 162.096 97.7403 162.278 97.7403C163.187 97.7403 164.096 97.3143 164.702 96.6449C165.49 95.732 183.972 73.9452 188.456 68.1029C193.183 61.8955 195.304 55.5663 195.304 47.7158C195.425 29.0327 180.397 14.0009 161.975 14.0009ZM148.826 55.2012V55.1403C148.765 54.9578 148.644 54.7143 148.523 54.5926C147.735 53.0712 147.19 51.4281 146.947 49.6632C146.463 46.3161 147.129 43.0298 148.765 40.1086C149.129 39.5001 149.492 38.9524 149.917 38.4046C152.34 35.1792 155.916 33.0492 159.915 32.5015C163.914 31.9538 167.914 32.9884 171.125 35.4226C174.337 37.8569 176.458 41.4475 177.003 45.4641C177.549 49.4806 176.519 53.4972 174.095 56.7226C171.671 59.9481 168.096 62.0781 164.096 62.6258C157.794 63.5386 151.856 60.3741 148.826 55.2012Z" fill="white"/>
<path d="M21.5119 25.9289C15.5734 25.9289 10.2409 28.3632 6.36266 32.1972V17.1655C6.36266 15.4007 4.96894 14.0009 3.21163 14.0009C1.39373 14.0009 0 15.4007 0 17.1655V47.5332C0 59.4612 9.63489 69.1375 21.5119 69.1375C33.3888 69.1375 43.0237 59.4612 43.0237 47.5332C43.0237 35.6661 33.3888 25.9289 21.5119 25.9289ZM21.5119 62.8083C13.1495 62.8083 6.36266 55.9924 6.36266 47.5941C6.36266 39.1958 13.1495 32.3798 21.5119 32.3798C29.8742 32.3798 36.6611 39.1958 36.6611 47.5941C36.6611 55.9924 29.8742 62.8083 21.5119 62.8083Z" fill="white"/>
<path d="M27.511 38.2221C26.7232 37.7352 25.7536 37.9787 25.2689 38.7089C24.7841 39.5001 25.0265 40.4738 25.7536 40.9607C27.9957 42.4212 29.3289 44.8555 29.3289 47.5332C29.3289 48.4461 30.056 49.1764 30.965 49.1764C31.8739 49.1764 32.6011 48.4461 32.6011 47.5332C32.6011 43.7601 30.662 40.2912 27.511 38.2221Z" fill="white"/>
<path d="M21.8754 36.4572C21.7543 36.4572 21.6331 36.4572 21.5119 36.4572C20.6029 36.4572 19.8758 37.1875 19.8758 38.1004C19.8758 39.0132 20.6029 39.7435 21.5119 39.7435C21.5725 39.7435 21.6937 39.7435 21.7543 39.7435H21.8148C22.6632 39.7435 23.3904 39.0132 23.451 38.1612C23.5116 37.2484 22.7844 36.4572 21.8754 36.4572Z" fill="white"/>
<path d="M165.793 40.7172C166.035 40.8389 166.338 40.8998 166.581 40.8998C167.126 40.8998 167.732 40.5955 168.035 40.0478C168.459 39.2567 168.217 38.2829 167.429 37.7961C164.157 35.9095 160.157 35.8487 156.825 37.6744C156.037 38.1004 155.734 39.0741 156.158 39.8652C156.582 40.6564 157.552 40.9606 158.339 40.5346C160.703 39.3784 163.49 39.4392 165.793 40.7172Z" fill="white"/>
<path d="M154.764 41.2041C153.976 40.7172 153.007 40.9606 152.522 41.7518C152.462 41.8735 152.401 41.9952 152.34 42.0561C151.916 42.8472 152.159 43.8209 152.946 44.3078C153.189 44.4295 153.492 44.4903 153.734 44.4903C154.279 44.4903 154.885 44.1861 155.188 43.6383C155.249 43.5775 155.249 43.4558 155.31 43.3949C155.794 42.7255 155.552 41.6909 154.764 41.2041Z" fill="white"/>
<path d="M46.1142 88.1249C48.0533 86.4818 48.7804 84.8386 48.7804 82.2826C48.7804 77.5966 45.3264 74.1278 39.8121 74.1278H29.9348V104.191H41.0846C46.5383 104.191 50.5377 100.844 50.5377 95.4886C50.5377 92.0806 48.9622 89.768 46.1142 88.1249ZM34.2978 78.1443H39.3879C42.5996 78.1443 44.4175 79.544 44.4175 82.4043C44.4175 85.2038 42.5996 86.6035 39.6303 86.6035H34.2978V78.1443ZM40.7211 100.175H34.2978V90.6809H40.8422C44.781 90.6809 46.1748 93.4195 46.1748 95.4886C46.1748 98.3489 43.8115 100.175 40.7211 100.175Z" fill="white"/>
<path d="M65.5051 81.0655C59.5667 81.0655 54.2341 85.9949 54.2341 93.1152C54.2341 99.14 59.3243 104.739 65.6263 104.739C70.4135 104.739 74.6553 101.757 76.4126 97.1317H72.2314C70.9589 99.5052 68.4744 100.905 65.8687 100.905C62.4147 100.905 59.5061 98.5314 58.5365 94.7583H77.0791C77.2003 93.9672 77.2003 93.3586 77.2003 92.6283C77.1397 86.1775 72.1102 81.0655 65.5051 81.0655ZM58.4153 91.472C58.7183 87.638 62.1723 84.8995 65.6263 84.8995C69.2016 84.8995 72.595 87.638 72.898 91.472H58.4153Z" fill="white"/>
<path d="M91.5618 81.0655C85.6233 81.0655 80.2908 85.9949 80.2908 93.1152C80.2908 99.14 85.3809 104.739 91.683 104.739C96.4701 104.739 100.712 101.757 102.469 97.1317H98.288C97.0155 99.5052 94.531 100.905 91.9254 100.905C88.4713 100.905 85.5627 98.5314 84.5932 94.7583H103.136C103.257 93.9672 103.257 93.3586 103.257 92.6283C103.196 86.1775 98.1668 81.0655 91.5618 81.0655ZM84.472 91.472C84.7749 87.638 88.229 84.8995 91.683 84.8995C95.2582 84.8995 98.6516 87.638 98.9546 91.472H84.472Z" fill="white"/>
<path d="M119.073 81.0655C115.861 81.0655 113.013 82.4043 111.135 85.1429H111.074V81.674H107.256V111.677H111.438V100.905H111.498C112.952 103.339 115.982 104.739 119.376 104.739C125.799 104.739 130.707 99.566 130.707 93.176C130.707 86.2383 125.799 81.0655 119.073 81.0655ZM118.952 100.905C114.589 100.905 111.377 97.3143 111.377 92.9326C111.377 88.7335 114.589 84.9603 118.83 84.9603C123.315 84.9603 126.526 88.916 126.526 92.9935C126.526 97.2535 123.254 100.905 118.952 100.905Z" fill="white"/>
<path d="M140.403 65.4861C139.676 63.8429 137.858 63.1126 136.222 63.8429C134.586 64.5732 133.858 66.3989 134.586 68.0421L146.584 95.6712C147.129 96.8883 148.28 97.6186 149.492 97.6186C149.917 97.6186 150.341 97.5577 150.765 97.3752C152.401 96.6449 153.128 94.8192 152.401 93.176L140.403 65.4861Z" fill="#69B945"/>
<path d="M185.426 0.247232C183.79 -0.422196 181.972 0.308089 181.245 1.95123L178.336 8.82808C177.67 10.4712 178.397 12.2969 180.033 13.0272C180.76 13.3315 181.487 13.3315 182.215 13.1489C183.063 12.9055 183.851 12.2361 184.214 11.3232L187.123 4.44637C187.789 2.86409 187.062 0.977517 185.426 0.247232Z" fill="#69B945"/>
<path d="M208.15 3.59437C206.938 2.31637 204.938 2.25552 203.666 3.4118L190.516 16.4352C189.244 17.6524 189.183 19.6606 190.335 20.9386C191.122 21.7906 192.334 22.0949 193.364 21.8515C193.91 21.7298 194.395 21.4864 194.819 21.0604L207.908 8.0978C209.241 6.94151 209.301 4.93323 208.15 3.59437Z" fill="#69B945"/>
<path d="M207.726 26.2941L200.272 26.4766C198.515 26.5375 197.121 27.9981 197.182 29.7629C197.243 31.3452 198.394 32.6232 199.909 32.8666C200.091 32.8666 200.272 32.9275 200.454 32.9275L207.908 32.7449C209.665 32.6841 211.059 31.2235 210.998 29.4586C210.938 27.6938 209.423 26.2941 207.726 26.2941Z" fill="#69B945"/>
<path d="M11.5134 82.2218L10.0591 82.2826V84.0475H19.3304V82.2826H18.0578V82.2218C19.088 81.4915 19.6334 80.3352 19.6334 78.9963C19.6334 76.2578 17.5731 74.1278 14.6038 74.1278C11.9376 74.1278 9.87728 76.3186 9.87728 79.0572C9.81668 80.396 10.4226 81.5523 11.5134 82.2218ZM14.6644 75.8318C16.4823 75.8318 17.9972 77.2315 17.9972 78.9963C17.9972 80.9438 16.4823 82.2218 14.6644 82.2218C12.9071 82.2218 11.3922 80.822 11.3922 78.9963C11.4528 77.2923 12.9677 75.8318 14.6644 75.8318Z" fill="#69B945"/>
<path d="M22.4208 86.2992H10.0591V88.0641H22.4208V86.2992Z" fill="#69B945"/>
<path d="M22.4208 90.3157H10.0591V92.0806H22.4208V90.3157Z" fill="#69B945"/>
<path d="M19.5728 98.6532C19.5728 95.9146 17.5125 93.7846 14.5432 93.7846C11.877 93.7846 9.81669 95.9755 9.81669 98.714C9.81669 100.053 10.3621 101.209 11.5134 101.879V101.939H10.0591V103.704H19.3304V101.939H18.0579V101.879C19.088 101.148 19.5728 100.053 19.5728 98.6532ZM14.6644 101.939C12.9071 101.939 11.3922 100.54 11.3922 98.714C11.3922 96.9492 12.9071 95.5495 14.6644 95.5495C16.4823 95.5495 17.9973 96.9492 17.9973 98.714C17.9973 100.661 16.4823 101.939 14.6644 101.939Z" fill="#69B945"/>
</svg>
