<svg width="20" height="20" viewBox="0 0 20 20" fill="none" xmlns="http://www.w3.org/2000/svg">
<path d="M19.7812 10C19.7812 15.4062 15.4062 19.7812 10 19.7812C4.59375 19.7812 0.21875 15.4062 0.21875 10C0.21875 4.59375 4.59375 0.21875 10 0.21875C15.4062 0.21875 19.7812 4.59375 19.7812 10ZM10 0.8125C4.90625 0.8125 0.8125 4.90625 0.8125 10C0.8125 15.0937 4.9375 19.1875 10 19.1875C15.0937 19.1875 19.1875 15.0625 19.1875 10C19.1875 4.90625 15.0937 0.8125 10 0.8125Z" fill="url(#paint0_linear_382_28)"/>
<path d="M10 0.8125C4.90625 0.8125 0.8125 4.90625 0.8125 10C0.8125 15.0937 4.9375 19.1875 10 19.1875C15.0937 19.1875 19.1875 15.0625 19.1875 10C19.1875 4.90625 15.0937 0.8125 10 0.8125ZM10 18.5937C5.25 18.5937 1.40625 14.75 1.40625 10C1.40625 5.25 5.25 1.40625 10 1.40625C14.75 1.40625 18.5937 5.25 18.5937 10C18.5937 14.75 14.75 18.5937 10 18.5937Z" fill="url(#paint1_linear_382_28)"/>
<path opacity="0.4" d="M10 19.7812C15.4062 19.7812 19.7812 15.4062 19.7812 10C19.7812 4.59375 15.4062 0.21875 10 0.21875C4.59375 0.21875 0.21875 4.59375 0.21875 10C0.21875 15.4062 4.59375 19.7812 10 19.7812ZM10 0C15.5 0 20 4.5 20 10C20 15.5 15.5 20 10 20C4.5 20 0 15.5 0 10C0 4.5 4.5 0 10 0Z" fill="url(#paint2_linear_382_28)"/>
<path d="M0.6875 10.0312C0.6875 4.90625 4.84375 0.6875 10 0.6875C15.1562 0.6875 19.3125 4.875 19.3125 10.0312C19.3125 15.1562 15.1562 19.3125 10 19.3125C4.84375 19.3125 0.6875 15.1562 0.6875 10.0312ZM3.59375 3.59375C1.9375 5.25 0.90625 7.53125 0.90625 10.0312C0.90625 12.5312 1.9375 14.8125 3.5625 16.4375C5.21875 18.0625 7.5 19.0937 10 19.0937C12.5 19.0937 14.7812 18.0937 16.4062 16.4375C18.0625 14.8125 19.0625 12.5312 19.0625 10.0312C19.0625 7.53125 18.0312 5.25 16.4062 3.59375C14.7812 1.9375 12.5 0.90625 10 0.90625C7.5 0.90625 5.21875 1.9375 3.59375 3.59375Z" fill="white"/>
<path opacity="0.4" d="M10 18.625C7.6875 18.625 5.53125 17.7188 3.90625 16.0938C2.28125 14.4688 1.375 12.3125 1.375 10C1.375 7.6875 2.28125 5.53125 3.90625 3.90625C5.53125 2.28125 7.6875 1.375 10 1.375C12.3125 1.375 14.4688 2.28125 16.0938 3.90625C17.7188 5.53125 18.625 7.6875 18.625 10C18.625 12.3125 17.7188 14.4688 16.0938 16.0938C14.4688 17.7188 12.3125 18.625 10 18.625ZM10 18.375C12.2188 18.375 14.3438 17.5 15.9063 15.9375C17.5 14.3438 18.3438 12.25 18.3438 10.0312C18.3438 7.8125 17.4688 5.6875 15.9063 4.125C14.3125 2.53125 12.2188 1.6875 10 1.6875C7.78125 1.6875 5.65625 2.5625 4.09375 4.125C2.5 5.65625 1.625 7.78125 1.625 10C1.625 12.2188 2.5 14.3438 4.0625 15.9063C5.65625 17.5 7.78125 18.375 10 18.375Z" fill="url(#paint3_linear_382_28)"/>
<path d="M17.5938 14.0625C17.4375 13.9375 11.4062 9.15625 11.4062 9.15625L10 1.125C9.90625 1.15625 9.78125 1.25 9.71875 1.375L8.71875 9.1875L2.5 13.9688C2.5 13.9688 2.375 14.125 2.3125 14.2188C2.28125 14.2813 2.28125 14.375 2.28125 14.4688L9.96875 11.3125L17.6562 14.4688C17.7188 14.3125 17.6562 14.1563 17.5938 14.0625Z" fill="white"/>
<path d="M10.0625 10.25L10 11.6875L17.0625 14.5312C17.3125 14.6562 17.5 14.5937 17.6875 14.4687L10.1563 10.2187C10.125 10.1875 10.0625 10.2187 10.0625 10.25Z" fill="#565F64"/>
<path d="M10.0625 10.25C10.0625 10.25 10.4687 10.9687 10.9375 11.4687C11.5937 12.1875 12.4688 12.6875 12.4688 12.6875L17.0625 14.5312C17.3125 14.6562 17.5 14.5937 17.6875 14.4687L10.1562 10.2187C10.125 10.1875 10.0625 10.2187 10.0625 10.25Z" fill="url(#paint4_linear_382_28)"/>
<path d="M17.6562 14.1875C17.6562 14.1563 17.625 14.125 17.5938 14.0625L11.1562 9.34375L10.2812 9.90625C10.2812 9.90625 10.3437 9.9375 10.375 9.90625C10.4687 9.875 10.6562 9.84375 10.8437 9.90625C11 9.96875 17.6562 14.2188 17.6562 14.1875C17.6562 14.2188 17.6562 14.2188 17.6562 14.1875Z" fill="#A4AAAE" fill-opacity="0.6"/>
<path d="M17.4375 13.9063L11.4375 9.15625L11.1562 9.34375L17.5938 14.0938C17.5625 14.0312 17.5 13.9688 17.4375 13.9063Z" fill="#333E46"/>
<path d="M10.1563 9.78125L10.125 9.8125C10.125 9.8125 10.125 9.875 10.1875 9.84375C10.2187 9.8125 11.125 9.34375 11.4375 9.15625L10.3437 1.65625C10.3125 1.375 10.1875 1.25 9.96875 1.15625L10.0937 9.84375L10.1563 9.78125Z" fill="#565F64"/>
<path d="M9.625 1.65625V2.0625L8.9375 8.96875C8.9375 9.0625 8.96875 9.15625 9.0625 9.21875L9.46875 9.53125L9.75 1.90625L9.78125 1.3125C9.6875 1.375 9.65625 1.5 9.625 1.65625ZM9.25 9.65625L8.875 9.34375L2.53125 13.9375C2.53125 13.9375 2.34375 14.0625 2.3125 14.1875L2.53125 14.0625L9.1875 9.875C9.3125 9.8125 9.34375 9.75 9.25 9.65625Z" fill="#A4AAAE" fill-opacity="0.6"/>
<path d="M9.90625 10.25C9.90625 10.2187 9.875 10.1875 9.84375 10.2187L2.28125 14.5C2.46875 14.625 2.65625 14.6562 2.90625 14.5625L9.96875 11.7187L9.90625 10.25Z" fill="#565F64"/>
<path d="M10.125 9.8125L10.1562 9.78125L10.125 9.8125C10.125 9.8125 10.125 9.84375 10.1562 9.84375H10.1875C10.2187 9.8125 11.125 9.34375 11.4375 9.15625L11.3125 8.25L10.3437 1.65625C10.3437 1.53125 10.3125 1.4375 10.25 1.375C10.25 1.375 10.7187 7.6875 10.7187 8.375C10.7187 9.28125 10.125 9.8125 10.125 9.8125Z" fill="url(#paint5_linear_382_28)"/>
<path d="M9.90625 10.25C9.90625 10.2187 9.875 10.1875 9.84375 10.2187L2.28125 14.5C2.46875 14.625 2.65625 14.6562 2.90625 14.5625L9.96875 11.7187L9.90625 10.25Z" fill="url(#paint6_linear_382_28)" fill-opacity="0.8"/>
<path opacity="0.8" d="M2.90625 14.5312L9.96875 11.6875L9.90625 10.3125C9.78125 10.6875 9.5625 11.0937 8.96875 11.4062C8.53125 11.6562 4.34375 13.7188 2.84375 14.4375C2.75 14.5 2.625 14.5312 2.5625 14.5625C2.6875 14.625 2.78125 14.5937 2.90625 14.5312Z" fill="url(#paint7_linear_382_28)"/>
<path d="M10.1563 9.78125L10.125 9.8125C10.125 9.8125 10.125 9.875 10.1875 9.84375C10.2187 9.8125 11.125 9.34375 11.4375 9.15625L10.3437 1.65625C10.3125 1.375 10.1875 1.25 9.96875 1.15625L10.0937 9.84375L10.1563 9.78125Z" fill="url(#paint8_linear_382_28)"/>
<path d="M10.1563 9.78125L10.125 9.8125C10.125 9.8125 10.125 9.875 10.1875 9.84375C10.2187 9.8125 11.125 9.34375 11.4375 9.15625L10.3437 1.65625C10.3125 1.375 10.1875 1.25 9.96875 1.15625L10.0937 9.84375L10.1563 9.78125Z" fill="url(#paint9_linear_382_28)"/>
<path d="M1.59375 13.875C1.375 13.375 0.125 10.9375 1.5 6.25H0.96875C0.6875 7.1875 0.46875 7.75 0.34375 8.59375C0.34375 8.59375 0.28125 8.90625 0.25 9.25C0.21875 9.59375 0.21875 9.78125 0.21875 10C0.21875 11.875 0.6875 12.9687 0.6875 12.9687C1.1875 14.5312 2.0625 15.9375 3.25 17C4.28125 17.9062 5.875 18.5937 7.1875 18.8437C6.96875 18.8125 3.21875 17.2187 1.59375 13.875Z" fill="url(#paint10_linear_382_28)"/>
<path d="M10.125 10.1875H9.84375C9.875 10.1875 9.90625 10.1875 9.90625 10.2187L9.96875 11.6562H10L10.0625 10.2187C10.0625 10.1875 10.0938 10.1562 10.125 10.1875Z" fill="url(#paint11_linear_382_28)"/>
<path d="M13.125 0.71875C16.4062 1.96875 19.5 5.40625 19.5 9.75C19.5 15 15.3125 19.2812 10 19.2812V19.7812C15.3125 19.7812 19.7812 15.4062 19.7812 10C19.7812 5.6875 17.0312 2.0625 13.125 0.71875Z" fill="url(#paint12_linear_382_28)"/>
<path d="M18.375 6.3125C16.1875 1.28125 11.25 1 10.9687 0.96875H10.9375C14.7188 1.65625 17.125 4.125 17.9688 6.71875V6.75C18.3438 7.75 18.5313 8.8125 18.5625 9.96875C18.5938 11.0625 18.3438 12.2813 17.875 13.4063C17.8438 13.5625 17.8125 13.75 17.7813 13.75H18.2812C19.7812 10.9375 19.125 8.09375 18.375 6.3125Z" fill="url(#paint13_linear_382_28)"/>
<path d="M0.6875 10.0312C0.6875 4.90625 4.84375 0.6875 10 0.6875C15.1562 0.6875 19.3125 4.875 19.3125 10.0312C19.3125 15.1562 15.1562 19.3125 10 19.3125C4.84375 19.3125 0.6875 15.1562 0.6875 10.0312ZM3.59375 3.59375C1.9375 5.25 0.90625 7.53125 0.90625 10.0312C0.90625 12.5312 1.9375 14.8125 3.5625 16.4375C5.21875 18.0625 7.5 19.0937 10 19.0937C12.5 19.0937 14.7812 18.0937 16.4062 16.4375C18.0625 14.8125 19.0625 12.5312 19.0625 10.0312C19.0625 7.53125 18.0312 5.25 16.4062 3.59375C14.7812 1.9375 12.5 0.90625 10 0.90625C7.5 0.90625 5.21875 1.9375 3.59375 3.59375Z" fill="#FBFBFB"/>
<path d="M2.46875 14L8.84375 9.40625C9.1875 9.59375 9.75 9.84375 9.8125 9.84375C9.875 9.875 9.875 9.8125 9.875 9.8125L9.09375 9.15625C9 9.09375 8.96875 9 8.96875 8.90625L9.71875 1.375C9.6875 1.40625 9.6875 1.46875 9.65625 1.5C9.625 1.5625 9.625 1.59375 9.625 1.65625L8.53125 9.1875L2.53125 13.9062C2.5 13.9375 2.46875 13.9687 2.46875 14Z" fill="#333F47"/>
<defs>
<linearGradient id="paint0_linear_382_28" x1="2.49937" y1="3.71813" x2="17.5006" y2="16.2819" gradientUnits="userSpaceOnUse">
<stop stop-color="white"/>
<stop offset="0.1" stop-color="#CDD0D0"/>
<stop offset="0.2" stop-color="#A5ACAF"/>
<stop offset="0.3" stop-color="#98A0A4"/>
<stop offset="0.4" stop-color="#828A8F"/>
<stop offset="0.5" stop-color="#667075"/>
<stop offset="0.6" stop-color="#535C63"/>
<stop offset="0.7" stop-color="#475158"/>
<stop offset="0.8" stop-color="#434D54"/>
<stop offset="1" stop-color="#475157"/>
</linearGradient>
<linearGradient id="paint1_linear_382_28" x1="2.95969" y1="4.08094" x2="17.0222" y2="15.8934" gradientUnits="userSpaceOnUse">
<stop stop-color="#0B1F2A"/>
<stop offset="0.2" stop-color="#333F47"/>
<stop offset="0.5" stop-color="#81898D"/>
<stop offset="0.7" stop-color="#B3B8B8"/>
<stop offset="0.8" stop-color="#DEE0DD"/>
<stop offset="1" stop-color="#FBFBFB"/>
</linearGradient>
<linearGradient id="paint2_linear_382_28" x1="13.4178" y1="19.3947" x2="6.57406" y2="0.582501" gradientUnits="userSpaceOnUse">
<stop stop-color="#E1E3E1"/>
<stop offset="0.1" stop-color="#C1C5C4"/>
<stop offset="0.3" stop-color="#9BA1A2"/>
<stop offset="0.5" stop-color="#7D8487"/>
<stop offset="0.7" stop-color="#687074" stop-opacity="0"/>
<stop offset="0.8" stop-color="#5B6469" stop-opacity="0"/>
<stop offset="1" stop-color="#576065" stop-opacity="0"/>
</linearGradient>
<linearGradient id="paint3_linear_382_28" x1="5.68781" y1="2.53156" x2="14.3122" y2="17.4684" gradientUnits="userSpaceOnUse">
<stop stop-color="#E1E3E1"/>
<stop offset="0.1" stop-color="#C1C5C4"/>
<stop offset="0.3" stop-color="#9BA1A2"/>
<stop offset="0.5" stop-color="#7D8487"/>
<stop offset="0.7" stop-color="#687074" stop-opacity="0"/>
<stop offset="0.8" stop-color="#5B6469" stop-opacity="0"/>
<stop offset="1" stop-color="#576065" stop-opacity="0"/>
</linearGradient>
<linearGradient id="paint4_linear_382_28" x1="13.9025" y1="12.3103" x2="13.3712" y2="13.1853" gradientUnits="userSpaceOnUse">
<stop stop-color="#27343C"/>
<stop offset="1" stop-color="#00111E" stop-opacity="0"/>
</linearGradient>
<linearGradient id="paint5_linear_382_28" x1="12.3687" y1="9.0975" x2="11.4937" y2="7.69125" gradientUnits="userSpaceOnUse">
<stop offset="0.1" stop-color="#02131F"/>
<stop offset="0.9" stop-color="#02131F" stop-opacity="0"/>
</linearGradient>
<linearGradient id="paint6_linear_382_28" x1="9.99438" y1="11.355" x2="8.68188" y2="11.73" gradientUnits="userSpaceOnUse">
<stop offset="0.2" stop-color="#02131F"/>
<stop offset="0.9" stop-color="#02131F" stop-opacity="0"/>
</linearGradient>
<linearGradient id="paint7_linear_382_28" x1="6.49719" y1="13.095" x2="6.30969" y2="12.6262" gradientUnits="userSpaceOnUse">
<stop stop-color="#02131F"/>
<stop offset="0.1" stop-color="#02131F"/>
<stop offset="1" stop-color="#02131F" stop-opacity="0"/>
</linearGradient>
<linearGradient id="paint8_linear_382_28" x1="11.1256" y1="5.37937" x2="10.0631" y2="5.50437" gradientUnits="userSpaceOnUse">
<stop offset="0.3" stop-color="#02131F"/>
<stop offset="0.8" stop-color="#02131F" stop-opacity="0"/>
</linearGradient>
<linearGradient id="paint9_linear_382_28" x1="11.1587" y1="5.36156" x2="10.4397" y2="5.45531" gradientUnits="userSpaceOnUse">
<stop offset="0.4" stop-color="#27343C"/>
<stop offset="1" stop-color="#3B474E" stop-opacity="0"/>
</linearGradient>
<linearGradient id="paint10_linear_382_28" x1="-0.1125" y1="10.2597" x2="8.60625" y2="15.2909" gradientUnits="userSpaceOnUse">
<stop stop-color="#25323B" stop-opacity="0"/>
<stop offset="0.1" stop-color="#27343C"/>
</linearGradient>
<linearGradient id="paint11_linear_382_28" x1="9.98438" y1="11.6875" x2="9.98438" y2="10.1875" gradientUnits="userSpaceOnUse">
<stop offset="0.3" stop-color="#A5ABAF"/>
<stop offset="1" stop-color="#A5ABAF" stop-opacity="0"/>
</linearGradient>
<linearGradient id="paint12_linear_382_28" x1="14.8906" y1="0.71875" x2="14.8906" y2="19.7812" gradientUnits="userSpaceOnUse">
<stop stop-color="#6B7378"/>
<stop offset="0.2" stop-color="#333F47"/>
<stop offset="0.5" stop-color="#27343C"/>
<stop offset="0.8" stop-color="#333F47"/>
<stop offset="1" stop-color="#434D54"/>
</linearGradient>
<linearGradient id="paint13_linear_382_28" x1="17.9028" y1="2.52906" x2="13.6841" y2="8.71656" gradientUnits="userSpaceOnUse">
<stop offset="0.7" stop-color="#49545B"/>
<stop offset="0.8" stop-color="white" stop-opacity="0"/>
</linearGradient>
</defs>
</svg>
