<svg width="18" height="8" viewBox="0 0 18 8" fill="none" xmlns="http://www.w3.org/2000/svg">
<path d="M17.3333 3.03556C17.0029 2.92509 14.7045 2.42279 14.7045 2.42279C14.7045 2.42279 10.444 0 9.93264 0C9.42132 0 5.91385 0.00155864 5.91385 0.00155864C5.05688 0.00155864 4.3407 0.654587 3.5115 1.41065C3.1207 1.76688 2.68935 2.15894 2.21356 2.50767L0.441529 2.74329C0.18547 2.82494 0 3.06453 0 3.34761V5.37791C0 5.72829 0.284 6.01235 0.634411 6.01235H1.85209C1.94053 7.03146 2.79776 7.83388 3.83944 7.83388C4.88105 7.83388 5.73835 7.03143 5.82679 6.01238H11.6411C11.7295 7.03149 12.5868 7.83388 13.6285 7.83388C14.6701 7.83388 15.5274 7.03143 15.6158 6.01238H16.6162C17.4088 6.01238 17.7962 5.67002 17.8934 5.34867C18.1394 4.53547 17.9625 3.24591 17.3333 3.03556ZM3.83944 6.87223C3.26944 6.87223 2.80567 6.40852 2.80567 5.83852C2.80567 5.26853 3.26938 4.80476 3.83944 4.80476C4.40944 4.80476 4.87314 5.26847 4.87314 5.83852C4.87317 6.40852 4.40944 6.87223 3.83944 6.87223ZM7.6767 2.42285H4.20982C4.46058 2.22473 4.69244 2.01444 4.90603 1.81976C5.46738 1.30794 5.9522 0.865882 6.53232 0.865882C6.53232 0.865882 7.05732 0.865646 7.67673 0.865381V2.42285H7.6767ZM8.5209 0.865058C8.94996 0.864911 9.33243 0.864793 9.52432 0.864793C10.0021 0.864793 11.94 1.9902 12.6674 2.42288H8.5209V0.865058ZM13.6284 6.87223C13.0584 6.87223 12.5947 6.40852 12.5947 5.83852C12.5947 5.26853 13.0584 4.80476 13.6284 4.80476C14.1984 4.80476 14.6622 5.26847 14.6622 5.83852C14.6622 6.40852 14.1984 6.87223 13.6284 6.87223Z" fill="#327015"/>
</svg>
