<svg width="30" height="24" viewBox="0 0 30 24" fill="none" xmlns="http://www.w3.org/2000/svg">
<circle cx="9.14271" cy="6.70136" r="2.07881" transform="rotate(178.702 9.14271 6.70136)" fill="url(#paint0_linear_283_1875)"/>
<circle r="0.383716" transform="matrix(1.01814 -0.0230776 -0.0230776 -1.01814 9.98364 5.76075)" fill="white"/>
<circle r="0.216617" transform="matrix(1.01814 -0.0230776 -0.0230776 -1.01814 9.92378 6.51393)" fill="white"/>
<circle cx="11.978" cy="5.82029" r="1.66305" transform="rotate(178.702 11.978 5.82029)" fill="url(#paint1_linear_283_1875)"/>
<circle r="0.306973" transform="matrix(1.01814 -0.0230776 -0.0230776 -1.01814 12.6508 5.0679)" fill="white"/>
<circle r="0.173294" transform="matrix(1.01814 -0.0230776 -0.0230776 -1.01814 12.603 5.67042)" fill="white"/>
<circle cx="12.5688" cy="1.24725" r="1.24729" transform="rotate(178.702 12.5688 1.24725)" fill="url(#paint2_linear_283_1875)"/>
<circle r="0.23023" transform="matrix(1.01814 -0.0230776 -0.0230776 -1.01814 13.0735 0.682961)" fill="white"/>
<circle r="0.12997" transform="matrix(1.01814 -0.0230776 -0.0230776 -1.01814 13.0375 1.13482)" fill="white"/>
<circle cx="16.4182" cy="4.80641" r="0.831524" transform="rotate(178.702 16.4182 4.80641)" fill="url(#paint3_linear_283_1875)"/>
<circle r="0.153487" transform="matrix(1.01814 -0.0230776 -0.0230776 -1.01814 16.7546 4.4301)" fill="white"/>
<circle r="0.086647" transform="matrix(1.01814 -0.0230776 -0.0230776 -1.01814 16.7307 4.73142)" fill="white"/>
<circle cx="11.0131" cy="9.77799" r="2.49457" transform="rotate(178.702 11.0131 9.77799)" fill="url(#paint4_linear_283_1875)"/>
<circle r="0.46046" transform="matrix(1.01814 -0.0230776 -0.0230776 -1.01814 12.0223 8.64928)" fill="white"/>
<circle r="0.259941" transform="matrix(1.01814 -0.0230776 -0.0230776 -1.01814 11.9506 9.55312)" fill="white"/>
<circle cx="14.9708" cy="10.7428" r="2.49457" transform="rotate(178.702 14.9708 10.7428)" fill="url(#paint5_linear_283_1875)"/>
<circle r="0.46046" transform="matrix(1.01814 -0.0230776 -0.0230776 -1.01814 15.98 9.61411)" fill="white"/>
<circle r="0.259941" transform="matrix(1.01814 -0.0230776 -0.0230776 -1.01814 15.9082 10.5179)" fill="white"/>
<circle cx="14.0898" cy="7.90754" r="1.24729" transform="rotate(178.702 14.0898 7.90754)" fill="url(#paint6_linear_283_1875)"/>
<circle r="0.23023" transform="matrix(1.01814 -0.0230776 -0.0230776 -1.01814 14.5944 7.34312)" fill="white"/>
<circle r="0.12997" transform="matrix(1.01814 -0.0230776 -0.0230776 -1.01814 14.5586 7.7951)" fill="white"/>
<circle cx="5.20957" cy="9.93546" r="2.07881" transform="rotate(178.702 5.20957 9.93546)" fill="url(#paint7_linear_283_1875)"/>
<circle r="0.383716" transform="matrix(1.01814 -0.0230776 -0.0230776 -1.01814 6.05049 8.99486)" fill="white"/>
<circle r="0.216617" transform="matrix(1.01814 -0.0230776 -0.0230776 -1.01814 5.99063 9.74804)" fill="white"/>
<circle cx="8.0449" cy="9.05427" r="1.66305" transform="rotate(178.702 8.0449 9.05427)" fill="url(#paint8_linear_283_1875)"/>
<circle r="0.306973" transform="matrix(1.01814 -0.0230776 -0.0230776 -1.01814 8.71768 8.30188)" fill="white"/>
<circle r="0.173294" transform="matrix(1.01814 -0.0230776 -0.0230776 -1.01814 8.66988 8.9044)" fill="white"/>
<circle cx="7.08001" cy="13.012" r="2.49457" transform="rotate(178.702 7.08001 13.012)" fill="url(#paint9_linear_283_1875)"/>
<circle r="0.46046" transform="matrix(1.01814 -0.0230776 -0.0230776 -1.01814 8.08914 11.8833)" fill="white"/>
<circle r="0.259941" transform="matrix(1.01814 -0.0230776 -0.0230776 -1.01814 8.01741 12.7871)" fill="white"/>
<circle cx="11.0377" cy="13.9769" r="2.49457" transform="rotate(178.702 11.0377 13.9769)" fill="url(#paint10_linear_283_1875)"/>
<circle r="0.46046" transform="matrix(1.01814 -0.0230776 -0.0230776 -1.01814 12.0468 12.8482)" fill="white"/>
<circle r="0.259941" transform="matrix(1.01814 -0.0230776 -0.0230776 -1.01814 11.9751 13.7521)" fill="white"/>
<circle cx="10.1567" cy="11.1415" r="1.24729" transform="rotate(178.702 10.1567 11.1415)" fill="url(#paint11_linear_283_1875)"/>
<circle r="0.23023" transform="matrix(1.01814 -0.0230776 -0.0230776 -1.01814 10.6612 10.5771)" fill="white"/>
<circle r="0.12997" transform="matrix(1.01814 -0.0230776 -0.0230776 -1.01814 10.6254 11.0291)" fill="white"/>
<circle cx="18.2954" cy="11.7024" r="2.07881" transform="rotate(165 18.2954 11.7024)" fill="url(#paint12_linear_283_1875)"/>
<circle r="0.383716" transform="matrix(0.983704 -0.263583 -0.263583 -0.983704 18.8896 10.5895)" fill="white"/>
<circle r="0.216617" transform="matrix(0.983704 -0.263583 -0.263583 -0.983704 19.0098 11.3354)" fill="white"/>
<circle cx="20.8414" cy="10.1748" r="1.66305" transform="rotate(165 20.8414 10.1748)" fill="url(#paint13_linear_283_1875)"/>
<circle r="0.306973" transform="matrix(0.983704 -0.263583 -0.263583 -0.983704 21.3167 9.28438)" fill="white"/>
<circle r="0.173294" transform="matrix(0.983704 -0.263583 -0.263583 -0.983704 21.413 9.88126)" fill="white"/>
<circle cx="20.3322" cy="5.59197" r="1.24729" transform="rotate(165 20.3322 5.59197)" fill="url(#paint14_linear_283_1875)"/>
<circle r="0.23023" transform="matrix(0.983704 -0.263583 -0.263583 -0.983704 20.6887 4.92421)" fill="white"/>
<circle r="0.12997" transform="matrix(0.983704 -0.263583 -0.263583 -0.983704 20.7609 5.37174)" fill="white"/>
<circle cx="20.8414" cy="14.2485" r="2.49457" transform="rotate(165 20.8414 14.2485)" fill="url(#paint15_linear_283_1875)"/>
<circle r="0.46046" transform="matrix(0.983704 -0.263583 -0.263583 -0.983704 21.5544 12.9128)" fill="white"/>
<circle r="0.259941" transform="matrix(0.983704 -0.263583 -0.263583 -0.983704 21.6988 13.808)" fill="white"/>
<circle cx="24.915" cy="14.2485" r="2.49457" transform="rotate(165 24.915 14.2485)" fill="url(#paint16_linear_283_1875)"/>
<circle r="0.46046" transform="matrix(0.983704 -0.263583 -0.263583 -0.983704 25.6281 12.9128)" fill="white"/>
<circle r="0.259941" transform="matrix(0.983704 -0.263583 -0.263583 -0.983704 25.7724 13.808)" fill="white"/>
<circle cx="23.3874" cy="11.7024" r="1.24729" transform="rotate(165 23.3874 11.7024)" fill="url(#paint17_linear_283_1875)"/>
<circle r="0.23023" transform="matrix(0.983704 -0.263583 -0.263583 -0.983704 23.7439 11.0346)" fill="white"/>
<circle r="0.12997" transform="matrix(0.983704 -0.263583 -0.263583 -0.983704 23.8161 11.4822)" fill="white"/>
<circle cx="15.2401" cy="15.7761" r="2.07881" transform="rotate(165 15.2401 15.7761)" fill="url(#paint18_linear_283_1875)"/>
<circle r="0.383716" transform="matrix(0.983704 -0.263583 -0.263583 -0.983704 15.8344 14.6631)" fill="white"/>
<circle r="0.216617" transform="matrix(0.983704 -0.263583 -0.263583 -0.983704 15.9546 15.4091)" fill="white"/>
<circle cx="17.7862" cy="14.2484" r="1.66305" transform="rotate(165 17.7862 14.2484)" fill="url(#paint19_linear_283_1875)"/>
<circle r="0.306973" transform="matrix(0.983704 -0.263583 -0.263583 -0.983704 18.2615 13.358)" fill="white"/>
<circle r="0.173294" transform="matrix(0.983704 -0.263583 -0.263583 -0.983704 18.3578 13.9549)" fill="white"/>
<circle cx="17.7862" cy="18.3221" r="2.49457" transform="rotate(165 17.7862 18.3221)" fill="url(#paint20_linear_283_1875)"/>
<circle r="0.46046" transform="matrix(0.983704 -0.263583 -0.263583 -0.983704 18.4992 16.9865)" fill="white"/>
<circle r="0.259941" transform="matrix(0.983704 -0.263583 -0.263583 -0.983704 18.6436 17.8816)" fill="white"/>
<circle cx="21.8598" cy="18.3221" r="2.49457" transform="rotate(165 21.8598 18.3221)" fill="url(#paint21_linear_283_1875)"/>
<circle r="0.46046" transform="matrix(0.983704 -0.263583 -0.263583 -0.983704 22.5728 16.9865)" fill="white"/>
<circle r="0.259941" transform="matrix(0.983704 -0.263583 -0.263583 -0.983704 22.7172 17.8816)" fill="white"/>
<circle cx="20.3322" cy="15.776" r="1.24729" transform="rotate(165 20.3322 15.776)" fill="url(#paint22_linear_283_1875)"/>
<circle r="0.23023" transform="matrix(0.983704 -0.263583 -0.263583 -0.983704 20.6887 15.1083)" fill="white"/>
<circle r="0.12997" transform="matrix(0.983704 -0.263583 -0.263583 -0.983704 20.7609 15.5558)" fill="white"/>
<g filter="url(#filter0_f_283_1875)">
<path d="M7.19328 13.2292C6.80311 14.8295 5.12277 15.7943 3.44014 15.3841C1.75751 14.9738 0.709766 13.344 1.09994 11.7436C1.49011 10.1432 3.17044 9.17846 4.85307 9.58869C6.5357 9.99891 7.58345 11.6288 7.19328 13.2292Z" fill="url(#paint23_linear_283_1875)" fill-opacity="0.5"/>
<path d="M8.75341 15.6562C8.36324 17.2565 6.68291 18.2213 5.00028 17.8111C3.31765 17.4008 2.2699 15.7709 2.66007 14.1706C3.05024 12.5702 4.73058 11.6054 6.41321 12.0157C8.09584 12.4259 9.14358 14.0558 8.75341 15.6562Z" fill="url(#paint24_linear_283_1875)" fill-opacity="0.5"/>
<path d="M10.8925 12.7666C10.5023 14.367 8.82195 15.3318 7.13932 14.9215C5.45669 14.5113 4.40894 12.8814 4.79911 11.281C5.18928 9.6807 6.86962 8.71591 8.55224 9.12614C10.2349 9.53637 11.2826 11.1663 10.8925 12.7666Z" fill="url(#paint25_linear_283_1875)" fill-opacity="0.5"/>
<path d="M13.8067 15.5237C13.4165 17.1241 11.7362 18.0889 10.0535 17.6786C8.3709 17.2684 7.32315 15.6385 7.71332 14.0382C8.10349 12.4378 9.78383 11.473 11.4665 11.8833C13.1491 12.2935 14.1968 13.9234 13.8067 15.5237Z" fill="url(#paint26_linear_283_1875)" fill-opacity="0.5"/>
<path d="M13.316 11.652C13.0559 12.7189 11.9357 13.3621 10.814 13.0886C9.6922 12.8151 8.9937 11.7285 9.25382 10.6616C9.51393 9.59469 10.6342 8.9515 11.7559 9.22499C12.8777 9.49848 13.5762 10.5851 13.316 11.652Z" fill="url(#paint27_linear_283_1875)" fill-opacity="0.5"/>
<path d="M17.5843 14.7392C17.3242 15.8061 16.204 16.4493 15.0822 16.1758C13.9605 15.9023 13.262 14.8157 13.5221 13.7488C13.7822 12.6819 14.9024 12.0387 16.0242 12.3122C17.1459 12.5857 17.8444 13.6723 17.5843 14.7392Z" fill="url(#paint28_linear_283_1875)" fill-opacity="0.5"/>
<path d="M10.2351 18.4051C9.97494 19.472 8.85472 20.1152 7.73297 19.8417C6.61121 19.5682 5.91272 18.4816 6.17283 17.4147C6.43294 16.3478 7.55317 15.7046 8.67492 15.9781C9.79667 16.2516 10.4952 17.3382 10.2351 18.4051Z" fill="url(#paint29_linear_283_1875)" fill-opacity="0.5"/>
<path d="M15.0332 13.435C14.7731 14.5019 13.6528 15.1451 12.5311 14.8716C11.4093 14.5982 10.7108 13.5116 10.9709 12.4447C11.2311 11.3777 12.3513 10.7346 13.473 11.008C14.5948 11.2815 15.2933 12.3681 15.0332 13.435Z" fill="url(#paint30_linear_283_1875)" fill-opacity="0.5"/>
<path d="M22.7284 17.3867C22.6697 15.7347 24.0217 14.3809 25.7479 14.363C27.4742 14.345 28.9212 15.6697 28.9798 17.3217C29.0384 18.9737 27.6865 20.3274 25.9602 20.3454C24.2339 20.3634 22.787 19.0387 22.7284 17.3867Z" fill="url(#paint31_linear_283_1875)" fill-opacity="0.5"/>
<path d="M20.5738 15.4142C20.5152 13.7622 21.8671 12.4085 23.5934 12.3905C25.3196 12.3726 26.7666 13.6972 26.8252 15.3492C26.8838 17.0012 25.5319 18.355 23.8057 18.3729C22.0794 18.3909 20.6324 17.0662 20.5738 15.4142Z" fill="url(#paint32_linear_283_1875)" fill-opacity="0.5"/>
<path d="M19.3025 18.7522C19.2439 17.1002 20.5958 15.7465 22.3221 15.7285C24.0484 15.7106 25.4953 17.0352 25.554 18.6872C25.6126 20.3392 24.2607 21.693 22.5344 21.7109C20.8081 21.7289 19.3612 20.4042 19.3025 18.7522Z" fill="url(#paint33_linear_283_1875)" fill-opacity="0.5"/>
<path d="M15.7588 16.7942C15.7002 15.1422 17.0521 13.7885 18.7783 13.7705C20.5046 13.7526 21.9516 15.0772 22.0102 16.7292C22.0688 18.3812 20.7169 19.735 18.9906 19.7529C17.2643 19.7709 15.8174 18.4462 15.7588 16.7942Z" fill="url(#paint34_linear_283_1875)" fill-opacity="0.5"/>
<path d="M17.2777 20.4357C17.2386 19.3344 18.1399 18.4318 19.2907 18.4199C20.4416 18.4079 21.4062 19.291 21.4453 20.3923C21.4844 21.4937 20.5831 22.3962 19.4323 22.4082C18.2814 22.4201 17.3168 21.537 17.2777 20.4357Z" fill="url(#paint35_linear_283_1875)" fill-opacity="0.5"/>
<path d="M12.3447 18.4921C12.3057 17.3908 13.2069 16.4883 14.3578 16.4763C15.5086 16.4643 16.4733 17.3474 16.5123 18.4488C16.5514 19.5501 15.6502 20.4526 14.4993 20.4646C13.3485 20.4765 12.3838 19.5934 12.3447 18.4921Z" fill="url(#paint36_linear_283_1875)" fill-opacity="0.5"/>
<path d="M18.4074 13.1094C18.3684 12.0081 19.2696 11.1056 20.4205 11.0936C21.5713 11.0816 22.536 11.9647 22.5751 13.0661C22.6141 14.1674 21.7129 15.0699 20.562 15.0819C19.4112 15.0938 18.4465 14.2107 18.4074 13.1094Z" fill="url(#paint37_linear_283_1875)" fill-opacity="0.5"/>
<path d="M15.1467 19.1279C15.1077 18.0266 16.0089 17.1241 17.1598 17.1121C18.3106 17.1002 19.2753 17.9833 19.3143 19.0846C19.3534 20.1859 18.4521 21.0884 17.3013 21.1004C16.1504 21.1124 15.1858 20.2293 15.1467 19.1279Z" fill="url(#paint38_linear_283_1875)" fill-opacity="0.5"/>
<path d="M10.5785 14.0545C10.1883 15.6548 8.50796 16.6196 6.82533 16.2094C5.1427 15.7992 4.09496 14.1693 4.48513 12.5689C4.87529 10.9686 6.55563 10.0038 8.23826 10.414C9.92089 10.8242 10.9686 12.4541 10.5785 14.0545Z" fill="url(#paint39_linear_283_1875)" fill-opacity="0.5"/>
<path d="M12.1386 16.4815C11.7484 18.0818 10.0681 19.0466 8.38547 18.6364C6.70284 18.2262 5.65509 16.5963 6.04526 14.9959C6.43543 13.3955 8.11577 12.4308 9.7984 12.841C11.481 13.2512 12.5288 14.8811 12.1386 16.4815Z" fill="url(#paint40_linear_283_1875)" fill-opacity="0.5"/>
<path d="M14.2776 13.5919C13.8875 15.1923 12.2071 16.1571 10.5245 15.7468C8.84188 15.3366 7.79413 13.7067 8.1843 12.1064C8.57447 10.506 10.2548 9.54122 11.9374 9.95145C13.6201 10.3617 14.6678 11.9916 14.2776 13.5919Z" fill="url(#paint41_linear_283_1875)" fill-opacity="0.5"/>
<path d="M17.1919 16.349C16.8017 17.9494 15.1213 18.9142 13.4387 18.504C11.7561 18.0937 10.7083 16.4638 11.0985 14.8635C11.4887 13.2631 13.169 12.2983 14.8516 12.7086C16.5343 13.1188 17.582 14.7487 17.1919 16.349Z" fill="url(#paint42_linear_283_1875)" fill-opacity="0.5"/>
<path d="M16.7012 12.4773C16.4411 13.5442 15.3209 14.1874 14.1991 13.9139C13.0774 13.6404 12.3789 12.5538 12.639 11.4869C12.8991 10.42 14.0193 9.77682 15.1411 10.0503C16.2628 10.3238 16.9613 11.4104 16.7012 12.4773Z" fill="url(#paint43_linear_283_1875)" fill-opacity="0.5"/>
<path d="M20.9695 15.5645C20.7094 16.6314 19.5892 17.2746 18.4674 17.0011C17.3457 16.7277 16.6472 15.6411 16.9073 14.5742C17.1674 13.5073 18.2876 12.8641 19.4094 13.1375C20.5311 13.411 21.2296 14.4976 20.9695 15.5645Z" fill="url(#paint44_linear_283_1875)" fill-opacity="0.5"/>
<path d="M13.6202 19.2304C13.3601 20.2973 12.2399 20.9405 11.1182 20.667C9.9964 20.3935 9.2979 19.3069 9.55802 18.24C9.81813 17.1731 10.9384 16.53 12.0601 16.8034C13.1819 17.0769 13.8804 18.1635 13.6202 19.2304Z" fill="url(#paint45_linear_283_1875)" fill-opacity="0.5"/>
<path d="M18.4184 14.2603C18.1583 15.3272 17.038 15.9704 15.9163 15.697C14.7945 15.4235 14.096 14.3369 14.3561 13.27C14.6162 12.2031 15.7365 11.5599 16.8582 11.8334C17.98 12.1068 18.6785 13.1934 18.4184 14.2603Z" fill="url(#paint46_linear_283_1875)" fill-opacity="0.5"/>
<path d="M19.2553 17.4228C19.1967 15.7708 20.5486 14.417 22.2749 14.3991C24.0011 14.3811 25.4481 15.7058 25.5067 17.3578C25.5653 19.0098 24.2134 20.3636 22.4872 20.3815C20.7609 20.3995 19.3139 19.0748 19.2553 17.4228Z" fill="url(#paint47_linear_283_1875)" fill-opacity="0.5"/>
<path d="M17.1007 15.4503C17.0421 13.7983 18.394 12.4446 20.1203 12.4266C21.8466 12.4087 23.2935 13.7333 23.3522 15.3853C23.4108 17.0373 22.0589 18.3911 20.3326 18.409C18.6063 18.427 17.1594 17.1023 17.1007 15.4503Z" fill="url(#paint48_linear_283_1875)" fill-opacity="0.5"/>
<path d="M15.8295 18.7883C15.7709 17.1363 17.1228 15.7826 18.849 15.7646C20.5753 15.7467 22.0223 17.0713 22.0809 18.7233C22.1395 20.3753 20.7876 21.7291 19.0613 21.747C17.3351 21.765 15.8881 20.4403 15.8295 18.7883Z" fill="url(#paint49_linear_283_1875)" fill-opacity="0.5"/>
<path d="M12.2857 16.8303C12.2271 15.1783 13.579 13.8246 15.3053 13.8066C17.0316 13.7887 18.4785 15.1133 18.5371 16.7653C18.5957 18.4173 17.2438 19.7711 15.5176 19.789C13.7913 19.807 12.3443 18.4823 12.2857 16.8303Z" fill="url(#paint50_linear_283_1875)" fill-opacity="0.5"/>
<path d="M13.8046 20.4718C13.7656 19.3705 14.6668 18.468 15.8177 18.456C16.9685 18.444 17.9332 19.3271 17.9723 20.4285C18.0113 21.5298 17.1101 22.4323 15.9592 22.4443C14.8084 22.4562 13.8437 21.5731 13.8046 20.4718Z" fill="url(#paint51_linear_283_1875)" fill-opacity="0.5"/>
<path d="M8.87168 18.5282C8.8326 17.4269 9.73387 16.5244 10.8847 16.5124C12.0356 16.5004 13.0002 17.3835 13.0393 18.4849C13.0784 19.5862 12.1771 20.4887 11.0262 20.5007C9.87539 20.5127 8.91076 19.6295 8.87168 18.5282Z" fill="url(#paint52_linear_283_1875)" fill-opacity="0.5"/>
<path d="M14.9344 13.1455C14.8953 12.0442 15.7966 11.1417 16.9474 11.1297C18.0983 11.1177 19.0629 12.0008 19.102 13.1022C19.1411 14.2035 18.2398 15.106 17.089 15.118C15.9381 15.1299 14.9735 14.2468 14.9344 13.1455Z" fill="url(#paint53_linear_283_1875)" fill-opacity="0.5"/>
<path d="M11.6737 19.164C11.6346 18.0627 12.5359 17.1602 13.6867 17.1482C14.8376 17.1363 15.8022 18.0194 15.8413 19.1207C15.8804 20.222 14.9791 21.1245 13.8282 21.1365C12.6774 21.1485 11.7128 20.2654 11.6737 19.164Z" fill="url(#paint54_linear_283_1875)" fill-opacity="0.5"/>
</g>
<defs>
<filter id="filter0_f_283_1875" x="0" y="8.01335" width="30" height="15.4494" filterUnits="userSpaceOnUse" color-interpolation-filters="sRGB">
<feFlood flood-opacity="0" result="BackgroundImageFix"/>
<feBlend mode="normal" in="SourceGraphic" in2="BackgroundImageFix" result="shape"/>
<feGaussianBlur stdDeviation="0.5" result="effect1_foregroundBlur_283_1875"/>
</filter>
<linearGradient id="paint0_linear_283_1875" x1="9.00233" y1="6.9686" x2="9.27272" y2="8.86525" gradientUnits="userSpaceOnUse">
<stop stop-color="#D9D9D9" stop-opacity="0.23"/>
<stop offset="1" stop-color="white"/>
</linearGradient>
<linearGradient id="paint1_linear_283_1875" x1="11.9516" y1="6.04253" x2="12.1679" y2="7.55985" gradientUnits="userSpaceOnUse">
<stop stop-color="#D9D9D9" stop-opacity="0.23"/>
<stop offset="1" stop-color="white"/>
</linearGradient>
<linearGradient id="paint2_linear_283_1875" x1="12.615" y1="1.35655" x2="12.7772" y2="2.49454" gradientUnits="userSpaceOnUse">
<stop stop-color="#D9D9D9" stop-opacity="0.23"/>
<stop offset="1" stop-color="white"/>
</linearGradient>
<linearGradient id="paint3_linear_283_1875" x1="16.5969" y1="4.95244" x2="16.7051" y2="5.7111" gradientUnits="userSpaceOnUse">
<stop stop-color="#D9D9D9" stop-opacity="0.23"/>
<stop offset="1" stop-color="white"/>
</linearGradient>
<linearGradient id="paint4_linear_283_1875" x1="10.8455" y1="10.1306" x2="11.1699" y2="12.4066" gradientUnits="userSpaceOnUse">
<stop stop-color="#D9D9D9" stop-opacity="0.23"/>
<stop offset="1" stop-color="white"/>
</linearGradient>
<linearGradient id="paint5_linear_283_1875" x1="14.876" y1="11.1132" x2="15.2005" y2="13.3892" gradientUnits="userSpaceOnUse">
<stop stop-color="#D9D9D9" stop-opacity="0.23"/>
<stop offset="1" stop-color="white"/>
</linearGradient>
<linearGradient id="paint6_linear_283_1875" x1="14.1639" y1="8.13942" x2="14.3262" y2="9.27741" gradientUnits="userSpaceOnUse">
<stop stop-color="#D9D9D9" stop-opacity="0.23"/>
<stop offset="1" stop-color="white"/>
</linearGradient>
<linearGradient id="paint7_linear_283_1875" x1="4.9968" y1="10.2622" x2="5.26719" y2="12.1589" gradientUnits="userSpaceOnUse">
<stop stop-color="#D9D9D9" stop-opacity="0.23"/>
<stop offset="1" stop-color="white"/>
</linearGradient>
<linearGradient id="paint8_linear_283_1875" x1="7.94605" y1="9.33604" x2="8.16236" y2="10.8534" gradientUnits="userSpaceOnUse">
<stop stop-color="#D9D9D9" stop-opacity="0.23"/>
<stop offset="1" stop-color="white"/>
</linearGradient>
<linearGradient id="paint9_linear_283_1875" x1="6.83993" y1="13.4241" x2="7.1644" y2="15.7001" gradientUnits="userSpaceOnUse">
<stop stop-color="#D9D9D9" stop-opacity="0.23"/>
<stop offset="1" stop-color="white"/>
</linearGradient>
<linearGradient id="paint10_linear_283_1875" x1="10.8705" y1="14.4068" x2="11.1949" y2="16.6828" gradientUnits="userSpaceOnUse">
<stop stop-color="#D9D9D9" stop-opacity="0.23"/>
<stop offset="1" stop-color="white"/>
</linearGradient>
<linearGradient id="paint11_linear_283_1875" x1="10.1584" y1="11.4329" x2="10.3206" y2="12.5709" gradientUnits="userSpaceOnUse">
<stop stop-color="#D9D9D9" stop-opacity="0.23"/>
<stop offset="1" stop-color="white"/>
</linearGradient>
<linearGradient id="paint12_linear_283_1875" x1="18.3234" y1="12.0617" x2="18.5938" y2="13.9584" gradientUnits="userSpaceOnUse">
<stop stop-color="#D9D9D9" stop-opacity="0.23"/>
<stop offset="1" stop-color="white"/>
</linearGradient>
<linearGradient id="paint13_linear_283_1875" x1="20.978" y1="10.4772" x2="21.1944" y2="11.9945" gradientUnits="userSpaceOnUse">
<stop stop-color="#D9D9D9" stop-opacity="0.23"/>
<stop offset="1" stop-color="white"/>
</linearGradient>
<linearGradient id="paint14_linear_283_1875" x1="20.5212" y1="5.78123" x2="20.6834" y2="6.91922" gradientUnits="userSpaceOnUse">
<stop stop-color="#D9D9D9" stop-opacity="0.23"/>
<stop offset="1" stop-color="white"/>
</linearGradient>
<linearGradient id="paint15_linear_283_1875" x1="20.8546" y1="14.6834" x2="21.1791" y2="16.9594" gradientUnits="userSpaceOnUse">
<stop stop-color="#D9D9D9" stop-opacity="0.23"/>
<stop offset="1" stop-color="white"/>
</linearGradient>
<linearGradient id="paint16_linear_283_1875" x1="25.0032" y1="14.6834" x2="25.3276" y2="16.9594" gradientUnits="userSpaceOnUse">
<stop stop-color="#D9D9D9" stop-opacity="0.23"/>
<stop offset="1" stop-color="white"/>
</linearGradient>
<linearGradient id="paint17_linear_283_1875" x1="23.6326" y1="12.0041" x2="23.7949" y2="13.1421" gradientUnits="userSpaceOnUse">
<stop stop-color="#D9D9D9" stop-opacity="0.23"/>
<stop offset="1" stop-color="white"/>
</linearGradient>
<linearGradient id="paint18_linear_283_1875" x1="15.212" y1="16.2103" x2="15.4824" y2="18.107" gradientUnits="userSpaceOnUse">
<stop stop-color="#D9D9D9" stop-opacity="0.23"/>
<stop offset="1" stop-color="white"/>
</linearGradient>
<linearGradient id="paint19_linear_283_1875" x1="17.8666" y1="14.6258" x2="18.0829" y2="16.1431" gradientUnits="userSpaceOnUse">
<stop stop-color="#D9D9D9" stop-opacity="0.23"/>
<stop offset="1" stop-color="white"/>
</linearGradient>
<linearGradient id="paint20_linear_283_1875" x1="17.7431" y1="18.832" x2="18.0676" y2="21.108" gradientUnits="userSpaceOnUse">
<stop stop-color="#D9D9D9" stop-opacity="0.23"/>
<stop offset="1" stop-color="white"/>
</linearGradient>
<linearGradient id="paint21_linear_283_1875" x1="21.8917" y1="18.832" x2="22.2162" y2="21.108" gradientUnits="userSpaceOnUse">
<stop stop-color="#D9D9D9" stop-opacity="0.23"/>
<stop offset="1" stop-color="white"/>
</linearGradient>
<linearGradient id="paint22_linear_283_1875" x1="20.5212" y1="16.1527" x2="20.6834" y2="17.2907" gradientUnits="userSpaceOnUse">
<stop stop-color="#D9D9D9" stop-opacity="0.23"/>
<stop offset="1" stop-color="white"/>
</linearGradient>
<linearGradient id="paint23_linear_283_1875" x1="16.2016" y1="9.99478" x2="13.3069" y2="21.8679" gradientUnits="userSpaceOnUse">
<stop stop-color="#F4FAFF"/>
<stop offset="1" stop-color="white" stop-opacity="0"/>
</linearGradient>
<linearGradient id="paint24_linear_283_1875" x1="16.2016" y1="9.99478" x2="13.3069" y2="21.8679" gradientUnits="userSpaceOnUse">
<stop stop-color="#F4FAFF"/>
<stop offset="1" stop-color="white" stop-opacity="0"/>
</linearGradient>
<linearGradient id="paint25_linear_283_1875" x1="16.2016" y1="9.99478" x2="13.3069" y2="21.8679" gradientUnits="userSpaceOnUse">
<stop stop-color="#F4FAFF"/>
<stop offset="1" stop-color="white" stop-opacity="0"/>
</linearGradient>
<linearGradient id="paint26_linear_283_1875" x1="16.2016" y1="9.99478" x2="13.3069" y2="21.8679" gradientUnits="userSpaceOnUse">
<stop stop-color="#F4FAFF"/>
<stop offset="1" stop-color="white" stop-opacity="0"/>
</linearGradient>
<linearGradient id="paint27_linear_283_1875" x1="16.2016" y1="9.99478" x2="13.3069" y2="21.8679" gradientUnits="userSpaceOnUse">
<stop stop-color="#F4FAFF"/>
<stop offset="1" stop-color="white" stop-opacity="0"/>
</linearGradient>
<linearGradient id="paint28_linear_283_1875" x1="16.2016" y1="9.99478" x2="13.3069" y2="21.8679" gradientUnits="userSpaceOnUse">
<stop stop-color="#F4FAFF"/>
<stop offset="1" stop-color="white" stop-opacity="0"/>
</linearGradient>
<linearGradient id="paint29_linear_283_1875" x1="16.2016" y1="9.99478" x2="13.3069" y2="21.8679" gradientUnits="userSpaceOnUse">
<stop stop-color="#F4FAFF"/>
<stop offset="1" stop-color="white" stop-opacity="0"/>
</linearGradient>
<linearGradient id="paint30_linear_283_1875" x1="16.2016" y1="9.99478" x2="13.3069" y2="21.8679" gradientUnits="userSpaceOnUse">
<stop stop-color="#F4FAFF"/>
<stop offset="1" stop-color="white" stop-opacity="0"/>
</linearGradient>
<linearGradient id="paint31_linear_283_1875" x1="16.2016" y1="9.99478" x2="13.3069" y2="21.8679" gradientUnits="userSpaceOnUse">
<stop stop-color="#F4FAFF"/>
<stop offset="1" stop-color="white" stop-opacity="0"/>
</linearGradient>
<linearGradient id="paint32_linear_283_1875" x1="16.2016" y1="9.99478" x2="13.3069" y2="21.8679" gradientUnits="userSpaceOnUse">
<stop stop-color="#F4FAFF"/>
<stop offset="1" stop-color="white" stop-opacity="0"/>
</linearGradient>
<linearGradient id="paint33_linear_283_1875" x1="16.2016" y1="9.99478" x2="13.3069" y2="21.8679" gradientUnits="userSpaceOnUse">
<stop stop-color="#F4FAFF"/>
<stop offset="1" stop-color="white" stop-opacity="0"/>
</linearGradient>
<linearGradient id="paint34_linear_283_1875" x1="16.2016" y1="9.99478" x2="13.3069" y2="21.8679" gradientUnits="userSpaceOnUse">
<stop stop-color="#F4FAFF"/>
<stop offset="1" stop-color="white" stop-opacity="0"/>
</linearGradient>
<linearGradient id="paint35_linear_283_1875" x1="16.2016" y1="9.99478" x2="13.3069" y2="21.8679" gradientUnits="userSpaceOnUse">
<stop stop-color="#F4FAFF"/>
<stop offset="1" stop-color="white" stop-opacity="0"/>
</linearGradient>
<linearGradient id="paint36_linear_283_1875" x1="16.2016" y1="9.99478" x2="13.3069" y2="21.8679" gradientUnits="userSpaceOnUse">
<stop stop-color="#F4FAFF"/>
<stop offset="1" stop-color="white" stop-opacity="0"/>
</linearGradient>
<linearGradient id="paint37_linear_283_1875" x1="16.2016" y1="9.99478" x2="13.3069" y2="21.8679" gradientUnits="userSpaceOnUse">
<stop stop-color="#F4FAFF"/>
<stop offset="1" stop-color="white" stop-opacity="0"/>
</linearGradient>
<linearGradient id="paint38_linear_283_1875" x1="16.2016" y1="9.99478" x2="13.3069" y2="21.8679" gradientUnits="userSpaceOnUse">
<stop stop-color="#F4FAFF"/>
<stop offset="1" stop-color="white" stop-opacity="0"/>
</linearGradient>
<linearGradient id="paint39_linear_283_1875" x1="16.2016" y1="9.99478" x2="13.3069" y2="21.8679" gradientUnits="userSpaceOnUse">
<stop stop-color="#F4FAFF"/>
<stop offset="1" stop-color="white" stop-opacity="0"/>
</linearGradient>
<linearGradient id="paint40_linear_283_1875" x1="16.2016" y1="9.99478" x2="13.3069" y2="21.8679" gradientUnits="userSpaceOnUse">
<stop stop-color="#F4FAFF"/>
<stop offset="1" stop-color="white" stop-opacity="0"/>
</linearGradient>
<linearGradient id="paint41_linear_283_1875" x1="16.2016" y1="9.99478" x2="13.3069" y2="21.8679" gradientUnits="userSpaceOnUse">
<stop stop-color="#F4FAFF"/>
<stop offset="1" stop-color="white" stop-opacity="0"/>
</linearGradient>
<linearGradient id="paint42_linear_283_1875" x1="16.2016" y1="9.99478" x2="13.3069" y2="21.8679" gradientUnits="userSpaceOnUse">
<stop stop-color="#F4FAFF"/>
<stop offset="1" stop-color="white" stop-opacity="0"/>
</linearGradient>
<linearGradient id="paint43_linear_283_1875" x1="16.2016" y1="9.99478" x2="13.3069" y2="21.8679" gradientUnits="userSpaceOnUse">
<stop stop-color="#F4FAFF"/>
<stop offset="1" stop-color="white" stop-opacity="0"/>
</linearGradient>
<linearGradient id="paint44_linear_283_1875" x1="16.2016" y1="9.99478" x2="13.3069" y2="21.8679" gradientUnits="userSpaceOnUse">
<stop stop-color="#F4FAFF"/>
<stop offset="1" stop-color="white" stop-opacity="0"/>
</linearGradient>
<linearGradient id="paint45_linear_283_1875" x1="16.2016" y1="9.99478" x2="13.3069" y2="21.8679" gradientUnits="userSpaceOnUse">
<stop stop-color="#F4FAFF"/>
<stop offset="1" stop-color="white" stop-opacity="0"/>
</linearGradient>
<linearGradient id="paint46_linear_283_1875" x1="16.2016" y1="9.99478" x2="13.3069" y2="21.8679" gradientUnits="userSpaceOnUse">
<stop stop-color="#F4FAFF"/>
<stop offset="1" stop-color="white" stop-opacity="0"/>
</linearGradient>
<linearGradient id="paint47_linear_283_1875" x1="16.2016" y1="9.99478" x2="13.3069" y2="21.8679" gradientUnits="userSpaceOnUse">
<stop stop-color="#F4FAFF"/>
<stop offset="1" stop-color="white" stop-opacity="0"/>
</linearGradient>
<linearGradient id="paint48_linear_283_1875" x1="16.2016" y1="9.99478" x2="13.3069" y2="21.8679" gradientUnits="userSpaceOnUse">
<stop stop-color="#F4FAFF"/>
<stop offset="1" stop-color="white" stop-opacity="0"/>
</linearGradient>
<linearGradient id="paint49_linear_283_1875" x1="16.2016" y1="9.99478" x2="13.3069" y2="21.8679" gradientUnits="userSpaceOnUse">
<stop stop-color="#F4FAFF"/>
<stop offset="1" stop-color="white" stop-opacity="0"/>
</linearGradient>
<linearGradient id="paint50_linear_283_1875" x1="16.2016" y1="9.99478" x2="13.3069" y2="21.8679" gradientUnits="userSpaceOnUse">
<stop stop-color="#F4FAFF"/>
<stop offset="1" stop-color="white" stop-opacity="0"/>
</linearGradient>
<linearGradient id="paint51_linear_283_1875" x1="16.2016" y1="9.99478" x2="13.3069" y2="21.8679" gradientUnits="userSpaceOnUse">
<stop stop-color="#F4FAFF"/>
<stop offset="1" stop-color="white" stop-opacity="0"/>
</linearGradient>
<linearGradient id="paint52_linear_283_1875" x1="16.2016" y1="9.99478" x2="13.3069" y2="21.8679" gradientUnits="userSpaceOnUse">
<stop stop-color="#F4FAFF"/>
<stop offset="1" stop-color="white" stop-opacity="0"/>
</linearGradient>
<linearGradient id="paint53_linear_283_1875" x1="16.2016" y1="9.99478" x2="13.3069" y2="21.8679" gradientUnits="userSpaceOnUse">
<stop stop-color="#F4FAFF"/>
<stop offset="1" stop-color="white" stop-opacity="0"/>
</linearGradient>
<linearGradient id="paint54_linear_283_1875" x1="16.2016" y1="9.99478" x2="13.3069" y2="21.8679" gradientUnits="userSpaceOnUse">
<stop stop-color="#F4FAFF"/>
<stop offset="1" stop-color="white" stop-opacity="0"/>
</linearGradient>
</defs>
</svg>
