<svg width="37" height="37" viewBox="0 0 37 37" fill="none" xmlns="http://www.w3.org/2000/svg">
<path opacity="0.047619" d="M37 18.7079C37 28.6854 28.6854 37 18.7079 37C8.31461 37 0 28.6854 0 18.7079C0 8.31461 8.31461 0 18.7079 0C28.6854 0 37 8.31461 37 18.7079Z" fill="url(#paint0_radial_283_2914)"/>
<path opacity="0.0952381" d="M36.5843 18.7079C36.5843 28.6854 28.2697 37.0001 18.2921 37.0001C8.31461 37.0001 0 28.6854 0 18.7079C0 8.73038 8.31461 0.41577 18.2921 0.41577C28.6854 0.41577 36.5843 8.31465 36.5843 18.7079Z" fill="url(#paint1_radial_283_2914)"/>
<path opacity="0.1429" d="M36.5842 18.7079C36.5842 28.6855 28.6854 36.5844 18.7078 36.5844C8.7303 36.5844 0.831414 28.6855 0.831414 18.7079C0.831414 8.73041 8.7303 0.831532 18.7078 0.831532C28.6854 0.415802 36.5842 8.73041 36.5842 18.7079Z" fill="url(#paint2_radial_283_2914)"/>
<path opacity="0.1905" d="M36.169 18.708C36.169 28.6855 28.2701 36.5844 18.2926 36.5844C8.31502 36.5844 0.416143 28.6855 0.416143 18.708C0.416143 8.73042 8.31502 0.831539 18.2926 0.831539C28.2701 0.831539 36.169 8.73042 36.169 18.708Z" fill="url(#paint3_radial_283_2914)"/>
<path opacity="0.2381" d="M36.1689 18.2922C36.1689 27.854 28.27 35.7529 18.7082 35.7529C9.14644 35.7529 1.24756 27.854 1.24756 18.2922C1.24756 8.73042 9.14644 0.831539 18.7082 0.831539C28.27 0.831539 36.1689 8.73042 36.1689 18.2922Z" fill="url(#paint4_radial_283_2914)"/>
<path opacity="0.2857" d="M36.1689 18.2922C36.1689 27.854 28.27 35.7529 18.7082 35.7529C9.14644 35.7529 1.24756 27.854 1.24756 18.2922C1.24756 8.73042 9.14644 0.831539 18.7082 0.831539C28.27 1.24727 36.1689 8.73042 36.1689 18.2922Z" fill="url(#paint5_radial_283_2914)"/>
<path opacity="0.3333" d="M35.7524 18.2921C35.7524 27.8539 27.8535 35.3371 18.7074 35.3371C9.1456 35.3371 1.66246 27.4382 1.66246 18.2921C1.66246 8.73033 9.56134 1.24718 18.7074 1.24718C28.2692 1.24718 35.7524 9.14606 35.7524 18.2921Z" fill="url(#paint6_radial_283_2914)"/>
<path opacity="0.381" d="M35.7524 18.2921C35.7524 27.8539 28.2692 35.3371 18.7074 35.3371C9.1456 35.3371 1.66246 27.8539 1.66246 18.2921C1.66246 8.73033 9.1456 1.24718 18.7074 1.24718C27.8535 1.24718 35.7524 9.14606 35.7524 18.2921Z" fill="url(#paint7_radial_283_2914)"/>
<path opacity="0.4286" d="M35.3375 18.2921C35.3375 27.4382 27.8543 35.3371 18.2925 35.3371C9.14644 35.3371 1.24756 27.8539 1.24756 18.2921C1.24756 9.14606 8.73071 1.24718 18.2925 1.24718C27.8543 1.66291 35.3375 9.14606 35.3375 18.2921Z" fill="url(#paint8_radial_283_2914)"/>
<path opacity="0.4762" d="M35.3373 18.2921C35.3373 27.4381 27.8541 34.9213 18.7081 34.9213C9.562 34.9213 2.07885 27.4381 2.07885 18.2921C2.07885 9.14598 9.562 1.66283 18.7081 1.66283C27.8541 1.66283 35.3373 9.14598 35.3373 18.2921Z" fill="url(#paint9_radial_283_2914)"/>
<path opacity="0.5238" d="M34.9209 18.2921C34.9209 27.4381 27.4378 34.9213 18.2917 34.9213C9.1456 34.9213 1.66246 27.4381 1.66246 18.2921C1.66246 9.14598 9.1456 1.66283 18.2917 1.66283C27.8535 2.07856 34.9209 9.14598 34.9209 18.2921Z" fill="url(#paint10_radial_283_2914)"/>
<path opacity="0.5714" d="M34.9217 18.2921C34.9217 27.4382 27.4386 34.5056 18.7082 34.5056C9.56216 34.5056 2.49474 27.0224 2.49474 18.2921C2.49474 9.14602 9.97789 2.0786 18.7082 2.0786C27.4386 2.0786 34.9217 9.56175 34.9217 18.2921Z" fill="url(#paint11_radial_283_2914)"/>
<path opacity="0.619" d="M34.5058 18.2921C34.5058 27.0224 27.4384 34.5056 18.2923 34.5056C9.562 34.5056 2.07885 27.4382 2.07885 18.2921C2.07885 9.56175 9.14627 2.0786 18.2923 2.0786C27.4384 2.49433 34.5058 9.56175 34.5058 18.2921Z" fill="url(#paint12_radial_283_2914)"/>
<path opacity="0.6667" d="M34.5054 18.2921C34.5054 27.0225 27.438 34.0899 18.7076 34.0899C9.97731 34.0899 2.90989 27.0225 2.90989 18.2921C2.90989 9.56179 9.97731 2.49437 18.7076 2.49437C27.438 2.49437 34.5054 9.56179 34.5054 18.2921Z" fill="url(#paint13_radial_283_2914)"/>
<path opacity="0.7143" d="M34.0903 18.2921C34.0903 27.0225 27.0228 34.0899 18.2925 34.0899C9.56216 34.0899 2.49474 27.0225 2.49474 18.2921C2.49474 9.56179 9.56216 2.49437 18.2925 2.49437C27.4386 2.49437 34.0903 9.56179 34.0903 18.2921Z" fill="url(#paint14_radial_283_2914)"/>
<path opacity="0.7619" d="M34.0898 18.2922C34.0898 27.0225 27.0224 33.6742 18.7078 33.6742C9.97747 33.6742 3.32578 26.6068 3.32578 18.2922C3.32578 9.56183 10.3932 2.91014 18.7078 2.91014C27.0224 2.91014 34.0898 9.97756 34.0898 18.2922Z" fill="url(#paint15_radial_283_2914)"/>
<path opacity="0.8095" d="M34.0898 18.2922C34.0898 26.6068 27.0224 33.6742 18.7078 33.6742C10.3932 33.6742 3.32578 26.6068 3.32578 18.2922C3.32578 9.97756 10.3932 2.91014 18.7078 2.91014C27.0224 2.91014 34.0898 9.97756 34.0898 18.2922Z" fill="url(#paint16_radial_283_2914)"/>
<path opacity="0.8571" d="M33.674 18.2922C33.674 26.6068 27.0223 33.6742 18.2919 33.6742C9.97731 33.6742 2.90989 27.0225 2.90989 18.2922C2.90989 9.97756 9.56158 2.91014 18.2919 2.91014C27.0223 3.32587 33.674 9.97756 33.674 18.2922Z" fill="url(#paint17_radial_283_2914)"/>
<path opacity="0.9048" d="M33.6737 18.2921C33.6737 26.6067 27.022 33.2584 18.7074 33.2584C10.3927 33.2584 3.74105 26.6067 3.74105 18.2921C3.74105 9.97747 10.3927 3.32578 18.7074 3.32578C27.022 3.32578 33.6737 9.97747 33.6737 18.2921Z" fill="url(#paint18_radial_283_2914)"/>
<path opacity="0.9524" d="M33.2579 18.2921C33.2579 26.6067 26.6062 33.2584 18.7074 33.2584C10.3927 33.2584 3.74105 26.6067 3.74105 18.2921C3.74105 9.97747 10.3927 3.32578 18.7074 3.32578C26.6062 3.32578 33.2579 9.97747 33.2579 18.2921Z" fill="url(#paint19_radial_283_2914)"/>
<path d="M33.2583 18.2921C33.2583 26.191 26.6066 32.8427 18.7078 32.8427C10.8089 32.8427 4.1572 26.191 4.1572 18.2921C4.1572 10.3932 10.8089 3.74155 18.7078 3.74155C26.6066 3.74155 33.2583 10.3932 33.2583 18.2921Z" fill="url(#paint20_radial_283_2914)"/>
<defs>
<radialGradient id="paint0_radial_283_2914" cx="0" cy="0" r="1" gradientUnits="userSpaceOnUse" gradientTransform="translate(18.527 17.7563) scale(19.0055)">
<stop offset="0.1953" stop-color="#FFFF79"/>
<stop offset="0.4045" stop-color="#FFE642"/>
<stop offset="0.5501" stop-color="#FFD621"/>
<stop offset="0.6363" stop-color="#FFC618"/>
<stop offset="0.8233" stop-color="#FFA707"/>
<stop offset="0.9286" stop-color="#FF9C00"/>
</radialGradient>
<radialGradient id="paint1_radial_283_2914" cx="0" cy="0" r="1" gradientUnits="userSpaceOnUse" gradientTransform="translate(18.5017 16.9768) scale(19.4628 19.4628)">
<stop offset="0.1953" stop-color="#FFFF79"/>
<stop offset="0.4045" stop-color="#FFE642"/>
<stop offset="0.5501" stop-color="#FFD621"/>
<stop offset="0.6363" stop-color="#FFC618"/>
<stop offset="0.8233" stop-color="#FFA707"/>
<stop offset="0.9286" stop-color="#FF9C00"/>
</radialGradient>
<radialGradient id="paint2_radial_283_2914" cx="0" cy="0" r="1" gradientUnits="userSpaceOnUse" gradientTransform="translate(18.4767 16.2136) scale(19.9243)">
<stop offset="0.1953" stop-color="#FFFF79"/>
<stop offset="0.4045" stop-color="#FFE642"/>
<stop offset="0.5501" stop-color="#FFD621"/>
<stop offset="0.6363" stop-color="#FFC618"/>
<stop offset="0.8233" stop-color="#FFA707"/>
<stop offset="0.9286" stop-color="#FF9C00"/>
</radialGradient>
<radialGradient id="paint3_radial_283_2914" cx="0" cy="0" r="1" gradientUnits="userSpaceOnUse" gradientTransform="translate(18.453 15.4665) scale(20.3887 20.3887)">
<stop offset="0.1953" stop-color="#FFFF79"/>
<stop offset="0.4045" stop-color="#FFE642"/>
<stop offset="0.5501" stop-color="#FFD621"/>
<stop offset="0.6363" stop-color="#FFC618"/>
<stop offset="0.8233" stop-color="#FFA707"/>
<stop offset="0.9286" stop-color="#FF9C00"/>
</radialGradient>
<radialGradient id="paint4_radial_283_2914" cx="0" cy="0" r="1" gradientUnits="userSpaceOnUse" gradientTransform="translate(18.4293 14.7352) scale(20.8551 20.8551)">
<stop offset="0.1953" stop-color="#FFFF79"/>
<stop offset="0.4045" stop-color="#FFE642"/>
<stop offset="0.5501" stop-color="#FFD621"/>
<stop offset="0.6363" stop-color="#FFC618"/>
<stop offset="0.8233" stop-color="#FFA707"/>
<stop offset="0.9286" stop-color="#FF9C00"/>
</radialGradient>
<radialGradient id="paint5_radial_283_2914" cx="0" cy="0" r="1" gradientUnits="userSpaceOnUse" gradientTransform="translate(18.4064 14.0198) scale(21.3228 21.3228)">
<stop offset="0.1953" stop-color="#FFFF79"/>
<stop offset="0.4045" stop-color="#FFE642"/>
<stop offset="0.5501" stop-color="#FFD621"/>
<stop offset="0.6363" stop-color="#FFC618"/>
<stop offset="0.8233" stop-color="#FFA707"/>
<stop offset="0.9286" stop-color="#FF9C00"/>
</radialGradient>
<radialGradient id="paint6_radial_283_2914" cx="0" cy="0" r="1" gradientUnits="userSpaceOnUse" gradientTransform="translate(18.3827 13.3204) scale(21.7914 21.7913)">
<stop offset="0.1953" stop-color="#FFFF79"/>
<stop offset="0.4045" stop-color="#FFE642"/>
<stop offset="0.5501" stop-color="#FFD621"/>
<stop offset="0.6363" stop-color="#FFC618"/>
<stop offset="0.8233" stop-color="#FFA707"/>
<stop offset="0.9286" stop-color="#FF9C00"/>
</radialGradient>
<radialGradient id="paint7_radial_283_2914" cx="0" cy="0" r="1" gradientUnits="userSpaceOnUse" gradientTransform="translate(18.3607 12.637) scale(22.2603 22.2603)">
<stop offset="0.1953" stop-color="#FFFF79"/>
<stop offset="0.4045" stop-color="#FFE642"/>
<stop offset="0.5501" stop-color="#FFD621"/>
<stop offset="0.6363" stop-color="#FFC618"/>
<stop offset="0.8233" stop-color="#FFA707"/>
<stop offset="0.9286" stop-color="#FF9C00"/>
</radialGradient>
<radialGradient id="paint8_radial_283_2914" cx="0" cy="0" r="1" gradientUnits="userSpaceOnUse" gradientTransform="translate(18.3399 11.9697) scale(22.7288)">
<stop offset="0.1953" stop-color="#FFFF79"/>
<stop offset="0.4045" stop-color="#FFE642"/>
<stop offset="0.5501" stop-color="#FFD621"/>
<stop offset="0.6363" stop-color="#FFC618"/>
<stop offset="0.8233" stop-color="#FFA707"/>
<stop offset="0.9286" stop-color="#FF9C00"/>
</radialGradient>
<radialGradient id="paint9_radial_283_2914" cx="0" cy="0" r="1" gradientUnits="userSpaceOnUse" gradientTransform="translate(18.3189 11.3182) scale(23.1961 23.1961)">
<stop offset="0.1953" stop-color="#FFFF79"/>
<stop offset="0.4045" stop-color="#FFE642"/>
<stop offset="0.5501" stop-color="#FFD621"/>
<stop offset="0.6363" stop-color="#FFC618"/>
<stop offset="0.8233" stop-color="#FFA707"/>
<stop offset="0.9286" stop-color="#FF9C00"/>
</radialGradient>
<radialGradient id="paint10_radial_283_2914" cx="0" cy="0" r="1" gradientUnits="userSpaceOnUse" gradientTransform="translate(18.2975 10.6829) scale(23.6617)">
<stop offset="0.1953" stop-color="#FFFF79"/>
<stop offset="0.4045" stop-color="#FFE642"/>
<stop offset="0.5501" stop-color="#FFD621"/>
<stop offset="0.6363" stop-color="#FFC618"/>
<stop offset="0.8233" stop-color="#FFA707"/>
<stop offset="0.9286" stop-color="#FF9C00"/>
</radialGradient>
<radialGradient id="paint11_radial_283_2914" cx="0" cy="0" r="1" gradientUnits="userSpaceOnUse" gradientTransform="translate(18.2784 10.0635) scale(24.1248)">
<stop offset="0.1953" stop-color="#FFFF79"/>
<stop offset="0.4045" stop-color="#FFE642"/>
<stop offset="0.5501" stop-color="#FFD621"/>
<stop offset="0.6363" stop-color="#FFC618"/>
<stop offset="0.8233" stop-color="#FFA707"/>
<stop offset="0.9286" stop-color="#FF9C00"/>
</radialGradient>
<radialGradient id="paint12_radial_283_2914" cx="0" cy="0" r="1" gradientUnits="userSpaceOnUse" gradientTransform="translate(18.2591 9.46031) scale(24.5851)">
<stop offset="0.1953" stop-color="#FFFF79"/>
<stop offset="0.4045" stop-color="#FFE642"/>
<stop offset="0.5501" stop-color="#FFD621"/>
<stop offset="0.6363" stop-color="#FFC618"/>
<stop offset="0.8233" stop-color="#FFA707"/>
<stop offset="0.9286" stop-color="#FF9C00"/>
</radialGradient>
<radialGradient id="paint13_radial_283_2914" cx="0" cy="0" r="1" gradientUnits="userSpaceOnUse" gradientTransform="translate(18.2395 8.87292) scale(25.0419)">
<stop offset="0.1953" stop-color="#FFFF79"/>
<stop offset="0.4045" stop-color="#FFE642"/>
<stop offset="0.5501" stop-color="#FFD621"/>
<stop offset="0.6363" stop-color="#FFC618"/>
<stop offset="0.8233" stop-color="#FFA707"/>
<stop offset="0.9286" stop-color="#FF9C00"/>
</radialGradient>
<radialGradient id="paint14_radial_283_2914" cx="0" cy="0" r="1" gradientUnits="userSpaceOnUse" gradientTransform="translate(18.2218 8.30129) scale(25.4947)">
<stop offset="0.1953" stop-color="#FFFF79"/>
<stop offset="0.4045" stop-color="#FFE642"/>
<stop offset="0.5501" stop-color="#FFD621"/>
<stop offset="0.6363" stop-color="#FFC618"/>
<stop offset="0.8233" stop-color="#FFA707"/>
<stop offset="0.9286" stop-color="#FF9C00"/>
</radialGradient>
<radialGradient id="paint15_radial_283_2914" cx="0" cy="0" r="1" gradientUnits="userSpaceOnUse" gradientTransform="translate(18.2035 7.74592) scale(25.9428 25.9428)">
<stop offset="0.1953" stop-color="#FFFF79"/>
<stop offset="0.4045" stop-color="#FFE642"/>
<stop offset="0.5501" stop-color="#FFD621"/>
<stop offset="0.6363" stop-color="#FFC618"/>
<stop offset="0.8233" stop-color="#FFA707"/>
<stop offset="0.9286" stop-color="#FF9C00"/>
</radialGradient>
<radialGradient id="paint16_radial_283_2914" cx="0" cy="0" r="1" gradientUnits="userSpaceOnUse" gradientTransform="translate(18.1861 7.20671) scale(26.3856 26.3856)">
<stop offset="0.1953" stop-color="#FFFF79"/>
<stop offset="0.4045" stop-color="#FFE642"/>
<stop offset="0.5501" stop-color="#FFD621"/>
<stop offset="0.6363" stop-color="#FFC618"/>
<stop offset="0.8233" stop-color="#FFA707"/>
<stop offset="0.9286" stop-color="#FF9C00"/>
</radialGradient>
<radialGradient id="paint17_radial_283_2914" cx="0" cy="0" r="1" gradientUnits="userSpaceOnUse" gradientTransform="translate(18.1693 6.68331) scale(26.8229)">
<stop offset="0.1953" stop-color="#FFFF79"/>
<stop offset="0.4045" stop-color="#FFE642"/>
<stop offset="0.5501" stop-color="#FFD621"/>
<stop offset="0.6363" stop-color="#FFC618"/>
<stop offset="0.8233" stop-color="#FFA707"/>
<stop offset="0.9286" stop-color="#FF9C00"/>
</radialGradient>
<radialGradient id="paint18_radial_283_2914" cx="0" cy="0" r="1" gradientUnits="userSpaceOnUse" gradientTransform="translate(18.1524 6.17562) scale(27.254 27.254)">
<stop offset="0.1953" stop-color="#FFFF79"/>
<stop offset="0.4045" stop-color="#FFE642"/>
<stop offset="0.5501" stop-color="#FFD621"/>
<stop offset="0.6363" stop-color="#FFC618"/>
<stop offset="0.8233" stop-color="#FFA707"/>
<stop offset="0.9286" stop-color="#FF9C00"/>
</radialGradient>
<radialGradient id="paint19_radial_283_2914" cx="0" cy="0" r="1" gradientUnits="userSpaceOnUse" gradientTransform="translate(18.1366 5.68422) scale(27.6781)">
<stop offset="0.1953" stop-color="#FFFF79"/>
<stop offset="0.4045" stop-color="#FFE642"/>
<stop offset="0.5501" stop-color="#FFD621"/>
<stop offset="0.6363" stop-color="#FFC618"/>
<stop offset="0.8233" stop-color="#FFA707"/>
<stop offset="0.9286" stop-color="#FF9C00"/>
</radialGradient>
<radialGradient id="paint20_radial_283_2914" cx="0" cy="0" r="1" gradientUnits="userSpaceOnUse" gradientTransform="translate(18.122 5.20866) scale(28.0951)">
<stop offset="0.1953" stop-color="#FFFF79"/>
<stop offset="0.4045" stop-color="#FFE642"/>
<stop offset="0.5501" stop-color="#FFD621"/>
<stop offset="0.6363" stop-color="#FFC618"/>
<stop offset="0.8233" stop-color="#FFA707"/>
<stop offset="0.9286" stop-color="#FF9C00"/>
</radialGradient>
</defs>
</svg>
