<svg width="30" height="22" viewBox="0 0 30 22" fill="none" xmlns="http://www.w3.org/2000/svg">
<circle cx="7.5" cy="7.22505" r="2.04124" transform="rotate(165 7.5 7.22505)" fill="url(#paint0_linear_82_6470)"/>
<circle r="0.383716" transform="matrix(0.965926 -0.258819 -0.258819 -0.965926 8.08346 6.13214)" fill="white"/>
<circle r="0.216617" transform="matrix(0.965926 -0.258819 -0.258819 -0.965926 8.20163 6.86461)" fill="white"/>
<circle cx="10" cy="5.72505" r="1.63299" transform="rotate(165 10 5.72505)" fill="url(#paint1_linear_82_6470)"/>
<circle r="0.306973" transform="matrix(0.965926 -0.258819 -0.258819 -0.965926 10.4668 4.85072)" fill="white"/>
<circle r="0.173294" transform="matrix(0.965926 -0.258819 -0.258819 -0.965926 10.5613 5.4367)" fill="white"/>
<circle cx="9.5" cy="1.22505" r="1.22474" transform="rotate(165 9.5 1.22505)" fill="url(#paint2_linear_82_6470)"/>
<circle r="0.23023" transform="matrix(0.965926 -0.258819 -0.258819 -0.965926 9.85005 0.5693)" fill="white"/>
<circle r="0.12997" transform="matrix(0.965926 -0.258819 -0.258819 -0.965926 9.921 1.00879)" fill="white"/>
<circle cx="14" cy="3.72505" r="0.816497" transform="rotate(165 14 3.72505)" fill="url(#paint3_linear_82_6470)"/>
<circle r="0.153487" transform="matrix(0.965926 -0.258819 -0.258819 -0.965926 14.2334 3.28788)" fill="white"/>
<circle r="0.086647" transform="matrix(0.965926 -0.258819 -0.258819 -0.965926 14.2806 3.58088)" fill="white"/>
<circle cx="10" cy="9.72506" r="2.44949" transform="rotate(165 10 9.72506)" fill="url(#paint4_linear_82_6470)"/>
<circle r="0.46046" transform="matrix(0.965926 -0.258819 -0.258819 -0.965926 10.7001 8.41356)" fill="white"/>
<circle r="0.259941" transform="matrix(0.965926 -0.258819 -0.258819 -0.965926 10.842 9.29254)" fill="white"/>
<circle cx="14" cy="9.72506" r="2.44949" transform="rotate(165 14 9.72506)" fill="url(#paint5_linear_82_6470)"/>
<circle r="0.46046" transform="matrix(0.965926 -0.258819 -0.258819 -0.965926 14.7001 8.41356)" fill="white"/>
<circle r="0.259941" transform="matrix(0.965926 -0.258819 -0.258819 -0.965926 14.842 9.29254)" fill="white"/>
<circle cx="12.5" cy="7.22505" r="1.22474" transform="rotate(165 12.5 7.22505)" fill="url(#paint6_linear_82_6470)"/>
<circle r="0.23023" transform="matrix(0.965926 -0.258819 -0.258819 -0.965926 12.8501 6.5693)" fill="white"/>
<circle r="0.12997" transform="matrix(0.965926 -0.258819 -0.258819 -0.965926 12.921 7.00879)" fill="white"/>
<circle cx="4.5" cy="11.2251" r="2.04124" transform="rotate(165 4.5 11.2251)" fill="url(#paint7_linear_82_6470)"/>
<circle r="0.383716" transform="matrix(0.965926 -0.258819 -0.258819 -0.965926 5.08346 10.1321)" fill="white"/>
<circle r="0.216617" transform="matrix(0.965926 -0.258819 -0.258819 -0.965926 5.20163 10.8646)" fill="white"/>
<circle cx="7" cy="9.72505" r="1.63299" transform="rotate(165 7 9.72505)" fill="url(#paint8_linear_82_6470)"/>
<circle r="0.306973" transform="matrix(0.965926 -0.258819 -0.258819 -0.965926 7.46682 8.85072)" fill="white"/>
<circle r="0.173294" transform="matrix(0.965926 -0.258819 -0.258819 -0.965926 7.56126 9.4367)" fill="white"/>
<circle cx="7" cy="13.7251" r="2.44949" transform="rotate(165 7 13.7251)" fill="url(#paint9_linear_82_6470)"/>
<circle r="0.46046" transform="matrix(0.965926 -0.258819 -0.258819 -0.965926 7.70011 12.4136)" fill="white"/>
<circle r="0.259941" transform="matrix(0.965926 -0.258819 -0.258819 -0.965926 7.84201 13.2925)" fill="white"/>
<circle cx="11" cy="13.7251" r="2.44949" transform="rotate(165 11 13.7251)" fill="url(#paint10_linear_82_6470)"/>
<circle r="0.46046" transform="matrix(0.965926 -0.258819 -0.258819 -0.965926 11.7001 12.4136)" fill="white"/>
<circle r="0.259941" transform="matrix(0.965926 -0.258819 -0.258819 -0.965926 11.842 13.2925)" fill="white"/>
<circle cx="9.5" cy="11.2251" r="1.22474" transform="rotate(165 9.5 11.2251)" fill="url(#paint11_linear_82_6470)"/>
<circle r="0.23023" transform="matrix(0.965926 -0.258819 -0.258819 -0.965926 9.85005 10.5693)" fill="white"/>
<circle r="0.12997" transform="matrix(0.965926 -0.258819 -0.258819 -0.965926 9.921 11.0088)" fill="white"/>
<circle cx="18.5" cy="9.22505" r="2.04124" transform="rotate(165 18.5 9.22505)" fill="url(#paint12_linear_82_6470)"/>
<circle r="0.383716" transform="matrix(0.965926 -0.258819 -0.258819 -0.965926 19.0835 8.13214)" fill="white"/>
<circle r="0.216617" transform="matrix(0.965926 -0.258819 -0.258819 -0.965926 19.2016 8.86461)" fill="white"/>
<circle cx="21" cy="7.72505" r="1.63299" transform="rotate(165 21 7.72505)" fill="url(#paint13_linear_82_6470)"/>
<circle r="0.306973" transform="matrix(0.965926 -0.258819 -0.258819 -0.965926 21.4668 6.85072)" fill="white"/>
<circle r="0.173294" transform="matrix(0.965926 -0.258819 -0.258819 -0.965926 21.5613 7.4367)" fill="white"/>
<circle cx="20.5" cy="3.22505" r="1.22474" transform="rotate(165 20.5 3.22505)" fill="url(#paint14_linear_82_6470)"/>
<circle r="0.23023" transform="matrix(0.965926 -0.258819 -0.258819 -0.965926 20.8501 2.5693)" fill="white"/>
<circle r="0.12997" transform="matrix(0.965926 -0.258819 -0.258819 -0.965926 20.921 3.00879)" fill="white"/>
<circle cx="21" cy="11.7251" r="2.44949" transform="rotate(165 21 11.7251)" fill="url(#paint15_linear_82_6470)"/>
<circle r="0.46046" transform="matrix(0.965926 -0.258819 -0.258819 -0.965926 21.7001 10.4136)" fill="white"/>
<circle r="0.259941" transform="matrix(0.965926 -0.258819 -0.258819 -0.965926 21.842 11.2925)" fill="white"/>
<circle cx="25" cy="11.7251" r="2.44949" transform="rotate(165 25 11.7251)" fill="url(#paint16_linear_82_6470)"/>
<circle r="0.46046" transform="matrix(0.965926 -0.258819 -0.258819 -0.965926 25.7001 10.4136)" fill="white"/>
<circle r="0.259941" transform="matrix(0.965926 -0.258819 -0.258819 -0.965926 25.842 11.2925)" fill="white"/>
<circle cx="23.5" cy="9.22505" r="1.22474" transform="rotate(165 23.5 9.22505)" fill="url(#paint17_linear_82_6470)"/>
<circle r="0.23023" transform="matrix(0.965926 -0.258819 -0.258819 -0.965926 23.8501 8.5693)" fill="white"/>
<circle r="0.12997" transform="matrix(0.965926 -0.258819 -0.258819 -0.965926 23.921 9.00879)" fill="white"/>
<circle cx="15.5" cy="13.2251" r="2.04124" transform="rotate(165 15.5 13.2251)" fill="url(#paint18_linear_82_6470)"/>
<circle r="0.383716" transform="matrix(0.965926 -0.258819 -0.258819 -0.965926 16.0835 12.1321)" fill="white"/>
<circle r="0.216617" transform="matrix(0.965926 -0.258819 -0.258819 -0.965926 16.2016 12.8646)" fill="white"/>
<circle cx="18" cy="11.725" r="1.63299" transform="rotate(165 18 11.725)" fill="url(#paint19_linear_82_6470)"/>
<circle r="0.306973" transform="matrix(0.965926 -0.258819 -0.258819 -0.965926 18.4668 10.8507)" fill="white"/>
<circle r="0.173294" transform="matrix(0.965926 -0.258819 -0.258819 -0.965926 18.5613 11.4367)" fill="white"/>
<circle cx="18" cy="15.7251" r="2.44949" transform="rotate(165 18 15.7251)" fill="url(#paint20_linear_82_6470)"/>
<circle r="0.46046" transform="matrix(0.965926 -0.258819 -0.258819 -0.965926 18.7001 14.4136)" fill="white"/>
<circle r="0.259941" transform="matrix(0.965926 -0.258819 -0.258819 -0.965926 18.842 15.2925)" fill="white"/>
<circle cx="22" cy="15.7251" r="2.44949" transform="rotate(165 22 15.7251)" fill="url(#paint21_linear_82_6470)"/>
<circle r="0.46046" transform="matrix(0.965926 -0.258819 -0.258819 -0.965926 22.7001 14.4136)" fill="white"/>
<circle r="0.259941" transform="matrix(0.965926 -0.258819 -0.258819 -0.965926 22.842 15.2925)" fill="white"/>
<circle cx="20.5" cy="13.2251" r="1.22474" transform="rotate(165 20.5 13.2251)" fill="url(#paint22_linear_82_6470)"/>
<circle r="0.23023" transform="matrix(0.965926 -0.258819 -0.258819 -0.965926 20.8501 12.5693)" fill="white"/>
<circle r="0.12997" transform="matrix(0.965926 -0.258819 -0.258819 -0.965926 20.921 13.0088)" fill="white"/>
<g filter="url(#filter0_f_82_6470)">
<path d="M7.15847 13.9058C7.15847 15.5233 5.77985 16.8345 4.07924 16.8345C2.37862 16.8345 1 15.5233 1 13.9058C1 12.2883 2.37862 10.9771 4.07924 10.9771C5.77985 10.9771 7.15847 12.2883 7.15847 13.9058Z" fill="url(#paint23_linear_82_6470)" fill-opacity="0.5"/>
<path d="M9.2113 15.8582C9.2113 17.4757 7.83267 18.7869 6.13206 18.7869C4.43144 18.7869 3.05282 17.4757 3.05282 15.8582C3.05282 14.2408 4.43144 12.9296 6.13206 12.9296C7.83267 12.9296 9.2113 14.2408 9.2113 15.8582Z" fill="url(#paint24_linear_82_6470)" fill-opacity="0.5"/>
<path d="M10.5798 12.6042C10.5798 14.2216 9.20122 15.5328 7.50061 15.5328C5.79999 15.5328 4.42137 14.2216 4.42137 12.6042C4.42137 10.9867 5.79999 9.6755 7.50061 9.6755C9.20122 9.6755 10.5798 10.9867 10.5798 12.6042Z" fill="url(#paint25_linear_82_6470)" fill-opacity="0.5"/>
<path d="M14.0012 14.5566C14.0012 16.1741 12.6226 17.4853 10.922 17.4853C9.22137 17.4853 7.84275 16.1741 7.84275 14.5566C7.84275 12.9392 9.22137 11.6279 10.922 11.6279C12.6226 11.6279 14.0012 12.9392 14.0012 14.5566Z" fill="url(#paint26_linear_82_6470)" fill-opacity="0.5"/>
<path d="M12.6327 10.9771C12.6327 12.0554 11.7136 12.9296 10.5798 12.9296C9.4461 12.9296 8.52702 12.0554 8.52702 10.9771C8.52702 9.89882 9.4461 9.02468 10.5798 9.02468C11.7136 9.02468 12.6327 9.89882 12.6327 10.9771Z" fill="url(#paint27_linear_82_6470)" fill-opacity="0.5"/>
<path d="M17.4226 12.9296C17.4226 14.0079 16.5035 14.882 15.3698 14.882C14.236 14.882 13.3169 14.0079 13.3169 12.9296C13.3169 11.8513 14.236 10.9771 15.3698 10.9771C16.5035 10.9771 17.4226 11.8513 17.4226 12.9296Z" fill="url(#paint28_linear_82_6470)" fill-opacity="0.5"/>
<path d="M11.2641 18.1361C11.2641 19.2144 10.345 20.0885 9.2113 20.0885C8.07755 20.0885 7.15847 19.2144 7.15847 18.1361C7.15847 17.0578 8.07755 16.1836 9.2113 16.1836C10.345 16.1836 11.2641 17.0578 11.2641 18.1361Z" fill="url(#paint29_linear_82_6470)" fill-opacity="0.5"/>
<path d="M14.6855 12.2788C14.6855 13.3571 13.7664 14.2312 12.6327 14.2312C11.4989 14.2312 10.5798 13.3571 10.5798 12.2788C10.5798 11.2005 11.4989 10.3263 12.6327 10.3263C13.7664 10.3263 14.6855 11.2005 14.6855 12.2788Z" fill="url(#paint30_linear_82_6470)" fill-opacity="0.5"/>
<path d="M22.9457 14.2588C22.5055 12.6965 23.4804 11.0906 25.123 10.6719C26.7657 10.2533 28.4542 11.1805 28.8943 12.7428C29.3345 14.3052 28.3596 15.9111 26.717 16.3297C25.0743 16.7483 23.3858 15.8212 22.9457 14.2588Z" fill="url(#paint31_linear_82_6470)" fill-opacity="0.5"/>
<path d="M20.4315 12.8782C19.9913 11.3159 20.9662 9.70998 22.6088 9.29135C24.2515 8.87272 25.94 9.79988 26.3801 11.3622C26.8203 12.9246 25.8454 14.5305 24.2028 14.9491C22.5601 15.3677 20.8717 14.4406 20.4315 12.8782Z" fill="url(#paint32_linear_82_6470)" fill-opacity="0.5"/>
<path d="M19.9951 16.3583C19.5549 14.796 20.5298 13.1901 22.1724 12.7714C23.8151 12.3528 25.5036 13.28 25.9437 14.8423C26.3839 16.4047 25.409 18.0106 23.7664 18.4292C22.1237 18.8478 20.4353 17.9206 19.9951 16.3583Z" fill="url(#paint33_linear_82_6470)" fill-opacity="0.5"/>
<path d="M16.159 15.3146C15.7188 13.7523 16.6937 12.1464 18.3363 11.7277C19.979 11.3091 21.6675 12.2363 22.1076 13.7986C22.5478 15.361 21.5729 16.9669 19.9303 17.3855C18.2876 17.8041 16.5991 16.8769 16.159 15.3146Z" fill="url(#paint34_linear_82_6470)" fill-opacity="0.5"/>
<path d="M18.455 18.4352C18.1615 17.3937 18.8114 16.3231 19.9065 16.044C21.0017 15.7649 22.1273 16.383 22.4207 17.4246C22.7142 18.4661 22.0643 19.5367 20.9692 19.8158C19.8741 20.0949 18.7484 19.4768 18.455 18.4352Z" fill="url(#paint35_linear_82_6470)" fill-opacity="0.5"/>
<path d="M13.297 17.7284C13.0035 16.6869 13.6534 15.6163 14.7485 15.3372C15.8436 15.0581 16.9693 15.6762 17.2627 16.7178C17.5561 17.7593 16.9063 18.8299 15.8111 19.109C14.716 19.3881 13.5904 18.77 13.297 17.7284Z" fill="url(#paint36_linear_82_6470)" fill-opacity="0.5"/>
<path d="M17.8288 11.1833C17.5353 10.1417 18.1852 9.07115 19.2803 8.79206C20.3754 8.51298 21.5011 9.13109 21.7945 10.1727C22.0879 11.2142 21.4381 12.2848 20.3429 12.5639C19.2478 12.843 18.1222 12.2249 17.8288 11.1833Z" fill="url(#paint37_linear_82_6470)" fill-opacity="0.5"/>
<path d="M16.1179 17.6833C15.8245 16.6417 16.4744 15.5711 17.5695 15.292C18.6646 15.0129 19.7902 15.6311 20.0837 16.6726C20.3771 17.7142 19.7272 18.7848 18.6321 19.0639C17.537 19.343 16.4113 18.7248 16.1179 17.6833Z" fill="url(#paint38_linear_82_6470)" fill-opacity="0.5"/>
<path d="M10.5798 13.9058C10.5798 15.5233 9.20122 16.8345 7.50061 16.8345C5.79999 16.8345 4.42137 15.5233 4.42137 13.9058C4.42137 12.2883 5.79999 10.9771 7.50061 10.9771C9.20122 10.9771 10.5798 12.2883 10.5798 13.9058Z" fill="url(#paint39_linear_82_6470)" fill-opacity="0.5"/>
<path d="M12.6327 15.8582C12.6327 17.4757 11.254 18.7869 9.55343 18.7869C7.85282 18.7869 6.4742 17.4757 6.4742 15.8582C6.4742 14.2408 7.85282 12.9296 9.55343 12.9296C11.254 12.9296 12.6327 14.2408 12.6327 15.8582Z" fill="url(#paint40_linear_82_6470)" fill-opacity="0.5"/>
<path d="M14.0012 12.6042C14.0012 14.2216 12.6226 15.5328 10.922 15.5328C9.22137 15.5328 7.84275 14.2216 7.84275 12.6042C7.84275 10.9867 9.22137 9.6755 10.922 9.6755C12.6226 9.6755 14.0012 10.9867 14.0012 12.6042Z" fill="url(#paint41_linear_82_6470)" fill-opacity="0.5"/>
<path d="M17.4226 14.5566C17.4226 16.1741 16.044 17.4853 14.3434 17.4853C12.6427 17.4853 11.2641 16.1741 11.2641 14.5566C11.2641 12.9392 12.6427 11.6279 14.3434 11.6279C16.044 11.6279 17.4226 12.9392 17.4226 14.5566Z" fill="url(#paint42_linear_82_6470)" fill-opacity="0.5"/>
<path d="M16.054 10.9771C16.054 12.0554 15.135 12.9296 14.0012 12.9296C12.8675 12.9296 11.9484 12.0554 11.9484 10.9771C11.9484 9.89882 12.8675 9.02468 14.0012 9.02468C15.135 9.02468 16.054 9.89882 16.054 10.9771Z" fill="url(#paint43_linear_82_6470)" fill-opacity="0.5"/>
<path d="M20.844 12.9296C20.844 14.0079 19.9249 14.882 18.7911 14.882C17.6574 14.882 16.7383 14.0079 16.7383 12.9296C16.7383 11.8513 17.6574 10.9771 18.7911 10.9771C19.9249 10.9771 20.844 11.8513 20.844 12.9296Z" fill="url(#paint44_linear_82_6470)" fill-opacity="0.5"/>
<path d="M14.6855 18.1361C14.6855 19.2144 13.7664 20.0885 12.6327 20.0885C11.4989 20.0885 10.5798 19.2144 10.5798 18.1361C10.5798 17.0578 11.4989 16.1836 12.6327 16.1836C13.7664 16.1836 14.6855 17.0578 14.6855 18.1361Z" fill="url(#paint45_linear_82_6470)" fill-opacity="0.5"/>
<path d="M18.1069 12.2788C18.1069 13.3571 17.1878 14.2312 16.054 14.2312C14.9203 14.2312 14.0012 13.3571 14.0012 12.2788C14.0012 11.2005 14.9203 10.3263 16.054 10.3263C17.1878 10.3263 18.1069 11.2005 18.1069 12.2788Z" fill="url(#paint46_linear_82_6470)" fill-opacity="0.5"/>
<path d="M19.6408 15.101C19.2007 13.5387 20.1755 11.9328 21.8182 11.5142C23.4609 11.0955 25.1493 12.0227 25.5895 13.585C26.0296 15.1474 25.0548 16.7533 23.4121 17.1719C21.7694 17.5905 20.081 16.6634 19.6408 15.101Z" fill="url(#paint47_linear_82_6470)" fill-opacity="0.5"/>
<path d="M17.1266 13.7204C16.6865 12.1581 17.6613 10.5522 19.304 10.1336C20.9467 9.71494 22.6351 10.6421 23.0753 12.2044C23.5154 13.7668 22.5406 15.3727 20.8979 15.7913C19.2553 16.2099 17.5668 15.2828 17.1266 13.7204Z" fill="url(#paint48_linear_82_6470)" fill-opacity="0.5"/>
<path d="M16.6903 17.2005C16.2501 15.6382 17.2249 14.0323 18.8676 13.6137C20.5103 13.195 22.1987 14.1222 22.6389 15.6845C23.079 17.2469 22.1042 18.8528 20.4615 19.2714C18.8189 19.69 17.1304 18.7629 16.6903 17.2005Z" fill="url(#paint49_linear_82_6470)" fill-opacity="0.5"/>
<path d="M12.8541 16.1568C12.414 14.5945 13.3888 12.9886 15.0315 12.5699C16.6742 12.1513 18.3626 13.0785 18.8028 14.6408C19.2429 16.2032 18.2681 17.8091 16.6254 18.2277C14.9828 18.6463 13.2943 17.7192 12.8541 16.1568Z" fill="url(#paint50_linear_82_6470)" fill-opacity="0.5"/>
<path d="M15.1501 19.2775C14.8567 18.2359 15.5066 17.1653 16.6017 16.8862C17.6968 16.6071 18.8224 17.2252 19.1159 18.2668C19.4093 19.3084 18.7594 20.379 17.6643 20.658C16.5692 20.9371 15.4436 20.319 15.1501 19.2775Z" fill="url(#paint51_linear_82_6470)" fill-opacity="0.5"/>
<path d="M9.99211 18.5706C9.69868 17.5291 10.3486 16.4585 11.4437 16.1794C12.5388 15.9003 13.6644 16.5184 13.9579 17.56C14.2513 18.6015 13.6014 19.6721 12.5063 19.9512C11.4112 20.2303 10.2855 19.6122 9.99211 18.5706Z" fill="url(#paint52_linear_82_6470)" fill-opacity="0.5"/>
<path d="M14.5239 12.0255C14.2305 10.984 14.8804 9.91337 15.9755 9.63428C17.0706 9.3552 18.1962 9.97331 18.4897 11.0149C18.7831 12.0564 18.1332 13.127 17.0381 13.4061C15.943 13.6852 14.8173 13.0671 14.5239 12.0255Z" fill="url(#paint53_linear_82_6470)" fill-opacity="0.5"/>
<path d="M12.8131 18.5255C12.5196 17.4839 13.1695 16.4133 14.2646 16.1343C15.3597 15.8552 16.4854 16.4733 16.7788 17.5148C17.0722 18.5564 16.4223 19.627 15.3272 19.9061C14.2321 20.1852 13.1065 19.5671 12.8131 18.5255Z" fill="url(#paint54_linear_82_6470)" fill-opacity="0.5"/>
</g>
<defs>
<filter id="filter0_f_82_6470" x="0" y="7.72505" width="30" height="14" filterUnits="userSpaceOnUse" color-interpolation-filters="sRGB">
<feFlood flood-opacity="0" result="BackgroundImageFix"/>
<feBlend mode="normal" in="SourceGraphic" in2="BackgroundImageFix" result="shape"/>
<feGaussianBlur stdDeviation="0.5" result="effect1_foregroundBlur_82_6470"/>
</filter>
<linearGradient id="paint0_linear_82_6470" x1="7.23449" y1="7.40392" x2="7.5" y2="9.26629" gradientUnits="userSpaceOnUse">
<stop stop-color="#D9D9D9" stop-opacity="0.23"/>
<stop offset="1" stop-color="white"/>
</linearGradient>
<linearGradient id="paint1_linear_82_6470" x1="9.78759" y1="5.86814" x2="10" y2="7.35804" gradientUnits="userSpaceOnUse">
<stop stop-color="#D9D9D9" stop-opacity="0.23"/>
<stop offset="1" stop-color="white"/>
</linearGradient>
<linearGradient id="paint2_linear_82_6470" x1="9.34069" y1="1.33238" x2="9.5" y2="2.4498" gradientUnits="userSpaceOnUse">
<stop stop-color="#D9D9D9" stop-opacity="0.23"/>
<stop offset="1" stop-color="white"/>
</linearGradient>
<linearGradient id="paint3_linear_82_6470" x1="13.8938" y1="3.7966" x2="14" y2="4.54155" gradientUnits="userSpaceOnUse">
<stop stop-color="#D9D9D9" stop-opacity="0.23"/>
<stop offset="1" stop-color="white"/>
</linearGradient>
<linearGradient id="paint4_linear_82_6470" x1="9.68139" y1="9.9397" x2="10" y2="12.1745" gradientUnits="userSpaceOnUse">
<stop stop-color="#D9D9D9" stop-opacity="0.23"/>
<stop offset="1" stop-color="white"/>
</linearGradient>
<linearGradient id="paint5_linear_82_6470" x1="13.6814" y1="9.9397" x2="14" y2="12.1745" gradientUnits="userSpaceOnUse">
<stop stop-color="#D9D9D9" stop-opacity="0.23"/>
<stop offset="1" stop-color="white"/>
</linearGradient>
<linearGradient id="paint6_linear_82_6470" x1="12.3407" y1="7.33238" x2="12.5" y2="8.4498" gradientUnits="userSpaceOnUse">
<stop stop-color="#D9D9D9" stop-opacity="0.23"/>
<stop offset="1" stop-color="white"/>
</linearGradient>
<linearGradient id="paint7_linear_82_6470" x1="4.23449" y1="11.4039" x2="4.5" y2="13.2663" gradientUnits="userSpaceOnUse">
<stop stop-color="#D9D9D9" stop-opacity="0.23"/>
<stop offset="1" stop-color="white"/>
</linearGradient>
<linearGradient id="paint8_linear_82_6470" x1="6.78759" y1="9.86814" x2="7" y2="11.358" gradientUnits="userSpaceOnUse">
<stop stop-color="#D9D9D9" stop-opacity="0.23"/>
<stop offset="1" stop-color="white"/>
</linearGradient>
<linearGradient id="paint9_linear_82_6470" x1="6.68139" y1="13.9397" x2="7" y2="16.1745" gradientUnits="userSpaceOnUse">
<stop stop-color="#D9D9D9" stop-opacity="0.23"/>
<stop offset="1" stop-color="white"/>
</linearGradient>
<linearGradient id="paint10_linear_82_6470" x1="10.6814" y1="13.9397" x2="11" y2="16.1745" gradientUnits="userSpaceOnUse">
<stop stop-color="#D9D9D9" stop-opacity="0.23"/>
<stop offset="1" stop-color="white"/>
</linearGradient>
<linearGradient id="paint11_linear_82_6470" x1="9.34069" y1="11.3324" x2="9.5" y2="12.4498" gradientUnits="userSpaceOnUse">
<stop stop-color="#D9D9D9" stop-opacity="0.23"/>
<stop offset="1" stop-color="white"/>
</linearGradient>
<linearGradient id="paint12_linear_82_6470" x1="18.2345" y1="9.40392" x2="18.5" y2="11.2663" gradientUnits="userSpaceOnUse">
<stop stop-color="#D9D9D9" stop-opacity="0.23"/>
<stop offset="1" stop-color="white"/>
</linearGradient>
<linearGradient id="paint13_linear_82_6470" x1="20.7876" y1="7.86814" x2="21" y2="9.35804" gradientUnits="userSpaceOnUse">
<stop stop-color="#D9D9D9" stop-opacity="0.23"/>
<stop offset="1" stop-color="white"/>
</linearGradient>
<linearGradient id="paint14_linear_82_6470" x1="20.3407" y1="3.33238" x2="20.5" y2="4.4498" gradientUnits="userSpaceOnUse">
<stop stop-color="#D9D9D9" stop-opacity="0.23"/>
<stop offset="1" stop-color="white"/>
</linearGradient>
<linearGradient id="paint15_linear_82_6470" x1="20.6814" y1="11.9397" x2="21" y2="14.1745" gradientUnits="userSpaceOnUse">
<stop stop-color="#D9D9D9" stop-opacity="0.23"/>
<stop offset="1" stop-color="white"/>
</linearGradient>
<linearGradient id="paint16_linear_82_6470" x1="24.6814" y1="11.9397" x2="25" y2="14.1745" gradientUnits="userSpaceOnUse">
<stop stop-color="#D9D9D9" stop-opacity="0.23"/>
<stop offset="1" stop-color="white"/>
</linearGradient>
<linearGradient id="paint17_linear_82_6470" x1="23.3407" y1="9.33238" x2="23.5" y2="10.4498" gradientUnits="userSpaceOnUse">
<stop stop-color="#D9D9D9" stop-opacity="0.23"/>
<stop offset="1" stop-color="white"/>
</linearGradient>
<linearGradient id="paint18_linear_82_6470" x1="15.2345" y1="13.4039" x2="15.5" y2="15.2663" gradientUnits="userSpaceOnUse">
<stop stop-color="#D9D9D9" stop-opacity="0.23"/>
<stop offset="1" stop-color="white"/>
</linearGradient>
<linearGradient id="paint19_linear_82_6470" x1="17.7876" y1="11.8681" x2="18" y2="13.358" gradientUnits="userSpaceOnUse">
<stop stop-color="#D9D9D9" stop-opacity="0.23"/>
<stop offset="1" stop-color="white"/>
</linearGradient>
<linearGradient id="paint20_linear_82_6470" x1="17.6814" y1="15.9397" x2="18" y2="18.1745" gradientUnits="userSpaceOnUse">
<stop stop-color="#D9D9D9" stop-opacity="0.23"/>
<stop offset="1" stop-color="white"/>
</linearGradient>
<linearGradient id="paint21_linear_82_6470" x1="21.6814" y1="15.9397" x2="22" y2="18.1745" gradientUnits="userSpaceOnUse">
<stop stop-color="#D9D9D9" stop-opacity="0.23"/>
<stop offset="1" stop-color="white"/>
</linearGradient>
<linearGradient id="paint22_linear_82_6470" x1="20.3407" y1="13.3324" x2="20.5" y2="14.4498" gradientUnits="userSpaceOnUse">
<stop stop-color="#D9D9D9" stop-opacity="0.23"/>
<stop offset="1" stop-color="white"/>
</linearGradient>
<linearGradient id="paint23_linear_82_6470" x1="15" y1="8.72505" x2="15" y2="20.7251" gradientUnits="userSpaceOnUse">
<stop stop-color="#F4FAFF"/>
<stop offset="1" stop-color="white" stop-opacity="0"/>
</linearGradient>
<linearGradient id="paint24_linear_82_6470" x1="15" y1="8.72505" x2="15" y2="20.7251" gradientUnits="userSpaceOnUse">
<stop stop-color="#F4FAFF"/>
<stop offset="1" stop-color="white" stop-opacity="0"/>
</linearGradient>
<linearGradient id="paint25_linear_82_6470" x1="15" y1="8.72505" x2="15" y2="20.7251" gradientUnits="userSpaceOnUse">
<stop stop-color="#F4FAFF"/>
<stop offset="1" stop-color="white" stop-opacity="0"/>
</linearGradient>
<linearGradient id="paint26_linear_82_6470" x1="15" y1="8.72505" x2="15" y2="20.7251" gradientUnits="userSpaceOnUse">
<stop stop-color="#F4FAFF"/>
<stop offset="1" stop-color="white" stop-opacity="0"/>
</linearGradient>
<linearGradient id="paint27_linear_82_6470" x1="15" y1="8.72505" x2="15" y2="20.7251" gradientUnits="userSpaceOnUse">
<stop stop-color="#F4FAFF"/>
<stop offset="1" stop-color="white" stop-opacity="0"/>
</linearGradient>
<linearGradient id="paint28_linear_82_6470" x1="15" y1="8.72505" x2="15" y2="20.7251" gradientUnits="userSpaceOnUse">
<stop stop-color="#F4FAFF"/>
<stop offset="1" stop-color="white" stop-opacity="0"/>
</linearGradient>
<linearGradient id="paint29_linear_82_6470" x1="15" y1="8.72505" x2="15" y2="20.7251" gradientUnits="userSpaceOnUse">
<stop stop-color="#F4FAFF"/>
<stop offset="1" stop-color="white" stop-opacity="0"/>
</linearGradient>
<linearGradient id="paint30_linear_82_6470" x1="15" y1="8.72505" x2="15" y2="20.7251" gradientUnits="userSpaceOnUse">
<stop stop-color="#F4FAFF"/>
<stop offset="1" stop-color="white" stop-opacity="0"/>
</linearGradient>
<linearGradient id="paint31_linear_82_6470" x1="15" y1="8.72505" x2="15" y2="20.7251" gradientUnits="userSpaceOnUse">
<stop stop-color="#F4FAFF"/>
<stop offset="1" stop-color="white" stop-opacity="0"/>
</linearGradient>
<linearGradient id="paint32_linear_82_6470" x1="15" y1="8.72505" x2="15" y2="20.7251" gradientUnits="userSpaceOnUse">
<stop stop-color="#F4FAFF"/>
<stop offset="1" stop-color="white" stop-opacity="0"/>
</linearGradient>
<linearGradient id="paint33_linear_82_6470" x1="15" y1="8.72505" x2="15" y2="20.7251" gradientUnits="userSpaceOnUse">
<stop stop-color="#F4FAFF"/>
<stop offset="1" stop-color="white" stop-opacity="0"/>
</linearGradient>
<linearGradient id="paint34_linear_82_6470" x1="15" y1="8.72505" x2="15" y2="20.7251" gradientUnits="userSpaceOnUse">
<stop stop-color="#F4FAFF"/>
<stop offset="1" stop-color="white" stop-opacity="0"/>
</linearGradient>
<linearGradient id="paint35_linear_82_6470" x1="15" y1="8.72505" x2="15" y2="20.7251" gradientUnits="userSpaceOnUse">
<stop stop-color="#F4FAFF"/>
<stop offset="1" stop-color="white" stop-opacity="0"/>
</linearGradient>
<linearGradient id="paint36_linear_82_6470" x1="15" y1="8.72505" x2="15" y2="20.7251" gradientUnits="userSpaceOnUse">
<stop stop-color="#F4FAFF"/>
<stop offset="1" stop-color="white" stop-opacity="0"/>
</linearGradient>
<linearGradient id="paint37_linear_82_6470" x1="15" y1="8.72505" x2="15" y2="20.7251" gradientUnits="userSpaceOnUse">
<stop stop-color="#F4FAFF"/>
<stop offset="1" stop-color="white" stop-opacity="0"/>
</linearGradient>
<linearGradient id="paint38_linear_82_6470" x1="15" y1="8.72505" x2="15" y2="20.7251" gradientUnits="userSpaceOnUse">
<stop stop-color="#F4FAFF"/>
<stop offset="1" stop-color="white" stop-opacity="0"/>
</linearGradient>
<linearGradient id="paint39_linear_82_6470" x1="15" y1="8.72505" x2="15" y2="20.7251" gradientUnits="userSpaceOnUse">
<stop stop-color="#F4FAFF"/>
<stop offset="1" stop-color="white" stop-opacity="0"/>
</linearGradient>
<linearGradient id="paint40_linear_82_6470" x1="15" y1="8.72505" x2="15" y2="20.7251" gradientUnits="userSpaceOnUse">
<stop stop-color="#F4FAFF"/>
<stop offset="1" stop-color="white" stop-opacity="0"/>
</linearGradient>
<linearGradient id="paint41_linear_82_6470" x1="15" y1="8.72505" x2="15" y2="20.7251" gradientUnits="userSpaceOnUse">
<stop stop-color="#F4FAFF"/>
<stop offset="1" stop-color="white" stop-opacity="0"/>
</linearGradient>
<linearGradient id="paint42_linear_82_6470" x1="15" y1="8.72505" x2="15" y2="20.7251" gradientUnits="userSpaceOnUse">
<stop stop-color="#F4FAFF"/>
<stop offset="1" stop-color="white" stop-opacity="0"/>
</linearGradient>
<linearGradient id="paint43_linear_82_6470" x1="15" y1="8.72505" x2="15" y2="20.7251" gradientUnits="userSpaceOnUse">
<stop stop-color="#F4FAFF"/>
<stop offset="1" stop-color="white" stop-opacity="0"/>
</linearGradient>
<linearGradient id="paint44_linear_82_6470" x1="15" y1="8.72505" x2="15" y2="20.7251" gradientUnits="userSpaceOnUse">
<stop stop-color="#F4FAFF"/>
<stop offset="1" stop-color="white" stop-opacity="0"/>
</linearGradient>
<linearGradient id="paint45_linear_82_6470" x1="15" y1="8.72505" x2="15" y2="20.7251" gradientUnits="userSpaceOnUse">
<stop stop-color="#F4FAFF"/>
<stop offset="1" stop-color="white" stop-opacity="0"/>
</linearGradient>
<linearGradient id="paint46_linear_82_6470" x1="15" y1="8.72505" x2="15" y2="20.7251" gradientUnits="userSpaceOnUse">
<stop stop-color="#F4FAFF"/>
<stop offset="1" stop-color="white" stop-opacity="0"/>
</linearGradient>
<linearGradient id="paint47_linear_82_6470" x1="15" y1="8.72505" x2="15" y2="20.7251" gradientUnits="userSpaceOnUse">
<stop stop-color="#F4FAFF"/>
<stop offset="1" stop-color="white" stop-opacity="0"/>
</linearGradient>
<linearGradient id="paint48_linear_82_6470" x1="15" y1="8.72505" x2="15" y2="20.7251" gradientUnits="userSpaceOnUse">
<stop stop-color="#F4FAFF"/>
<stop offset="1" stop-color="white" stop-opacity="0"/>
</linearGradient>
<linearGradient id="paint49_linear_82_6470" x1="15" y1="8.72505" x2="15" y2="20.7251" gradientUnits="userSpaceOnUse">
<stop stop-color="#F4FAFF"/>
<stop offset="1" stop-color="white" stop-opacity="0"/>
</linearGradient>
<linearGradient id="paint50_linear_82_6470" x1="15" y1="8.72505" x2="15" y2="20.7251" gradientUnits="userSpaceOnUse">
<stop stop-color="#F4FAFF"/>
<stop offset="1" stop-color="white" stop-opacity="0"/>
</linearGradient>
<linearGradient id="paint51_linear_82_6470" x1="15" y1="8.72505" x2="15" y2="20.7251" gradientUnits="userSpaceOnUse">
<stop stop-color="#F4FAFF"/>
<stop offset="1" stop-color="white" stop-opacity="0"/>
</linearGradient>
<linearGradient id="paint52_linear_82_6470" x1="15" y1="8.72505" x2="15" y2="20.7251" gradientUnits="userSpaceOnUse">
<stop stop-color="#F4FAFF"/>
<stop offset="1" stop-color="white" stop-opacity="0"/>
</linearGradient>
<linearGradient id="paint53_linear_82_6470" x1="15" y1="8.72505" x2="15" y2="20.7251" gradientUnits="userSpaceOnUse">
<stop stop-color="#F4FAFF"/>
<stop offset="1" stop-color="white" stop-opacity="0"/>
</linearGradient>
<linearGradient id="paint54_linear_82_6470" x1="15" y1="8.72505" x2="15" y2="20.7251" gradientUnits="userSpaceOnUse">
<stop stop-color="#F4FAFF"/>
<stop offset="1" stop-color="white" stop-opacity="0"/>
</linearGradient>
</defs>
</svg>
