<svg width="19" height="18" viewBox="0 0 19 18" fill="none" xmlns="http://www.w3.org/2000/svg">
<mask id="mask0_283_2941" style="mask-type:alpha" maskUnits="userSpaceOnUse" x="-2" y="-3" width="24" height="24">
<rect x="22" y="21" width="24" height="24" transform="rotate(-180 22 21)" fill="white"/>
</mask>
<g mask="url(#mask0_283_2941)">
<path d="M6 7.5C5.56667 7.5 5.20833 7.64167 4.925 7.925C4.64167 8.20833 4.5 8.56667 4.5 9C4.5 9.43333 4.64167 9.79167 4.925 10.075C5.20833 10.3583 5.56667 10.5 6 10.5C6.43333 10.5 6.79167 10.3583 7.075 10.075C7.35833 9.79167 7.5 9.43333 7.5 9C7.5 8.56667 7.35833 8.20833 7.075 7.925C6.79167 7.64167 6.43333 7.5 6 7.5ZM9 4C9.55 4 10.0207 4.19567 10.412 4.587C10.804 4.979 11 5.45 11 6L11 12C11 12.55 10.804 13.021 10.412 13.413C10.0207 13.8043 9.55 14 9 14L2 14C1.45 14 0.979 13.8043 0.587 13.413C0.195667 13.021 0 12.55 0 12V6C0 5.45 0.195667 4.979 0.587 4.587C0.979 4.19567 1.45 4 2 4H9ZM17 0C17.55 0 18.021 0.195667 18.413 0.587C18.8043 0.979 19 1.45 19 2L19 16C19 16.55 18.8043 17.021 18.413 17.413C18.021 17.8043 17.55 18 17 18L3 18C2.45 18 1.979 17.8043 1.587 17.413C1.19567 17.021 1 16.55 1 16H9C10.1833 16 11.1457 15.6293 11.887 14.888C12.629 14.146 13 13.1833 13 12L13 6C13 4.81667 12.629 3.85433 11.887 3.113C11.1457 2.371 10.1833 2 9 2L1 2C1 1.45 1.19567 0.979 1.587 0.587C1.979 0.195667 2.45 0 3 0L17 0Z" fill="white"/>
</g>
</svg>
