<svg width="18" height="20" viewBox="0 0 18 20" fill="none" xmlns="http://www.w3.org/2000/svg">
<g clip-path="url(#clip0_283_2849)">
<path d="M15.0145 20C10.9979 20 6.98127 20 2.95906 20C2.91985 19.9895 2.87503 19.9684 2.83582 19.9684C1.20004 19.8104 0.0572389 18.7199 0.00682115 17.1764C-0.0211887 16.3915 0.040433 15.6014 0.130064 14.8217C0.247706 13.8156 0.522202 12.841 1.04319 11.9402C1.67621 10.834 2.62294 10.1544 3.97302 10.0122C4.28112 9.98059 4.56122 10.0017 4.83012 10.1808C5.14383 10.3967 5.47995 10.5811 5.81606 10.776C6.70678 11.2923 7.67592 11.6031 8.72349 11.6558C9.96712 11.7137 11.1099 11.3818 12.1687 10.776C12.5552 10.5548 12.9362 10.3177 13.3227 10.0965C13.4067 10.0491 13.5132 10.0017 13.6084 10.0017C14.3535 9.99113 15.0481 10.1702 15.6755 10.5653C16.4318 11.0394 16.8912 11.7295 17.2217 12.4933C17.8883 14.0474 18.0788 15.6804 17.9723 17.3397C17.8939 18.5566 17.0536 19.4943 15.8044 19.842C15.5411 19.9104 15.2722 19.9473 15.0145 20Z" fill="#9997FC"/>
<path d="M8.99156 10C6.26157 9.99431 4.07534 7.77082 4.08094 4.99431C4.08094 2.2235 6.27278 -0.00569034 8.99717 1.09115e-05C11.7272 0.00571217 13.9134 2.2292 13.9078 5.00571C13.9078 7.77652 11.7159 10 8.99156 10Z" fill="#9997FC"/>
</g>
<defs>
<clipPath id="clip0_283_2849">
<rect width="18" height="20" fill="white"/>
</clipPath>
</defs>
</svg>
