<svg width="82" height="82" viewBox="0 0 82 82" fill="none" xmlns="http://www.w3.org/2000/svg">
<circle cx="41" cy="41" r="41" fill="#199D00"/>
<path fill-rule="evenodd" clip-rule="evenodd" d="M16.3498 29.0356C16.2438 30.572 16.0981 33.2739 17.4093 33.552C18.9854 33.6977 18.1113 30.8766 18.6808 30.3733C18.8 30.1084 18.9987 30.1084 19.0119 30.4396V32.8236C18.9987 33.6182 19.502 33.8302 19.8993 34.0023C20.3231 33.9626 20.588 33.9758 20.7602 34.3732L20.9456 38.5187C20.9456 38.5187 21.9125 38.7836 21.9522 36.1877C22.0052 34.6646 21.6476 33.3798 21.8595 33.0885C21.8595 32.7971 22.2304 32.7838 22.4953 32.9163C22.9058 33.2077 23.0913 33.5785 23.727 33.4196C24.7071 33.1547 25.2899 32.6779 25.3163 31.9362C25.2827 31.2057 25.1306 30.4855 24.866 29.8038C24.9058 29.6714 24.6674 29.3403 24.7203 29.2078C24.8925 29.4727 25.1574 29.4595 25.2236 29.2078C25.0515 28.6515 24.7998 28.135 24.376 27.9098C24.0316 27.6052 23.5283 27.6714 23.3429 28.3072C23.3212 29.142 23.6036 29.9564 24.1376 30.5985C24.3041 30.9584 24.3727 31.3559 24.3362 31.7508C24.0581 31.9229 23.78 31.8435 23.5416 31.6051C23.5416 31.6051 22.7601 31.0091 22.7601 30.8899C22.9721 29.5654 22.8131 29.4197 22.6939 29.0489C22.6145 28.5456 22.3761 28.3866 22.1774 28.0423C21.9787 27.8304 21.7271 27.8304 21.5946 28.0423C21.2503 28.6383 21.4092 29.9098 21.6608 30.4793C21.8463 31.0091 22.1112 31.3402 21.9787 31.3402C21.8728 31.6316 21.6608 31.5653 21.5019 31.221C21.3053 30.4915 21.2117 29.7381 21.2238 28.9827C21.1576 28.3866 21.0913 27.1284 20.694 26.8105C20.4556 26.4927 20.098 26.6516 19.9788 26.943C19.9453 27.5171 19.9586 28.0929 20.0185 28.6648C20.2834 29.5919 20.3629 30.4396 20.4953 31.4064C20.5351 32.7044 19.7404 31.9759 19.7801 31.3269C19.9655 30.4925 19.9126 29.1681 19.7536 28.837C19.6212 28.5059 19.4755 28.4264 19.1709 28.4794C18.906 28.4529 18.2835 29.1416 18.1113 30.3071C18.1113 30.3071 17.9524 30.9031 17.8862 31.4197C17.7934 32.0157 17.4093 32.4395 17.1312 31.3402C16.8928 30.5455 16.7471 28.5721 16.3498 29.0356Z" fill="white"/>
<path fill-rule="evenodd" clip-rule="evenodd" d="M20.6409 35.3401L16.5351 37.3135C16.5748 36.3864 18.482 34.6911 19.78 34.6646C20.6276 34.6911 20.4157 34.9957 20.6409 35.3268V35.3401Z" fill="white"/>
<path fill-rule="evenodd" clip-rule="evenodd" d="M19.9257 36.6248C17.7536 42.2007 24.9851 42.9822 25.7931 36.8499C25.8725 36.5983 26.1904 36.3466 26.2301 36.7572C26.058 42.3199 20.6409 42.6908 19.7138 40.9425C19.4887 40.5452 19.4224 39.618 19.3959 39.0618C19.2635 37.9757 18.6807 38.3995 18.6013 39.4856C18.5086 40.0816 18.5218 40.2538 18.5218 40.8365C18.8132 45.2072 25.8063 43.3265 26.9453 39.7108C27.5413 37.7108 26.8394 36.2274 27.1705 36.2274C27.8592 36.9824 28.8393 36.3334 29.0512 36.0685C29.1439 35.9361 29.3691 35.8566 29.528 36.0288C30.0578 36.4261 31.0247 36.2274 31.2233 35.552C31.3293 34.8765 31.422 34.1878 31.4485 33.4726C31.0114 33.605 30.6803 33.6977 30.6538 33.8699L30.5611 34.4792C30.5214 34.6646 30.1373 34.6778 30.124 34.4262C29.9519 33.6712 29.2631 33.5653 28.8393 34.744C28.5612 34.9824 28.0446 35.0089 27.9917 34.6778C28.0579 33.8832 27.74 33.7772 27.1043 34.148L26.4818 29.5124C26.7467 29.5124 26.9983 29.6979 27.2367 29.3932C26.9718 28.5588 26.4023 26.8768 26.0977 26.7443C25.9388 26.5589 25.8196 26.6781 25.6209 26.7178C25.2765 26.8238 24.9587 27.1152 25.0646 27.6847L26.1242 34.3335C26.1772 34.6116 25.9388 34.9957 25.6341 34.956C25.1176 34.5984 24.9851 33.8964 24.111 33.9229C23.462 33.9229 22.7336 34.6248 22.6541 35.3003C22.5349 35.8301 22.4952 36.4129 22.6541 36.8764C23.0912 37.4062 23.6342 37.3665 24.111 37.234C24.4951 37.0751 24.813 36.691 24.9587 36.7837C25.0514 36.9029 24.9719 38.1744 23.1177 39.1677C22.0051 39.671 21.1045 39.777 20.6277 38.8631C20.3363 38.2936 20.6542 36.1215 19.9257 36.6115V36.6248Z" fill="white"/>
<path fill-rule="evenodd" clip-rule="evenodd" d="M29.1042 30.9429C29.5412 30.7972 31.5941 28.4264 31.5941 28.4264L31.2895 28.188C31.1703 28.082 31.1836 27.9893 31.2895 27.8834C31.7928 27.592 31.6339 26.9298 31.369 26.6384C31.1962 26.5521 31.0058 26.5072 30.8127 26.5072C30.6196 26.5072 30.4292 26.5521 30.2564 26.6384C29.8988 26.996 29.8194 27.539 30.0975 27.8834C30.3624 28.0158 30.6538 28.2807 30.4684 28.4396C29.6207 29.3403 27.3162 30.8899 27.581 30.9561C27.634 31.0223 29.0644 31.0223 29.1042 30.9561V30.9429ZM16.6675 39.2869C15.8994 40.5187 15.8331 42.3597 16.2702 42.9027C16.4821 43.1676 16.853 43.2735 17.1311 43.1941C17.6211 42.9822 17.8331 42.0021 17.7139 41.6445C17.5549 41.3796 17.4225 41.3531 17.2635 41.565C16.9192 42.2537 16.7735 41.7769 16.747 41.3928C16.694 40.6644 16.7602 39.9756 16.8397 39.4459C16.9324 38.9028 16.8397 39.0618 16.6675 39.2869ZM49.6597 37.3002C48.918 35.6976 47.8849 34.1083 47.5538 33.4991C46.555 31.9174 45.4946 30.3754 44.3751 28.8767C43.5805 27.9231 45.6863 29.274 44.1102 27.3801C43.5142 26.8503 43.4745 26.837 42.9712 26.4132C42.7196 26.2278 42.1103 25.9099 42.0044 26.4397C41.9517 26.8194 41.9697 27.2056 42.0573 27.5787C42.1103 27.8436 42.4944 28.2807 42.6931 28.5456C45.2095 31.923 47.4479 35.3533 49.5935 39.6445C49.9378 39.4856 49.8584 37.5784 49.6597 37.3002Z" fill="white"/>
<path fill-rule="evenodd" clip-rule="evenodd" d="M46.3885 42.6908C46.2428 42.8629 46.7461 43.5649 47.4083 43.5649C48.5209 43.4325 49.4877 42.81 50.3883 41.1809C50.6267 40.7835 51.0506 39.9889 51.0638 39.3399C51.1565 35.6314 50.8784 32.7441 50.3221 30.0687C50.2956 29.8038 50.3221 29.4859 50.3619 29.4065C50.4281 29.327 50.6665 29.4065 50.7989 29.2078C50.9844 29.0091 50.2956 27.4066 49.9115 26.7973C49.7659 26.5192 49.7129 26.3337 49.4877 26.8238C49.2361 27.2211 49.0904 27.9231 49.0904 28.5721C49.6202 32.2276 49.7923 35.4327 50.1367 39.075C50.1632 39.4326 50.1102 39.9491 49.8718 40.1478C48.9031 41.2317 47.716 42.0983 46.3885 42.6908ZM61.3283 42.6775C60.5337 43.1278 60.5337 43.6576 61.1827 43.6841C62.282 43.5517 63.5932 43.4589 64.4938 42.0948C64.7322 41.7107 65.0236 40.6776 65.0368 40.0551C65.1163 36.3466 64.9838 33.5653 64.4276 30.8899C64.4011 30.625 64.2819 30.029 64.3216 29.9495C64.4011 29.7641 64.7587 29.9627 64.8911 29.7508C65.0766 29.5654 63.964 28.1218 63.5667 27.4993C63.421 27.2344 63.368 27.0489 63.1429 27.539C62.8912 27.9363 62.8117 28.6515 62.9044 29.274C63.5005 33.2474 63.9375 36.2274 64.017 39.7372C63.9773 40.0816 63.964 40.267 63.8051 40.6776C63.4607 41.1279 63.0766 41.6842 62.7058 41.9491C62.3482 42.214 61.58 42.4789 61.3283 42.6775Z" fill="white"/>
<path fill-rule="evenodd" clip-rule="evenodd" d="M61.9241 39.1147V36.691C61.9139 36.087 61.7786 35.4917 61.5268 34.9427C61.2884 34.4129 61.4341 34.0023 61.3281 33.4328C61.2222 32.8765 61.2487 32.0289 61.0897 31.3667C61.0368 31.1018 60.9043 30.2806 60.9573 30.2011C61.0103 30.0157 61.2619 30.2012 61.3811 29.9892C61.5665 29.7906 60.7454 27.6714 60.3348 27.0754C60.1891 26.8105 59.9242 26.89 59.5799 27.3403C59.2752 27.6185 59.3944 28.2807 59.5136 28.9032C60.3083 33.0487 60.8911 36.8102 60.7719 40.7438C60.7321 41.0882 61.9374 39.7505 61.9241 39.1147ZM56.0568 33.9758C55.5668 33.9758 54.5204 32.9958 54.2026 32.4395C54.1567 32.3054 54.1389 32.1633 54.1503 32.022C54.1617 31.8807 54.202 31.7433 54.2688 31.6183C54.4542 31.4859 54.7456 31.3534 54.9575 31.4859C54.9575 31.4859 55.1694 31.8037 55.1297 31.8435C55.3946 31.9759 55.527 31.8965 55.5535 31.7773C55.5668 31.5918 55.4608 31.4726 55.4608 31.2475C55.5932 30.678 56.2555 30.5852 56.4939 30.9561C56.6793 31.1812 56.7455 31.658 56.772 31.9892C56.772 32.1481 56.5071 31.9494 56.3482 31.9892C56.2025 32.0421 56.1628 32.2143 56.1495 32.3733C56.123 32.7971 56.07 33.4726 56.0568 33.9626V33.9758ZM46.8386 40.1478C46.971 38.8763 46.7989 36.638 46.7856 35.8963C46.7326 34.1348 46.4413 30.7309 46.3088 30.1747C46.1499 29.1019 46.7459 30.2939 46.6664 29.6714C46.4677 28.6118 45.8717 27.8701 45.183 26.89C44.9579 26.5854 44.9711 26.5192 44.6135 26.9695C44.2427 27.8436 44.5738 28.4396 44.6665 29.1151C45.1698 31.3269 45.4612 33.3534 45.5936 35.3665C45.742 37.4604 45.7597 39.5616 45.6466 41.6577C46.0307 41.6842 46.6399 41.0484 46.8386 40.1478Z" fill="white"/>
<path fill-rule="evenodd" clip-rule="evenodd" d="M63.6327 38.1214C62.7453 36.6512 61.4208 35.0487 61.0632 34.4526C59.8773 32.7878 58.6315 31.1665 57.3283 29.5919C56.229 28.4396 57.8316 29.4065 57.1164 28.5191C56.5071 27.8569 56.3217 27.6449 55.8184 27.2476C55.5535 27.0754 55.3946 26.7576 55.3151 27.3006C55.2754 27.7774 55.2489 28.3337 55.2754 28.7442C55.2754 28.9694 55.5138 29.38 55.7124 29.6316C58.3614 32.903 61.2752 36.2539 63.6194 40.4524C63.9506 40.267 63.8446 38.3863 63.6194 38.1214H63.6327Z" fill="white"/>
<path fill-rule="evenodd" clip-rule="evenodd" d="M23.674 35.393C23.6078 35.5122 23.4621 35.6579 23.5151 35.7903C23.621 35.9228 23.7005 35.9625 23.8594 35.9758C23.9919 35.9758 24.2038 36.0023 24.2435 35.9228C24.2913 35.8644 24.3226 35.7944 24.3342 35.7199C24.3459 35.6454 24.3374 35.5691 24.3098 35.499C24.1773 35.1281 23.7535 35.2606 23.674 35.393Z" fill="#1BA400"/>
<path fill-rule="evenodd" clip-rule="evenodd" d="M53.3948 56.9419C54.5736 56.9816 55.3418 56.9949 56.3881 57.1141L57.6066 56.9816C58.9708 56.8492 59.037 58.9286 59.037 58.9286C59.0238 60.1471 58.547 60.2001 57.951 60.3325C57.6066 60.3855 57.4212 60.1338 57.249 59.8689C57.0238 59.9617 56.7192 59.9749 56.3351 59.9219C55.8451 59.8954 55.355 59.8954 54.8782 59.8557C54.3484 59.816 54.0703 59.9219 53.5538 59.8689C53.4346 60.0411 53.2889 60.2663 52.9843 60.2001C52.7194 60.1736 52.4015 59.4186 52.4942 58.8624C52.6796 58.4518 52.6267 58.5842 52.6134 58.3988C47.7924 58.2796 42.9449 58.0677 38.2166 58.1339C34.5081 58.1339 30.8659 58.2928 27.2236 58.4518C25.2767 58.4253 23.78 58.1074 22.7602 56.5975C22.8529 56.5975 27.7269 56.8889 29.1441 56.7962C31.793 56.7565 34.1902 56.5446 36.8789 56.4651C42.1767 56.5578 47.4083 56.5578 52.7061 56.9287C52.2028 56.5843 52.1763 55.7631 52.971 55.5645C53.024 55.5247 53.0637 55.9618 53.1829 55.9618C53.7922 55.9221 53.5273 56.7565 53.3948 56.9419ZM32.1506 27.7641C31.3559 30.0555 32.6009 32.5587 33.475 32.3203C34.1108 32.5852 34.5081 31.3799 34.773 30.0687C34.9452 29.6979 35.0776 29.6581 35.1703 29.8435C35.1439 31.5918 35.3028 31.9759 35.7531 32.5057C36.0122 32.737 36.3455 32.8681 36.6927 32.8754C37.04 32.8827 37.3785 32.7657 37.6471 32.5454L38.4285 31.7508C38.6007 31.5786 38.8258 31.5653 39.0775 31.7243C39.3159 31.9494 39.2761 32.3203 39.7927 32.5852C40.2165 32.7573 41.1436 32.6249 41.3555 32.2541C41.6337 31.764 41.7131 31.5918 41.8456 31.4064C42.0443 31.1415 42.3886 31.2475 42.3886 31.3402C42.3621 31.4859 42.1635 31.6448 42.2959 31.9097C42.5343 32.0951 42.6005 31.9759 42.7462 31.9362C43.2495 31.6978 43.6336 30.5852 43.6336 30.5852C43.6469 30.1879 43.4217 30.2144 43.276 30.2939L42.8787 30.572C42.6138 30.6117 42.137 30.7707 41.8986 30.3998C41.6602 29.9627 41.6469 29.3403 41.4615 28.8899C41.4615 28.8634 41.1436 28.188 41.4483 28.1482C41.5939 28.1747 41.9251 28.2542 41.978 27.9893C42.137 27.7244 41.6337 26.9695 41.2893 26.5854C40.9979 26.2675 40.5741 26.2278 40.1768 26.5589C39.9119 26.8238 39.9384 27.0887 39.8854 27.3668C39.8396 27.5601 39.8397 27.7613 39.8857 27.9545C39.9317 28.1477 40.0223 28.3275 40.1503 28.4794C40.4284 29.0224 40.945 29.7243 40.7728 30.7309C40.7728 30.7309 40.4682 31.1945 39.9516 31.1283C39.7397 31.0753 39.3954 30.9958 39.2099 29.6184C39.0775 28.5721 39.2364 27.1152 38.7993 26.4397C38.6404 26.0159 38.5345 25.6185 38.1371 26.3337C38.0312 26.5986 37.5808 27.0225 37.8987 27.8966C38.2017 28.6664 38.2932 29.5033 38.1636 30.3203C37.9782 30.5985 37.9385 30.7044 37.6868 30.9826C37.3557 31.3402 36.9848 31.2475 36.7067 31.115C36.4418 30.9428 36.2299 30.8501 36.1107 30.2806C36.1372 29.38 36.1769 27.9098 36.018 27.592C35.7796 27.1152 35.3823 27.2873 35.2101 27.433C34.4415 28.2853 33.9276 29.3361 33.7267 30.466C33.5015 31.1945 33.2631 30.9958 33.0909 30.6912C32.6804 30.2939 32.6539 27.2609 32.1506 27.7641Z" fill="white"/>
<path fill-rule="evenodd" clip-rule="evenodd" d="M34.561 32.7574C34.9318 32.4925 34.7597 32.3203 35.3027 32.8633C36.0017 34.0923 36.4094 35.4652 36.4947 36.8764C36.455 37.2075 36.6934 37.4062 36.7993 37.34C36.8523 36.5718 38.7463 35.4857 40.4681 35.3268C40.7329 35.2738 40.6005 34.7705 40.6402 34.5056C40.5343 33.552 41.17 32.6779 42.0839 32.6117C43.3024 32.7971 43.713 33.4461 43.7395 34.4394C43.607 36.3599 41.6071 36.691 40.4813 36.8234C40.3091 36.9029 40.2429 36.9824 40.4813 37.0751L45.1831 37.0883L45.4215 37.2208C45.448 37.3532 45.3553 37.2473 45.1566 37.5519C44.958 37.8565 44.7063 38.5717 44.6931 39.0353C43.2835 39.4467 41.8376 39.7217 40.3753 39.8564C39.872 40.1213 39.6204 40.4657 39.7131 40.8498C39.8853 41.2868 41.0243 41.7107 41.0243 41.7372C41.2362 41.8696 41.4879 42.1875 40.9581 42.8232C38.6668 42.7305 36.892 41.7504 36.2828 40.373C36.0974 40.2405 35.8854 40.373 35.7662 40.5584C34.9688 41.7842 33.8191 42.7399 32.4683 43.3C31.5545 43.5252 30.6274 43.1676 30.1903 42.5716C29.8989 42.2272 29.9121 41.8564 29.7929 41.7769C29.3029 41.9888 25.0779 43.7901 25.6209 42.9557C26.6407 41.8431 28.4288 41.0352 29.9916 39.9491C30.1241 39.5915 30.3227 38.3598 30.9452 37.9625C30.9717 37.9625 30.8393 38.6777 30.8525 38.9823C30.8525 39.2339 30.8393 39.3267 30.8922 39.2604C30.9982 39.1942 32.9054 37.6976 33.0511 37.234C33.2365 36.9691 33.1041 36.3069 33.1041 36.2804C32.7597 35.3533 32.2564 35.2871 32.071 34.8235C31.8988 34.2143 31.9783 33.5255 32.3227 33.3269C32.6273 33.0487 32.9849 33.0752 33.3292 33.3798C33.7266 33.7242 34.0577 34.3997 34.1636 34.903C34.0974 35.1016 33.6604 34.7705 33.5014 34.8765C33.7663 35.1414 33.8988 35.4725 33.9915 35.8698C34.2564 36.9294 34.1636 37.3267 33.9252 38.0154C33.0776 39.7902 31.9915 40.3332 31.0379 40.9822C31.0114 40.9955 30.9982 41.4458 31.3558 41.6842C31.4882 41.8166 31.9783 41.8696 32.5478 41.6842C33.7866 41.0002 34.7888 39.9565 35.4219 38.6909C35.5941 37.7373 35.3557 36.7307 35.104 35.8566C34.8153 35.1594 34.5503 34.4526 34.3093 33.7375C34.2828 33.2077 34.3226 33.0222 34.5742 32.7574H34.561ZM22.27 27.8039C22.7998 28.0555 23.8197 27.9363 23.7799 27.0754L23.7534 26.6649C23.6475 26.4 23.3429 26.4662 23.2766 26.7443C23.2501 26.8238 23.3164 26.9695 23.2369 27.0092C23.1839 27.049 23.0117 27.0225 23.025 26.7841C23.025 26.7046 22.972 26.6251 22.9323 26.5721C22.8925 26.5589 22.8793 26.5457 22.8131 26.5457C22.7336 26.5457 22.7468 26.5721 22.6939 26.6384L22.6541 26.837C22.6541 26.9298 22.6144 26.9562 22.5482 26.9695C22.482 26.9695 22.4952 26.9695 22.4422 26.943C22.4025 26.9033 22.3628 26.89 22.3628 26.8238L22.3363 26.6119C22.301 26.5728 22.2549 26.5452 22.2038 26.5324C21.8992 26.5324 21.8859 26.8768 21.8992 27.0092C21.8727 27.0225 21.8595 27.6317 22.27 27.8039Z" fill="white"/>
<path fill-rule="evenodd" clip-rule="evenodd" d="M38.1104 34.5056C38.6402 34.7705 39.9382 34.6116 39.6203 33.7772L39.5938 33.3799C39.4878 33.115 39.1965 33.1812 39.117 33.4461C39.1037 33.5255 39.1567 33.6712 39.0773 33.711C39.0375 33.7639 38.8653 33.7375 38.8653 33.4991C38.8653 33.4196 38.8124 33.3401 38.7726 33.2871C38.7461 33.2607 38.7197 33.2607 38.6534 33.2607C38.5872 33.2607 38.5872 33.2739 38.5475 33.3401L38.5077 33.5388C38.4945 33.6315 38.4548 33.6712 38.4018 33.6712C38.3223 33.6712 38.3488 33.6712 38.2826 33.6447C38.2561 33.605 38.2031 33.5918 38.2031 33.5255C38.2031 33.4593 38.2031 33.3534 38.1766 33.3136C38.1501 33.2739 38.0972 33.2606 38.0442 33.2474C37.7528 33.2474 37.7263 33.5785 37.7396 33.711C37.7263 33.7375 37.7131 34.3335 38.1104 34.5056ZM47.3551 31.7243C47.8849 31.9892 48.9047 31.87 48.865 31.0091L48.8385 30.5985C48.7325 30.3336 48.4279 30.3998 48.3617 30.6647C48.3352 30.7574 48.4014 30.8899 48.322 30.9296C48.269 30.9826 48.0968 30.9561 48.11 30.7177C48.11 30.6382 48.0438 30.5588 48.0173 30.5058C47.9776 30.4925 47.9644 30.4793 47.8849 30.4793C47.8187 30.4793 47.8187 30.5058 47.7789 30.572L47.7392 30.7707C47.7392 30.8501 47.6995 30.8899 47.6332 30.9031C47.567 30.9031 47.5803 30.9031 47.5273 30.8634C47.4875 30.8369 47.4478 30.8104 47.4478 30.7574C47.4478 30.6912 47.4346 30.5853 47.4081 30.5323C47.3816 30.4925 47.3419 30.4793 47.2756 30.466C46.9843 30.466 46.971 30.8104 46.9843 30.9296C46.9578 30.9561 46.9445 31.5653 47.3551 31.7243ZM52.1231 38.7042C51.196 39.7637 51.6066 41.512 51.8185 41.8829C52.1364 42.5186 52.3748 42.9159 52.984 43.2206C53.5403 43.6179 53.9641 43.3662 54.2025 43.0881C54.7588 42.5186 54.7588 41.0484 55.0237 40.7571C55.2091 40.2273 55.6594 40.32 55.8846 40.5584C56.0891 40.8462 56.3622 41.0784 56.6793 41.2339C57.1958 41.6842 57.8051 41.7637 58.4143 41.3663C58.8249 41.1279 59.103 40.8233 59.3414 40.2273C59.6063 39.4988 59.4739 36.1612 59.4076 34.1878C59.3944 34.0288 58.8779 31.4594 58.8779 31.4329C58.8779 31.4064 58.7984 30.1217 58.7454 29.8171C58.7454 29.6979 58.7057 29.6581 58.8381 29.6846C58.9706 29.7906 58.9971 29.8038 59.0765 29.8436C59.209 29.87 59.3414 29.6316 59.262 29.4065L57.964 27.0225C57.8713 26.9298 57.7388 26.8238 57.5667 27.0622C57.4664 27.1496 57.3862 27.2575 57.3313 27.3786C57.2765 27.4997 57.2483 27.6312 57.2488 27.7642C57.2885 28.3337 57.3812 28.9032 57.421 29.4727L57.9507 32.36C58.1097 34.4262 58.1494 36.1082 58.3083 38.1876C58.2819 39.0485 58.017 39.8167 57.7521 39.9094C57.7521 39.9094 57.368 40.1478 57.1163 39.9094C56.9177 39.8167 56.1627 38.6379 56.1627 38.6379C55.7654 38.2803 55.527 38.373 55.2356 38.6379C54.4939 39.3664 54.1496 40.7438 53.633 41.6842C53.5006 41.8961 53.1165 42.0815 52.7059 41.6709C51.6463 40.214 52.2688 38.1744 52.1364 38.7042H52.1231ZM47.5935 26.6649C48.0836 26.8635 48.4147 27.8569 48.3087 28.3337C48.216 28.9164 47.9511 29.5654 47.7789 29.4727C47.567 29.4065 47.9114 28.8899 47.7127 28.3469C47.6067 28.0026 46.9445 27.3536 47.0107 27.1682C46.8783 26.7708 47.3021 26.5986 47.5935 26.6649Z" fill="white"/>
<path fill-rule="evenodd" clip-rule="evenodd" d="M53.6997 39.2869C53.7924 38.0949 53.6203 37.3797 53.5938 36.691C53.5673 36.0023 52.7991 30.7309 52.6667 30.2012C52.468 29.2078 53.3951 30.0687 53.2891 29.486C52.9713 28.7575 52.1899 27.6979 51.9382 27.0754C51.7925 26.8106 51.8455 26.5589 51.5144 26.996C51.2285 27.7837 51.1287 28.6268 51.223 29.4595C52.0177 33.605 52.8256 37.0486 52.6931 40.9955C53.0772 40.9955 53.5143 40.1346 53.6997 39.2737V39.2869ZM61.9643 28.3337C62.4146 28.5588 62.6663 29.7906 62.6266 30.1349C62.5339 30.7839 62.2954 31.4594 62.1233 31.3799C61.9511 31.3005 62.163 30.4263 62.0703 30.1614C61.9776 29.7773 61.3816 29.0886 61.4346 28.8767C61.3154 28.4529 61.6994 28.2675 61.9643 28.3469V28.3337ZM29.1576 37.0486C29.5814 37.2208 29.8198 38.1082 29.7801 38.3731C29.7006 38.8499 29.4754 39.3531 29.3165 39.3002C29.1443 39.2339 29.343 38.5982 29.2635 38.3995C29.2238 37.9095 28.641 37.6578 28.6543 37.4592C28.5483 37.0618 28.9059 36.9956 29.1576 37.0618V37.0486Z" fill="white"/>
<path fill-rule="evenodd" clip-rule="evenodd" d="M39.3691 38.4128C39.8989 38.4393 40.177 38.8763 39.6737 39.0485C39.1704 39.2207 38.6804 39.3531 38.6804 40.0816C38.8658 41.1014 38.4155 40.7438 38.1506 40.6114C37.846 40.3862 36.9718 39.8564 36.8526 38.6909C36.8394 38.426 37.0513 38.1876 37.3957 38.1876C37.9254 38.3201 38.6936 38.3466 39.3559 38.4128H39.3691Z" fill="#1B9D00"/>
<path fill-rule="evenodd" clip-rule="evenodd" d="M17.8731 26.3735C18.4956 26.5589 18.5353 27.4728 18.4824 27.7509C18.4029 28.241 18.1777 28.7575 18.0188 28.6913C17.8466 28.6383 18.0188 27.9761 17.9393 27.7642C17.8466 27.4728 17.3168 26.943 17.3831 26.7841C17.2506 26.4662 17.6215 26.3205 17.8731 26.3867V26.3735ZM30.1773 30.6912C29.7005 30.9561 29.5151 31.7243 29.8064 32.1746C30.0846 32.5719 30.5216 32.4262 30.5879 32.4262C31.0514 32.4792 31.3296 31.5389 31.3296 31.5389C31.3296 31.5389 31.3428 31.274 30.7998 31.7773C30.5614 31.817 30.5349 31.7375 30.4687 31.6051C30.4122 31.3559 30.4401 31.095 30.5481 30.8634C30.6276 30.6382 30.4422 30.5323 30.1773 30.6912ZM33.7533 26.0159C33.5282 26.1881 33.0381 26.6781 33.0249 27.2476C33.0249 27.5655 32.9586 27.5655 33.1573 27.7774C33.3162 27.9893 33.4752 27.9761 33.7798 27.8171C33.8556 27.768 33.9206 27.7039 33.9707 27.6287C34.0208 27.5536 34.055 27.4689 34.0712 27.3801C34.1507 27.0092 33.6871 27.5522 33.6341 27.1417C33.5282 26.7708 33.8195 26.6119 34.0977 26.241C34.0977 25.9894 34.0977 25.8172 33.7666 26.0159H33.7533ZM36.6539 26.5457C36.5384 27.0102 36.4674 27.4848 36.442 27.9628C36.3625 28.3204 36.8128 28.4661 37.0247 28.0026C37.3293 27.1682 37.3293 26.8105 37.3558 26.4529C37.2631 25.9232 36.8923 25.9232 36.6539 26.5324V26.5457ZM54.8651 35.8036C54.9181 35.7374 57.4346 33.9494 57.4346 33.9494C57.6862 33.8699 57.6332 34.8765 57.514 34.8765C56.7368 35.6298 55.8422 36.2516 54.8651 36.7175C54.7327 36.7969 54.6135 36.0288 54.8651 35.7904V35.8036ZM57.1432 35.7904C57.5803 36.0023 57.7657 37.3002 57.7127 37.6446C57.726 38.3333 57.2889 38.8763 57.1167 38.7836C56.9313 38.7042 57.1299 37.936 57.0505 37.6711C56.9578 37.287 56.5737 36.5718 56.6399 36.3731C56.5075 35.936 56.8783 35.7109 57.1432 35.7904ZM42.2563 41.3531C42.4285 41.0882 42.9583 40.7306 42.9715 40.7306C43.2232 40.5981 43.4616 40.8233 43.4483 40.81C43.4881 41.0617 43.2894 41.2868 43.3556 41.618C43.4086 41.7504 43.4483 41.8961 43.7 41.8431C44.0973 41.5385 44.4682 41.512 44.8655 41.4855C45.1701 41.512 45.1701 42.0153 44.9847 42.0285C44.243 42.1875 43.9251 42.3861 43.3954 42.5848C43.1437 42.7305 42.9318 42.5451 42.9318 42.5318C42.9318 42.5186 42.7993 42.3861 42.8921 42.055C42.9053 41.7901 42.7993 41.6577 42.5874 41.6842C42.4153 41.7636 42.2696 41.8166 42.1901 41.6312C42.1504 41.4988 42.1504 41.4325 42.2563 41.3531ZM59.7789 42.0418C59.8848 42.1742 59.9643 42.3067 59.7789 42.5318L59.3021 42.9292C59.2093 43.0881 59.1696 43.3 59.4213 43.3662C59.8848 43.4987 60.9709 42.7967 60.9709 42.7835C61.1431 42.651 61.0901 42.3994 61.0636 42.3994C60.9709 42.2802 60.7325 42.3464 60.5868 42.3332C60.5073 42.3332 60.2689 42.2934 60.3749 42.0815C60.4808 41.9491 60.5073 41.8696 60.5735 41.6974C60.653 41.5385 60.5868 41.4325 60.3219 41.3398C60.057 41.3001 59.951 41.3266 59.6597 41.3398C59.4875 41.3796 59.4345 41.4458 59.3948 41.6444C59.4213 41.9358 59.5934 41.9226 59.7921 42.0418H59.7789Z" fill="white"/>
<path fill-rule="evenodd" clip-rule="evenodd" d="M42.3487 34.7573C42.2825 34.8897 42.0441 34.8765 41.8189 34.7573C41.5937 34.6381 41.4878 34.4262 41.554 34.307C41.6202 34.1878 41.8586 34.1878 42.0838 34.307C42.309 34.4262 42.4149 34.6381 42.3487 34.7573ZM30.9186 27.8966C30.7862 27.9364 30.614 27.8172 30.5345 27.6317C30.4551 27.4463 30.4948 27.3006 30.6273 27.2609C30.7597 27.2211 30.9319 27.3536 31.0114 27.5258C31.0908 27.6979 31.0511 27.8701 30.9186 27.8966Z" fill="#259F00"/>
<path fill-rule="evenodd" clip-rule="evenodd" d="M53.5274 58.5312C54.7194 58.5842 55.8584 58.5445 57.0504 58.6107C57.2756 58.7829 57.1167 59.2465 56.971 59.2067L55.9644 59.1802C55.9644 58.7961 54.971 58.8624 55.0108 59.1935C54.481 59.2597 54.0042 59.1802 53.4744 59.1537C53.3155 58.9551 53.342 58.6107 53.5274 58.5312Z" fill="#209000"/>
</svg>
