<svg width="191" height="232" viewBox="0 0 191 232" fill="none" xmlns="http://www.w3.org/2000/svg">
<path fill-rule="evenodd" clip-rule="evenodd" d="M150.318 200.74C150.318 203.773 147.791 206.247 144.662 206.247H56.9286C53.8397 206.247 51.2723 203.773 51.2723 200.74V25.488C51.2723 22.4554 53.7996 19.9815 56.9286 19.9815H144.662C147.751 19.9815 150.318 22.4554 150.318 25.488V200.74Z" fill="#123544"/>
<g filter="url(#filter0_f_283_2742)">
<path fill-rule="evenodd" clip-rule="evenodd" d="M126.476 186.39C126.476 188.828 124.297 190.817 121.598 190.817H45.9365C43.2726 190.817 41.0585 188.828 41.0585 186.39V45.4858C41.0585 43.0476 43.238 41.0585 45.9365 41.0585H121.598C124.262 41.0585 126.476 43.0476 126.476 45.4858V186.39Z" fill="#123544"/>
</g>
<path fill-rule="evenodd" clip-rule="evenodd" d="M141.292 40.5311H138.925H134.392H129.217H124.925H124.644H118.867H104.345H99.3309H94.1559H89.342H82.1212H77.6282H63.4273H62.9459H58.4128C56.9949 40.5311 55.8454 41.6806 55.8454 43.0985V60.4026V65.7496V80.5135V98.3899V102.819V147.151V151.181V171.691V177.038V190.044C55.8454 190.222 55.9891 190.365 56.1663 190.365H60.7797H71.0894H76.9463H77.6282H81.3991H82.1212H86.5741H87.2159H91.1472H104.867H105.067H109.962H122.157H127.131H128.254H134.191H141.779C143.991 190.365 145.785 188.572 145.785 186.36V178.155V169.935V168.02V165.546V160.718V158.603V153.176V102.819V98.3899V86.6984V80.5135V54.0581V49.1501V44.5368C145.785 42.3245 143.991 40.5311 141.779 40.5311H141.292Z" fill="#EDEEF0"/>
<circle cx="148.762" cy="119.425" r="42.2378" fill="#18C4D8"/>
<path d="M149.502 126.277C142.08 126.277 136.063 120.69 136.063 113.787V103.772C136.063 96.9085 142.08 93.3173 149.502 93.3173C156.923 93.3173 162.941 96.8686 162.941 103.772V113.787C162.941 120.651 156.923 126.277 149.502 126.277ZM149.502 97.3873C144.166 97.3873 139.834 99.5022 139.834 104.37V113.348C139.834 118.216 144.166 122.167 149.502 122.167C154.837 122.167 159.17 118.216 159.17 113.348V104.37C159.17 99.5421 154.837 97.3873 149.502 97.3873Z" fill="#123544"/>
<path d="M167.072 112.231H131.369C131.249 112.231 131.088 112.231 130.968 112.231V137.849H167.072V112.231Z" fill="#F76031"/>
<path d="M167.072 137.849H130.968V139.525H167.072V137.849Z" fill="#123544"/>
<path d="M150.384 118.376H147.656V120.97H150.384V118.376Z" fill="white"/>
<path d="M144.928 118.376H142.16V120.97H144.928V118.376Z" fill="white"/>
<path d="M155.88 118.376H153.152V120.97H155.88V118.376Z" fill="white"/>
<path d="M150.384 123.523H147.656V126.117H150.384V123.523Z" fill="white"/>
<path d="M144.928 123.524H142.16V126.117H144.928V123.524Z" fill="white"/>
<path d="M155.88 123.523H153.152V126.117H155.88V123.523Z" fill="white"/>
<path d="M150.384 128.671H147.656V131.265H150.384V128.671Z" fill="white"/>
<path d="M144.928 128.671H142.16V131.265H144.928V128.671Z" fill="white"/>
<path d="M155.88 128.671H153.152V131.265H155.88V128.671Z" fill="white"/>
<path d="M185.134 159.66C185.134 160.766 184.237 161.663 183.131 161.663H116.74C115.634 161.663 114.738 160.766 114.738 159.66V146.066C114.738 144.96 115.634 144.064 116.74 144.064H183.131C184.237 144.064 185.134 144.96 185.134 146.066V159.66Z" fill="#EDEEF0"/>
<path d="M128.455 153.063C128.455 154.976 126.864 156.558 124.941 156.558C123.019 156.558 121.428 154.976 121.428 153.063C121.428 151.151 123.019 149.568 124.941 149.568C126.864 149.568 128.455 151.151 128.455 153.063Z" fill="#123544"/>
<path d="M141.051 153.063C141.051 154.976 139.46 156.558 137.537 156.558C135.615 156.558 134.024 154.976 134.024 153.063C134.024 151.151 135.615 149.569 137.537 149.569C139.46 149.569 141.051 151.151 141.051 153.063Z" fill="#123544"/>
<path d="M153.646 153.063C153.646 154.976 152.055 156.558 150.133 156.558C148.21 156.558 146.619 154.976 146.619 153.063C146.619 151.151 148.21 149.569 150.133 149.569C152.121 149.569 153.646 151.151 153.646 153.063Z" fill="#123544"/>
<path d="M166.241 153.063C166.241 154.976 164.65 156.558 162.728 156.558C160.805 156.558 159.214 154.976 159.214 153.063C159.214 151.151 160.805 149.569 162.728 149.569C164.717 149.569 166.241 151.151 166.241 153.063Z" fill="#123544"/>
<path d="M178.904 153.063C178.904 154.976 177.313 156.558 175.39 156.558C173.468 156.558 171.877 154.976 171.877 153.063C171.877 151.151 173.468 149.569 175.39 149.569C177.313 149.569 178.904 151.151 178.904 153.063Z" fill="#123544"/>
<rect x="64.2868" y="51.3751" width="65.7032" height="9.38617" rx="1" fill="white"/>
<rect x="64.2868" y="134.677" width="38.7179" height="9.38617" rx="1" fill="white"/>
<rect x="64.2868" y="68.9741" width="46.9308" height="9.38617" rx="1" fill="white"/>
<rect x="64.2868" y="152.276" width="42.2378" height="9.38617" rx="1" fill="white"/>
<rect x="64.2868" y="86.5732" width="36.3714" height="9.38617" rx="1" fill="white"/>
<rect x="64.2868" y="169.875" width="65.7032" height="9.38617" rx="1" fill="white"/>
<defs>
<filter id="filter0_f_283_2742" x="0" y="0" width="167.535" height="231.875" filterUnits="userSpaceOnUse" color-interpolation-filters="sRGB">
<feFlood flood-opacity="0" result="BackgroundImageFix"/>
<feBlend mode="normal" in="SourceGraphic" in2="BackgroundImageFix" result="shape"/>
<feGaussianBlur stdDeviation="20.5" result="effect1_foregroundBlur_283_2742"/>
</filter>
</defs>
</svg>
