<svg width="34" height="34" viewBox="0 0 34 34" fill="none" xmlns="http://www.w3.org/2000/svg">
<rect width="34" height="34" rx="6" fill="#69B935"/>
<mask id="mask0_283_2864" style="mask-type:alpha" maskUnits="userSpaceOnUse" x="5" y="5" width="24" height="24">
<rect x="5" y="5" width="24" height="24" fill="#D9D9D9"/>
</mask>
<g mask="url(#mask0_283_2864)">
<path d="M16 27.9501V25.9501C13.9167 25.7167 12.1294 24.8544 10.638 23.3631C9.14605 21.8711 8.28338 20.0834 8.05005 18H6.05005V16H8.05005C8.28338 13.9167 9.14605 12.129 10.638 10.637C12.1294 9.14572 13.9167 8.28338 16 8.05005V6.05005H18V8.05005C20.0834 8.28338 21.8711 9.14572 23.3631 10.637C24.8544 12.129 25.7167 13.9167 25.9501 16H27.9501V18H25.9501C25.7167 20.0834 24.8544 21.8711 23.3631 23.3631C21.8711 24.8544 20.0834 25.7167 18 25.9501V27.9501H16ZM17 24C18.9334 24 20.5834 23.3167 21.95 21.95C23.3167 20.5834 24 18.9334 24 17C24 15.0667 23.3167 13.4167 21.95 12.05C20.5834 10.6834 18.9334 10 17 10C15.0667 10 13.4167 10.6834 12.05 12.05C10.6834 13.4167 10 15.0667 10 17C10 18.9334 10.6834 20.5834 12.05 21.95C13.4167 23.3167 15.0667 24 17 24ZM17 21C15.9 21 14.9584 20.6084 14.175 19.825C13.3917 19.0417 13 18.1 13 17C13 15.9 13.3917 14.9584 14.175 14.175C14.9584 13.3917 15.9 13 17 13C18.1 13 19.0417 13.3917 19.825 14.175C20.6084 14.9584 21 15.9 21 17C21 18.1 20.6084 19.0417 19.825 19.825C19.0417 20.6084 18.1 21 17 21Z" fill="white"/>
</g>
</svg>
