<svg width="30" height="24" viewBox="0 0 30 24" fill="none" xmlns="http://www.w3.org/2000/svg">
<circle cx="9.14282" cy="6.70139" r="2.07881" transform="rotate(178.702 9.14282 6.70139)" fill="url(#paint0_linear_82_3990)"/>
<circle r="0.383716" transform="matrix(1.01814 -0.0230776 -0.0230776 -1.01814 9.98368 5.76078)" fill="white"/>
<circle r="0.216617" transform="matrix(1.01814 -0.0230776 -0.0230776 -1.01814 9.92394 6.514)" fill="white"/>
<circle cx="11.9781" cy="5.82031" r="1.66305" transform="rotate(178.702 11.9781 5.82031)" fill="url(#paint1_linear_82_3990)"/>
<circle r="0.306973" transform="matrix(1.01814 -0.0230776 -0.0230776 -1.01814 12.6509 5.06782)" fill="white"/>
<circle r="0.173294" transform="matrix(1.01814 -0.0230776 -0.0230776 -1.01814 12.6031 5.67041)" fill="white"/>
<circle cx="12.5691" cy="1.24729" r="1.24728" transform="rotate(178.702 12.5691 1.24729)" fill="url(#paint2_linear_82_3990)"/>
<circle r="0.23023" transform="matrix(1.01814 -0.0230776 -0.0230776 -1.01814 13.0736 0.682928)" fill="white"/>
<circle r="0.12997" transform="matrix(1.01814 -0.0230776 -0.0230776 -1.01814 13.0376 1.13486)" fill="white"/>
<circle cx="16.4183" cy="4.80636" r="0.831523" transform="rotate(178.702 16.4183 4.80636)" fill="url(#paint3_linear_82_3990)"/>
<circle r="0.153487" transform="matrix(1.01814 -0.0230776 -0.0230776 -1.01814 16.7547 4.4301)" fill="white"/>
<circle r="0.086647" transform="matrix(1.01814 -0.0230776 -0.0230776 -1.01814 16.7309 4.73141)" fill="white"/>
<circle cx="11.0133" cy="9.77799" r="2.49457" transform="rotate(178.702 11.0133 9.77799)" fill="url(#paint4_linear_82_3990)"/>
<circle r="0.46046" transform="matrix(1.01814 -0.0230776 -0.0230776 -1.01814 12.0224 8.64927)" fill="white"/>
<circle r="0.259941" transform="matrix(1.01814 -0.0230776 -0.0230776 -1.01814 11.9507 9.55315)" fill="white"/>
<circle cx="14.971" cy="10.7429" r="2.49457" transform="rotate(178.702 14.971 10.7429)" fill="url(#paint5_linear_82_3990)"/>
<circle r="0.46046" transform="matrix(1.01814 -0.0230776 -0.0230776 -1.01814 15.9801 9.61417)" fill="white"/>
<circle r="0.259941" transform="matrix(1.01814 -0.0230776 -0.0230776 -1.01814 15.9084 10.518)" fill="white"/>
<circle cx="14.09" cy="7.9075" r="1.24728" transform="rotate(178.702 14.09 7.9075)" fill="url(#paint6_linear_82_3990)"/>
<circle r="0.23023" transform="matrix(1.01814 -0.0230776 -0.0230776 -1.01814 14.5944 7.34313)" fill="white"/>
<circle r="0.12997" transform="matrix(1.01814 -0.0230776 -0.0230776 -1.01814 14.5587 7.79508)" fill="white"/>
<circle cx="5.20968" cy="9.93541" r="2.07881" transform="rotate(178.702 5.20968 9.93541)" fill="url(#paint7_linear_82_3990)"/>
<circle r="0.383716" transform="matrix(1.01814 -0.0230776 -0.0230776 -1.01814 6.05054 8.9948)" fill="white"/>
<circle r="0.216617" transform="matrix(1.01814 -0.0230776 -0.0230776 -1.01814 5.99081 9.74802)" fill="white"/>
<circle cx="8.04501" cy="9.05433" r="1.66305" transform="rotate(178.702 8.04501 9.05433)" fill="url(#paint8_linear_82_3990)"/>
<circle r="0.306973" transform="matrix(1.01814 -0.0230776 -0.0230776 -1.01814 8.71773 8.30184)" fill="white"/>
<circle r="0.173294" transform="matrix(1.01814 -0.0230776 -0.0230776 -1.01814 8.66999 8.90443)" fill="white"/>
<circle cx="7.08012" cy="13.012" r="2.49457" transform="rotate(178.702 7.08012 13.012)" fill="url(#paint9_linear_82_3990)"/>
<circle r="0.46046" transform="matrix(1.01814 -0.0230776 -0.0230776 -1.01814 8.08925 11.8833)" fill="white"/>
<circle r="0.259941" transform="matrix(1.01814 -0.0230776 -0.0230776 -1.01814 8.01752 12.7872)" fill="white"/>
<circle cx="11.0377" cy="13.9769" r="2.49457" transform="rotate(178.702 11.0377 13.9769)" fill="url(#paint10_linear_82_3990)"/>
<circle r="0.46046" transform="matrix(1.01814 -0.0230776 -0.0230776 -1.01814 12.0469 12.8482)" fill="white"/>
<circle r="0.259941" transform="matrix(1.01814 -0.0230776 -0.0230776 -1.01814 11.9751 13.7521)" fill="white"/>
<circle cx="10.1567" cy="11.1415" r="1.24728" transform="rotate(178.702 10.1567 11.1415)" fill="url(#paint11_linear_82_3990)"/>
<circle r="0.23023" transform="matrix(1.01814 -0.0230776 -0.0230776 -1.01814 10.6611 10.5772)" fill="white"/>
<circle r="0.12997" transform="matrix(1.01814 -0.0230776 -0.0230776 -1.01814 10.6254 11.0291)" fill="white"/>
<circle cx="18.2953" cy="11.7024" r="2.07881" transform="rotate(165 18.2953 11.7024)" fill="url(#paint12_linear_82_3990)"/>
<circle r="0.383716" transform="matrix(0.983702 -0.263582 -0.263582 -0.983702 18.8895 10.5894)" fill="white"/>
<circle r="0.216617" transform="matrix(0.983702 -0.263582 -0.263582 -0.983702 19.0099 11.3354)" fill="white"/>
<circle cx="20.8413" cy="10.1748" r="1.66305" transform="rotate(165 20.8413 10.1748)" fill="url(#paint13_linear_82_3990)"/>
<circle r="0.306973" transform="matrix(0.983702 -0.263582 -0.263582 -0.983702 21.3167 9.28443)" fill="white"/>
<circle r="0.173294" transform="matrix(0.983702 -0.263582 -0.263582 -0.983702 21.4129 9.8812)" fill="white"/>
<circle cx="20.3321" cy="5.59204" r="1.24728" transform="rotate(165 20.3321 5.59204)" fill="url(#paint14_linear_82_3990)"/>
<circle r="0.23023" transform="matrix(0.983702 -0.263582 -0.263582 -0.983702 20.6886 4.92421)" fill="white"/>
<circle r="0.12997" transform="matrix(0.983702 -0.263582 -0.263582 -0.983702 20.7609 5.3718)" fill="white"/>
<circle cx="20.8413" cy="14.2485" r="2.49457" transform="rotate(165 20.8413 14.2485)" fill="url(#paint15_linear_82_3990)"/>
<circle r="0.46046" transform="matrix(0.983702 -0.263582 -0.263582 -0.983702 21.5543 12.9128)" fill="white"/>
<circle r="0.259941" transform="matrix(0.983702 -0.263582 -0.263582 -0.983702 21.6988 13.808)" fill="white"/>
<circle cx="24.9149" cy="14.2485" r="2.49457" transform="rotate(165 24.9149 14.2485)" fill="url(#paint16_linear_82_3990)"/>
<circle r="0.46046" transform="matrix(0.983702 -0.263582 -0.263582 -0.983702 25.6279 12.9128)" fill="white"/>
<circle r="0.259941" transform="matrix(0.983702 -0.263582 -0.263582 -0.983702 25.7725 13.808)" fill="white"/>
<circle cx="23.3873" cy="11.7025" r="1.24728" transform="rotate(165 23.3873 11.7025)" fill="url(#paint17_linear_82_3990)"/>
<circle r="0.23023" transform="matrix(0.983702 -0.263582 -0.263582 -0.983702 23.7438 11.0346)" fill="white"/>
<circle r="0.12997" transform="matrix(0.983702 -0.263582 -0.263582 -0.983702 23.8161 11.4822)" fill="white"/>
<circle cx="15.2401" cy="15.7761" r="2.07881" transform="rotate(165 15.2401 15.7761)" fill="url(#paint18_linear_82_3990)"/>
<circle r="0.383716" transform="matrix(0.983702 -0.263582 -0.263582 -0.983702 15.8343 14.663)" fill="white"/>
<circle r="0.216617" transform="matrix(0.983702 -0.263582 -0.263582 -0.983702 15.9547 15.409)" fill="white"/>
<circle cx="17.7861" cy="14.2485" r="1.66305" transform="rotate(165 17.7861 14.2485)" fill="url(#paint19_linear_82_3990)"/>
<circle r="0.306973" transform="matrix(0.983702 -0.263582 -0.263582 -0.983702 18.2615 13.358)" fill="white"/>
<circle r="0.173294" transform="matrix(0.983702 -0.263582 -0.263582 -0.983702 18.3577 13.9548)" fill="white"/>
<circle cx="17.7861" cy="18.3221" r="2.49457" transform="rotate(165 17.7861 18.3221)" fill="url(#paint20_linear_82_3990)"/>
<circle r="0.46046" transform="matrix(0.983702 -0.263582 -0.263582 -0.983702 18.4991 16.9864)" fill="white"/>
<circle r="0.259941" transform="matrix(0.983702 -0.263582 -0.263582 -0.983702 18.6436 17.8816)" fill="white"/>
<circle cx="21.8597" cy="18.3221" r="2.49457" transform="rotate(165 21.8597 18.3221)" fill="url(#paint21_linear_82_3990)"/>
<circle r="0.46046" transform="matrix(0.983702 -0.263582 -0.263582 -0.983702 22.5727 16.9864)" fill="white"/>
<circle r="0.259941" transform="matrix(0.983702 -0.263582 -0.263582 -0.983702 22.7172 17.8816)" fill="white"/>
<circle cx="20.3321" cy="15.7761" r="1.24728" transform="rotate(165 20.3321 15.7761)" fill="url(#paint22_linear_82_3990)"/>
<circle r="0.23023" transform="matrix(0.983702 -0.263582 -0.263582 -0.983702 20.6886 15.1083)" fill="white"/>
<circle r="0.12997" transform="matrix(0.983702 -0.263582 -0.263582 -0.983702 20.7609 15.5558)" fill="white"/>
<g filter="url(#filter0_f_82_3990)">
<path d="M7.19332 13.2291C6.80316 14.8294 5.12282 15.7942 3.4402 15.384C1.75757 14.9738 0.709827 13.3439 1.1 11.7435C1.49016 10.1432 3.1705 9.17838 4.85312 9.5886C6.53575 9.99883 7.58349 11.6287 7.19332 13.2291Z" fill="url(#paint23_linear_82_3990)" fill-opacity="0.5"/>
<path d="M8.75346 15.6561C8.36329 17.2564 6.68296 18.2212 5.00033 17.811C3.3177 17.4007 2.26996 15.7708 2.66013 14.1705C3.0503 12.5701 4.73063 11.6054 6.41326 12.0156C8.09588 12.4258 9.14363 14.0557 8.75346 15.6561Z" fill="url(#paint24_linear_82_3990)" fill-opacity="0.5"/>
<path d="M10.8925 12.7665C10.5023 14.3669 8.82199 15.3317 7.13936 14.9214C5.45674 14.5112 4.40899 12.8813 4.79916 11.281C5.18933 9.68061 6.86966 8.71583 8.55229 9.12606C10.2349 9.53628 11.2827 11.1662 10.8925 12.7665Z" fill="url(#paint25_linear_82_3990)" fill-opacity="0.5"/>
<path d="M13.8067 15.5236C13.4165 17.124 11.7362 18.0888 10.0536 17.6785C8.37094 17.2683 7.3232 15.6384 7.71337 14.0381C8.10354 12.4377 9.78387 11.4729 11.4665 11.8832C13.1491 12.2934 14.1969 13.9233 13.8067 15.5236Z" fill="url(#paint26_linear_82_3990)" fill-opacity="0.5"/>
<path d="M13.3161 11.6519C13.056 12.7188 11.9357 13.362 10.814 13.0885C9.69224 12.815 8.99375 11.7284 9.25386 10.6615C9.51397 9.59461 10.6342 8.95142 11.7559 9.22491C12.8777 9.49839 13.5762 10.585 13.3161 11.6519Z" fill="url(#paint27_linear_82_3990)" fill-opacity="0.5"/>
<path d="M17.5844 14.7391C17.3242 15.806 16.204 16.4492 15.0823 16.1757C13.9605 15.9022 13.262 14.8156 13.5221 13.7487C13.7823 12.6818 14.9025 12.0387 16.0242 12.3121C17.146 12.5856 17.8445 13.6722 17.5844 14.7391Z" fill="url(#paint28_linear_82_3990)" fill-opacity="0.5"/>
<path d="M10.2351 18.405C9.97498 19.4719 8.85476 20.1151 7.73301 19.8416C6.61126 19.5681 5.91277 18.4815 6.17288 17.4146C6.43299 16.3477 7.55321 15.7045 8.67496 15.978C9.79671 16.2515 10.4952 17.3381 10.2351 18.405Z" fill="url(#paint29_linear_82_3990)" fill-opacity="0.5"/>
<path d="M15.0332 13.4349C14.7731 14.5018 13.6529 15.145 12.5311 14.8715C11.4094 14.5981 10.7109 13.5115 10.971 12.4446C11.2311 11.3777 12.3513 10.7345 13.4731 11.008C14.5948 11.2814 15.2933 12.368 15.0332 13.4349Z" fill="url(#paint30_linear_82_3990)" fill-opacity="0.5"/>
<path d="M22.7284 17.3866C22.6698 15.7346 24.0217 14.3808 25.7479 14.3629C27.4742 14.3449 28.9212 15.6696 28.9798 17.3216C29.0384 18.9736 27.6865 20.3273 25.9602 20.3453C24.234 20.3632 22.787 19.0386 22.7284 17.3866Z" fill="url(#paint31_linear_82_3990)" fill-opacity="0.5"/>
<path d="M20.5738 15.4141C20.5152 13.7621 21.8671 12.4084 23.5934 12.3904C25.3197 12.3725 26.7666 13.6971 26.8252 15.3491C26.8838 17.0011 25.5319 18.3549 23.8057 18.3728C22.0794 18.3908 20.6324 17.0661 20.5738 15.4141Z" fill="url(#paint32_linear_82_3990)" fill-opacity="0.5"/>
<path d="M19.3026 18.7521C19.2439 17.1001 20.5958 15.7464 22.3221 15.7284C24.0484 15.7105 25.4953 17.0351 25.554 18.6871C25.6126 20.3391 24.2607 21.6929 22.5344 21.7108C20.8081 21.7288 19.3612 20.4041 19.3026 18.7521Z" fill="url(#paint33_linear_82_3990)" fill-opacity="0.5"/>
<path d="M15.7588 16.7941C15.7002 15.1421 17.0521 13.7884 18.7784 13.7704C20.5046 13.7525 21.9516 15.0771 22.0102 16.7291C22.0688 18.3811 20.7169 19.7349 18.9906 19.7528C17.2644 19.7708 15.8174 18.4461 15.7588 16.7941Z" fill="url(#paint34_linear_82_3990)" fill-opacity="0.5"/>
<path d="M17.2777 20.4356C17.2387 19.3343 18.1399 18.4317 19.2908 18.4198C20.4416 18.4078 21.4063 19.2909 21.4453 20.3922C21.4844 21.4936 20.5831 22.3961 19.4323 22.408C18.2814 22.42 17.3168 21.5369 17.2777 20.4356Z" fill="url(#paint35_linear_82_3990)" fill-opacity="0.5"/>
<path d="M12.3448 18.492C12.3057 17.3907 13.207 16.4882 14.3578 16.4762C15.5087 16.4642 16.4733 17.3473 16.5124 18.4487C16.5515 19.55 15.6502 20.4525 14.4993 20.4645C13.3485 20.4764 12.3839 19.5933 12.3448 18.492Z" fill="url(#paint36_linear_82_3990)" fill-opacity="0.5"/>
<path d="M18.4075 13.1093C18.3684 12.008 19.2697 11.1055 20.4205 11.0935C21.5714 11.0815 22.536 11.9646 22.5751 13.066C22.6141 14.1673 21.7129 15.0698 20.562 15.0818C19.4112 15.0937 18.4466 14.2106 18.4075 13.1093Z" fill="url(#paint37_linear_82_3990)" fill-opacity="0.5"/>
<path d="M15.1468 19.1278C15.1077 18.0265 16.0089 17.124 17.1598 17.112C18.3106 17.1001 19.2753 17.9832 19.3144 19.0845C19.3534 20.1858 18.4522 21.0883 17.3013 21.1003C16.1505 21.1123 15.1858 20.2292 15.1468 19.1278Z" fill="url(#paint38_linear_82_3990)" fill-opacity="0.5"/>
<path d="M10.5785 14.0544C10.1883 15.6547 8.50801 16.6195 6.82538 16.2093C5.14275 15.7991 4.09501 14.1692 4.48518 12.5688C4.87535 10.9685 6.55568 10.0037 8.23831 10.4139C9.92093 10.8241 10.9687 12.454 10.5785 14.0544Z" fill="url(#paint39_linear_82_3990)" fill-opacity="0.5"/>
<path d="M12.1386 16.4814C11.7485 18.0817 10.0681 19.0465 8.38551 18.6363C6.70289 18.2261 5.65514 16.5962 6.04531 14.9958C6.43548 13.3955 8.11581 12.4307 9.79844 12.8409C11.4811 13.2511 12.5288 14.881 12.1386 16.4814Z" fill="url(#paint40_linear_82_3990)" fill-opacity="0.5"/>
<path d="M14.2777 13.5918C13.8875 15.1922 12.2072 16.157 10.5245 15.7468C8.84192 15.3365 7.79418 13.7066 8.18434 12.1063C8.57451 10.5059 10.2548 9.54114 11.9375 9.95137C13.6201 10.3616 14.6678 11.9915 14.2777 13.5918Z" fill="url(#paint41_linear_82_3990)" fill-opacity="0.5"/>
<path d="M17.1919 16.349C16.8017 17.9493 15.1214 18.9141 13.4388 18.5039C11.7561 18.0936 10.7084 16.4637 11.0986 14.8634C11.4887 13.263 13.1691 12.2983 14.8517 12.7085C16.5343 13.1187 17.582 14.7486 17.1919 16.349Z" fill="url(#paint42_linear_82_3990)" fill-opacity="0.5"/>
<path d="M16.7013 12.4772C16.4411 13.5441 15.3209 14.1873 14.1992 13.9138C13.0774 13.6403 12.3789 12.5537 12.639 11.4868C12.8992 10.4199 14.0194 9.77674 15.1411 10.0502C16.2629 10.3237 16.9614 11.4103 16.7013 12.4772Z" fill="url(#paint43_linear_82_3990)" fill-opacity="0.5"/>
<path d="M20.9695 15.5644C20.7094 16.6313 19.5892 17.2745 18.4675 17.001C17.3457 16.7276 16.6472 15.641 16.9073 14.5741C17.1674 13.5072 18.2877 12.864 19.4094 13.1375C20.5312 13.4109 21.2297 14.4975 20.9695 15.5644Z" fill="url(#paint44_linear_82_3990)" fill-opacity="0.5"/>
<path d="M13.6203 19.2303C13.3602 20.2972 12.2399 20.9404 11.1182 20.6669C9.99644 20.3934 9.29795 19.3068 9.55806 18.2399C9.81817 17.173 10.9384 16.5299 12.0601 16.8033C13.1819 17.0768 13.8804 18.1634 13.6203 19.2303Z" fill="url(#paint45_linear_82_3990)" fill-opacity="0.5"/>
<path d="M18.4184 14.2603C18.1583 15.3272 17.0381 15.9703 15.9163 15.6969C14.7946 15.4234 14.0961 14.3368 14.3562 13.2699C14.6163 12.203 15.7365 11.5598 16.8583 11.8333C17.98 12.1068 18.6785 13.1934 18.4184 14.2603Z" fill="url(#paint46_linear_82_3990)" fill-opacity="0.5"/>
<path d="M19.2553 17.4227C19.1967 15.7707 20.5486 14.4169 22.2749 14.399C24.0012 14.381 25.4481 15.7057 25.5067 17.3577C25.5654 19.0097 24.2135 20.3634 22.4872 20.3814C20.7609 20.3993 19.314 19.0747 19.2553 17.4227Z" fill="url(#paint47_linear_82_3990)" fill-opacity="0.5"/>
<path d="M17.1008 15.4502C17.0422 13.7982 18.3941 12.4445 20.1203 12.4265C21.8466 12.4086 23.2935 13.7332 23.3522 15.3852C23.4108 17.0372 22.0589 18.391 20.3326 18.4089C18.6063 18.4269 17.1594 17.1022 17.1008 15.4502Z" fill="url(#paint48_linear_82_3990)" fill-opacity="0.5"/>
<path d="M15.8295 18.7882C15.7709 17.1362 17.1228 15.7825 18.8491 15.7645C20.5753 15.7466 22.0223 17.0712 22.0809 18.7232C22.1395 20.3752 20.7876 21.729 19.0614 21.7469C17.3351 21.7649 15.8881 20.4402 15.8295 18.7882Z" fill="url(#paint49_linear_82_3990)" fill-opacity="0.5"/>
<path d="M12.2858 16.8302C12.2271 15.1782 13.579 13.8245 15.3053 13.8065C17.0316 13.7886 18.4785 15.1132 18.5371 16.7652C18.5958 18.4172 17.2439 19.771 15.5176 19.7889C13.7913 19.8069 12.3444 18.4822 12.2858 16.8302Z" fill="url(#paint50_linear_82_3990)" fill-opacity="0.5"/>
<path d="M13.8047 20.4717C13.7656 19.3704 14.6669 18.4679 15.8177 18.4559C16.9686 18.4439 17.9332 19.327 17.9723 20.4283C18.0114 21.5297 17.1101 22.4322 15.9592 22.4442C14.8084 22.4561 13.8438 21.573 13.8047 20.4717Z" fill="url(#paint51_linear_82_3990)" fill-opacity="0.5"/>
<path d="M8.87172 18.5281C8.83264 17.4268 9.73391 16.5243 10.8848 16.5123C12.0356 16.5003 13.0002 17.3834 13.0393 18.4848C13.0784 19.5861 12.1771 20.4886 11.0263 20.5006C9.87543 20.5125 8.9108 19.6294 8.87172 18.5281Z" fill="url(#paint52_linear_82_3990)" fill-opacity="0.5"/>
<path d="M14.9344 13.1454C14.8953 12.0441 15.7966 11.1416 16.9475 11.1296C18.0983 11.1176 19.0629 12.0007 19.102 13.1021C19.1411 14.2034 18.2398 15.1059 17.089 15.1179C15.9381 15.1298 14.9735 14.2467 14.9344 13.1454Z" fill="url(#paint53_linear_82_3990)" fill-opacity="0.5"/>
<path d="M11.6737 19.1639C11.6346 18.0626 12.5359 17.1601 13.6867 17.1481C14.8376 17.1362 15.8022 18.0193 15.8413 19.1206C15.8804 20.2219 14.9791 21.1244 13.8283 21.1364C12.6774 21.1484 11.7128 20.2653 11.6737 19.1639Z" fill="url(#paint54_linear_82_3990)" fill-opacity="0.5"/>
</g>
<defs>
<filter id="filter0_f_82_3990" x="0" y="8.01325" width="30" height="15.4494" filterUnits="userSpaceOnUse" color-interpolation-filters="sRGB">
<feFlood flood-opacity="0" result="BackgroundImageFix"/>
<feBlend mode="normal" in="SourceGraphic" in2="BackgroundImageFix" result="shape"/>
<feGaussianBlur stdDeviation="0.5" result="effect1_foregroundBlur_82_3990"/>
</filter>
<linearGradient id="paint0_linear_82_3990" x1="9.00242" y1="6.96862" x2="9.27282" y2="8.86526" gradientUnits="userSpaceOnUse">
<stop stop-color="#D9D9D9" stop-opacity="0.23"/>
<stop offset="1" stop-color="white"/>
</linearGradient>
<linearGradient id="paint1_linear_82_3990" x1="11.9517" y1="6.04254" x2="12.168" y2="7.55986" gradientUnits="userSpaceOnUse">
<stop stop-color="#D9D9D9" stop-opacity="0.23"/>
<stop offset="1" stop-color="white"/>
</linearGradient>
<linearGradient id="paint2_linear_82_3990" x1="12.6152" y1="1.35658" x2="12.7774" y2="2.49457" gradientUnits="userSpaceOnUse">
<stop stop-color="#D9D9D9" stop-opacity="0.23"/>
<stop offset="1" stop-color="white"/>
</linearGradient>
<linearGradient id="paint3_linear_82_3990" x1="16.597" y1="4.95237" x2="16.7052" y2="5.71103" gradientUnits="userSpaceOnUse">
<stop stop-color="#D9D9D9" stop-opacity="0.23"/>
<stop offset="1" stop-color="white"/>
</linearGradient>
<linearGradient id="paint4_linear_82_3990" x1="10.8455" y1="10.1306" x2="11.17" y2="12.4066" gradientUnits="userSpaceOnUse">
<stop stop-color="#D9D9D9" stop-opacity="0.23"/>
<stop offset="1" stop-color="white"/>
</linearGradient>
<linearGradient id="paint5_linear_82_3990" x1="14.8761" y1="11.1133" x2="15.2006" y2="13.3892" gradientUnits="userSpaceOnUse">
<stop stop-color="#D9D9D9" stop-opacity="0.23"/>
<stop offset="1" stop-color="white"/>
</linearGradient>
<linearGradient id="paint6_linear_82_3990" x1="14.1641" y1="8.13936" x2="14.3263" y2="9.27735" gradientUnits="userSpaceOnUse">
<stop stop-color="#D9D9D9" stop-opacity="0.23"/>
<stop offset="1" stop-color="white"/>
</linearGradient>
<linearGradient id="paint7_linear_82_3990" x1="4.99691" y1="10.2622" x2="5.2673" y2="12.1588" gradientUnits="userSpaceOnUse">
<stop stop-color="#D9D9D9" stop-opacity="0.23"/>
<stop offset="1" stop-color="white"/>
</linearGradient>
<linearGradient id="paint8_linear_82_3990" x1="7.94614" y1="9.33608" x2="8.16246" y2="10.8534" gradientUnits="userSpaceOnUse">
<stop stop-color="#D9D9D9" stop-opacity="0.23"/>
<stop offset="1" stop-color="white"/>
</linearGradient>
<linearGradient id="paint9_linear_82_3990" x1="6.84003" y1="13.4242" x2="7.16451" y2="15.7001" gradientUnits="userSpaceOnUse">
<stop stop-color="#D9D9D9" stop-opacity="0.23"/>
<stop offset="1" stop-color="white"/>
</linearGradient>
<linearGradient id="paint10_linear_82_3990" x1="10.8705" y1="14.4068" x2="11.195" y2="16.6828" gradientUnits="userSpaceOnUse">
<stop stop-color="#D9D9D9" stop-opacity="0.23"/>
<stop offset="1" stop-color="white"/>
</linearGradient>
<linearGradient id="paint11_linear_82_3990" x1="10.1584" y1="11.4329" x2="10.3207" y2="12.5709" gradientUnits="userSpaceOnUse">
<stop stop-color="#D9D9D9" stop-opacity="0.23"/>
<stop offset="1" stop-color="white"/>
</linearGradient>
<linearGradient id="paint12_linear_82_3990" x1="18.3234" y1="12.0617" x2="18.5938" y2="13.9584" gradientUnits="userSpaceOnUse">
<stop stop-color="#D9D9D9" stop-opacity="0.23"/>
<stop offset="1" stop-color="white"/>
</linearGradient>
<linearGradient id="paint13_linear_82_3990" x1="20.978" y1="10.4772" x2="21.1943" y2="11.9945" gradientUnits="userSpaceOnUse">
<stop stop-color="#D9D9D9" stop-opacity="0.23"/>
<stop offset="1" stop-color="white"/>
</linearGradient>
<linearGradient id="paint14_linear_82_3990" x1="20.5211" y1="5.78129" x2="20.6834" y2="6.91928" gradientUnits="userSpaceOnUse">
<stop stop-color="#D9D9D9" stop-opacity="0.23"/>
<stop offset="1" stop-color="white"/>
</linearGradient>
<linearGradient id="paint15_linear_82_3990" x1="20.8545" y1="14.6834" x2="21.179" y2="16.9593" gradientUnits="userSpaceOnUse">
<stop stop-color="#D9D9D9" stop-opacity="0.23"/>
<stop offset="1" stop-color="white"/>
</linearGradient>
<linearGradient id="paint16_linear_82_3990" x1="25.0031" y1="14.6834" x2="25.3276" y2="16.9593" gradientUnits="userSpaceOnUse">
<stop stop-color="#D9D9D9" stop-opacity="0.23"/>
<stop offset="1" stop-color="white"/>
</linearGradient>
<linearGradient id="paint17_linear_82_3990" x1="23.6325" y1="12.0042" x2="23.7948" y2="13.1421" gradientUnits="userSpaceOnUse">
<stop stop-color="#D9D9D9" stop-opacity="0.23"/>
<stop offset="1" stop-color="white"/>
</linearGradient>
<linearGradient id="paint18_linear_82_3990" x1="15.2119" y1="16.2103" x2="15.4823" y2="18.1069" gradientUnits="userSpaceOnUse">
<stop stop-color="#D9D9D9" stop-opacity="0.23"/>
<stop offset="1" stop-color="white"/>
</linearGradient>
<linearGradient id="paint19_linear_82_3990" x1="17.8665" y1="14.6258" x2="18.0828" y2="16.1431" gradientUnits="userSpaceOnUse">
<stop stop-color="#D9D9D9" stop-opacity="0.23"/>
<stop offset="1" stop-color="white"/>
</linearGradient>
<linearGradient id="paint20_linear_82_3990" x1="17.7431" y1="18.8319" x2="18.0675" y2="21.1079" gradientUnits="userSpaceOnUse">
<stop stop-color="#D9D9D9" stop-opacity="0.23"/>
<stop offset="1" stop-color="white"/>
</linearGradient>
<linearGradient id="paint21_linear_82_3990" x1="21.8916" y1="18.8319" x2="22.2161" y2="21.1079" gradientUnits="userSpaceOnUse">
<stop stop-color="#D9D9D9" stop-opacity="0.23"/>
<stop offset="1" stop-color="white"/>
</linearGradient>
<linearGradient id="paint22_linear_82_3990" x1="20.5211" y1="16.1527" x2="20.6834" y2="17.2907" gradientUnits="userSpaceOnUse">
<stop stop-color="#D9D9D9" stop-opacity="0.23"/>
<stop offset="1" stop-color="white"/>
</linearGradient>
<linearGradient id="paint23_linear_82_3990" x1="16.2016" y1="9.99469" x2="13.3069" y2="21.8678" gradientUnits="userSpaceOnUse">
<stop stop-color="#F4FAFF"/>
<stop offset="1" stop-color="white" stop-opacity="0"/>
</linearGradient>
<linearGradient id="paint24_linear_82_3990" x1="16.2016" y1="9.99469" x2="13.3069" y2="21.8678" gradientUnits="userSpaceOnUse">
<stop stop-color="#F4FAFF"/>
<stop offset="1" stop-color="white" stop-opacity="0"/>
</linearGradient>
<linearGradient id="paint25_linear_82_3990" x1="16.2016" y1="9.99469" x2="13.3069" y2="21.8678" gradientUnits="userSpaceOnUse">
<stop stop-color="#F4FAFF"/>
<stop offset="1" stop-color="white" stop-opacity="0"/>
</linearGradient>
<linearGradient id="paint26_linear_82_3990" x1="16.2016" y1="9.99469" x2="13.3069" y2="21.8678" gradientUnits="userSpaceOnUse">
<stop stop-color="#F4FAFF"/>
<stop offset="1" stop-color="white" stop-opacity="0"/>
</linearGradient>
<linearGradient id="paint27_linear_82_3990" x1="16.2016" y1="9.99469" x2="13.3069" y2="21.8678" gradientUnits="userSpaceOnUse">
<stop stop-color="#F4FAFF"/>
<stop offset="1" stop-color="white" stop-opacity="0"/>
</linearGradient>
<linearGradient id="paint28_linear_82_3990" x1="16.2016" y1="9.99469" x2="13.3069" y2="21.8678" gradientUnits="userSpaceOnUse">
<stop stop-color="#F4FAFF"/>
<stop offset="1" stop-color="white" stop-opacity="0"/>
</linearGradient>
<linearGradient id="paint29_linear_82_3990" x1="16.2016" y1="9.99469" x2="13.3069" y2="21.8678" gradientUnits="userSpaceOnUse">
<stop stop-color="#F4FAFF"/>
<stop offset="1" stop-color="white" stop-opacity="0"/>
</linearGradient>
<linearGradient id="paint30_linear_82_3990" x1="16.2016" y1="9.99469" x2="13.3069" y2="21.8678" gradientUnits="userSpaceOnUse">
<stop stop-color="#F4FAFF"/>
<stop offset="1" stop-color="white" stop-opacity="0"/>
</linearGradient>
<linearGradient id="paint31_linear_82_3990" x1="16.2016" y1="9.99469" x2="13.3069" y2="21.8678" gradientUnits="userSpaceOnUse">
<stop stop-color="#F4FAFF"/>
<stop offset="1" stop-color="white" stop-opacity="0"/>
</linearGradient>
<linearGradient id="paint32_linear_82_3990" x1="16.2016" y1="9.99469" x2="13.3069" y2="21.8678" gradientUnits="userSpaceOnUse">
<stop stop-color="#F4FAFF"/>
<stop offset="1" stop-color="white" stop-opacity="0"/>
</linearGradient>
<linearGradient id="paint33_linear_82_3990" x1="16.2016" y1="9.99469" x2="13.3069" y2="21.8678" gradientUnits="userSpaceOnUse">
<stop stop-color="#F4FAFF"/>
<stop offset="1" stop-color="white" stop-opacity="0"/>
</linearGradient>
<linearGradient id="paint34_linear_82_3990" x1="16.2016" y1="9.99469" x2="13.3069" y2="21.8678" gradientUnits="userSpaceOnUse">
<stop stop-color="#F4FAFF"/>
<stop offset="1" stop-color="white" stop-opacity="0"/>
</linearGradient>
<linearGradient id="paint35_linear_82_3990" x1="16.2016" y1="9.99469" x2="13.3069" y2="21.8678" gradientUnits="userSpaceOnUse">
<stop stop-color="#F4FAFF"/>
<stop offset="1" stop-color="white" stop-opacity="0"/>
</linearGradient>
<linearGradient id="paint36_linear_82_3990" x1="16.2016" y1="9.99469" x2="13.3069" y2="21.8678" gradientUnits="userSpaceOnUse">
<stop stop-color="#F4FAFF"/>
<stop offset="1" stop-color="white" stop-opacity="0"/>
</linearGradient>
<linearGradient id="paint37_linear_82_3990" x1="16.2016" y1="9.99469" x2="13.3069" y2="21.8678" gradientUnits="userSpaceOnUse">
<stop stop-color="#F4FAFF"/>
<stop offset="1" stop-color="white" stop-opacity="0"/>
</linearGradient>
<linearGradient id="paint38_linear_82_3990" x1="16.2016" y1="9.99469" x2="13.3069" y2="21.8678" gradientUnits="userSpaceOnUse">
<stop stop-color="#F4FAFF"/>
<stop offset="1" stop-color="white" stop-opacity="0"/>
</linearGradient>
<linearGradient id="paint39_linear_82_3990" x1="16.2016" y1="9.99469" x2="13.3069" y2="21.8678" gradientUnits="userSpaceOnUse">
<stop stop-color="#F4FAFF"/>
<stop offset="1" stop-color="white" stop-opacity="0"/>
</linearGradient>
<linearGradient id="paint40_linear_82_3990" x1="16.2016" y1="9.99469" x2="13.3069" y2="21.8678" gradientUnits="userSpaceOnUse">
<stop stop-color="#F4FAFF"/>
<stop offset="1" stop-color="white" stop-opacity="0"/>
</linearGradient>
<linearGradient id="paint41_linear_82_3990" x1="16.2016" y1="9.99469" x2="13.3069" y2="21.8678" gradientUnits="userSpaceOnUse">
<stop stop-color="#F4FAFF"/>
<stop offset="1" stop-color="white" stop-opacity="0"/>
</linearGradient>
<linearGradient id="paint42_linear_82_3990" x1="16.2016" y1="9.99469" x2="13.3069" y2="21.8678" gradientUnits="userSpaceOnUse">
<stop stop-color="#F4FAFF"/>
<stop offset="1" stop-color="white" stop-opacity="0"/>
</linearGradient>
<linearGradient id="paint43_linear_82_3990" x1="16.2016" y1="9.99469" x2="13.3069" y2="21.8678" gradientUnits="userSpaceOnUse">
<stop stop-color="#F4FAFF"/>
<stop offset="1" stop-color="white" stop-opacity="0"/>
</linearGradient>
<linearGradient id="paint44_linear_82_3990" x1="16.2016" y1="9.99469" x2="13.3069" y2="21.8678" gradientUnits="userSpaceOnUse">
<stop stop-color="#F4FAFF"/>
<stop offset="1" stop-color="white" stop-opacity="0"/>
</linearGradient>
<linearGradient id="paint45_linear_82_3990" x1="16.2016" y1="9.99469" x2="13.3069" y2="21.8678" gradientUnits="userSpaceOnUse">
<stop stop-color="#F4FAFF"/>
<stop offset="1" stop-color="white" stop-opacity="0"/>
</linearGradient>
<linearGradient id="paint46_linear_82_3990" x1="16.2016" y1="9.99469" x2="13.3069" y2="21.8678" gradientUnits="userSpaceOnUse">
<stop stop-color="#F4FAFF"/>
<stop offset="1" stop-color="white" stop-opacity="0"/>
</linearGradient>
<linearGradient id="paint47_linear_82_3990" x1="16.2016" y1="9.99469" x2="13.3069" y2="21.8678" gradientUnits="userSpaceOnUse">
<stop stop-color="#F4FAFF"/>
<stop offset="1" stop-color="white" stop-opacity="0"/>
</linearGradient>
<linearGradient id="paint48_linear_82_3990" x1="16.2016" y1="9.99469" x2="13.3069" y2="21.8678" gradientUnits="userSpaceOnUse">
<stop stop-color="#F4FAFF"/>
<stop offset="1" stop-color="white" stop-opacity="0"/>
</linearGradient>
<linearGradient id="paint49_linear_82_3990" x1="16.2016" y1="9.99469" x2="13.3069" y2="21.8678" gradientUnits="userSpaceOnUse">
<stop stop-color="#F4FAFF"/>
<stop offset="1" stop-color="white" stop-opacity="0"/>
</linearGradient>
<linearGradient id="paint50_linear_82_3990" x1="16.2016" y1="9.99469" x2="13.3069" y2="21.8678" gradientUnits="userSpaceOnUse">
<stop stop-color="#F4FAFF"/>
<stop offset="1" stop-color="white" stop-opacity="0"/>
</linearGradient>
<linearGradient id="paint51_linear_82_3990" x1="16.2016" y1="9.99469" x2="13.3069" y2="21.8678" gradientUnits="userSpaceOnUse">
<stop stop-color="#F4FAFF"/>
<stop offset="1" stop-color="white" stop-opacity="0"/>
</linearGradient>
<linearGradient id="paint52_linear_82_3990" x1="16.2016" y1="9.99469" x2="13.3069" y2="21.8678" gradientUnits="userSpaceOnUse">
<stop stop-color="#F4FAFF"/>
<stop offset="1" stop-color="white" stop-opacity="0"/>
</linearGradient>
<linearGradient id="paint53_linear_82_3990" x1="16.2016" y1="9.99469" x2="13.3069" y2="21.8678" gradientUnits="userSpaceOnUse">
<stop stop-color="#F4FAFF"/>
<stop offset="1" stop-color="white" stop-opacity="0"/>
</linearGradient>
<linearGradient id="paint54_linear_82_3990" x1="16.2016" y1="9.99469" x2="13.3069" y2="21.8678" gradientUnits="userSpaceOnUse">
<stop stop-color="#F4FAFF"/>
<stop offset="1" stop-color="white" stop-opacity="0"/>
</linearGradient>
</defs>
</svg>
