<svg width="68" height="35" viewBox="0 0 68 35" fill="none" xmlns="http://www.w3.org/2000/svg">
<circle cx="27.5" cy="9.95006" r="2.04124" transform="rotate(165 27.5 9.95006)" fill="url(#paint0_linear_283_779)"/>
<circle r="0.383716" transform="matrix(0.965926 -0.258819 -0.258819 -0.965926 28.0835 8.85719)" fill="white"/>
<circle r="0.216617" transform="matrix(0.965926 -0.258819 -0.258819 -0.965926 28.2016 9.58968)" fill="white"/>
<circle cx="30" cy="8.45004" r="1.63299" transform="rotate(165 30 8.45004)" fill="url(#paint1_linear_283_779)"/>
<circle r="0.306973" transform="matrix(0.965926 -0.258819 -0.258819 -0.965926 30.4668 7.5757)" fill="white"/>
<circle r="0.173294" transform="matrix(0.965926 -0.258819 -0.258819 -0.965926 30.5613 8.16178)" fill="white"/>
<circle cx="40" cy="2.45008" r="2.44949" transform="rotate(165 40 2.45008)" fill="url(#paint2_linear_283_779)"/>
<circle r="0.46046" transform="matrix(0.965926 -0.258819 -0.258819 -0.965926 40.7002 1.13857)" fill="white"/>
<circle r="0.259941" transform="matrix(0.965926 -0.258819 -0.258819 -0.965926 40.842 2.01758)" fill="white"/>
<circle cx="51" cy="10.4501" r="3.26599" transform="rotate(165 51 10.4501)" fill="url(#paint3_linear_283_779)"/>
<circle r="0.613946" transform="matrix(0.965926 -0.258819 -0.258819 -0.965926 51.9335 8.70144)" fill="white"/>
<circle r="0.346588" transform="matrix(0.965926 -0.258819 -0.258819 -0.965926 52.1227 9.87337)" fill="white"/>
<circle cx="7.50002" cy="18.9501" r="2.04124" transform="rotate(165 7.50002 18.9501)" fill="url(#paint4_linear_283_779)"/>
<circle r="0.383716" transform="matrix(0.965926 -0.258819 -0.258819 -0.965926 8.08346 17.8572)" fill="white"/>
<circle r="0.216617" transform="matrix(0.965926 -0.258819 -0.258819 -0.965926 8.2016 18.5897)" fill="white"/>
<circle cx="10" cy="17.45" r="1.63299" transform="rotate(165 10 17.45)" fill="url(#paint5_linear_283_779)"/>
<circle r="0.306973" transform="matrix(0.965926 -0.258819 -0.258819 -0.965926 10.4668 16.5757)" fill="white"/>
<circle r="0.173294" transform="matrix(0.965926 -0.258819 -0.258819 -0.965926 10.5613 17.1618)" fill="white"/>
<circle cx="9.5" cy="12.95" r="1.22474" transform="rotate(165 9.5 12.95)" fill="url(#paint6_linear_283_779)"/>
<circle r="0.23023" transform="matrix(0.965926 -0.258819 -0.258819 -0.965926 9.85011 12.2943)" fill="white"/>
<circle r="0.12997" transform="matrix(0.965926 -0.258819 -0.258819 -0.965926 9.92094 12.7338)" fill="white"/>
<circle cx="14" cy="15.4501" r="0.816497" transform="rotate(165 14 15.4501)" fill="url(#paint7_linear_283_779)"/>
<circle r="0.153487" transform="matrix(0.965926 -0.258819 -0.258819 -0.965926 14.2334 15.0129)" fill="white"/>
<circle r="0.086647" transform="matrix(0.965926 -0.258819 -0.258819 -0.965926 14.2807 15.3059)" fill="white"/>
<circle cx="10" cy="21.4501" r="2.44949" transform="rotate(165 10 21.4501)" fill="url(#paint8_linear_283_779)"/>
<circle r="0.46046" transform="matrix(0.965926 -0.258819 -0.258819 -0.965926 10.7002 20.1386)" fill="white"/>
<circle r="0.259941" transform="matrix(0.965926 -0.258819 -0.258819 -0.965926 10.842 21.0176)" fill="white"/>
<circle cx="14" cy="21.4501" r="2.44949" transform="rotate(165 14 21.4501)" fill="url(#paint9_linear_283_779)"/>
<circle r="0.46046" transform="matrix(0.965926 -0.258819 -0.258819 -0.965926 14.7002 20.1386)" fill="white"/>
<circle r="0.259941" transform="matrix(0.965926 -0.258819 -0.258819 -0.965926 14.842 21.0176)" fill="white"/>
<circle cx="12.5" cy="18.95" r="1.22474" transform="rotate(165 12.5 18.95)" fill="url(#paint10_linear_283_779)"/>
<circle r="0.23023" transform="matrix(0.965926 -0.258819 -0.258819 -0.965926 12.8501 18.2943)" fill="white"/>
<circle r="0.12997" transform="matrix(0.965926 -0.258819 -0.258819 -0.965926 12.921 18.7338)" fill="white"/>
<circle cx="4.50002" cy="22.9501" r="2.04124" transform="rotate(165 4.50002 22.9501)" fill="url(#paint11_linear_283_779)"/>
<circle r="0.383716" transform="matrix(0.965926 -0.258819 -0.258819 -0.965926 5.08346 21.8572)" fill="white"/>
<circle r="0.216617" transform="matrix(0.965926 -0.258819 -0.258819 -0.965926 5.2016 22.5897)" fill="white"/>
<circle cx="7" cy="21.45" r="1.63299" transform="rotate(165 7 21.45)" fill="url(#paint12_linear_283_779)"/>
<circle r="0.306973" transform="matrix(0.965926 -0.258819 -0.258819 -0.965926 7.46677 20.5757)" fill="white"/>
<circle r="0.173294" transform="matrix(0.965926 -0.258819 -0.258819 -0.965926 7.5613 21.1618)" fill="white"/>
<circle cx="7" cy="25.4501" r="2.44949" transform="rotate(165 7 25.4501)" fill="url(#paint13_linear_283_779)"/>
<circle r="0.46046" transform="matrix(0.965926 -0.258819 -0.258819 -0.965926 7.70015 24.1386)" fill="white"/>
<circle r="0.259941" transform="matrix(0.965926 -0.258819 -0.258819 -0.965926 7.84196 25.0176)" fill="white"/>
<circle cx="11" cy="25.4501" r="2.44949" transform="rotate(165 11 25.4501)" fill="url(#paint14_linear_283_779)"/>
<circle r="0.46046" transform="matrix(0.965926 -0.258819 -0.258819 -0.965926 11.7002 24.1386)" fill="white"/>
<circle r="0.259941" transform="matrix(0.965926 -0.258819 -0.258819 -0.965926 11.842 25.0176)" fill="white"/>
<circle cx="9.5" cy="22.95" r="1.22474" transform="rotate(165 9.5 22.95)" fill="url(#paint15_linear_283_779)"/>
<circle r="0.23023" transform="matrix(0.965926 -0.258819 -0.258819 -0.965926 9.85005 22.2943)" fill="white"/>
<circle r="0.12997" transform="matrix(0.965926 -0.258819 -0.258819 -0.965926 9.921 22.7338)" fill="white"/>
<circle cx="18.5" cy="20.9501" r="2.04124" transform="rotate(165 18.5 20.9501)" fill="url(#paint16_linear_283_779)"/>
<circle r="0.383716" transform="matrix(0.965926 -0.258819 -0.258819 -0.965926 19.0835 19.8572)" fill="white"/>
<circle r="0.216617" transform="matrix(0.965926 -0.258819 -0.258819 -0.965926 19.2016 20.5897)" fill="white"/>
<circle cx="21" cy="19.45" r="1.63299" transform="rotate(165 21 19.45)" fill="url(#paint17_linear_283_779)"/>
<circle r="0.306973" transform="matrix(0.965926 -0.258819 -0.258819 -0.965926 21.4668 18.5757)" fill="white"/>
<circle r="0.173294" transform="matrix(0.965926 -0.258819 -0.258819 -0.965926 21.5613 19.1618)" fill="white"/>
<circle cx="20.5" cy="14.95" r="1.22474" transform="rotate(165 20.5 14.95)" fill="url(#paint18_linear_283_779)"/>
<circle r="0.23023" transform="matrix(0.965926 -0.258819 -0.258819 -0.965926 20.8501 14.2943)" fill="white"/>
<circle r="0.12997" transform="matrix(0.965926 -0.258819 -0.258819 -0.965926 20.9209 14.7338)" fill="white"/>
<circle cx="21" cy="23.4501" r="2.44949" transform="rotate(165 21 23.4501)" fill="url(#paint19_linear_283_779)"/>
<circle r="0.46046" transform="matrix(0.965926 -0.258819 -0.258819 -0.965926 21.7002 22.1386)" fill="white"/>
<circle r="0.259941" transform="matrix(0.965926 -0.258819 -0.258819 -0.965926 21.842 23.0176)" fill="white"/>
<circle cx="25" cy="23.4501" r="2.44949" transform="rotate(165 25 23.4501)" fill="url(#paint20_linear_283_779)"/>
<circle r="0.46046" transform="matrix(0.965926 -0.258819 -0.258819 -0.965926 25.7002 22.1386)" fill="white"/>
<circle r="0.259941" transform="matrix(0.965926 -0.258819 -0.258819 -0.965926 25.842 23.0176)" fill="white"/>
<circle cx="23.5" cy="20.95" r="1.22474" transform="rotate(165 23.5 20.95)" fill="url(#paint21_linear_283_779)"/>
<circle r="0.23023" transform="matrix(0.965926 -0.258819 -0.258819 -0.965926 23.8501 20.2943)" fill="white"/>
<circle r="0.12997" transform="matrix(0.965926 -0.258819 -0.258819 -0.965926 23.921 20.7338)" fill="white"/>
<circle cx="15.5" cy="24.9501" r="2.04124" transform="rotate(165 15.5 24.9501)" fill="url(#paint22_linear_283_779)"/>
<circle r="0.383716" transform="matrix(0.965926 -0.258819 -0.258819 -0.965926 16.0835 23.8572)" fill="white"/>
<circle r="0.216617" transform="matrix(0.965926 -0.258819 -0.258819 -0.965926 16.2016 24.5897)" fill="white"/>
<circle cx="18" cy="23.45" r="1.63299" transform="rotate(165 18 23.45)" fill="url(#paint23_linear_283_779)"/>
<circle r="0.306973" transform="matrix(0.965926 -0.258819 -0.258819 -0.965926 18.4668 22.5757)" fill="white"/>
<circle r="0.173294" transform="matrix(0.965926 -0.258819 -0.258819 -0.965926 18.5613 23.1618)" fill="white"/>
<circle cx="18" cy="27.4501" r="2.44949" transform="rotate(165 18 27.4501)" fill="url(#paint24_linear_283_779)"/>
<circle r="0.46046" transform="matrix(0.965926 -0.258819 -0.258819 -0.965926 18.7002 26.1386)" fill="white"/>
<circle r="0.259941" transform="matrix(0.965926 -0.258819 -0.258819 -0.965926 18.842 27.0176)" fill="white"/>
<circle cx="22" cy="27.4501" r="2.44949" transform="rotate(165 22 27.4501)" fill="url(#paint25_linear_283_779)"/>
<circle r="0.46046" transform="matrix(0.965926 -0.258819 -0.258819 -0.965926 22.7002 26.1386)" fill="white"/>
<circle r="0.259941" transform="matrix(0.965926 -0.258819 -0.258819 -0.965926 22.842 27.0176)" fill="white"/>
<circle cx="20.5" cy="24.95" r="1.22474" transform="rotate(165 20.5 24.95)" fill="url(#paint26_linear_283_779)"/>
<circle r="0.23023" transform="matrix(0.965926 -0.258819 -0.258819 -0.965926 20.8501 24.2943)" fill="white"/>
<circle r="0.12997" transform="matrix(0.965926 -0.258819 -0.258819 -0.965926 20.921 24.7338)" fill="white"/>
<g filter="url(#filter0_f_283_779)">
<path d="M7.15847 25.6308C7.15847 27.2483 5.77985 28.5595 4.07924 28.5595C2.37862 28.5595 1 27.2483 1 25.6308C1 24.0134 2.37862 22.7021 4.07924 22.7021C5.77985 22.7021 7.15847 24.0134 7.15847 25.6308Z" fill="url(#paint27_linear_283_779)" fill-opacity="0.5"/>
<path d="M9.2113 27.5833C9.2113 29.2007 7.83267 30.5119 6.13206 30.5119C4.43144 30.5119 3.05282 29.2007 3.05282 27.5833C3.05282 25.9658 4.43144 24.6546 6.13206 24.6546C7.83267 24.6546 9.2113 25.9658 9.2113 27.5833Z" fill="url(#paint28_linear_283_779)" fill-opacity="0.5"/>
<path d="M10.5798 24.3292C10.5798 25.9466 9.20122 27.2579 7.50061 27.2579C5.79999 27.2579 4.42137 25.9466 4.42137 24.3292C4.42137 22.7117 5.79999 21.4005 7.50061 21.4005C9.20122 21.4005 10.5798 22.7117 10.5798 24.3292Z" fill="url(#paint29_linear_283_779)" fill-opacity="0.5"/>
<path d="M14.0012 26.2816C14.0012 27.8991 12.6226 29.2103 10.922 29.2103C9.22137 29.2103 7.84275 27.8991 7.84275 26.2816C7.84275 24.6642 9.22137 23.353 10.922 23.353C12.6226 23.353 14.0012 24.6642 14.0012 26.2816Z" fill="url(#paint30_linear_283_779)" fill-opacity="0.5"/>
<path d="M12.6327 22.7021C12.6327 23.7805 11.7136 24.6546 10.5798 24.6546C9.4461 24.6546 8.52702 23.7805 8.52702 22.7021C8.52702 21.6238 9.4461 20.7497 10.5798 20.7497C11.7136 20.7497 12.6327 21.6238 12.6327 22.7021Z" fill="url(#paint31_linear_283_779)" fill-opacity="0.5"/>
<path d="M17.4226 24.6546C17.4226 25.7329 16.5035 26.607 15.3698 26.607C14.236 26.607 13.3169 25.7329 13.3169 24.6546C13.3169 23.5763 14.236 22.7021 15.3698 22.7021C16.5035 22.7021 17.4226 23.5763 17.4226 24.6546Z" fill="url(#paint32_linear_283_779)" fill-opacity="0.5"/>
<path d="M11.2641 29.8611C11.2641 30.9394 10.345 31.8136 9.2113 31.8136C8.07755 31.8136 7.15847 30.9394 7.15847 29.8611C7.15847 28.7828 8.07755 27.9087 9.2113 27.9087C10.345 27.9087 11.2641 28.7828 11.2641 29.8611Z" fill="url(#paint33_linear_283_779)" fill-opacity="0.5"/>
<path d="M14.6855 24.0038C14.6855 25.0821 13.7664 25.9562 12.6327 25.9562C11.4989 25.9562 10.5798 25.0821 10.5798 24.0038C10.5798 22.9255 11.4989 22.0513 12.6327 22.0513C13.7664 22.0513 14.6855 22.9255 14.6855 24.0038Z" fill="url(#paint34_linear_283_779)" fill-opacity="0.5"/>
<path d="M22.9457 25.9838C22.5055 24.4215 23.4804 22.8156 25.123 22.397C26.7657 21.9783 28.4542 22.9055 28.8943 24.4678C29.3345 26.0302 28.3596 27.6361 26.717 28.0547C25.0743 28.4733 23.3858 27.5462 22.9457 25.9838Z" fill="url(#paint35_linear_283_779)" fill-opacity="0.5"/>
<path d="M20.4315 24.6032C19.9913 23.0409 20.9662 21.435 22.6088 21.0164C24.2515 20.5977 25.94 21.5249 26.3801 23.0873C26.8203 24.6496 25.8454 26.2555 24.2028 26.6741C22.5601 27.0928 20.8717 26.1656 20.4315 24.6032Z" fill="url(#paint36_linear_283_779)" fill-opacity="0.5"/>
<path d="M19.9951 28.0833C19.5549 26.521 20.5298 24.9151 22.1724 24.4965C23.8151 24.0778 25.5036 25.005 25.9437 26.5673C26.3839 28.1297 25.409 29.7356 23.7664 30.1542C22.1237 30.5728 20.4353 29.6457 19.9951 28.0833Z" fill="url(#paint37_linear_283_779)" fill-opacity="0.5"/>
<path d="M16.159 27.0396C15.7188 25.4773 16.6937 23.8714 18.3363 23.4528C19.979 23.0341 21.6675 23.9613 22.1076 25.5236C22.5478 27.086 21.5729 28.6919 19.9303 29.1105C18.2876 29.5291 16.5991 28.602 16.159 27.0396Z" fill="url(#paint38_linear_283_779)" fill-opacity="0.5"/>
<path d="M18.455 30.1603C18.1615 29.1187 18.8114 28.0481 19.9065 27.769C21.0017 27.4899 22.1273 28.108 22.4207 29.1496C22.7142 30.1912 22.0643 31.2618 20.9692 31.5408C19.8741 31.8199 18.7484 31.2018 18.455 30.1603Z" fill="url(#paint39_linear_283_779)" fill-opacity="0.5"/>
<path d="M13.297 29.4534C13.0035 28.4119 13.6534 27.3413 14.7485 27.0622C15.8436 26.7831 16.9693 27.4012 17.2627 28.4428C17.5561 29.4843 16.9063 30.5549 15.8111 30.834C14.716 31.1131 13.5904 30.495 13.297 29.4534Z" fill="url(#paint40_linear_283_779)" fill-opacity="0.5"/>
<path d="M17.8288 22.9083C17.5353 21.8668 18.1852 20.7962 19.2803 20.5171C20.3754 20.238 21.5011 20.8561 21.7945 21.8977C22.0879 22.9392 21.4381 24.0098 20.3429 24.2889C19.2478 24.568 18.1222 23.9499 17.8288 22.9083Z" fill="url(#paint41_linear_283_779)" fill-opacity="0.5"/>
<path d="M16.1179 29.4083C15.8245 28.3667 16.4744 27.2961 17.5695 27.0171C18.6646 26.738 19.7902 27.3561 20.0837 28.3976C20.3771 29.4392 19.7272 30.5098 18.6321 30.7889C17.537 31.068 16.4113 30.4499 16.1179 29.4083Z" fill="url(#paint42_linear_283_779)" fill-opacity="0.5"/>
<path d="M10.5798 25.6308C10.5798 27.2483 9.20122 28.5595 7.50061 28.5595C5.79999 28.5595 4.42137 27.2483 4.42137 25.6308C4.42137 24.0134 5.79999 22.7021 7.50061 22.7021C9.20122 22.7021 10.5798 24.0134 10.5798 25.6308Z" fill="url(#paint43_linear_283_779)" fill-opacity="0.5"/>
<path d="M12.6327 27.5833C12.6327 29.2007 11.254 30.5119 9.55343 30.5119C7.85282 30.5119 6.4742 29.2007 6.4742 27.5833C6.4742 25.9658 7.85282 24.6546 9.55343 24.6546C11.254 24.6546 12.6327 25.9658 12.6327 27.5833Z" fill="url(#paint44_linear_283_779)" fill-opacity="0.5"/>
<path d="M14.0012 24.3292C14.0012 25.9466 12.6226 27.2579 10.922 27.2579C9.22137 27.2579 7.84275 25.9466 7.84275 24.3292C7.84275 22.7117 9.22137 21.4005 10.922 21.4005C12.6226 21.4005 14.0012 22.7117 14.0012 24.3292Z" fill="url(#paint45_linear_283_779)" fill-opacity="0.5"/>
<path d="M17.4226 26.2816C17.4226 27.8991 16.044 29.2103 14.3434 29.2103C12.6427 29.2103 11.2641 27.8991 11.2641 26.2816C11.2641 24.6642 12.6427 23.353 14.3434 23.353C16.044 23.353 17.4226 24.6642 17.4226 26.2816Z" fill="url(#paint46_linear_283_779)" fill-opacity="0.5"/>
<path d="M16.054 22.7021C16.054 23.7805 15.135 24.6546 14.0012 24.6546C12.8675 24.6546 11.9484 23.7805 11.9484 22.7021C11.9484 21.6238 12.8675 20.7497 14.0012 20.7497C15.135 20.7497 16.054 21.6238 16.054 22.7021Z" fill="url(#paint47_linear_283_779)" fill-opacity="0.5"/>
<path d="M20.844 24.6546C20.844 25.7329 19.9249 26.607 18.7911 26.607C17.6574 26.607 16.7383 25.7329 16.7383 24.6546C16.7383 23.5763 17.6574 22.7021 18.7911 22.7021C19.9249 22.7021 20.844 23.5763 20.844 24.6546Z" fill="url(#paint48_linear_283_779)" fill-opacity="0.5"/>
<path d="M14.6855 29.8611C14.6855 30.9394 13.7664 31.8136 12.6327 31.8136C11.4989 31.8136 10.5798 30.9394 10.5798 29.8611C10.5798 28.7828 11.4989 27.9087 12.6327 27.9087C13.7664 27.9087 14.6855 28.7828 14.6855 29.8611Z" fill="url(#paint49_linear_283_779)" fill-opacity="0.5"/>
<path d="M18.1069 24.0038C18.1069 25.0821 17.1878 25.9562 16.054 25.9562C14.9203 25.9562 14.0012 25.0821 14.0012 24.0038C14.0012 22.9255 14.9203 22.0513 16.054 22.0513C17.1878 22.0513 18.1069 22.9255 18.1069 24.0038Z" fill="url(#paint50_linear_283_779)" fill-opacity="0.5"/>
<path d="M19.6408 26.826C19.2007 25.2637 20.1755 23.6578 21.8182 23.2392C23.4609 22.8205 25.1493 23.7477 25.5895 25.3101C26.0296 26.8724 25.0548 28.4783 23.4121 28.8969C21.7694 29.3156 20.081 28.3884 19.6408 26.826Z" fill="url(#paint51_linear_283_779)" fill-opacity="0.5"/>
<path d="M17.1266 25.4455C16.6865 23.8831 17.6613 22.2772 19.304 21.8586C20.9467 21.44 22.6351 22.3671 23.0753 23.9295C23.5154 25.4918 22.5406 27.0977 20.8979 27.5163C19.2553 27.935 17.5668 27.0078 17.1266 25.4455Z" fill="url(#paint52_linear_283_779)" fill-opacity="0.5"/>
<path d="M16.6903 28.9255C16.2501 27.3632 17.2249 25.7573 18.8676 25.3387C20.5103 24.92 22.1987 25.8472 22.6389 27.4096C23.079 28.9719 22.1042 30.5778 20.4615 30.9964C18.8189 31.4151 17.1304 30.4879 16.6903 28.9255Z" fill="url(#paint53_linear_283_779)" fill-opacity="0.5"/>
<path d="M12.8541 27.8818C12.414 26.3195 13.3888 24.7136 15.0315 24.295C16.6742 23.8763 18.3626 24.8035 18.8028 26.3659C19.2429 27.9282 18.2681 29.5341 16.6254 29.9527C14.9828 30.3714 13.2943 29.4442 12.8541 27.8818Z" fill="url(#paint54_linear_283_779)" fill-opacity="0.5"/>
<path d="M15.1501 31.0025C14.8567 29.9609 15.5066 28.8903 16.6017 28.6112C17.6968 28.3321 18.8224 28.9502 19.1159 29.9918C19.4093 31.0334 18.7594 32.104 17.6643 32.3831C16.5692 32.6621 15.4436 32.044 15.1501 31.0025Z" fill="url(#paint55_linear_283_779)" fill-opacity="0.5"/>
<path d="M9.99211 30.2957C9.69868 29.2541 10.3486 28.1835 11.4437 27.9044C12.5388 27.6253 13.6644 28.2434 13.9579 29.285C14.2513 30.3266 13.6014 31.3972 12.5063 31.6762C11.4112 31.9553 10.2855 31.3372 9.99211 30.2957Z" fill="url(#paint56_linear_283_779)" fill-opacity="0.5"/>
<path d="M14.5239 23.7506C14.2305 22.709 14.8804 21.6384 15.9755 21.3593C17.0706 21.0802 18.1962 21.6983 18.4897 22.7399C18.7831 23.7815 18.1332 24.8521 17.0381 25.1311C15.943 25.4102 14.8173 24.7921 14.5239 23.7506Z" fill="url(#paint57_linear_283_779)" fill-opacity="0.5"/>
<path d="M12.8131 30.2505C12.5196 29.209 13.1695 28.1384 14.2646 27.8593C15.3597 27.5802 16.4854 28.1983 16.7788 29.2399C17.0722 30.2814 16.4223 31.352 15.3272 31.6311C14.2321 31.9102 13.1065 31.2921 12.8131 30.2505Z" fill="url(#paint58_linear_283_779)" fill-opacity="0.5"/>
</g>
<circle cx="28.5" cy="19.8255" r="2.04124" transform="rotate(165 28.5 19.8255)" fill="url(#paint59_linear_283_779)"/>
<circle r="0.383716" transform="matrix(0.965926 -0.258819 -0.258819 -0.965926 29.0835 18.7327)" fill="white"/>
<circle r="0.216617" transform="matrix(0.965926 -0.258819 -0.258819 -0.965926 29.2016 19.4652)" fill="white"/>
<circle cx="31" cy="18.3255" r="1.63299" transform="rotate(165 31 18.3255)" fill="url(#paint60_linear_283_779)"/>
<circle r="0.306973" transform="matrix(0.965926 -0.258819 -0.258819 -0.965926 31.4668 17.4512)" fill="white"/>
<circle r="0.173294" transform="matrix(0.965926 -0.258819 -0.258819 -0.965926 31.5613 18.0373)" fill="white"/>
<circle cx="35" cy="16.3256" r="0.816497" transform="rotate(165 35 16.3256)" fill="url(#paint61_linear_283_779)"/>
<circle r="0.153487" transform="matrix(0.965926 -0.258819 -0.258819 -0.965926 35.2334 15.8884)" fill="white"/>
<circle r="0.086647" transform="matrix(0.965926 -0.258819 -0.258819 -0.965926 35.2807 16.1814)" fill="white"/>
<circle cx="31" cy="22.3256" r="2.44949" transform="rotate(165 31 22.3256)" fill="url(#paint62_linear_283_779)"/>
<circle r="0.46046" transform="matrix(0.965926 -0.258819 -0.258819 -0.965926 31.7002 21.0141)" fill="white"/>
<circle r="0.259941" transform="matrix(0.965926 -0.258819 -0.258819 -0.965926 31.842 21.8931)" fill="white"/>
<circle cx="35" cy="22.3256" r="2.44949" transform="rotate(165 35 22.3256)" fill="url(#paint63_linear_283_779)"/>
<circle r="0.46046" transform="matrix(0.965926 -0.258819 -0.258819 -0.965926 35.7002 21.0141)" fill="white"/>
<circle r="0.259941" transform="matrix(0.965926 -0.258819 -0.258819 -0.965926 35.842 21.8931)" fill="white"/>
<circle cx="33.5" cy="19.8255" r="1.22474" transform="rotate(165 33.5 19.8255)" fill="url(#paint64_linear_283_779)"/>
<circle r="0.23023" transform="matrix(0.965926 -0.258819 -0.258819 -0.965926 33.8501 19.1698)" fill="white"/>
<circle r="0.12997" transform="matrix(0.965926 -0.258819 -0.258819 -0.965926 33.921 19.6093)" fill="white"/>
<circle cx="25.5" cy="23.8255" r="2.04124" transform="rotate(165 25.5 23.8255)" fill="url(#paint65_linear_283_779)"/>
<circle r="0.383716" transform="matrix(0.965926 -0.258819 -0.258819 -0.965926 26.0835 22.7327)" fill="white"/>
<circle r="0.216617" transform="matrix(0.965926 -0.258819 -0.258819 -0.965926 26.2016 23.4652)" fill="white"/>
<circle cx="28" cy="22.3255" r="1.63299" transform="rotate(165 28 22.3255)" fill="url(#paint66_linear_283_779)"/>
<circle r="0.306973" transform="matrix(0.965926 -0.258819 -0.258819 -0.965926 28.4668 21.4512)" fill="white"/>
<circle r="0.173294" transform="matrix(0.965926 -0.258819 -0.258819 -0.965926 28.5613 22.0373)" fill="white"/>
<circle cx="28" cy="26.3256" r="2.44949" transform="rotate(165 28 26.3256)" fill="url(#paint67_linear_283_779)"/>
<circle r="0.46046" transform="matrix(0.965926 -0.258819 -0.258819 -0.965926 28.7002 25.0141)" fill="white"/>
<circle r="0.259941" transform="matrix(0.965926 -0.258819 -0.258819 -0.965926 28.842 25.8931)" fill="white"/>
<circle cx="32" cy="26.3256" r="2.44949" transform="rotate(165 32 26.3256)" fill="url(#paint68_linear_283_779)"/>
<circle r="0.46046" transform="matrix(0.965926 -0.258819 -0.258819 -0.965926 32.7002 25.0141)" fill="white"/>
<circle r="0.259941" transform="matrix(0.965926 -0.258819 -0.258819 -0.965926 32.842 25.8931)" fill="white"/>
<circle cx="30.5" cy="23.8255" r="1.22474" transform="rotate(165 30.5 23.8255)" fill="url(#paint69_linear_283_779)"/>
<circle r="0.23023" transform="matrix(0.965926 -0.258819 -0.258819 -0.965926 30.8501 23.1698)" fill="white"/>
<circle r="0.12997" transform="matrix(0.965926 -0.258819 -0.258819 -0.965926 30.921 23.6093)" fill="white"/>
<circle cx="39.5" cy="21.8255" r="2.04124" transform="rotate(165 39.5 21.8255)" fill="url(#paint70_linear_283_779)"/>
<circle r="0.383716" transform="matrix(0.965926 -0.258819 -0.258819 -0.965926 40.0835 20.7327)" fill="white"/>
<circle r="0.216617" transform="matrix(0.965926 -0.258819 -0.258819 -0.965926 40.2016 21.4652)" fill="white"/>
<circle cx="42" cy="20.3255" r="1.63299" transform="rotate(165 42 20.3255)" fill="url(#paint71_linear_283_779)"/>
<circle r="0.306973" transform="matrix(0.965926 -0.258819 -0.258819 -0.965926 42.4668 19.4512)" fill="white"/>
<circle r="0.173294" transform="matrix(0.965926 -0.258819 -0.258819 -0.965926 42.5613 20.0373)" fill="white"/>
<circle cx="41.5" cy="15.8255" r="1.22474" transform="rotate(165 41.5 15.8255)" fill="url(#paint72_linear_283_779)"/>
<circle r="0.23023" transform="matrix(0.965926 -0.258819 -0.258819 -0.965926 41.8501 15.1698)" fill="white"/>
<circle r="0.12997" transform="matrix(0.965926 -0.258819 -0.258819 -0.965926 41.9209 15.6093)" fill="white"/>
<circle cx="42" cy="24.3256" r="2.44949" transform="rotate(165 42 24.3256)" fill="url(#paint73_linear_283_779)"/>
<circle r="0.46046" transform="matrix(0.965926 -0.258819 -0.258819 -0.965926 42.7002 23.0141)" fill="white"/>
<circle r="0.259941" transform="matrix(0.965926 -0.258819 -0.258819 -0.965926 42.842 23.8931)" fill="white"/>
<circle cx="46" cy="24.3256" r="2.44949" transform="rotate(165 46 24.3256)" fill="url(#paint74_linear_283_779)"/>
<circle r="0.46046" transform="matrix(0.965926 -0.258819 -0.258819 -0.965926 46.7002 23.0141)" fill="white"/>
<circle r="0.259941" transform="matrix(0.965926 -0.258819 -0.258819 -0.965926 46.842 23.8931)" fill="white"/>
<circle cx="44.5" cy="21.8255" r="1.22474" transform="rotate(165 44.5 21.8255)" fill="url(#paint75_linear_283_779)"/>
<circle r="0.23023" transform="matrix(0.965926 -0.258819 -0.258819 -0.965926 44.8501 21.1698)" fill="white"/>
<circle r="0.12997" transform="matrix(0.965926 -0.258819 -0.258819 -0.965926 44.921 21.6093)" fill="white"/>
<circle cx="36.5" cy="25.8255" r="2.04124" transform="rotate(165 36.5 25.8255)" fill="url(#paint76_linear_283_779)"/>
<circle r="0.383716" transform="matrix(0.965926 -0.258819 -0.258819 -0.965926 37.0835 24.7327)" fill="white"/>
<circle r="0.216617" transform="matrix(0.965926 -0.258819 -0.258819 -0.965926 37.2016 25.4652)" fill="white"/>
<circle cx="39" cy="24.3255" r="1.63299" transform="rotate(165 39 24.3255)" fill="url(#paint77_linear_283_779)"/>
<circle r="0.306973" transform="matrix(0.965926 -0.258819 -0.258819 -0.965926 39.4668 23.4512)" fill="white"/>
<circle r="0.173294" transform="matrix(0.965926 -0.258819 -0.258819 -0.965926 39.5613 24.0373)" fill="white"/>
<circle cx="39" cy="28.3256" r="2.44949" transform="rotate(165 39 28.3256)" fill="url(#paint78_linear_283_779)"/>
<circle r="0.46046" transform="matrix(0.965926 -0.258819 -0.258819 -0.965926 39.7002 27.0141)" fill="white"/>
<circle r="0.259941" transform="matrix(0.965926 -0.258819 -0.258819 -0.965926 39.842 27.8931)" fill="white"/>
<circle cx="43" cy="28.3256" r="2.44949" transform="rotate(165 43 28.3256)" fill="url(#paint79_linear_283_779)"/>
<circle r="0.46046" transform="matrix(0.965926 -0.258819 -0.258819 -0.965926 43.7002 27.0141)" fill="white"/>
<circle r="0.259941" transform="matrix(0.965926 -0.258819 -0.258819 -0.965926 43.842 27.8931)" fill="white"/>
<circle cx="41.5" cy="25.8255" r="1.22474" transform="rotate(165 41.5 25.8255)" fill="url(#paint80_linear_283_779)"/>
<circle r="0.23023" transform="matrix(0.965926 -0.258819 -0.258819 -0.965926 41.8501 25.1698)" fill="white"/>
<circle r="0.12997" transform="matrix(0.965926 -0.258819 -0.258819 -0.965926 41.921 25.6093)" fill="white"/>
<g filter="url(#filter1_f_283_779)">
<path d="M31.8975 26.6308C31.8975 28.2483 29.6819 29.5595 26.9488 29.5595C24.2156 29.5595 22 28.2483 22 26.6308C22 25.0134 24.2156 23.7021 26.9488 23.7021C29.6819 23.7021 31.8975 25.0134 31.8975 26.6308Z" fill="url(#paint81_linear_283_779)" fill-opacity="0.5"/>
<path d="M35.1967 28.5833C35.1967 30.2007 32.9811 31.5119 30.248 31.5119C27.5148 31.5119 25.2992 30.2007 25.2992 28.5833C25.2992 26.9658 27.5148 25.6546 30.248 25.6546C32.9811 25.6546 35.1967 26.9658 35.1967 28.5833Z" fill="url(#paint82_linear_283_779)" fill-opacity="0.5"/>
<path d="M37.3962 25.3292C37.3962 26.9466 35.1805 28.2579 32.4474 28.2579C29.7143 28.2579 27.4986 26.9466 27.4986 25.3292C27.4986 23.7117 29.7143 22.4005 32.4474 22.4005C35.1805 22.4005 37.3962 23.7117 37.3962 25.3292Z" fill="url(#paint83_linear_283_779)" fill-opacity="0.5"/>
<path d="M42.8948 27.2816C42.8948 28.8991 40.6792 30.2103 37.946 30.2103C35.2129 30.2103 32.9973 28.8991 32.9973 27.2816C32.9973 25.6642 35.2129 24.353 37.946 24.353C40.6792 24.353 42.8948 25.6642 42.8948 27.2816Z" fill="url(#paint84_linear_283_779)" fill-opacity="0.5"/>
<path d="M40.6954 23.7021C40.6954 24.7805 39.2183 25.6546 37.3962 25.6546C35.5741 25.6546 34.097 24.7805 34.097 23.7021C34.097 22.6238 35.5741 21.7497 37.3962 21.7497C39.2183 21.7497 40.6954 22.6238 40.6954 23.7021Z" fill="url(#paint85_linear_283_779)" fill-opacity="0.5"/>
<path d="M48.3935 25.6546C48.3935 26.7329 46.9164 27.607 45.0943 27.607C43.2722 27.607 41.7951 26.7329 41.7951 25.6546C41.7951 24.5763 43.2722 23.7021 45.0943 23.7021C46.9164 23.7021 48.3935 24.5763 48.3935 25.6546Z" fill="url(#paint86_linear_283_779)" fill-opacity="0.5"/>
<path d="M38.4959 30.8611C38.4959 31.9394 37.0188 32.8136 35.1967 32.8136C33.3746 32.8136 31.8975 31.9394 31.8975 30.8611C31.8975 29.7828 33.3746 28.9087 35.1967 28.9087C37.0188 28.9087 38.4959 29.7828 38.4959 30.8611Z" fill="url(#paint87_linear_283_779)" fill-opacity="0.5"/>
<path d="M43.9945 25.0038C43.9945 26.0821 42.5174 26.9562 40.6954 26.9562C38.8733 26.9562 37.3962 26.0821 37.3962 25.0038C37.3962 23.9255 38.8733 23.0513 40.6954 23.0513C42.5174 23.0513 43.9945 23.9255 43.9945 25.0038Z" fill="url(#paint88_linear_283_779)" fill-opacity="0.5"/>
<path d="M57.2699 26.9838C56.5625 25.4215 58.1292 23.8156 60.7692 23.397C63.4092 22.9783 66.1228 23.9055 66.8301 25.4678C67.5375 27.0302 65.9708 28.6361 63.3308 29.0547C60.6908 29.4733 57.9772 28.5462 57.2699 26.9838Z" fill="url(#paint89_linear_283_779)" fill-opacity="0.5"/>
<path d="M53.2292 25.6032C52.5218 24.0409 54.0885 22.435 56.7285 22.0164C59.3685 21.5977 62.0821 22.5249 62.7895 24.0873C63.4969 25.6496 61.9302 27.2555 59.2902 27.6741C56.6502 28.0928 53.9366 27.1656 53.2292 25.6032Z" fill="url(#paint90_linear_283_779)" fill-opacity="0.5"/>
<path d="M52.5278 29.0833C51.8205 27.521 53.3871 25.9151 56.0271 25.4965C58.6672 25.0778 61.3807 26.005 62.0881 27.5673C62.7955 29.1297 61.2288 30.7356 58.5888 31.1542C55.9488 31.5728 53.2352 30.6457 52.5278 29.0833Z" fill="url(#paint91_linear_283_779)" fill-opacity="0.5"/>
<path d="M46.3627 28.0396C45.6553 26.4773 47.222 24.8714 49.862 24.4528C52.502 24.0341 55.2156 24.9613 55.923 26.5236C56.6304 28.086 55.0637 29.6919 52.4237 30.1105C49.7837 30.5291 47.0701 29.602 46.3627 28.0396Z" fill="url(#paint92_linear_283_779)" fill-opacity="0.5"/>
<path d="M50.0526 31.1603C49.5811 30.1187 50.6255 29.0481 52.3855 28.769C54.1455 28.4899 55.9546 29.108 56.4262 30.1496C56.8978 31.1912 55.8533 32.2618 54.0933 32.5408C52.3333 32.8199 50.5242 32.2018 50.0526 31.1603Z" fill="url(#paint93_linear_283_779)" fill-opacity="0.5"/>
<path d="M41.763 30.4534C41.2914 29.4119 42.3358 28.3413 44.0958 28.0622C45.8559 27.7831 47.6649 28.4012 48.1365 29.4428C48.6081 30.4843 47.5636 31.5549 45.8036 31.834C44.0436 32.1131 42.2346 31.495 41.763 30.4534Z" fill="url(#paint94_linear_283_779)" fill-opacity="0.5"/>
<path d="M49.0462 23.9083C48.5746 22.8668 49.6191 21.7962 51.3791 21.5171C53.1391 21.238 54.9482 21.8561 55.4198 22.8977C55.8913 23.9392 54.8469 25.0098 53.0869 25.2889C51.3269 25.568 49.5178 24.9499 49.0462 23.9083Z" fill="url(#paint95_linear_283_779)" fill-opacity="0.5"/>
<path d="M46.2966 30.4083C45.825 29.3667 46.8695 28.2961 48.6295 28.0171C50.3895 27.738 52.1986 28.3561 52.6702 29.3976C53.1417 30.4392 52.0973 31.5098 50.3373 31.7889C48.5773 32.068 46.7682 31.4499 46.2966 30.4083Z" fill="url(#paint96_linear_283_779)" fill-opacity="0.5"/>
<path d="M37.3962 26.6308C37.3962 28.2483 35.1805 29.5595 32.4474 29.5595C29.7143 29.5595 27.4986 28.2483 27.4986 26.6308C27.4986 25.0134 29.7143 23.7021 32.4474 23.7021C35.1805 23.7021 37.3962 25.0134 37.3962 26.6308Z" fill="url(#paint97_linear_283_779)" fill-opacity="0.5"/>
<path d="M40.6954 28.5833C40.6954 30.2007 38.4797 31.5119 35.7466 31.5119C33.0135 31.5119 30.7978 30.2007 30.7978 28.5833C30.7978 26.9658 33.0135 25.6546 35.7466 25.6546C38.4797 25.6546 40.6954 26.9658 40.6954 28.5833Z" fill="url(#paint98_linear_283_779)" fill-opacity="0.5"/>
<path d="M42.8948 25.3292C42.8948 26.9466 40.6792 28.2579 37.946 28.2579C35.2129 28.2579 32.9973 26.9466 32.9973 25.3292C32.9973 23.7117 35.2129 22.4005 37.946 22.4005C40.6792 22.4005 42.8948 23.7117 42.8948 25.3292Z" fill="url(#paint99_linear_283_779)" fill-opacity="0.5"/>
<path d="M48.3935 27.2816C48.3935 28.8991 46.1778 30.2103 43.4447 30.2103C40.7115 30.2103 38.4959 28.8991 38.4959 27.2816C38.4959 25.6642 40.7115 24.353 43.4447 24.353C46.1778 24.353 48.3935 25.6642 48.3935 27.2816Z" fill="url(#paint100_linear_283_779)" fill-opacity="0.5"/>
<path d="M46.194 23.7021C46.194 24.7805 44.7169 25.6546 42.8948 25.6546C41.0727 25.6546 39.5956 24.7805 39.5956 23.7021C39.5956 22.6238 41.0727 21.7497 42.8948 21.7497C44.7169 21.7497 46.194 22.6238 46.194 23.7021Z" fill="url(#paint101_linear_283_779)" fill-opacity="0.5"/>
<path d="M53.8921 25.6546C53.8921 26.7329 52.415 27.607 50.5929 27.607C48.7708 27.607 47.2937 26.7329 47.2937 25.6546C47.2937 24.5763 48.7708 23.7021 50.5929 23.7021C52.415 23.7021 53.8921 24.5763 53.8921 25.6546Z" fill="url(#paint102_linear_283_779)" fill-opacity="0.5"/>
<path d="M43.9945 30.8611C43.9945 31.9394 42.5174 32.8136 40.6954 32.8136C38.8733 32.8136 37.3962 31.9394 37.3962 30.8611C37.3962 29.7828 38.8733 28.9087 40.6954 28.9087C42.5174 28.9087 43.9945 29.7828 43.9945 30.8611Z" fill="url(#paint103_linear_283_779)" fill-opacity="0.5"/>
<path d="M49.4932 25.0038C49.4932 26.0821 48.0161 26.9562 46.194 26.9562C44.3719 26.9562 42.8948 26.0821 42.8948 25.0038C42.8948 23.9255 44.3719 23.0513 46.194 23.0513C48.0161 23.0513 49.4932 23.9255 49.4932 25.0038Z" fill="url(#paint104_linear_283_779)" fill-opacity="0.5"/>
<path d="M51.9585 27.826C51.2511 26.2637 52.8178 24.6578 55.4578 24.2392C58.0978 23.8205 60.8114 24.7477 61.5188 26.3101C62.2262 27.8724 60.6595 29.4783 58.0195 29.8969C55.3795 30.3156 52.6659 29.3884 51.9585 27.826Z" fill="url(#paint105_linear_283_779)" fill-opacity="0.5"/>
<path d="M47.9178 26.4455C47.2104 24.8831 48.7771 23.2772 51.4171 22.8586C54.0571 22.44 56.7707 23.3671 57.4781 24.9295C58.1855 26.4918 56.6188 28.0977 53.9788 28.5163C51.3388 28.935 48.6252 28.0078 47.9178 26.4455Z" fill="url(#paint106_linear_283_779)" fill-opacity="0.5"/>
<path d="M47.2165 29.9255C46.5091 28.3632 48.0758 26.7573 50.7158 26.3387C53.3558 25.92 56.0694 26.8472 56.7768 28.4096C57.4842 29.9719 55.9175 31.5778 53.2775 31.9964C50.6375 32.4151 47.9239 31.4879 47.2165 29.9255Z" fill="url(#paint107_linear_283_779)" fill-opacity="0.5"/>
<path d="M41.0513 28.8818C40.3439 27.3195 41.9106 25.7136 44.5506 25.295C47.1906 24.8763 49.9042 25.8035 50.6116 27.3659C51.319 28.9282 49.7523 30.5341 47.1123 30.9527C44.4723 31.3714 41.7587 30.4442 41.0513 28.8818Z" fill="url(#paint108_linear_283_779)" fill-opacity="0.5"/>
<path d="M44.7413 32.0025C44.2697 30.9609 45.3142 29.8903 47.0742 29.6112C48.8342 29.3321 50.6432 29.9502 51.1148 30.9918C51.5864 32.0334 50.5419 33.104 48.7819 33.3831C47.0219 33.6621 45.2129 33.044 44.7413 32.0025Z" fill="url(#paint109_linear_283_779)" fill-opacity="0.5"/>
<path d="M36.4516 31.2957C35.98 30.2541 37.0245 29.1835 38.7845 28.9044C40.5445 28.6253 42.3535 29.2434 42.8251 30.285C43.2967 31.3266 42.2523 32.3972 40.4923 32.6762C38.7323 32.9553 36.9232 32.3372 36.4516 31.2957Z" fill="url(#paint110_linear_283_779)" fill-opacity="0.5"/>
<path d="M43.7349 24.7506C43.2633 23.709 44.3077 22.6384 46.0677 22.3593C47.8277 22.0802 49.6368 22.6983 50.1084 23.7399C50.58 24.7815 49.5355 25.8521 47.7755 26.1311C46.0155 26.4102 44.2065 25.7921 43.7349 24.7506Z" fill="url(#paint111_linear_283_779)" fill-opacity="0.5"/>
<path d="M40.9853 31.2505C40.5137 30.209 41.5581 29.1384 43.3181 28.8593C45.0781 28.5802 46.8872 29.1983 47.3588 30.2399C47.8304 31.2814 46.7859 32.352 45.0259 32.6311C43.2659 32.9102 41.4569 32.2921 40.9853 31.2505Z" fill="url(#paint112_linear_283_779)" fill-opacity="0.5"/>
</g>
<defs>
<filter id="filter0_f_283_779" x="0" y="19.4501" width="30" height="14" filterUnits="userSpaceOnUse" color-interpolation-filters="sRGB">
<feFlood flood-opacity="0" result="BackgroundImageFix"/>
<feBlend mode="normal" in="SourceGraphic" in2="BackgroundImageFix" result="shape"/>
<feGaussianBlur stdDeviation="0.5" result="effect1_foregroundBlur_283_779"/>
</filter>
<filter id="filter1_f_283_779" x="21" y="20.4501" width="47" height="14" filterUnits="userSpaceOnUse" color-interpolation-filters="sRGB">
<feFlood flood-opacity="0" result="BackgroundImageFix"/>
<feBlend mode="normal" in="SourceGraphic" in2="BackgroundImageFix" result="shape"/>
<feGaussianBlur stdDeviation="0.5" result="effect1_foregroundBlur_283_779"/>
</filter>
<linearGradient id="paint0_linear_283_779" x1="27.2345" y1="10.1289" x2="27.5" y2="11.9913" gradientUnits="userSpaceOnUse">
<stop stop-color="#D9D9D9" stop-opacity="0.23"/>
<stop offset="1" stop-color="white"/>
</linearGradient>
<linearGradient id="paint1_linear_283_779" x1="29.7876" y1="8.59313" x2="30" y2="10.083" gradientUnits="userSpaceOnUse">
<stop stop-color="#D9D9D9" stop-opacity="0.23"/>
<stop offset="1" stop-color="white"/>
</linearGradient>
<linearGradient id="paint2_linear_283_779" x1="39.6814" y1="2.66472" x2="40" y2="4.89957" gradientUnits="userSpaceOnUse">
<stop stop-color="#D9D9D9" stop-opacity="0.23"/>
<stop offset="1" stop-color="white"/>
</linearGradient>
<linearGradient id="paint3_linear_283_779" x1="50.5752" y1="10.7363" x2="51" y2="13.7161" gradientUnits="userSpaceOnUse">
<stop stop-color="#D9D9D9" stop-opacity="0.23"/>
<stop offset="1" stop-color="white"/>
</linearGradient>
<linearGradient id="paint4_linear_283_779" x1="7.23451" y1="19.1289" x2="7.50002" y2="20.9913" gradientUnits="userSpaceOnUse">
<stop stop-color="#D9D9D9" stop-opacity="0.23"/>
<stop offset="1" stop-color="white"/>
</linearGradient>
<linearGradient id="paint5_linear_283_779" x1="9.78759" y1="17.5931" x2="10" y2="19.083" gradientUnits="userSpaceOnUse">
<stop stop-color="#D9D9D9" stop-opacity="0.23"/>
<stop offset="1" stop-color="white"/>
</linearGradient>
<linearGradient id="paint6_linear_283_779" x1="9.34069" y1="13.0573" x2="9.5" y2="14.1748" gradientUnits="userSpaceOnUse">
<stop stop-color="#D9D9D9" stop-opacity="0.23"/>
<stop offset="1" stop-color="white"/>
</linearGradient>
<linearGradient id="paint7_linear_283_779" x1="13.8938" y1="15.5217" x2="14" y2="16.2666" gradientUnits="userSpaceOnUse">
<stop stop-color="#D9D9D9" stop-opacity="0.23"/>
<stop offset="1" stop-color="white"/>
</linearGradient>
<linearGradient id="paint8_linear_283_779" x1="9.68139" y1="21.6647" x2="10" y2="23.8996" gradientUnits="userSpaceOnUse">
<stop stop-color="#D9D9D9" stop-opacity="0.23"/>
<stop offset="1" stop-color="white"/>
</linearGradient>
<linearGradient id="paint9_linear_283_779" x1="13.6814" y1="21.6647" x2="14" y2="23.8996" gradientUnits="userSpaceOnUse">
<stop stop-color="#D9D9D9" stop-opacity="0.23"/>
<stop offset="1" stop-color="white"/>
</linearGradient>
<linearGradient id="paint10_linear_283_779" x1="12.3407" y1="19.0573" x2="12.5" y2="20.1748" gradientUnits="userSpaceOnUse">
<stop stop-color="#D9D9D9" stop-opacity="0.23"/>
<stop offset="1" stop-color="white"/>
</linearGradient>
<linearGradient id="paint11_linear_283_779" x1="4.23451" y1="23.1289" x2="4.50002" y2="24.9913" gradientUnits="userSpaceOnUse">
<stop stop-color="#D9D9D9" stop-opacity="0.23"/>
<stop offset="1" stop-color="white"/>
</linearGradient>
<linearGradient id="paint12_linear_283_779" x1="6.78759" y1="21.5931" x2="7" y2="23.083" gradientUnits="userSpaceOnUse">
<stop stop-color="#D9D9D9" stop-opacity="0.23"/>
<stop offset="1" stop-color="white"/>
</linearGradient>
<linearGradient id="paint13_linear_283_779" x1="6.68139" y1="25.6647" x2="7" y2="27.8996" gradientUnits="userSpaceOnUse">
<stop stop-color="#D9D9D9" stop-opacity="0.23"/>
<stop offset="1" stop-color="white"/>
</linearGradient>
<linearGradient id="paint14_linear_283_779" x1="10.6814" y1="25.6647" x2="11" y2="27.8996" gradientUnits="userSpaceOnUse">
<stop stop-color="#D9D9D9" stop-opacity="0.23"/>
<stop offset="1" stop-color="white"/>
</linearGradient>
<linearGradient id="paint15_linear_283_779" x1="9.34069" y1="23.0573" x2="9.5" y2="24.1748" gradientUnits="userSpaceOnUse">
<stop stop-color="#D9D9D9" stop-opacity="0.23"/>
<stop offset="1" stop-color="white"/>
</linearGradient>
<linearGradient id="paint16_linear_283_779" x1="18.2345" y1="21.1289" x2="18.5" y2="22.9913" gradientUnits="userSpaceOnUse">
<stop stop-color="#D9D9D9" stop-opacity="0.23"/>
<stop offset="1" stop-color="white"/>
</linearGradient>
<linearGradient id="paint17_linear_283_779" x1="20.7876" y1="19.5931" x2="21" y2="21.083" gradientUnits="userSpaceOnUse">
<stop stop-color="#D9D9D9" stop-opacity="0.23"/>
<stop offset="1" stop-color="white"/>
</linearGradient>
<linearGradient id="paint18_linear_283_779" x1="20.3407" y1="15.0573" x2="20.5" y2="16.1748" gradientUnits="userSpaceOnUse">
<stop stop-color="#D9D9D9" stop-opacity="0.23"/>
<stop offset="1" stop-color="white"/>
</linearGradient>
<linearGradient id="paint19_linear_283_779" x1="20.6814" y1="23.6647" x2="21" y2="25.8996" gradientUnits="userSpaceOnUse">
<stop stop-color="#D9D9D9" stop-opacity="0.23"/>
<stop offset="1" stop-color="white"/>
</linearGradient>
<linearGradient id="paint20_linear_283_779" x1="24.6814" y1="23.6647" x2="25" y2="25.8996" gradientUnits="userSpaceOnUse">
<stop stop-color="#D9D9D9" stop-opacity="0.23"/>
<stop offset="1" stop-color="white"/>
</linearGradient>
<linearGradient id="paint21_linear_283_779" x1="23.3407" y1="21.0573" x2="23.5" y2="22.1748" gradientUnits="userSpaceOnUse">
<stop stop-color="#D9D9D9" stop-opacity="0.23"/>
<stop offset="1" stop-color="white"/>
</linearGradient>
<linearGradient id="paint22_linear_283_779" x1="15.2345" y1="25.1289" x2="15.5" y2="26.9913" gradientUnits="userSpaceOnUse">
<stop stop-color="#D9D9D9" stop-opacity="0.23"/>
<stop offset="1" stop-color="white"/>
</linearGradient>
<linearGradient id="paint23_linear_283_779" x1="17.7876" y1="23.5931" x2="18" y2="25.083" gradientUnits="userSpaceOnUse">
<stop stop-color="#D9D9D9" stop-opacity="0.23"/>
<stop offset="1" stop-color="white"/>
</linearGradient>
<linearGradient id="paint24_linear_283_779" x1="17.6814" y1="27.6647" x2="18" y2="29.8996" gradientUnits="userSpaceOnUse">
<stop stop-color="#D9D9D9" stop-opacity="0.23"/>
<stop offset="1" stop-color="white"/>
</linearGradient>
<linearGradient id="paint25_linear_283_779" x1="21.6814" y1="27.6647" x2="22" y2="29.8996" gradientUnits="userSpaceOnUse">
<stop stop-color="#D9D9D9" stop-opacity="0.23"/>
<stop offset="1" stop-color="white"/>
</linearGradient>
<linearGradient id="paint26_linear_283_779" x1="20.3407" y1="25.0573" x2="20.5" y2="26.1748" gradientUnits="userSpaceOnUse">
<stop stop-color="#D9D9D9" stop-opacity="0.23"/>
<stop offset="1" stop-color="white"/>
</linearGradient>
<linearGradient id="paint27_linear_283_779" x1="15" y1="20.4501" x2="15" y2="32.4501" gradientUnits="userSpaceOnUse">
<stop stop-color="#F4FAFF"/>
<stop offset="1" stop-color="white" stop-opacity="0"/>
</linearGradient>
<linearGradient id="paint28_linear_283_779" x1="15" y1="20.4501" x2="15" y2="32.4501" gradientUnits="userSpaceOnUse">
<stop stop-color="#F4FAFF"/>
<stop offset="1" stop-color="white" stop-opacity="0"/>
</linearGradient>
<linearGradient id="paint29_linear_283_779" x1="15" y1="20.4501" x2="15" y2="32.4501" gradientUnits="userSpaceOnUse">
<stop stop-color="#F4FAFF"/>
<stop offset="1" stop-color="white" stop-opacity="0"/>
</linearGradient>
<linearGradient id="paint30_linear_283_779" x1="15" y1="20.4501" x2="15" y2="32.4501" gradientUnits="userSpaceOnUse">
<stop stop-color="#F4FAFF"/>
<stop offset="1" stop-color="white" stop-opacity="0"/>
</linearGradient>
<linearGradient id="paint31_linear_283_779" x1="15" y1="20.4501" x2="15" y2="32.4501" gradientUnits="userSpaceOnUse">
<stop stop-color="#F4FAFF"/>
<stop offset="1" stop-color="white" stop-opacity="0"/>
</linearGradient>
<linearGradient id="paint32_linear_283_779" x1="15" y1="20.4501" x2="15" y2="32.4501" gradientUnits="userSpaceOnUse">
<stop stop-color="#F4FAFF"/>
<stop offset="1" stop-color="white" stop-opacity="0"/>
</linearGradient>
<linearGradient id="paint33_linear_283_779" x1="15" y1="20.4501" x2="15" y2="32.4501" gradientUnits="userSpaceOnUse">
<stop stop-color="#F4FAFF"/>
<stop offset="1" stop-color="white" stop-opacity="0"/>
</linearGradient>
<linearGradient id="paint34_linear_283_779" x1="15" y1="20.4501" x2="15" y2="32.4501" gradientUnits="userSpaceOnUse">
<stop stop-color="#F4FAFF"/>
<stop offset="1" stop-color="white" stop-opacity="0"/>
</linearGradient>
<linearGradient id="paint35_linear_283_779" x1="15" y1="20.4501" x2="15" y2="32.4501" gradientUnits="userSpaceOnUse">
<stop stop-color="#F4FAFF"/>
<stop offset="1" stop-color="white" stop-opacity="0"/>
</linearGradient>
<linearGradient id="paint36_linear_283_779" x1="15" y1="20.4501" x2="15" y2="32.4501" gradientUnits="userSpaceOnUse">
<stop stop-color="#F4FAFF"/>
<stop offset="1" stop-color="white" stop-opacity="0"/>
</linearGradient>
<linearGradient id="paint37_linear_283_779" x1="15" y1="20.4501" x2="15" y2="32.4501" gradientUnits="userSpaceOnUse">
<stop stop-color="#F4FAFF"/>
<stop offset="1" stop-color="white" stop-opacity="0"/>
</linearGradient>
<linearGradient id="paint38_linear_283_779" x1="15" y1="20.4501" x2="15" y2="32.4501" gradientUnits="userSpaceOnUse">
<stop stop-color="#F4FAFF"/>
<stop offset="1" stop-color="white" stop-opacity="0"/>
</linearGradient>
<linearGradient id="paint39_linear_283_779" x1="15" y1="20.4501" x2="15" y2="32.4501" gradientUnits="userSpaceOnUse">
<stop stop-color="#F4FAFF"/>
<stop offset="1" stop-color="white" stop-opacity="0"/>
</linearGradient>
<linearGradient id="paint40_linear_283_779" x1="15" y1="20.4501" x2="15" y2="32.4501" gradientUnits="userSpaceOnUse">
<stop stop-color="#F4FAFF"/>
<stop offset="1" stop-color="white" stop-opacity="0"/>
</linearGradient>
<linearGradient id="paint41_linear_283_779" x1="15" y1="20.4501" x2="15" y2="32.4501" gradientUnits="userSpaceOnUse">
<stop stop-color="#F4FAFF"/>
<stop offset="1" stop-color="white" stop-opacity="0"/>
</linearGradient>
<linearGradient id="paint42_linear_283_779" x1="15" y1="20.4501" x2="15" y2="32.4501" gradientUnits="userSpaceOnUse">
<stop stop-color="#F4FAFF"/>
<stop offset="1" stop-color="white" stop-opacity="0"/>
</linearGradient>
<linearGradient id="paint43_linear_283_779" x1="15" y1="20.4501" x2="15" y2="32.4501" gradientUnits="userSpaceOnUse">
<stop stop-color="#F4FAFF"/>
<stop offset="1" stop-color="white" stop-opacity="0"/>
</linearGradient>
<linearGradient id="paint44_linear_283_779" x1="15" y1="20.4501" x2="15" y2="32.4501" gradientUnits="userSpaceOnUse">
<stop stop-color="#F4FAFF"/>
<stop offset="1" stop-color="white" stop-opacity="0"/>
</linearGradient>
<linearGradient id="paint45_linear_283_779" x1="15" y1="20.4501" x2="15" y2="32.4501" gradientUnits="userSpaceOnUse">
<stop stop-color="#F4FAFF"/>
<stop offset="1" stop-color="white" stop-opacity="0"/>
</linearGradient>
<linearGradient id="paint46_linear_283_779" x1="15" y1="20.4501" x2="15" y2="32.4501" gradientUnits="userSpaceOnUse">
<stop stop-color="#F4FAFF"/>
<stop offset="1" stop-color="white" stop-opacity="0"/>
</linearGradient>
<linearGradient id="paint47_linear_283_779" x1="15" y1="20.4501" x2="15" y2="32.4501" gradientUnits="userSpaceOnUse">
<stop stop-color="#F4FAFF"/>
<stop offset="1" stop-color="white" stop-opacity="0"/>
</linearGradient>
<linearGradient id="paint48_linear_283_779" x1="15" y1="20.4501" x2="15" y2="32.4501" gradientUnits="userSpaceOnUse">
<stop stop-color="#F4FAFF"/>
<stop offset="1" stop-color="white" stop-opacity="0"/>
</linearGradient>
<linearGradient id="paint49_linear_283_779" x1="15" y1="20.4501" x2="15" y2="32.4501" gradientUnits="userSpaceOnUse">
<stop stop-color="#F4FAFF"/>
<stop offset="1" stop-color="white" stop-opacity="0"/>
</linearGradient>
<linearGradient id="paint50_linear_283_779" x1="15" y1="20.4501" x2="15" y2="32.4501" gradientUnits="userSpaceOnUse">
<stop stop-color="#F4FAFF"/>
<stop offset="1" stop-color="white" stop-opacity="0"/>
</linearGradient>
<linearGradient id="paint51_linear_283_779" x1="15" y1="20.4501" x2="15" y2="32.4501" gradientUnits="userSpaceOnUse">
<stop stop-color="#F4FAFF"/>
<stop offset="1" stop-color="white" stop-opacity="0"/>
</linearGradient>
<linearGradient id="paint52_linear_283_779" x1="15" y1="20.4501" x2="15" y2="32.4501" gradientUnits="userSpaceOnUse">
<stop stop-color="#F4FAFF"/>
<stop offset="1" stop-color="white" stop-opacity="0"/>
</linearGradient>
<linearGradient id="paint53_linear_283_779" x1="15" y1="20.4501" x2="15" y2="32.4501" gradientUnits="userSpaceOnUse">
<stop stop-color="#F4FAFF"/>
<stop offset="1" stop-color="white" stop-opacity="0"/>
</linearGradient>
<linearGradient id="paint54_linear_283_779" x1="15" y1="20.4501" x2="15" y2="32.4501" gradientUnits="userSpaceOnUse">
<stop stop-color="#F4FAFF"/>
<stop offset="1" stop-color="white" stop-opacity="0"/>
</linearGradient>
<linearGradient id="paint55_linear_283_779" x1="15" y1="20.4501" x2="15" y2="32.4501" gradientUnits="userSpaceOnUse">
<stop stop-color="#F4FAFF"/>
<stop offset="1" stop-color="white" stop-opacity="0"/>
</linearGradient>
<linearGradient id="paint56_linear_283_779" x1="15" y1="20.4501" x2="15" y2="32.4501" gradientUnits="userSpaceOnUse">
<stop stop-color="#F4FAFF"/>
<stop offset="1" stop-color="white" stop-opacity="0"/>
</linearGradient>
<linearGradient id="paint57_linear_283_779" x1="15" y1="20.4501" x2="15" y2="32.4501" gradientUnits="userSpaceOnUse">
<stop stop-color="#F4FAFF"/>
<stop offset="1" stop-color="white" stop-opacity="0"/>
</linearGradient>
<linearGradient id="paint58_linear_283_779" x1="15" y1="20.4501" x2="15" y2="32.4501" gradientUnits="userSpaceOnUse">
<stop stop-color="#F4FAFF"/>
<stop offset="1" stop-color="white" stop-opacity="0"/>
</linearGradient>
<linearGradient id="paint59_linear_283_779" x1="28.2345" y1="20.0044" x2="28.5" y2="21.8668" gradientUnits="userSpaceOnUse">
<stop stop-color="#D9D9D9" stop-opacity="0.23"/>
<stop offset="1" stop-color="white"/>
</linearGradient>
<linearGradient id="paint60_linear_283_779" x1="30.7876" y1="18.4686" x2="31" y2="19.9585" gradientUnits="userSpaceOnUse">
<stop stop-color="#D9D9D9" stop-opacity="0.23"/>
<stop offset="1" stop-color="white"/>
</linearGradient>
<linearGradient id="paint61_linear_283_779" x1="34.8938" y1="16.3972" x2="35" y2="17.1421" gradientUnits="userSpaceOnUse">
<stop stop-color="#D9D9D9" stop-opacity="0.23"/>
<stop offset="1" stop-color="white"/>
</linearGradient>
<linearGradient id="paint62_linear_283_779" x1="30.6814" y1="22.5402" x2="31" y2="24.7751" gradientUnits="userSpaceOnUse">
<stop stop-color="#D9D9D9" stop-opacity="0.23"/>
<stop offset="1" stop-color="white"/>
</linearGradient>
<linearGradient id="paint63_linear_283_779" x1="34.6814" y1="22.5402" x2="35" y2="24.7751" gradientUnits="userSpaceOnUse">
<stop stop-color="#D9D9D9" stop-opacity="0.23"/>
<stop offset="1" stop-color="white"/>
</linearGradient>
<linearGradient id="paint64_linear_283_779" x1="33.3407" y1="19.9328" x2="33.5" y2="21.0502" gradientUnits="userSpaceOnUse">
<stop stop-color="#D9D9D9" stop-opacity="0.23"/>
<stop offset="1" stop-color="white"/>
</linearGradient>
<linearGradient id="paint65_linear_283_779" x1="25.2345" y1="24.0044" x2="25.5" y2="25.8668" gradientUnits="userSpaceOnUse">
<stop stop-color="#D9D9D9" stop-opacity="0.23"/>
<stop offset="1" stop-color="white"/>
</linearGradient>
<linearGradient id="paint66_linear_283_779" x1="27.7876" y1="22.4686" x2="28" y2="23.9585" gradientUnits="userSpaceOnUse">
<stop stop-color="#D9D9D9" stop-opacity="0.23"/>
<stop offset="1" stop-color="white"/>
</linearGradient>
<linearGradient id="paint67_linear_283_779" x1="27.6814" y1="26.5402" x2="28" y2="28.7751" gradientUnits="userSpaceOnUse">
<stop stop-color="#D9D9D9" stop-opacity="0.23"/>
<stop offset="1" stop-color="white"/>
</linearGradient>
<linearGradient id="paint68_linear_283_779" x1="31.6814" y1="26.5402" x2="32" y2="28.7751" gradientUnits="userSpaceOnUse">
<stop stop-color="#D9D9D9" stop-opacity="0.23"/>
<stop offset="1" stop-color="white"/>
</linearGradient>
<linearGradient id="paint69_linear_283_779" x1="30.3407" y1="23.9328" x2="30.5" y2="25.0502" gradientUnits="userSpaceOnUse">
<stop stop-color="#D9D9D9" stop-opacity="0.23"/>
<stop offset="1" stop-color="white"/>
</linearGradient>
<linearGradient id="paint70_linear_283_779" x1="39.2345" y1="22.0044" x2="39.5" y2="23.8668" gradientUnits="userSpaceOnUse">
<stop stop-color="#D9D9D9" stop-opacity="0.23"/>
<stop offset="1" stop-color="white"/>
</linearGradient>
<linearGradient id="paint71_linear_283_779" x1="41.7876" y1="20.4686" x2="42" y2="21.9585" gradientUnits="userSpaceOnUse">
<stop stop-color="#D9D9D9" stop-opacity="0.23"/>
<stop offset="1" stop-color="white"/>
</linearGradient>
<linearGradient id="paint72_linear_283_779" x1="41.3407" y1="15.9328" x2="41.5" y2="17.0502" gradientUnits="userSpaceOnUse">
<stop stop-color="#D9D9D9" stop-opacity="0.23"/>
<stop offset="1" stop-color="white"/>
</linearGradient>
<linearGradient id="paint73_linear_283_779" x1="41.6814" y1="24.5402" x2="42" y2="26.7751" gradientUnits="userSpaceOnUse">
<stop stop-color="#D9D9D9" stop-opacity="0.23"/>
<stop offset="1" stop-color="white"/>
</linearGradient>
<linearGradient id="paint74_linear_283_779" x1="45.6814" y1="24.5402" x2="46" y2="26.7751" gradientUnits="userSpaceOnUse">
<stop stop-color="#D9D9D9" stop-opacity="0.23"/>
<stop offset="1" stop-color="white"/>
</linearGradient>
<linearGradient id="paint75_linear_283_779" x1="44.3407" y1="21.9328" x2="44.5" y2="23.0502" gradientUnits="userSpaceOnUse">
<stop stop-color="#D9D9D9" stop-opacity="0.23"/>
<stop offset="1" stop-color="white"/>
</linearGradient>
<linearGradient id="paint76_linear_283_779" x1="36.2345" y1="26.0044" x2="36.5" y2="27.8668" gradientUnits="userSpaceOnUse">
<stop stop-color="#D9D9D9" stop-opacity="0.23"/>
<stop offset="1" stop-color="white"/>
</linearGradient>
<linearGradient id="paint77_linear_283_779" x1="38.7876" y1="24.4686" x2="39" y2="25.9585" gradientUnits="userSpaceOnUse">
<stop stop-color="#D9D9D9" stop-opacity="0.23"/>
<stop offset="1" stop-color="white"/>
</linearGradient>
<linearGradient id="paint78_linear_283_779" x1="38.6814" y1="28.5402" x2="39" y2="30.7751" gradientUnits="userSpaceOnUse">
<stop stop-color="#D9D9D9" stop-opacity="0.23"/>
<stop offset="1" stop-color="white"/>
</linearGradient>
<linearGradient id="paint79_linear_283_779" x1="42.6814" y1="28.5402" x2="43" y2="30.7751" gradientUnits="userSpaceOnUse">
<stop stop-color="#D9D9D9" stop-opacity="0.23"/>
<stop offset="1" stop-color="white"/>
</linearGradient>
<linearGradient id="paint80_linear_283_779" x1="41.3407" y1="25.9328" x2="41.5" y2="27.0502" gradientUnits="userSpaceOnUse">
<stop stop-color="#D9D9D9" stop-opacity="0.23"/>
<stop offset="1" stop-color="white"/>
</linearGradient>
<linearGradient id="paint81_linear_283_779" x1="44.5" y1="21.4501" x2="44.5" y2="33.4501" gradientUnits="userSpaceOnUse">
<stop stop-color="#F4FAFF"/>
<stop offset="1" stop-color="white" stop-opacity="0"/>
</linearGradient>
<linearGradient id="paint82_linear_283_779" x1="44.5" y1="21.4501" x2="44.5" y2="33.4501" gradientUnits="userSpaceOnUse">
<stop stop-color="#F4FAFF"/>
<stop offset="1" stop-color="white" stop-opacity="0"/>
</linearGradient>
<linearGradient id="paint83_linear_283_779" x1="44.5" y1="21.4501" x2="44.5" y2="33.4501" gradientUnits="userSpaceOnUse">
<stop stop-color="#F4FAFF"/>
<stop offset="1" stop-color="white" stop-opacity="0"/>
</linearGradient>
<linearGradient id="paint84_linear_283_779" x1="44.5" y1="21.4501" x2="44.5" y2="33.4501" gradientUnits="userSpaceOnUse">
<stop stop-color="#F4FAFF"/>
<stop offset="1" stop-color="white" stop-opacity="0"/>
</linearGradient>
<linearGradient id="paint85_linear_283_779" x1="44.5" y1="21.4501" x2="44.5" y2="33.4501" gradientUnits="userSpaceOnUse">
<stop stop-color="#F4FAFF"/>
<stop offset="1" stop-color="white" stop-opacity="0"/>
</linearGradient>
<linearGradient id="paint86_linear_283_779" x1="44.5" y1="21.4501" x2="44.5" y2="33.4501" gradientUnits="userSpaceOnUse">
<stop stop-color="#F4FAFF"/>
<stop offset="1" stop-color="white" stop-opacity="0"/>
</linearGradient>
<linearGradient id="paint87_linear_283_779" x1="44.5" y1="21.4501" x2="44.5" y2="33.4501" gradientUnits="userSpaceOnUse">
<stop stop-color="#F4FAFF"/>
<stop offset="1" stop-color="white" stop-opacity="0"/>
</linearGradient>
<linearGradient id="paint88_linear_283_779" x1="44.5" y1="21.4501" x2="44.5" y2="33.4501" gradientUnits="userSpaceOnUse">
<stop stop-color="#F4FAFF"/>
<stop offset="1" stop-color="white" stop-opacity="0"/>
</linearGradient>
<linearGradient id="paint89_linear_283_779" x1="44.5" y1="21.4501" x2="44.5" y2="33.4501" gradientUnits="userSpaceOnUse">
<stop stop-color="#F4FAFF"/>
<stop offset="1" stop-color="white" stop-opacity="0"/>
</linearGradient>
<linearGradient id="paint90_linear_283_779" x1="44.5" y1="21.4501" x2="44.5" y2="33.4501" gradientUnits="userSpaceOnUse">
<stop stop-color="#F4FAFF"/>
<stop offset="1" stop-color="white" stop-opacity="0"/>
</linearGradient>
<linearGradient id="paint91_linear_283_779" x1="44.5" y1="21.4501" x2="44.5" y2="33.4501" gradientUnits="userSpaceOnUse">
<stop stop-color="#F4FAFF"/>
<stop offset="1" stop-color="white" stop-opacity="0"/>
</linearGradient>
<linearGradient id="paint92_linear_283_779" x1="44.5" y1="21.4501" x2="44.5" y2="33.4501" gradientUnits="userSpaceOnUse">
<stop stop-color="#F4FAFF"/>
<stop offset="1" stop-color="white" stop-opacity="0"/>
</linearGradient>
<linearGradient id="paint93_linear_283_779" x1="44.5" y1="21.4501" x2="44.5" y2="33.4501" gradientUnits="userSpaceOnUse">
<stop stop-color="#F4FAFF"/>
<stop offset="1" stop-color="white" stop-opacity="0"/>
</linearGradient>
<linearGradient id="paint94_linear_283_779" x1="44.5" y1="21.4501" x2="44.5" y2="33.4501" gradientUnits="userSpaceOnUse">
<stop stop-color="#F4FAFF"/>
<stop offset="1" stop-color="white" stop-opacity="0"/>
</linearGradient>
<linearGradient id="paint95_linear_283_779" x1="44.5" y1="21.4501" x2="44.5" y2="33.4501" gradientUnits="userSpaceOnUse">
<stop stop-color="#F4FAFF"/>
<stop offset="1" stop-color="white" stop-opacity="0"/>
</linearGradient>
<linearGradient id="paint96_linear_283_779" x1="44.5" y1="21.4501" x2="44.5" y2="33.4501" gradientUnits="userSpaceOnUse">
<stop stop-color="#F4FAFF"/>
<stop offset="1" stop-color="white" stop-opacity="0"/>
</linearGradient>
<linearGradient id="paint97_linear_283_779" x1="44.5" y1="21.4501" x2="44.5" y2="33.4501" gradientUnits="userSpaceOnUse">
<stop stop-color="#F4FAFF"/>
<stop offset="1" stop-color="white" stop-opacity="0"/>
</linearGradient>
<linearGradient id="paint98_linear_283_779" x1="44.5" y1="21.4501" x2="44.5" y2="33.4501" gradientUnits="userSpaceOnUse">
<stop stop-color="#F4FAFF"/>
<stop offset="1" stop-color="white" stop-opacity="0"/>
</linearGradient>
<linearGradient id="paint99_linear_283_779" x1="44.5" y1="21.4501" x2="44.5" y2="33.4501" gradientUnits="userSpaceOnUse">
<stop stop-color="#F4FAFF"/>
<stop offset="1" stop-color="white" stop-opacity="0"/>
</linearGradient>
<linearGradient id="paint100_linear_283_779" x1="44.5" y1="21.4501" x2="44.5" y2="33.4501" gradientUnits="userSpaceOnUse">
<stop stop-color="#F4FAFF"/>
<stop offset="1" stop-color="white" stop-opacity="0"/>
</linearGradient>
<linearGradient id="paint101_linear_283_779" x1="44.5" y1="21.4501" x2="44.5" y2="33.4501" gradientUnits="userSpaceOnUse">
<stop stop-color="#F4FAFF"/>
<stop offset="1" stop-color="white" stop-opacity="0"/>
</linearGradient>
<linearGradient id="paint102_linear_283_779" x1="44.5" y1="21.4501" x2="44.5" y2="33.4501" gradientUnits="userSpaceOnUse">
<stop stop-color="#F4FAFF"/>
<stop offset="1" stop-color="white" stop-opacity="0"/>
</linearGradient>
<linearGradient id="paint103_linear_283_779" x1="44.5" y1="21.4501" x2="44.5" y2="33.4501" gradientUnits="userSpaceOnUse">
<stop stop-color="#F4FAFF"/>
<stop offset="1" stop-color="white" stop-opacity="0"/>
</linearGradient>
<linearGradient id="paint104_linear_283_779" x1="44.5" y1="21.4501" x2="44.5" y2="33.4501" gradientUnits="userSpaceOnUse">
<stop stop-color="#F4FAFF"/>
<stop offset="1" stop-color="white" stop-opacity="0"/>
</linearGradient>
<linearGradient id="paint105_linear_283_779" x1="44.5" y1="21.4501" x2="44.5" y2="33.4501" gradientUnits="userSpaceOnUse">
<stop stop-color="#F4FAFF"/>
<stop offset="1" stop-color="white" stop-opacity="0"/>
</linearGradient>
<linearGradient id="paint106_linear_283_779" x1="44.5" y1="21.4501" x2="44.5" y2="33.4501" gradientUnits="userSpaceOnUse">
<stop stop-color="#F4FAFF"/>
<stop offset="1" stop-color="white" stop-opacity="0"/>
</linearGradient>
<linearGradient id="paint107_linear_283_779" x1="44.5" y1="21.4501" x2="44.5" y2="33.4501" gradientUnits="userSpaceOnUse">
<stop stop-color="#F4FAFF"/>
<stop offset="1" stop-color="white" stop-opacity="0"/>
</linearGradient>
<linearGradient id="paint108_linear_283_779" x1="44.5" y1="21.4501" x2="44.5" y2="33.4501" gradientUnits="userSpaceOnUse">
<stop stop-color="#F4FAFF"/>
<stop offset="1" stop-color="white" stop-opacity="0"/>
</linearGradient>
<linearGradient id="paint109_linear_283_779" x1="44.5" y1="21.4501" x2="44.5" y2="33.4501" gradientUnits="userSpaceOnUse">
<stop stop-color="#F4FAFF"/>
<stop offset="1" stop-color="white" stop-opacity="0"/>
</linearGradient>
<linearGradient id="paint110_linear_283_779" x1="44.5" y1="21.4501" x2="44.5" y2="33.4501" gradientUnits="userSpaceOnUse">
<stop stop-color="#F4FAFF"/>
<stop offset="1" stop-color="white" stop-opacity="0"/>
</linearGradient>
<linearGradient id="paint111_linear_283_779" x1="44.5" y1="21.4501" x2="44.5" y2="33.4501" gradientUnits="userSpaceOnUse">
<stop stop-color="#F4FAFF"/>
<stop offset="1" stop-color="white" stop-opacity="0"/>
</linearGradient>
<linearGradient id="paint112_linear_283_779" x1="44.5" y1="21.4501" x2="44.5" y2="33.4501" gradientUnits="userSpaceOnUse">
<stop stop-color="#F4FAFF"/>
<stop offset="1" stop-color="white" stop-opacity="0"/>
</linearGradient>
</defs>
</svg>
