<svg width="21" height="24" viewBox="0 0 21 24" fill="none" xmlns="http://www.w3.org/2000/svg">
<mask id="mask0_283_2945" style="mask-type:alpha" maskUnits="userSpaceOnUse" x="-4" y="-3" width="29" height="29">
<rect x="-3.5" y="-2.33337" width="28" height="28" fill="#9997FC"/>
</mask>
<g mask="url(#mask0_283_2945)">
<path d="M10.5 14C10.1694 14 9.89256 13.888 9.66933 13.664C9.44533 13.4408 9.33333 13.1639 9.33333 12.8333C9.33333 12.5028 9.44533 12.2255 9.66933 12.0015C9.89256 11.7783 10.1694 11.6667 10.5 11.6667C10.8306 11.6667 11.1078 11.7783 11.3318 12.0015C11.5551 12.2255 11.6667 12.5028 11.6667 12.8333C11.6667 13.1639 11.5551 13.4408 11.3318 13.664C11.1078 13.888 10.8306 14 10.5 14ZM5.83333 14C5.50278 14 5.2255 13.888 5.0015 13.664C4.77828 13.4408 4.66667 13.1639 4.66667 12.8333C4.66667 12.5028 4.77828 12.2255 5.0015 12.0015C5.2255 11.7783 5.50278 11.6667 5.83333 11.6667C6.16389 11.6667 6.44117 11.7783 6.66517 12.0015C6.88839 12.2255 7 12.5028 7 12.8333C7 13.1639 6.88839 13.4408 6.66517 13.664C6.44117 13.888 6.16389 14 5.83333 14ZM15.1667 14C14.8361 14 14.5592 13.888 14.336 13.664C14.112 13.4408 14 13.1639 14 12.8333C14 12.5028 14.112 12.2255 14.336 12.0015C14.5592 11.7783 14.8361 11.6667 15.1667 11.6667C15.4972 11.6667 15.7741 11.7783 15.9973 12.0015C16.2213 12.2255 16.3333 12.5028 16.3333 12.8333C16.3333 13.1639 16.2213 13.4408 15.9973 13.664C15.7741 13.888 15.4972 14 15.1667 14ZM10.5 18.6667C10.1694 18.6667 9.89256 18.5547 9.66933 18.3307C9.44533 18.1074 9.33333 17.8306 9.33333 17.5C9.33333 17.1694 9.44533 16.8926 9.66933 16.6693C9.89256 16.4453 10.1694 16.3333 10.5 16.3333C10.8306 16.3333 11.1078 16.4453 11.3318 16.6693C11.5551 16.8926 11.6667 17.1694 11.6667 17.5C11.6667 17.8306 11.5551 18.1074 11.3318 18.3307C11.1078 18.5547 10.8306 18.6667 10.5 18.6667ZM5.83333 18.6667C5.50278 18.6667 5.2255 18.5547 5.0015 18.3307C4.77828 18.1074 4.66667 17.8306 4.66667 17.5C4.66667 17.1694 4.77828 16.8926 5.0015 16.6693C5.2255 16.4453 5.50278 16.3333 5.83333 16.3333C6.16389 16.3333 6.44117 16.4453 6.66517 16.6693C6.88839 16.8926 7 17.1694 7 17.5C7 17.8306 6.88839 18.1074 6.66517 18.3307C6.44117 18.5547 6.16389 18.6667 5.83333 18.6667ZM15.1667 18.6667C14.8361 18.6667 14.5592 18.5547 14.336 18.3307C14.112 18.1074 14 17.8306 14 17.5C14 17.1694 14.112 16.8926 14.336 16.6693C14.5592 16.4453 14.8361 16.3333 15.1667 16.3333C15.4972 16.3333 15.7741 16.4453 15.9973 16.6693C16.2213 16.8926 16.3333 17.1694 16.3333 17.5C16.3333 17.8306 16.2213 18.1074 15.9973 18.3307C15.7741 18.5547 15.4972 18.6667 15.1667 18.6667ZM2.33333 23.3333C1.69167 23.3333 1.14217 23.1051 0.684833 22.6485C0.228278 22.1912 0 21.6417 0 21V4.66667C0 4.025 0.228278 3.47589 0.684833 3.01933C1.14217 2.562 1.69167 2.33333 2.33333 2.33333H3.5V0H5.83333V2.33333H15.1667V0H17.5V2.33333H18.6667C19.3083 2.33333 19.8578 2.562 20.3152 3.01933C20.7717 3.47589 21 4.025 21 4.66667V21C21 21.6417 20.7717 22.1912 20.3152 22.6485C19.8578 23.1051 19.3083 23.3333 18.6667 23.3333H2.33333ZM2.33333 21H18.6667V9.33333H2.33333V21Z" fill="#9997FC"/>
</g>
</svg>
